<svg width="24" height="24" viewBox="0 0 24 24" fill="none" xmlns="http://www.w3.org/2000/svg">
<path d="M8.5 13.44C6 13.44 1 14.7 1 17.19V20H16V17.19C16 14.7 11 13.44 8.5 13.44Z" fill="black"/>
<path d="M8.5 12.5C9.24 12.5 9.97 12.28 10.58 11.87C11.2 11.46 11.68 10.87 11.96 10.19C12.24 9.5 12.32 8.75 12.17 8.02C12.03 7.29 11.67 6.62 11.14 6.1C10.62 5.58 9.95 5.22 9.22 5.07C8.49 4.93 7.74 5 7.05 5.28C6.36 5.56 5.78 6.04 5.37 6.66C4.96 7.28 4.74 8 4.74 8.74C4.74 9.73 5.14 10.69 5.84 11.39C6.54 12.09 7.5 12.49 8.49 12.49L8.5 12.5Z" fill="black"/>
<path d="M15.33 11L18 6.33H16.67L18 3H14V7.67H15.33V11Z" fill="black"/>
<path d="M23.46 7L20 5L17.67 9.04L18.82 9.71L17.15 12.59L21.8 9.89L20.64 9.22L23.46 7Z" fill="black"/>
</svg>
