<svg width="24" height="24" viewBox="0 0 24 24" fill="none" xmlns="http://www.w3.org/2000/svg">
<path d="M2.00201 19.0059C1.73649 19.0035 1.48255 18.8973 1.29535 18.709C1.10815 18.5207 1.00279 18.2655 1.00201 18V6C1.00201 5.73478 1.10732 5.48051 1.29486 5.29297C1.4824 5.10543 1.7368 5 2.00201 5H22.002C22.2672 5 22.5216 5.10543 22.7092 5.29297C22.8967 5.48051 23.002 5.73478 23.002 6V18C23.0028 18.1318 22.9776 18.2627 22.9277 18.3848C22.8778 18.5068 22.8042 18.6174 22.7112 18.7109C22.6183 18.8044 22.5078 18.8791 22.386 18.9297C22.2643 18.9803 22.1338 19.0059 22.002 19.0059H2.00201ZM2.00201 18H22.002V6H2.00201V18ZM18.002 17V7H21.002V17H18.002ZM7.00201 17V7H17.002V17H7.00201ZM3.00201 17V7H6.00201V17H3.00201Z" fill="black"/>
</svg>
