<svg width="16" height="16" viewBox="0 0 16 16" fill="none" xmlns="http://www.w3.org/2000/svg">
<g id="ico_0094_book">
<path id="Vector" d="M11.9998 1.33337H3.99984C3.64654 1.33443 3.30801 1.47524 3.05819 1.72506C2.80837 1.97488 2.66756 2.31341 2.6665 2.66671V13.3334C2.66756 13.6867 2.80837 14.0252 3.05819 14.275C3.30801 14.5248 3.64654 14.6657 3.99984 14.6667H11.9998C12.3531 14.6657 12.6917 14.5248 12.9415 14.275C13.1913 14.0252 13.3321 13.6867 13.3332 13.3334V2.66671C13.3321 2.31341 13.1913 1.97488 12.9415 1.72506C12.6917 1.47524 12.3531 1.33443 11.9998 1.33337ZM3.99984 2.66671H7.33317V8.00004L5.6665 7.00004L3.99984 8.00004V2.66671Z" fill="#808080"/>
</g>
</svg>
