<svg width="24" height="24" viewBox="0 0 24 24" fill="none" xmlns="http://www.w3.org/2000/svg">
<path d="M2 11.9999C2 10.0221 2.58673 8.08878 3.68555 6.44429C4.78436 4.79979 6.34559 3.51757 8.17285 2.76069C10.0001 2.00382 12.0114 1.80648 13.9512 2.19233C15.891 2.57818 17.6728 3.53014 19.0713 4.92866C20.4698 6.32719 21.4218 8.10897 21.8076 10.0488C22.1935 11.9886 21.9961 13.9998 21.2393 15.8271C20.4824 17.6544 19.2002 19.2156 17.5557 20.3144C15.9112 21.4132 13.9778 22 12 22C9.34784 22 6.80407 20.9466 4.92871 19.0712C3.05335 17.1959 2 14.6521 2 11.9999ZM4 11.9999C4 13.5822 4.46958 15.1287 5.34863 16.4443C6.22768 17.7599 7.47667 18.7851 8.93848 19.3906C10.4003 19.9961 12.0087 20.1553 13.5605 19.8466C15.1124 19.5379 16.5384 18.776 17.6572 17.6572C18.776 16.5384 19.538 15.1123 19.8467 13.5605C20.1554 12.0086 19.9961 10.4002 19.3906 8.93843C18.7851 7.47662 17.7599 6.22763 16.4443 5.34858C15.1287 4.46953 13.5823 3.99995 12 3.99995C9.879 4.00233 7.84548 4.84588 6.3457 6.34565C4.84593 7.84543 4.00238 9.87895 4 11.9999ZM13.3516 16.4999C13.2926 16.5003 13.2342 16.4891 13.1797 16.4667C13.1252 16.4444 13.0759 16.4117 13.0342 16.3701C12.9925 16.3284 12.9599 16.2781 12.9375 16.2236C12.9151 16.169 12.9039 16.1107 12.9043 16.0517V7.9521C12.9039 7.89301 12.9152 7.83395 12.9375 7.77925C12.9598 7.72455 12.9925 7.67468 13.0342 7.63276C13.0758 7.59084 13.1251 7.55781 13.1797 7.53511C13.2342 7.5124 13.2925 7.50092 13.3516 7.50093H16.0518C16.1108 7.50106 16.1692 7.51332 16.2236 7.53608C16.2781 7.55884 16.3276 7.59183 16.3691 7.63374C16.4107 7.67564 16.4435 7.72559 16.4658 7.78022C16.4881 7.83486 16.4994 7.8931 16.499 7.9521V16.0517C16.4994 16.1106 16.4881 16.1691 16.4658 16.2236C16.4435 16.2781 16.4107 16.3274 16.3691 16.3691C16.3276 16.4108 16.2781 16.4443 16.2236 16.4667C16.1692 16.4892 16.1106 16.5002 16.0518 16.4999H13.3516ZM7.95215 16.4999C7.89298 16.5005 7.83411 16.489 7.7793 16.4667C7.72448 16.4445 7.67484 16.4117 7.63281 16.3701C7.59079 16.3284 7.55694 16.2792 7.53418 16.2246C7.51142 16.1699 7.5 16.1109 7.5 16.0517V7.9521C7.50026 7.83239 7.54807 7.71731 7.63281 7.63276C7.71755 7.54821 7.83244 7.50093 7.95215 7.50093H10.6523C10.7113 7.50106 10.7698 7.51332 10.8242 7.53608C10.8787 7.55884 10.9272 7.59183 10.9688 7.63374C11.0103 7.67564 11.0432 7.72559 11.0654 7.78022C11.0877 7.83486 11.099 7.8931 11.0986 7.9521V16.0517C11.099 16.1106 11.0877 16.1691 11.0654 16.2236C11.0431 16.2781 11.0103 16.3274 10.9688 16.3691C10.9272 16.4108 10.8777 16.4443 10.8232 16.4667C10.7688 16.4892 10.7112 16.5002 10.6523 16.4999H7.95215Z" fill="black"/>
</svg>
