<svg width="24" height="24" viewBox="0 0 24 24" fill="none" xmlns="http://www.w3.org/2000/svg">
<path d="M9.64 7.64C9.87765 7.12596 10.0005 6.56632 10 6C10 5.20888 9.76541 4.43552 9.32588 3.77772C8.88635 3.11992 8.26164 2.60723 7.53074 2.30448C6.79983 2.00173 5.99556 1.92252 5.21964 2.07686C4.44372 2.2312 3.73098 2.61216 3.17157 3.17157C2.61216 3.73098 2.2312 4.44372 2.07686 5.21964C1.92252 5.99556 2.00173 6.79983 2.30448 7.53074C2.60723 8.26164 3.11992 8.88635 3.77772 9.32588C4.43552 9.76541 5.20888 10 6 10C6.56632 10.0005 7.12596 9.87765 7.64 9.64L10 12L7.64 14.36C7.12596 14.1224 6.56632 13.9995 6 14C5.20888 14 4.43552 14.2346 3.77772 14.6741C3.11992 15.1136 2.60723 15.7384 2.30448 16.4693C2.00173 17.2002 1.92252 18.0044 2.07686 18.7804C2.2312 19.5563 2.61216 20.269 3.17157 20.8284C3.73098 21.3878 4.44372 21.7688 5.21964 21.9231C5.99556 22.0775 6.79983 21.9983 7.53074 21.6955C8.26164 21.3928 8.88635 20.8801 9.32588 20.2223C9.76541 19.5645 10 18.7911 10 18C10.0005 17.4337 9.87765 16.874 9.64 16.36L12 14L19 21H22V20L9.64 7.64ZM6 8C5.60444 8 5.21776 7.8827 4.88886 7.66294C4.55996 7.44318 4.30362 7.13082 4.15224 6.76537C4.00087 6.39992 3.96126 5.99778 4.03843 5.60982C4.1156 5.22186 4.30608 4.86549 4.58579 4.58579C4.86549 4.30608 5.22186 4.1156 5.60982 4.03843C5.99778 3.96126 6.39992 4.00087 6.76537 4.15224C7.13082 4.30362 7.44318 4.55996 7.66294 4.88886C7.8827 5.21776 8 5.60444 8 6C8 6.53044 7.78929 7.03914 7.41422 7.41422C7.03914 7.78929 6.53044 8 6 8ZM6 20C5.60444 20 5.21776 19.8827 4.88886 19.6629C4.55996 19.4432 4.30362 19.1308 4.15224 18.7654C4.00087 18.3999 3.96126 17.9978 4.03843 17.6098C4.1156 17.2219 4.30608 16.8655 4.58579 16.5858C4.86549 16.3061 5.22186 16.1156 5.60982 16.0384C5.99778 15.9613 6.39992 16.0009 6.76537 16.1522C7.13082 16.3036 7.44318 16.56 7.66294 16.8889C7.8827 17.2178 8 17.6044 8 18C8 18.5304 7.78929 19.0391 7.41422 19.4142C7.03914 19.7893 6.53044 20 6 20ZM12 12.5C11.9011 12.5 11.8044 12.4707 11.7222 12.4157C11.64 12.3608 11.5759 12.2827 11.5381 12.1913C11.5002 12.1 11.4903 11.9994 11.5096 11.9025C11.5289 11.8055 11.5765 11.7164 11.6464 11.6464C11.7164 11.5765 11.8055 11.5289 11.9025 11.5096C11.9994 11.4903 12.1 11.5002 12.1913 11.5381C12.2827 11.5759 12.3608 11.64 12.4157 11.7222C12.4707 11.8044 12.5 11.9011 12.5 12C12.5 12.1326 12.4473 12.2598 12.3536 12.3536C12.2598 12.4473 12.1326 12.5 12 12.5ZM19 3L13 9L15 11L22 4V3H19Z" fill="black"/>
</svg>
