<svg width="24" height="24" viewBox="0 0 24 24" fill="none" xmlns="http://www.w3.org/2000/svg">
<path d="M3 8.99998V15H7L12 20V3.99998L7 8.99998H3ZM16.5 12C16.4998 11.1621 16.2657 10.3409 15.824 9.62892C15.3823 8.91692 14.7506 8.34237 14 7.96998V16.02C14.751 15.6508 15.3833 15.0783 15.8252 14.3677C16.2672 13.6571 16.5009 12.8368 16.5 12ZM14 3.22998V5.28998C15.446 5.71969 16.7146 6.60504 17.6166 7.81416C18.5187 9.02327 19.006 10.4914 19.006 12C19.006 13.5085 18.5187 14.9767 17.6166 16.1858C16.7146 17.3949 15.446 18.2803 14 18.71V20.77C15.9879 20.3178 17.7632 19.2037 19.0349 17.6103C20.3066 16.0169 20.9992 14.0387 20.9992 12C20.9992 9.9613 20.3066 7.9831 19.0349 6.38968C17.7632 4.79625 15.9879 3.68214 14 3.22998Z" fill="black"/>
</svg>
