<svg width="24" height="24" viewBox="0 0 24 24" fill="none" xmlns="http://www.w3.org/2000/svg">
<path d="M3.5 12C3.50079 11.1378 3.8433 10.3111 4.45247 9.70101C5.06165 9.09089 5.88783 8.74712 6.75 8.745H10.95V6.75H6.75C5.35761 6.75 4.02226 7.30312 3.03769 8.28769C2.05312 9.27226 1.5 10.6076 1.5 12C1.5 13.3924 2.05312 14.7277 3.03769 15.7123C4.02226 16.6969 5.35761 17.25 6.75 17.25H10.95V15.255H6.75C5.88783 15.2529 5.06165 14.9091 4.45247 14.299C3.8433 13.6889 3.50079 12.8622 3.5 12ZM7.8 13.05H16.2V10.95H7.8V13.05ZM17.25 6.75H13.05V8.745H17.25C18.1133 8.745 18.9412 9.08794 19.5516 9.69837C20.1621 10.3088 20.505 11.1367 20.505 12C20.505 12.8633 20.1621 13.6912 19.5516 14.3016C18.9412 14.9121 18.1133 15.255 17.25 15.255H13.05V17.25H17.25C18.6424 17.25 19.9777 16.6969 20.9623 15.7123C21.9469 14.7277 22.5 13.3924 22.5 12C22.5 10.6076 21.9469 9.27226 20.9623 8.28769C19.9777 7.30312 18.6424 6.75 17.25 6.75Z" fill="black"/>
</svg>
