<svg width="24" height="24" viewBox="0 0 24 24" fill="none" xmlns="http://www.w3.org/2000/svg">
<path d="M14.5137 19C15.4939 16.7965 16.001 14.4117 16.001 12C16.001 9.5883 15.4939 7.20349 14.5137 5H20.001C20.2662 5 20.5205 5.10543 20.708 5.29297C20.8955 5.48051 21.001 5.73478 21.001 6V18C21.001 18.2652 20.8955 18.5195 20.708 18.707C20.5205 18.8946 20.2662 19 20.001 19H14.5137ZM4.00293 19C3.73771 19 3.48343 18.8946 3.2959 18.707C3.10836 18.5195 3.00293 18.2652 3.00293 18V6C3.00293 5.73478 3.10836 5.48051 3.2959 5.29297C3.48343 5.10543 3.73771 5 4.00293 5H9.48535C8.50449 7.20333 7.99707 9.5882 7.99707 12C7.99707 14.4118 8.50449 16.7967 9.48535 19H4.00293Z" fill="black"/>
</svg>
