<svg width="24" height="24" viewBox="0 0 24 24" fill="none" xmlns="http://www.w3.org/2000/svg">
<path d="M11.9999 22C10.0221 22 8.08878 21.4132 6.44429 20.3144C4.79979 19.2156 3.51757 17.6544 2.76069 15.8271C2.00382 13.9998 1.80648 11.9886 2.19233 10.0488C2.57818 8.10897 3.53014 6.32719 4.92866 4.92866C6.32719 3.53014 8.10897 2.57818 10.0488 2.19233C11.9886 1.80648 13.9998 2.00382 15.8271 2.76069C17.6544 3.51757 19.2156 4.79979 20.3144 6.44429C21.4132 8.08878 22 10.0221 22 11.9999C21.9968 14.6511 20.942 17.1927 19.0673 19.0673C17.1927 20.942 14.6511 21.9968 11.9999 22ZM10.9999 9.99995C10.7347 9.99995 10.4805 10.1054 10.2929 10.2929C10.1054 10.4805 9.99995 10.7347 9.99995 10.9999V16.9999C9.99995 17.2652 10.1054 17.5194 10.2929 17.707C10.4805 17.8945 10.7347 17.9999 10.9999 17.9999H12.9999C13.2652 17.9999 13.5194 17.8945 13.707 17.707C13.8945 17.5194 13.9999 17.2652 13.9999 16.9999V10.9999C13.9999 10.7347 13.8945 10.4805 13.707 10.2929C13.5194 10.1054 13.2652 9.99995 12.9999 9.99995H10.9999ZM11.9999 4.99995C11.6044 4.99995 11.2175 5.1171 10.8886 5.33686C10.5597 5.55663 10.3037 5.86887 10.1523 6.23432C10.0009 6.59978 9.96087 7.00261 10.038 7.39057C10.1152 7.77854 10.3062 8.13431 10.5859 8.41401C10.8656 8.69372 11.2214 8.88469 11.6093 8.96186C11.9973 9.03903 12.4001 8.99898 12.7656 8.84761C13.131 8.69623 13.4433 8.44018 13.663 8.11128C13.8828 7.78238 13.9999 7.39551 13.9999 6.99995C13.9999 6.46952 13.7891 5.96096 13.414 5.58589C13.0389 5.21081 12.5304 4.99995 11.9999 4.99995Z" fill="black"/>
</svg>
