<svg width="24" height="24" viewBox="0 0 24 24" fill="none" xmlns="http://www.w3.org/2000/svg">
<path d="M22 9V15C21.9984 15.5299 21.7872 16.0377 21.4125 16.4125C21.0377 16.7872 20.5299 16.9984 20 17H19V15H20V9H4V15H10V17H4C3.47005 16.9984 2.96227 16.7872 2.58753 16.4125C2.2128 16.0377 2.00158 15.5299 2 15V9C2.00158 8.47005 2.2128 7.96227 2.58753 7.58753C2.96227 7.2128 3.47005 7.00158 4 7H20C20.5299 7.00158 21.0377 7.2128 21.4125 7.58753C21.7872 7.96227 21.9984 8.47005 22 9ZM14.5 19L15.59 16.59L18 15.5L15.59 14.41L14.5 12L13.41 14.41L11 15.5L13.41 16.59L14.5 19ZM17 14L17.62 12.62L19 12L17.62 11.38L17 10L16.38 11.38L15 12L16.38 12.62L17 14ZM14.5 19L15.59 16.59L18 15.5L15.59 14.41L14.5 12L13.41 14.41L11 15.5L13.41 16.59L14.5 19ZM17 14L17.62 12.62L19 12L17.62 11.38L17 10L16.38 11.38L15 12L16.38 12.62L17 14Z" fill="black"/>
</svg>
