<svg width="24" height="24" viewBox="0 0 24 24" fill="none" xmlns="http://www.w3.org/2000/svg">
<path d="M15 2H5C4.47005 2.00158 3.96227 2.2128 3.58753 2.58753C3.2128 2.96227 3.00158 3.47005 3 4V16H5V4H15V2ZM14 6L20 12V20C19.9984 20.5299 19.7872 21.0377 19.4125 21.4125C19.0377 21.7872 18.5299 21.9984 18 22H8.99C8.4613 21.9974 7.95516 21.7855 7.58225 21.4107C7.20933 21.0359 6.99999 20.5287 7 20L7.01 8C7.00999 7.4713 7.21933 6.9641 7.59225 6.58931C7.96516 6.21452 8.4713 6.00264 9 6H14ZM13 13H18.5L13 7.5V13Z" fill="black"/>
</svg>
