<svg width="24" height="24" viewBox="0 0 24 24" fill="none" xmlns="http://www.w3.org/2000/svg">
<path d="M18.738 9.6629C18.495 8.24339 17.8091 6.93717 16.7784 5.93134C15.7477 4.9255 14.4252 4.27163 13.0002 4.0634C11.5751 3.85516 10.1208 4.10324 8.84537 4.77209C7.56997 5.44094 6.53894 6.49626 5.89997 7.7869C4.49303 7.97082 3.20738 8.67911 2.30017 9.77011C1.39296 10.8611 0.931074 12.2544 1.00689 13.6713C1.08271 15.0882 1.69064 16.4242 2.70909 17.4122C3.72755 18.4001 5.08144 18.9672 6.49997 18.9999H18.417C19.614 18.9768 20.7565 18.4956 21.6094 17.6554C22.4623 16.8152 22.9607 15.68 23.0018 14.4835C23.0429 13.287 22.6238 12.1202 21.8306 11.2235C21.0374 10.3267 19.9306 9.76819 18.738 9.6629ZM13.838 12.4379V16.1879H10.167V12.4379H7.41697L12 7.7499L16.583 12.4379H13.838Z" fill="black"/>
</svg>
