<svg width="12" height="12" viewBox="0 0 12 12" fill="none" xmlns="http://www.w3.org/2000/svg">
<g id="ico_0085_chat_simulation">
<path id="Vector" d="M9.74414 10.6641C9.69004 10.6633 9.63631 10.6526 9.58594 10.6328L7.3584 9.67627C6.91495 9.78045 6.4609 9.83321 6.00537 9.83301H6C3.243 9.83301 1 7.96448 1 5.66748C1 3.37048 3.243 1.5 6 1.5C8.757 1.5 11 3.36948 11 5.66748C10.9923 6.20447 10.8709 6.73368 10.6436 7.22021C10.4162 7.70675 10.0881 8.1398 9.68115 8.49023L10.1499 10.1367C10.1667 10.1989 10.1688 10.2639 10.1562 10.3271C10.1437 10.3904 10.1169 10.4499 10.0776 10.501C10.0384 10.5521 9.98754 10.5932 9.92969 10.6216C9.87183 10.65 9.80858 10.6648 9.74414 10.6646V10.6641ZM4.74951 3.59961V7.59961L8.24951 5.59961L4.74951 3.59961Z" fill="#808080"/>
</g>
</svg>
