<svg width="24" height="24" viewBox="0 0 24 24" fill="none" xmlns="http://www.w3.org/2000/svg">
<path d="M21.64 2.33C21.41 2.12 21.1 2 20.77 2H15.23C14.9 2 14.59 2.12 14.36 2.33C14.13 2.54 14 2.83 14 3.12V8.72C14 8.77 14.02 8.82 14.05 8.87C14.08 8.91 14.13 8.95 14.18 8.97C14.22 8.99 14.26 9 14.31 8.99C14.38 8.99 14.45 8.97 14.51 8.93L16.27 7.59H20.78C21.11 7.59 21.42 7.47 21.65 7.26C21.88 7.05 22.01 6.77 22.01 6.47V3.12C22.01 2.82 21.88 2.54 21.65 2.33H21.64ZM19.5 6.2H15.5V5.2H19.5V6.2ZM20.5 4.2H15.5V3.2H20.5V4.2Z" fill="black"/>
<path d="M8 8C9.65685 8 11 6.65685 11 5C11 3.34315 9.65685 2 8 2C6.34315 2 5 3.34315 5 5C5 6.65685 6.34315 8 8 8Z" fill="black"/>
<path d="M11 9.49C9.94 9.16 8.81 9 8 9C7.19 9 6.06 9.16 5 9.49V12H11V9.49Z" fill="black"/>
<path d="M12 9.86V18H4V9.86C2.87 10.36 2 11.07 2 12V22.5H4V19H12V22.5H14V12C14 11.07 13.13 10.35 12 9.86Z" fill="black"/>
</svg>
