<svg width="24" height="24" viewBox="0 0 24 24" fill="none" xmlns="http://www.w3.org/2000/svg">
<path d="M22 4.00001H20C19.7348 4.00001 19.4804 4.10536 19.2929 4.2929C19.1054 4.48044 19 4.73479 19 5.00001V14C19 14.2652 19.1054 14.5196 19.2929 14.7071C19.4804 14.8947 19.7348 15 20 15H22V4.00001ZM2.17 11.12C2.05828 11.3719 2.00037 11.6444 2 11.92V13C2.00158 13.53 2.2128 14.0377 2.58753 14.4125C2.96227 14.7872 3.47005 14.9984 4 15H9.5L8.58 19.65C8.53061 19.8727 8.55884 20.1056 8.66 20.31C8.88739 20.7604 9.18437 21.1721 9.54 21.53L10 22L16.41 15.59C16.5969 15.4038 16.7452 15.1825 16.8465 14.9388C16.9477 14.6951 16.9999 14.4339 17 14.17V6.34001C16.9992 5.71965 16.7524 5.12492 16.3138 4.68625C15.8751 4.24759 15.2804 4.0008 14.66 4.00001H6.56C6.21388 3.99904 5.87343 4.08791 5.57194 4.25793C5.27045 4.42796 5.01825 4.67331 4.84 4.97001L2.17 11.12Z" fill="black"/>
</svg>
