<svg width="24" height="24" viewBox="0 0 24 24" fill="none" xmlns="http://www.w3.org/2000/svg">
<path d="M12.001 5V1L7.00101 6L12.001 11V7C13.1877 7 14.3477 7.35189 15.3344 8.01118C16.3211 8.67047 17.0902 9.60754 17.5443 10.7039C17.9984 11.8003 18.1172 13.0067 17.8857 14.1705C17.6542 15.3344 17.0828 16.4035 16.2436 17.2426C15.4045 18.0818 14.3354 18.6532 13.1715 18.8847C12.0077 19.1162 10.8013 18.9974 9.70491 18.5433C8.60855 18.0892 7.67148 17.3201 7.01219 16.3334C6.3529 15.3467 6.00101 14.1867 6.00101 13H4.00101C4.00101 14.5823 4.4702 16.129 5.34925 17.4446C6.2283 18.7602 7.47773 19.7855 8.93954 20.391C10.4013 20.9965 12.0099 21.155 13.5617 20.8463C15.1136 20.5376 16.539 19.7757 17.6579 18.6569C18.7767 17.538 19.5386 16.1126 19.8473 14.5607C20.156 13.0089 19.9975 11.4003 19.392 9.93853C18.7865 8.47672 17.7612 7.22729 16.4456 6.34824C15.13 5.46919 13.5833 5 12.001 5Z" fill="black"/>
</svg>
