<svg width="24" height="24" viewBox="0 0 24 24" fill="none" xmlns="http://www.w3.org/2000/svg">
<path d="M21.167 4H2.833C2.34734 4.00158 1.88203 4.19521 1.53862 4.53862C1.19521 4.88203 1.00158 5.34735 1 5.833V18.667C1.00158 19.1527 1.19521 19.618 1.53862 19.9614C1.88203 20.3048 2.34734 20.4984 2.833 20.5H21.167C21.6517 20.4981 22.116 20.3041 22.4579 19.9605C22.7998 19.6169 22.9915 19.1517 22.991 18.667L23 5.833C22.9984 5.34735 22.8048 4.88203 22.4614 4.53862C22.118 4.19521 21.6527 4.00158 21.167 4ZM8.333 6.75C8.8769 6.75 9.40858 6.91128 9.86082 7.21346C10.3131 7.51563 10.6655 7.94512 10.8737 8.44762C11.0818 8.95012 11.1363 9.50305 11.0302 10.0365C10.9241 10.5699 10.6621 11.0599 10.2775 11.4445C9.89295 11.8291 9.40295 12.0911 8.8695 12.1972C8.33605 12.3033 7.78312 12.2488 7.28062 12.0407C6.77812 11.8325 6.34863 11.4801 6.04646 11.0278C5.74428 10.5756 5.583 10.0439 5.583 9.5C5.58247 9.13872 5.65324 8.78088 5.79126 8.447C5.92927 8.11311 6.13182 7.80975 6.38728 7.55428C6.64275 7.29882 6.94611 7.09627 7.28 6.95826C7.61388 6.82024 7.97172 6.74947 8.333 6.75ZM13.833 17.75H2.833V16.833C2.833 15 6.5 13.991 8.333 13.991C10.166 13.991 13.833 14.999 13.833 16.833V17.75ZM17.362 14.083H18.862L20.246 15.916L18.422 17.74C17.2086 16.8296 16.3298 15.5441 15.922 14.083C15.5797 12.8846 15.5797 11.6144 15.922 10.416C16.3274 8.95378 17.2067 7.66751 18.422 6.759L20.25 8.583L18.866 10.417H17.366C16.9383 11.6019 16.9383 12.8991 17.366 14.084L17.362 14.083Z" fill="black"/>
</svg>
