<svg width="24" height="24" viewBox="0 0 24 24" fill="none" xmlns="http://www.w3.org/2000/svg">
<path d="M2 11.9999C2 10.0221 2.58673 8.08878 3.68555 6.44429C4.78436 4.79979 6.34559 3.51757 8.17285 2.76069C10.0001 2.00382 12.0114 1.80648 13.9512 2.19233C15.891 2.57818 17.6728 3.53014 19.0713 4.92866C20.4698 6.32719 21.4218 8.10897 21.8076 10.0488C22.1935 11.9886 21.9961 13.9998 21.2393 15.8271C20.4824 17.6544 19.2002 19.2156 17.5557 20.3144C15.9112 21.4132 13.9778 22 12 22C9.34784 22 6.80407 20.9466 4.92871 19.0712C3.05335 17.1959 2 14.6521 2 11.9999ZM4 11.9999C4 13.5822 4.46958 15.1287 5.34863 16.4443C6.22768 17.7599 7.47667 18.7851 8.93848 19.3906C10.4003 19.9961 12.0087 20.1553 13.5605 19.8466C15.1124 19.5379 16.5384 18.776 17.6572 17.6572C18.776 16.5384 19.538 15.1123 19.8467 13.5605C20.1554 12.0086 19.9961 10.4002 19.3906 8.93843C18.7851 7.47662 17.7599 6.22763 16.4443 5.34858C15.1287 4.46953 13.5823 3.99995 12 3.99995C9.87908 4.0026 7.84542 4.84593 6.3457 6.34565C4.84599 7.84537 4.00265 9.87903 4 11.9999ZM8.5 15.9999C8.36739 15.9999 8.24025 15.9472 8.14648 15.8535C8.05272 15.7597 8 15.6326 8 15.4999V8.49995C8 8.36734 8.05272 8.2402 8.14648 8.14643C8.24025 8.05267 8.36739 7.99995 8.5 7.99995H15.5C15.6326 7.99995 15.7597 8.05267 15.8535 8.14643C15.9473 8.2402 16 8.36734 16 8.49995V15.4999C16 15.6326 15.9473 15.7597 15.8535 15.8535C15.7597 15.9472 15.6326 15.9999 15.5 15.9999H8.5Z" fill="black"/>
</svg>
