<svg width="24" height="24" viewBox="0 0 24 24" fill="none" xmlns="http://www.w3.org/2000/svg">
<path d="M20 22H4C3.73478 22 3.48051 21.8946 3.29297 21.707C3.10543 21.5195 3 21.2652 3 21V3C3 2.73478 3.10543 2.48051 3.29297 2.29297C3.48051 2.10543 3.73478 2 4 2H20C20.2652 2 20.5195 2.10543 20.707 2.29297C20.8946 2.48051 21 2.73478 21 3V21C21 21.2652 20.8946 21.5195 20.707 21.707C20.5195 21.8946 20.2652 22 20 22ZM10.2529 15C10.1862 15.0008 10.123 15.0276 10.0762 15.0752C10.0293 15.1228 10.0027 15.1872 10.0029 15.2539V16.7539C10.0032 16.82 10.0293 16.883 10.0762 16.9297C10.123 16.9764 10.1868 17.0029 10.2529 17.0029H17.7529C17.786 17.0036 17.8189 16.9976 17.8496 16.9854C17.8803 16.9731 17.9081 16.9548 17.9316 16.9316C17.9552 16.9084 17.9746 16.8811 17.9873 16.8506C18 16.8201 18.006 16.787 18.0059 16.7539V15.2539C18.0059 15.1867 17.9791 15.1228 17.9316 15.0752C17.8842 15.0276 17.8201 15.0003 17.7529 15H10.2529ZM6.25293 15C6.18618 15.0008 6.123 15.0276 6.07617 15.0752C6.02934 15.1228 6.00266 15.1872 6.00293 15.2539V16.7539C6.00319 16.82 6.02932 16.883 6.07617 16.9297C6.12303 16.9764 6.1868 17.0029 6.25293 17.0029H7.75293C7.81897 17.0029 7.88201 16.9764 7.92871 16.9297C7.97541 16.883 8.00195 16.8199 8.00195 16.7539V15.2539C8.00249 15.1872 7.97636 15.1228 7.92969 15.0752C7.88302 15.0276 7.81959 15.0008 7.75293 15H6.25293ZM10.2529 11C10.1866 11 10.1231 11.0264 10.0762 11.0732C10.0293 11.1201 10.0029 11.1837 10.0029 11.25V12.75C10.004 12.8159 10.0305 12.8783 10.0771 12.9248C10.1238 12.9713 10.187 12.9983 10.2529 12.999H17.7529C17.7859 12.9993 17.8191 12.9928 17.8496 12.9805C17.8802 12.9681 17.9072 12.9499 17.9307 12.9268C17.9542 12.9036 17.9735 12.8761 17.9863 12.8457C17.9992 12.8154 18.0056 12.783 18.0059 12.75V11.25C18.006 11.2169 18 11.1839 17.9873 11.1533C17.9746 11.1227 17.9552 11.0955 17.9316 11.0723C17.9081 11.049 17.8803 11.0299 17.8496 11.0176C17.8189 11.0052 17.786 10.9995 17.7529 11H10.2529ZM6.25293 11C6.18663 11 6.12306 11.0264 6.07617 11.0732C6.02929 11.1201 6.00293 11.1837 6.00293 11.25V12.75C6.00397 12.8159 6.03046 12.8783 6.07715 12.9248C6.12384 12.9713 6.18704 12.9983 6.25293 12.999H7.75293C7.81865 12.998 7.88126 12.9713 7.92773 12.9248C7.97421 12.8783 8.00092 12.8157 8.00195 12.75V11.25C8.00195 11.1839 7.97538 11.1201 7.92871 11.0732C7.88204 11.0264 7.81906 11.0003 7.75293 11H6.25293ZM10.2529 7C10.1868 7 10.123 7.02657 10.0762 7.07324C10.0293 7.11991 10.0032 7.18289 10.0029 7.24902V8.74902C10.0023 8.78223 10.0082 8.81485 10.0205 8.8457C10.0328 8.87656 10.0509 8.90504 10.0742 8.92871C10.0975 8.95238 10.1256 8.97063 10.1562 8.9834C10.1869 8.99616 10.2197 9.00307 10.2529 9.00293H17.7529C17.7863 9.0032 17.8197 8.99706 17.8506 8.98438C17.8815 8.97169 17.9091 8.95236 17.9326 8.92871C17.9562 8.90506 17.9747 8.87761 17.9873 8.84668C17.9999 8.81575 18.0063 8.78241 18.0059 8.74902V7.24902C18.006 7.21595 18 7.18288 17.9873 7.15234C17.9746 7.12181 17.9552 7.09449 17.9316 7.07129C17.9081 7.04809 17.8803 7.02981 17.8496 7.01758C17.8189 7.00535 17.786 6.99933 17.7529 7H10.2529ZM6.25293 7C6.1868 7 6.12303 7.02657 6.07617 7.07324C6.02932 7.11991 6.00319 7.18289 6.00293 7.24902V8.74902C6.00226 8.78223 6.00823 8.81485 6.02051 8.8457C6.03278 8.87656 6.05092 8.90504 6.07422 8.92871C6.09751 8.95238 6.12559 8.97063 6.15625 8.9834C6.18691 8.99616 6.21972 9.00307 6.25293 9.00293H7.75293C7.78605 9.00294 7.81907 8.99622 7.84961 8.9834C7.88015 8.97057 7.90748 8.95236 7.93066 8.92871C7.95385 8.90506 7.97216 8.87649 7.98438 8.8457C7.99659 8.81491 8.00262 8.78214 8.00195 8.74902V7.24902C8.00195 7.18298 7.97541 7.11994 7.92871 7.07324C7.88201 7.02655 7.81897 7 7.75293 7H6.25293Z" fill="black"/>
</svg>
