<svg width="24" height="24" viewBox="0 0 24 24" fill="none" xmlns="http://www.w3.org/2000/svg">
<path d="M19.4582 21.2301L14.9992 16.775C14.9743 16.7541 14.952 16.7296 14.9338 16.7028C13.3896 17.8082 11.4866 18.2942 9.60175 18.0621C7.71692 17.8301 5.9879 16.8978 4.758 15.4508C3.5281 14.0038 2.88742 12.1472 2.9621 10.2496C3.03678 8.35205 3.82151 6.55255 5.16132 5.20668C6.50113 3.86081 8.29826 3.06726 10.1955 2.98402C12.0927 2.90078 13.952 3.5341 15.4045 4.75746C16.857 5.98082 17.7967 7.70377 18.0373 9.58754C18.2779 11.4713 17.8018 13.3782 16.7033 14.9274C16.7324 14.9501 16.7592 14.9738 16.7834 15.0016L21.2316 19.4469C21.4073 19.6233 21.5269 19.8492 21.5754 20.0934C21.6239 20.3376 21.599 20.5898 21.5041 20.82C21.4092 21.0501 21.2487 21.2473 21.0422 21.3864C20.8357 21.5254 20.5929 21.5998 20.3439 21.6012C20.1791 21.601 20.0156 21.5692 19.8635 21.5055C19.7114 21.4418 19.574 21.3475 19.4582 21.2301ZM6.98456 6.98598C6.16231 7.80969 5.65153 8.89403 5.53827 10.0524C5.42502 11.2107 5.71634 12.3721 6.36347 13.3395C7.0106 14.3069 7.97323 15.0196 9.0871 15.3571C10.201 15.6945 11.3976 15.6366 12.4728 15.1911C13.548 14.7455 14.4359 13.9402 14.9846 12.9137C15.5332 11.8873 15.7085 10.7017 15.4816 9.56019C15.2548 8.41864 14.6398 7.39066 13.7404 6.65199C12.841 5.91332 11.7129 5.51003 10.549 5.50941C9.21267 5.51072 7.93089 6.04144 6.98554 6.98598H6.98456Z" fill="black"/>
</svg>
