<svg width="24" height="24" viewBox="0 0 24 24" fill="none" xmlns="http://www.w3.org/2000/svg">
<path d="M19 23H4.99219C4.46314 22.9979 3.95538 22.786 3.58203 22.4111C3.20869 22.0363 3 21.529 3 21L3.01172 3C3.01171 2.4713 3.22084 1.96365 3.59375 1.58887C3.96666 1.21408 4.47325 1.00264 5.00195 1H15.002L21.002 7V21C21.002 21.2628 20.9502 21.5228 20.8496 21.7656C20.749 22.0084 20.6019 22.2293 20.416 22.415C20.2301 22.6008 20.0085 22.7482 19.7656 22.8486C19.5227 22.949 19.2628 23.0003 19 23ZM17.3652 17.6123L14.3789 17.6367C14.0635 18.8089 13.5321 19.912 12.8125 20.8896C13.7811 20.7553 14.7027 20.3861 15.4961 19.8145C16.2895 19.2428 16.9312 18.4866 17.3652 17.6104V17.6123ZM9.46484 17.6709L6.66406 17.6924C7.09476 18.5195 7.71122 19.2349 8.46484 19.7842C9.21846 20.3334 10.0905 20.7016 11.0098 20.8584C10.3118 19.8955 9.79004 18.816 9.46875 17.6709H9.46484ZM13.4531 17.6465L10.3965 17.6709C10.7161 18.7347 11.2339 19.7284 11.9219 20.6006C12.6049 19.7137 13.1242 18.7124 13.457 17.6436L13.4531 17.6465ZM6.30859 13.0586C6.10203 13.6672 5.99607 14.3065 5.99805 14.9492C5.99576 15.5788 6.0979 16.2041 6.29883 16.8008L9.26562 16.7803C9.03904 15.5501 9.04094 14.288 9.27148 13.0586H6.30859ZM10.1777 13.0586C9.92086 14.2853 9.92086 15.5526 10.1777 16.7793L13.6875 16.7578C13.9244 15.535 13.9155 14.2771 13.6621 13.0576L10.1777 13.0586ZM14.5664 13.0586C14.8005 14.2762 14.8068 15.527 14.5859 16.7471L17.7324 16.7256C17.9052 16.149 17.9938 15.5512 17.9961 14.9492C17.9969 14.3064 17.8923 13.6672 17.6855 13.0586H14.5664ZM11.0059 9.03516C10.0931 9.19001 9.2281 9.55331 8.47852 10.0967C7.72894 10.64 7.1147 11.3487 6.68359 12.168H9.48242C9.80154 11.0424 10.3169 9.98209 11.0039 9.03516H11.0059ZM11.9219 9.29297C11.2506 10.1535 10.7368 11.1272 10.4082 12.168H13.4297C13.1014 11.1279 12.5918 10.1538 11.9258 9.29004L11.9219 9.29297ZM12.8086 9.00195C13.5033 9.95969 14.026 11.031 14.3535 12.168H17.3086C16.8672 11.319 16.2274 10.5883 15.4453 10.0371C14.6632 9.48588 13.7604 9.13021 12.8125 9L12.8086 9.00195ZM13.9961 2.50195V8.00195H19.4961L13.9961 2.50195Z" fill="black"/>
</svg>
