<svg width="24" height="24" viewBox="0 0 24 24" fill="none" xmlns="http://www.w3.org/2000/svg">
<path d="M20.1996 5.90036L21 5.09996C20.3481 4.43507 19.5702 3.90688 18.7116 3.5463C17.8531 3.18572 16.9314 3 16.0002 3C15.069 3 14.1473 3.18572 13.2888 3.5463C12.4303 3.90688 11.6523 4.43507 11.0004 5.09996L11.8008 5.90036C12.9387 4.8287 14.4367 4.22206 15.9996 4.19996C17.5629 4.22176 19.0614 4.82842 20.1996 5.90036ZM19.2996 6.70076C18.8717 6.25786 18.3589 5.90564 17.792 5.66508C17.225 5.42452 16.6155 5.30055 15.9996 5.30055C15.3837 5.30055 14.7742 5.42452 14.2072 5.66508C13.6403 5.90564 13.1275 6.25786 12.6996 6.70076L13.5 7.50116C14.1741 6.85915 15.0693 6.50104 16.0002 6.50104C16.9311 6.50104 17.8263 6.85915 18.5004 7.50116L19.2996 6.70076ZM18.9996 13.0008H17.0004V8.99996H15V12.9996H5.0004C4.47035 13.0011 3.96246 13.2124 3.58765 13.5872C3.21285 13.962 3.00158 14.4699 3 15V18.9996C3.00158 19.5296 3.21285 20.0375 3.58765 20.4123C3.96246 20.7871 4.47035 20.9984 5.0004 21H18.9996C19.5297 20.9984 20.0375 20.7871 20.4123 20.4123C20.7872 20.0375 20.9984 19.5296 21 18.9996V15C20.9984 14.4699 20.7872 13.962 20.4123 13.5872C20.0375 13.2124 19.5297 13.0011 18.9996 12.9996V13.0008ZM8.0004 18H6V15.9996H8.0004V18ZM11.5008 18H9.5004V15.9996H11.5008V18ZM15 18H12.9996V15.9996H15V18Z" fill="black"/>
</svg>
