<svg width="16" height="17" viewBox="0 0 16 17" fill="none" xmlns="http://www.w3.org/2000/svg">
<g id="ico_0291_variable">
<g id="Vector">
<path d="M11.8508 13.8788C12.2988 13.0894 12.6259 12.2894 12.8322 11.4788C13.0455 10.661 13.1522 9.797 13.1522 8.88678C13.1522 7.97655 13.0455 7.11611 12.8322 6.30544C12.6259 5.48766 12.2988 4.68411 11.8508 3.89478H13.4402C13.8739 4.52766 14.2046 5.27433 14.4322 6.13478C14.6668 6.98811 14.7842 7.90544 14.7842 8.88678C14.7842 9.86811 14.6704 10.7854 14.4428 11.6388C14.2153 12.485 13.8811 13.2317 13.4402 13.8788H11.8508Z" fill="#808080"/>
<path d="M9.32327 11.8948L7.98313 10.0546L6.59755 11.8948H4.66683L7.01777 8.87247L4.74633 5.89478H6.73384L8.02856 7.6457L9.35735 5.89478H11.2426L8.9712 8.82786L11.3335 11.8948H9.32327Z" fill="#808080"/>
<path d="M2.66683 13.8788C2.24016 13.2317 1.9095 12.4814 1.67483 11.6281C1.44727 10.7748 1.3335 9.861 1.3335 8.88678C1.3335 7.91255 1.44727 6.99878 1.67483 6.14544C1.9095 5.285 2.24016 4.53478 2.66683 3.89478H4.25616C3.80816 4.68411 3.48105 5.48766 3.27483 6.30544C3.06861 7.11611 2.9655 7.97655 2.9655 8.88678C2.9655 9.797 3.06861 10.661 3.27483 11.4788C3.48105 12.2894 3.80816 13.0894 4.25616 13.8788H2.66683Z" fill="#808080"/>
</g>
</g>
</svg>
