<svg width="24" height="24" viewBox="0 0 24 24" fill="none" xmlns="http://www.w3.org/2000/svg">
<path d="M10 19V16.748C10 14.92 14.169 14 16 14C17.831 14 22 14.92 22 16.748V19H10ZM2 19V16.5C2 14.171 5.672 13 8 13C8.79779 13.0166 9.5922 13.1103 10.3721 13.2793C9.69003 13.5756 9.10519 14.058 8.68555 14.6719C8.2659 15.2858 8.02845 16.0059 8 16.749V19H2ZM13 10C13 9.40665 13.1762 8.82635 13.5059 8.33301C13.8355 7.83966 14.3034 7.45558 14.8516 7.22851C15.3997 7.00145 16.003 6.94186 16.585 7.05761C17.1669 7.17337 17.7015 7.45935 18.1211 7.8789C18.5407 8.29846 18.8266 8.83309 18.9424 9.41504C19.0581 9.99698 18.9985 10.6003 18.7715 11.1484C18.5444 11.6966 18.1603 12.1645 17.667 12.4941C17.1736 12.8238 16.5933 13 16 13C15.2044 13 14.4415 12.6837 13.8789 12.1211C13.3163 11.5585 13 10.7956 13 10ZM5 8C5.00099 7.40807 5.17736 6.82965 5.50684 6.33789C5.83631 5.84613 6.3045 5.46337 6.85156 5.2373C7.39862 5.01124 7.99957 4.95166 8.58008 5.06738C9.16058 5.1831 9.69375 5.46914 10.1123 5.88769C10.5309 6.30625 10.8169 6.83941 10.9326 7.41992C11.0483 8.00043 10.9888 8.60138 10.7627 9.14844C10.5366 9.6955 10.1539 10.1637 9.66211 10.4932C9.17035 10.8226 8.59193 10.999 8 11C7.60585 11.0007 7.21584 10.924 6.85156 10.7734C6.48729 10.6229 6.15566 10.4018 5.87695 10.123C5.59825 9.84434 5.37709 9.51271 5.22656 9.14844C5.07603 8.78416 4.99934 8.39415 5 8Z" fill="black"/>
</svg>
