<svg width="24" height="24" viewBox="0 0 24 24" fill="none" xmlns="http://www.w3.org/2000/svg">
<path d="M19 23H4.99219C4.46297 22.9981 3.95559 22.787 3.58203 22.4121C3.20847 22.0372 2.99902 21.5292 2.99902 21L3.01074 3C3.01073 2.47147 3.22008 1.9646 3.59277 1.58984C3.96547 1.21509 4.47148 1.00291 5 1H15L21 7V21C21 21.5304 20.7891 22.039 20.4141 22.4141C20.039 22.7891 19.5304 23 19 23ZM15.8945 11.9336V18H17.1113V15.8438H17.9229C19.3909 15.8438 20.2666 15.093 20.2666 13.835C20.2666 12.577 19.4667 11.9346 17.8887 11.9346L15.8945 11.9336ZM13.8223 13.4736H13.8516L13.8398 13.5957C13.7868 14.1227 13.707 14.9188 13.707 15.4668V18H14.8115V11.9336H13.4658L12.4561 14.7686C12.3871 14.9686 12.3199 15.1934 12.2559 15.3994L12.2373 15.4609C12.1893 15.6189 12.1369 15.7834 12.0879 15.9434H12.0459L12.002 15.8008L11.9414 15.6006C11.8564 15.3226 11.7698 15.0375 11.6748 14.7695L10.6426 11.9346H9.29688V18H10.3867V15.4668C10.3867 14.9818 10.3168 14.3038 10.2598 13.7598C10.2488 13.6598 10.2394 13.5596 10.2314 13.4736H10.2646L10.749 14.9033L11.6904 17.4531H12.3896L13.3281 14.9033L13.8193 13.4746L13.8223 13.4736ZM4.12793 11.9336V18H6.29297C7.76797 18 8.64746 17.3319 8.64746 16.2129C8.66737 15.8751 8.56186 15.5415 8.35156 15.2764C8.14126 15.0113 7.8403 14.8338 7.50684 14.7764V14.7383C7.76094 14.6288 7.97641 14.4449 8.12402 14.2109C8.27164 13.9769 8.34464 13.7032 8.33398 13.4268C8.33398 12.4358 7.59479 11.9326 6.13379 11.9326L4.12793 11.9336ZM14.002 2.50098V8.00098H19.502L14.002 2.50098ZM6.18555 17.0664H5.34375V15.3018H6.18555C7.05855 15.3018 7.46582 15.5686 7.46582 16.1396C7.46482 16.7536 7.03357 17.0654 6.18457 17.0654L6.18555 17.0664ZM17.8389 14.8828H17.1113V12.8936H17.7969C18.6969 12.8936 19.0771 13.175 19.0771 13.834C19.0761 14.54 18.6709 14.8828 17.8379 14.8828H17.8389ZM6.04883 14.4033H5.34375V12.8594H6.06445C6.81845 12.8594 7.1543 13.0894 7.1543 13.6064C7.1543 14.1234 6.77085 14.4004 6.04785 14.4004L6.04883 14.4033Z" fill="black"/>
</svg>
