<svg width="24" height="24" viewBox="0 0 24 24" fill="none" xmlns="http://www.w3.org/2000/svg">
<path d="M19.4892 21.3271C19.3803 21.3268 19.2721 21.3056 19.1709 21.2656L14.7187 19.3516C13.8308 19.5601 12.9218 19.6656 12.0097 19.665H11.999C6.48599 19.665 1.99899 15.928 1.99899 11.335C1.99899 6.74196 6.48399 2.99707 11.999 2.99707C17.514 2.99707 21.999 6.73696 21.999 11.335C21.9832 12.4088 21.7397 13.4674 21.2851 14.4404C20.8306 15.4134 20.1757 16.2793 19.3623 16.9805L20.2968 20.2715C20.3387 20.4224 20.3369 20.5814 20.292 20.7314C20.247 20.8815 20.1609 21.0161 20.0429 21.1191C19.8896 21.2533 19.693 21.3272 19.4892 21.3271ZM13.2265 7.99902C13.1392 7.99929 13.0558 8.03384 12.9941 8.0957C12.9324 8.15756 12.8984 8.24175 12.8984 8.3291V14.1777C12.8997 14.2638 12.9344 14.3461 12.9961 14.4062C13.0577 14.4664 13.1404 14.4998 13.2265 14.499H15.1748C15.2605 14.4996 15.3432 14.4664 15.4043 14.4062C15.4654 14.3461 15.5002 14.2635 15.5009 14.1777V8.3291C15.5012 8.24219 15.4673 8.15851 15.4062 8.09668C15.3451 8.03485 15.2617 7.99982 15.1748 7.99902H13.2265ZM8.82712 7.99902C8.73977 7.99929 8.65637 8.03384 8.5947 8.0957C8.53303 8.15756 8.49802 8.24175 8.49802 8.3291V14.1777C8.49933 14.2638 8.53501 14.3461 8.59665 14.4062C8.65829 14.4664 8.741 14.4998 8.82712 14.499H10.7754C10.8609 14.4993 10.943 14.4654 11.0039 14.4053C11.0648 14.3451 11.0988 14.2633 11.0996 14.1777V8.3291C11.1001 8.24228 11.0668 8.15854 11.0058 8.09668C10.9449 8.03482 10.8622 7.99982 10.7754 7.99902H8.82712Z" fill="black"/>
</svg>
