<svg width="24" height="24" viewBox="0 0 24 24" fill="none" xmlns="http://www.w3.org/2000/svg">
<path d="M14.5 14.2L17.4 15.9L16.6 17.2L13 15V10H14.5V14.2ZM22 14C22.0032 15.5385 21.5618 17.0451 20.7289 18.3387C19.8961 19.6322 18.7072 20.6576 17.3054 21.2915C15.9035 21.9253 14.3484 22.1406 12.8271 21.9115C11.3057 21.6824 9.883 21.0186 8.73001 20H4.00001C3.7353 20.0076 3.47183 19.9611 3.22574 19.8633C2.97966 19.7655 2.75614 19.6184 2.56888 19.4312C2.38163 19.2439 2.23459 19.0204 2.13677 18.7743C2.03895 18.5282 1.99241 18.2647 2.00001 18V9.00004C2.00316 8.47057 2.21488 7.96369 2.58927 7.5893C2.96367 7.21491 3.47055 7.00318 4.00001 7.00004V6.50004C3.99515 5.34262 4.43753 4.22806 5.2348 3.38902C6.03208 2.54998 7.12262 2.05131 8.27878 1.99712C9.43493 1.94292 10.5673 2.33739 11.4396 3.09817C12.3119 3.85895 12.8566 4.92724 12.96 6.08004C13.3043 6.02817 13.6519 6.00143 14 6.00004C16.1208 6.00295 18.154 6.84674 19.6536 8.3464C21.1533 9.84606 21.9971 11.8792 22 14ZM6.00001 7.00004H11V6.26004C10.9372 5.62013 10.6308 5.02886 10.1442 4.60853C9.65762 4.18821 9.0281 3.97099 8.38585 4.00182C7.74361 4.03265 7.13778 4.30916 6.6937 4.77415C6.24962 5.23915 6.00126 5.85705 6.00001 6.50004V7.00004ZM20 14C20 12.8133 19.6481 11.6533 18.9888 10.6666C18.3295 9.67992 17.3925 8.91088 16.2961 8.45676C15.1998 8.00263 13.9934 7.88381 12.8295 8.11532C11.6656 8.34684 10.5965 8.91828 9.75737 9.7574C8.91825 10.5965 8.34681 11.6656 8.1153 12.8295C7.88378 13.9934 8.0026 15.1998 8.45673 16.2961C8.91086 17.3925 9.67989 18.3296 10.6666 18.9889C11.6533 19.6481 12.8133 20 14 20C15.5913 20 17.1174 19.3679 18.2426 18.2427C19.3679 17.1175 20 15.5913 20 14Z" fill="black"/>
</svg>
