<svg width="24" height="24" viewBox="0 0 24 24" fill="none" xmlns="http://www.w3.org/2000/svg">
<path d="M19.88 18.47C20.4849 17.5223 20.7191 16.3847 20.5377 15.2751C20.3562 14.1655 19.7719 13.1617 18.8966 12.4561C18.0213 11.7504 16.9164 11.3923 15.7936 11.4504C14.6707 11.5084 13.6087 11.9786 12.8109 12.7708C12.0131 13.563 11.5354 14.6217 11.4694 15.7441C11.4034 16.8665 11.7537 17.9738 12.4532 18.8541C13.1526 19.7344 14.1522 20.3258 15.2605 20.5151C16.3688 20.7043 17.508 20.4782 18.46 19.88L21.58 23L23 21.58L19.88 18.47ZM16.08 18.58C15.5855 18.58 15.1022 18.4334 14.6911 18.1587C14.28 17.884 13.9595 17.4935 13.7703 17.0367C13.5811 16.5799 13.5316 16.0772 13.628 15.5923C13.7245 15.1073 13.9626 14.6619 14.3122 14.3122C14.6619 13.9626 15.1073 13.7245 15.5923 13.628C16.0772 13.5316 16.5799 13.5811 17.0367 13.7703C17.4935 13.9595 17.884 14.28 18.1587 14.6911C18.4334 15.1022 18.58 15.5855 18.58 16.08C18.58 16.743 18.3166 17.3789 17.8478 17.8478C17.3789 18.3166 16.743 18.58 16.08 18.58ZM15.72 10.08C14.9983 10.1 14.2865 10.2525 13.62 10.53L13.07 9.7L9.27 15.88L6.26 12.36L2.63 18.17L1 17L6 9L9 12.5L13 6L15.72 10.08ZM18.31 10.58C17.6615 10.2954 16.9671 10.1295 16.26 10.09L21.38 2L23 3.18L18.31 10.58Z" fill="black"/>
</svg>
