<svg width="24" height="24" viewBox="0 0 24 24" fill="none" xmlns="http://www.w3.org/2000/svg">
<path d="M20 3.00001H4V13C4 14.0609 4.42143 15.0783 5.17157 15.8284C5.92172 16.5786 6.93913 17 8 17H14C15.0609 17 16.0783 16.5786 16.8284 15.8284C17.5786 15.0783 18 14.0609 18 13V10H20C20.5304 10 21.0391 9.7893 21.4142 9.41423C21.7893 9.03915 22 8.53045 22 8.00001V5.00001C22.0009 4.73711 21.9498 4.47662 21.8496 4.23355C21.7495 3.99048 21.6022 3.76964 21.4163 3.58374C21.2304 3.39783 21.0095 3.25055 20.7665 3.15037C20.5234 3.05019 20.2629 2.99909 20 3.00001ZM20 8.00001H18V5.00001H20V8.00001ZM4 19H20V21H4V19Z" fill="black"/>
</svg>
