<svg width="24" height="24" viewBox="0 0 24 24" fill="none" xmlns="http://www.w3.org/2000/svg">
<path d="M12.496 17.5C12.496 16.4122 12.8181 15.3492 13.4225 14.4447C14.0268 13.5402 14.8864 12.8352 15.8914 12.4189C16.8964 12.0026 18.0024 11.8934 19.0693 12.1056C20.1362 12.3178 21.1155 12.8421 21.8847 13.6113C22.6539 14.3805 23.1782 15.3598 23.3904 16.4267C23.6026 17.4936 23.4933 18.5996 23.0771 19.6046C22.6608 20.6096 21.9557 21.4691 21.0513 22.0735C20.1468 22.6778 19.0838 23 17.996 23C16.5377 22.9988 15.1394 22.419 14.1082 21.3878C13.077 20.3566 12.4972 18.9583 12.496 17.5ZM14.3293 18.875H21.6627V16.125H14.3293V18.875Z" fill="black"/>
<path d="M1.69299 21C1.69299 13.319 4.54158 11.1002 8.16858 10.6152C7.10224 10.17 6.22383 9.3689 5.68127 8.34863C5.13871 7.32836 4.96595 6.15159 5.19299 5.01855C5.42004 3.88552 6.03261 2.86624 6.92639 2.13379C7.82017 1.40134 8.93978 1.00098 10.0953 1.00098C11.2509 1.00098 12.3705 1.40134 13.2643 2.13379C14.1581 2.86624 14.7706 3.88552 14.9977 5.01855C15.2247 6.15159 15.0529 7.32836 14.5104 8.34863C13.9678 9.3689 13.0884 10.17 12.0221 10.6152C13.0481 10.7332 14.0392 11.0599 14.9342 11.5752C14.0823 11.9566 13.3229 12.5168 12.7076 13.2188C12.0924 13.9207 11.6362 14.748 11.3698 15.6426C11.1033 16.5371 11.0328 17.4782 11.1637 18.4023C11.2946 19.3265 11.6231 20.2117 12.1276 20.9971L1.69299 21Z" fill="black"/>
</svg>
