<svg width="24" height="24" viewBox="0 0 24 24" fill="none" xmlns="http://www.w3.org/2000/svg">
<path d="M7 21.001C6.73478 21.001 6.4805 20.8955 6.29297 20.708C6.10543 20.5205 6 20.2662 6 20.001V4.00098C6 3.73576 6.10543 3.48148 6.29297 3.29395C6.4805 3.10641 6.73478 3.00098 7 3.00098H17C17.2652 3.00098 17.5195 3.10641 17.707 3.29395C17.8946 3.48148 18 3.73576 18 4.00098V20.001C18 20.2662 17.8946 20.5205 17.707 20.708C17.5195 20.8955 17.2652 21.001 17 21.001H7ZM8 15.001H16V5.00098H8V15.001ZM19 18.001V6.00098H22C22.2652 6.00098 22.5195 6.10641 22.707 6.29395C22.8946 6.48148 23 6.73576 23 7.00098V17.001C23 17.2662 22.8946 17.5205 22.707 17.708C22.5195 17.8955 22.2652 18.001 22 18.001H19ZM2 18.001C1.73478 18.001 1.48051 17.8955 1.29297 17.708C1.10543 17.5205 1 17.2662 1 17.001V7.00098C1 6.73576 1.10543 6.48148 1.29297 6.29395C1.48051 6.10641 1.73478 6.00098 2 6.00098H5V18.001H2Z" fill="black"/>
</svg>
