<svg width="24" height="24" viewBox="0 0 24 24" fill="none" xmlns="http://www.w3.org/2000/svg">
<path d="M19 23H4.99023C4.46171 22.9971 3.9557 22.7849 3.58301 22.4102C3.21031 22.0354 3.00097 21.5285 3.00098 21L3.00879 3C3.00878 2.47095 3.21845 1.96371 3.5918 1.58887C3.96514 1.21402 4.47193 1.00212 5.00098 1H15.001L21.001 7V21C21.001 21.2627 20.9492 21.5229 20.8486 21.7656C20.7481 22.0083 20.6009 22.2293 20.415 22.415C20.2292 22.6008 20.0084 22.7472 19.7656 22.8477C19.5229 22.9481 19.2627 23.0001 19 23ZM8.66113 11.8164C8.25604 11.8161 7.85524 11.8995 7.48438 12.0625C7.11351 12.2255 6.78055 12.4641 6.50684 12.7627C6.23312 13.0613 6.02466 13.4132 5.89453 13.7969C5.7644 14.1805 5.71545 14.5877 5.75098 14.9912C5.71502 15.5715 5.85146 16.1496 6.14355 16.6523C6.43565 17.1551 6.87062 17.5593 7.39258 17.8154C7.91454 18.0716 8.50077 18.1683 9.07715 18.0918C9.65352 18.0153 10.1938 17.7692 10.6309 17.3857V14.6475H8.47461V15.6377H9.54883V16.8379C9.32705 16.9985 9.05774 17.0797 8.78418 17.0674C7.62718 17.0674 6.99023 16.3161 6.99023 14.9521C6.99023 13.6811 7.6631 12.8604 8.7041 12.8604C8.92673 12.8576 9.1478 12.9008 9.35254 12.9883C9.55728 13.0758 9.74064 13.2054 9.89258 13.3682L10.5391 12.5986C10.297 12.3456 10.0048 12.1455 9.68164 12.0107C9.35843 11.876 9.01125 11.8102 8.66113 11.8164ZM14.6396 11.9307V18H15.8525V15.5371H18.0088V14.5234H15.8525V12.9404H18.3799V11.9297L14.6396 11.9307ZM11.9404 11.9307V18H13.1533V11.9307H11.9404ZM14.0049 2.49805V7.99805H19.5049L14.0049 2.49805Z" fill="black"/>
</svg>
