<svg width="24" height="24" viewBox="0 0 24 24" fill="none" xmlns="http://www.w3.org/2000/svg">
<path d="M12.8655 3.31341L15.3225 8.29041C15.3629 8.37208 15.4224 8.44274 15.4961 8.4963C15.5698 8.54987 15.6554 8.58474 15.7455 8.59791L21.2385 9.39591C21.3425 9.4112 21.4402 9.45525 21.5205 9.52309C21.6008 9.59093 21.6605 9.67985 21.6929 9.77983C21.7254 9.87981 21.7292 9.98687 21.7041 10.0889C21.6789 10.191 21.6257 10.284 21.5505 10.3574L17.577 14.2304C17.5117 14.2944 17.4628 14.3732 17.4345 14.4602C17.4063 14.5472 17.3996 14.6398 17.415 14.7299L18.3525 20.2004C18.3719 20.3044 18.3615 20.4117 18.3226 20.51C18.2837 20.6083 18.2179 20.6937 18.1327 20.7563C18.0475 20.819 17.9464 20.8563 17.841 20.8641C17.7355 20.8719 17.63 20.8498 17.5365 20.8004L12.624 18.2039C12.5431 18.1615 12.453 18.1393 12.3615 18.1393C12.2701 18.1393 12.18 18.1615 12.099 18.2039L7.18654 20.7944C7.09307 20.8438 6.98756 20.8659 6.88211 20.8581C6.77666 20.8503 6.67554 20.813 6.59036 20.7503C6.50517 20.6877 6.43936 20.6023 6.40048 20.504C6.3616 20.4057 6.35122 20.2984 6.37054 20.1944L7.30804 14.7239C7.32344 14.6338 7.31675 14.5412 7.28853 14.4542C7.26032 14.3672 7.21142 14.2884 7.14604 14.2244L3.17104 10.3574C3.09584 10.284 3.04266 10.191 3.0175 10.0889C2.99233 9.98687 2.99619 9.87981 3.02864 9.77983C3.06108 9.67985 3.12081 9.59093 3.20111 9.52309C3.2814 9.45525 3.37905 9.4112 3.48304 9.39591L8.97604 8.60391C9.06618 8.59074 9.15177 8.55587 9.22545 8.50231C9.29913 8.44874 9.3587 8.37809 9.39904 8.29641L11.856 3.31941C11.9023 3.22529 11.9738 3.14592 12.0626 3.09021C12.1515 3.0345 12.2541 3.00466 12.3589 3.00404C12.4638 3.00342 12.5667 3.03203 12.6562 3.08668C12.7457 3.14133 12.8182 3.21985 12.8655 3.31341Z" fill="black"/>
</svg>
