<svg width="24" height="24" viewBox="0 0 24 24" fill="none" xmlns="http://www.w3.org/2000/svg">
<path d="M12.8712 3.98028C11.8203 3.98201 10.78 4.19077 9.80979 4.59456C8.83958 4.99836 7.95846 5.58929 7.21665 6.33366C6.47484 7.07803 5.8869 7.96124 5.48645 8.93284C5.086 9.90445 4.8809 10.9454 4.88279 11.9963H1.55994L6.50994 16.9451L11.4588 11.9963H6.90596C6.89706 11.2099 7.04501 10.4297 7.34109 9.70112C7.63717 8.97257 8.07545 8.31033 8.63037 7.7531C9.40745 6.9741 10.3837 6.42379 11.4525 6.16235C12.5213 5.90091 13.6415 5.93839 14.6904 6.27071C15.7394 6.60304 16.6767 7.2174 17.4 8.04661C18.1232 8.87582 18.6045 9.88796 18.7912 10.9723C18.9779 12.0567 18.8629 13.1715 18.4587 14.1948C18.0544 15.2182 17.3766 16.1107 16.4992 16.7747C15.6219 17.4388 14.5787 17.8487 13.4841 17.9598C12.3894 18.0709 11.2853 17.8789 10.2924 17.4047L8.82234 18.8759C9.88284 19.5007 11.0732 19.8725 12.3008 19.9622C13.5284 20.0519 14.7602 19.8573 15.9002 19.3933C17.0403 18.9293 18.058 18.2086 18.8741 17.2872C19.6902 16.3657 20.2828 15.2685 20.6056 14.0807C20.9285 12.8929 20.9729 11.6466 20.7355 10.4388C20.4982 9.23108 19.9854 8.09436 19.2371 7.1171C18.4887 6.13984 17.525 5.34838 16.4209 4.80433C15.3168 4.26028 14.102 3.97828 12.8712 3.98028Z" fill="black"/>
</svg>
