<svg width="24" height="24" viewBox="0 0 24 24" fill="none" xmlns="http://www.w3.org/2000/svg">
<path d="M19 3H18V1H16V3H8V1H6V3H5C4.73786 3.00013 4.47833 3.05202 4.2363 3.1527C3.99427 3.25338 3.7745 3.40086 3.58961 3.58668C3.40471 3.77251 3.25833 3.99301 3.15887 4.23554C3.05941 4.47808 3.00882 4.73787 3.01 5L3 19C3 19.5304 3.21071 20.0391 3.58579 20.4142C3.96086 20.7893 4.46957 21 5 21H19C19.5299 20.9984 20.0377 20.7872 20.4125 20.4125C20.7872 20.0377 20.9984 19.5299 21 19V5C20.9984 4.47005 20.7872 3.96227 20.4125 3.58753C20.0377 3.2128 19.5299 3.00158 19 3ZM19 19H5V8H19V19ZM7 10H12V15H7V10Z" fill="black"/>
</svg>
