<svg width="24" height="24" viewBox="0 0 24 24" fill="none" xmlns="http://www.w3.org/2000/svg">
<path d="M19 23H4.98828C4.45993 22.9968 3.95354 22.7849 3.58105 22.4102C3.20857 22.0354 2.99999 21.5284 3 21L3.00781 3C3.00781 2.47095 3.21748 1.96371 3.59082 1.58887C3.96416 1.21402 4.47095 1.00212 5 1H15L21 7V21C21 21.5304 20.7891 22.039 20.4141 22.4141C20.039 22.7891 19.5304 23 19 23ZM17.4766 11.8174C17.0715 11.8171 16.6716 11.9005 16.3008 12.0635C15.9299 12.2265 15.597 12.465 15.3232 12.7637C15.0495 13.0623 14.8411 13.4142 14.7109 13.7979C14.5808 14.1815 14.5319 14.5887 14.5674 14.9922C14.5255 15.3945 14.5698 15.801 14.6982 16.1846C14.8267 16.5682 15.0358 16.9198 15.3115 17.2158C15.5872 17.5118 15.9233 17.7451 16.2969 17.9004C16.6704 18.0557 17.0723 18.1295 17.4766 18.1162C18.2014 18.1308 18.9057 17.8699 19.4463 17.3867V14.6465H17.2891V15.6396H18.3643V16.8398C18.1412 16.9977 17.8717 17.078 17.5986 17.0674C16.4436 17.0674 15.8066 16.3161 15.8066 14.9521C15.8066 13.6831 16.4786 12.8643 17.5186 12.8643C17.7414 12.8605 17.9629 12.9039 18.168 12.9912C18.373 13.0786 18.5573 13.2078 18.709 13.3711L19.3574 12.5996C19.1144 12.3472 18.8214 12.1476 18.498 12.0127C18.1747 11.8778 17.8269 11.8114 17.4766 11.8164V11.8174ZM5.01562 16.4336L4.1748 17.0479C4.35379 17.3884 4.62784 17.6703 4.96289 17.8594C5.29794 18.0485 5.68041 18.1371 6.06445 18.1143C6.3312 18.1248 6.5967 18.0762 6.84277 17.9727C7.08885 17.8692 7.30925 17.7127 7.48828 17.5146C7.66732 17.3166 7.80064 17.0824 7.87891 16.8271C7.95717 16.5719 7.97866 16.3024 7.94141 16.0381V11.9307H6.72754V15.9424C6.72754 16.7284 6.48597 17.0635 5.91797 17.0635C5.72371 17.0549 5.53633 16.9903 5.37695 16.8789C5.21757 16.7675 5.09239 16.6131 5.01758 16.4336H5.01562ZM9.40039 11.9336V18H10.6133V15.8428H11.4268C12.8948 15.8428 13.7725 15.092 13.7725 13.835C13.7725 12.578 12.9716 11.9346 11.3916 11.9346L9.40039 11.9336ZM14 2.5V8H19.5L14 2.5ZM11.3438 14.8857H10.6152V12.8926H11.3057C12.2057 12.8926 12.584 13.1749 12.584 13.8369C12.582 14.5409 12.1768 14.8838 11.3418 14.8838L11.3438 14.8857Z" fill="black"/>
</svg>
