<svg width="24" height="24" viewBox="0 0 24 24" fill="none" xmlns="http://www.w3.org/2000/svg">
<path d="M22.0008 5.72045L17.4 1.86005L16.11 3.39005L20.7096 7.25045L22.0008 5.72045ZM7.88037 3.39005L6.59997 1.86005L2.00037 5.70965L3.29037 7.23965L7.88037 3.39005ZM12.5004 8.00045H11.0004V14.0004L15.75 16.8504L16.5 15.6204L12.5004 13.2504V8.00045ZM12 4.00085C10.2199 4.00085 8.47988 4.52869 6.99983 5.51762C5.51979 6.50655 4.36624 7.91216 3.68505 9.55669C3.00386 11.2012 2.82563 13.0108 3.1729 14.7567C3.52017 16.5025 4.37733 18.1061 5.63601 19.3648C6.89468 20.6235 8.49832 21.4806 10.2442 21.8279C11.99 22.1752 13.7996 21.997 15.4441 21.3158C17.0887 20.6346 18.4943 19.481 19.4832 18.001C20.4721 16.5209 21 14.7809 21 13.0008C21.0001 11.8188 20.7675 10.6484 20.3152 9.55633C19.863 8.46426 19.2001 7.47196 18.3644 6.63611C17.5286 5.80025 16.5364 5.13721 15.4444 4.68485C14.3524 4.23248 13.182 3.99965 12 3.99965V4.00085ZM12 20.0004C10.6156 20.0004 9.26228 19.5899 8.1112 18.8208C6.96012 18.0517 6.06296 16.9585 5.53318 15.6795C5.0034 14.4005 4.86478 12.9931 5.13486 11.6353C5.40494 10.2775 6.07159 9.03029 7.0505 8.05138C8.02941 7.07247 9.27662 6.40582 10.6344 6.13574C11.9922 5.86566 13.3996 6.00428 14.6786 6.53406C15.9576 7.06384 17.0508 7.961 17.8199 9.11208C18.589 10.2632 18.9996 11.6165 18.9996 13.0008C19.0002 13.9202 18.8196 14.8307 18.468 15.6802C18.1165 16.5297 17.6009 17.3016 16.9508 17.9517C16.3007 18.6018 15.5289 19.1174 14.6793 19.4689C13.8298 19.8205 12.9193 20.0011 12 20.0004Z" fill="black"/>
</svg>
