<svg width="24" height="24" viewBox="0 0 24 24" fill="none" xmlns="http://www.w3.org/2000/svg">
<g clip-path="url(#clip0_122_830)">
<path d="M12.309 23.0418C11.6697 23.0474 11.041 22.8868 10.4823 22.576C9.92361 22.2652 9.45396 21.8154 9.12148 21.2694C9.05356 21.1606 8.95955 21.0711 8.84755 21.0086C8.73555 20.9462 8.60956 20.9125 8.48134 20.9119C8.40181 20.9116 8.32239 20.9248 8.24696 20.95C7.86772 21.079 7.46979 21.1451 7.06923 21.1463C6.49642 21.1397 5.93317 21.005 5.41982 20.7508C4.90646 20.4966 4.45683 20.1301 4.10439 19.6785C3.75744 19.2422 3.51428 18.7316 3.39394 18.1873C3.27359 17.6431 3.27939 17.0769 3.41005 16.535C3.45013 16.3654 3.43109 16.189 3.35732 16.0311C3.28354 15.8732 3.15863 15.743 3.00282 15.6649C2.41107 15.36 1.91107 14.9045 1.55263 14.3436C1.19419 13.7827 0.990331 13.1366 0.962296 12.4715C0.934261 11.8065 1.083 11.1475 1.39296 10.5584C1.70292 9.96935 2.16343 9.4735 2.72743 9.11996C2.87313 9.03354 2.98416 8.89817 3.04237 8.7391C3.10059 8.58002 3.10227 8.40695 3.04677 8.24691C2.85754 7.68945 2.8054 7.09447 2.89443 6.51253C2.98345 5.9306 3.21076 5.37659 3.558 4.9012C3.90179 4.41277 4.3565 4.01321 4.88515 3.73519C5.4138 3.45717 6.00175 3.31099 6.59902 3.30453C6.88869 3.30496 7.17762 3.33775 7.45888 3.40706C7.51708 3.41927 7.57666 3.42781 7.63612 3.42757C7.78047 3.42921 7.9215 3.38836 8.04482 3.31331C8.16813 3.23827 8.26852 3.13173 8.33339 3.00277C8.63787 2.41103 9.09376 1.91067 9.65468 1.55257C10.2156 1.19448 10.8604 0.990844 11.5253 0.963705C12.1902 0.936565 12.8516 1.08611 13.4398 1.3973C14.0281 1.70849 14.5222 2.17121 14.8739 2.73617C14.9413 2.84453 15.0363 2.93203 15.1478 2.99398C15.2594 3.05592 15.385 3.08782 15.5126 3.08773C15.5932 3.08955 15.6723 3.07919 15.7484 3.05257C16.1295 2.92217 16.5293 2.85213 16.932 2.85042C17.5032 2.85725 18.0653 2.99517 18.577 3.24886C19.0888 3.50255 19.5383 3.86777 19.8895 4.3182C20.2379 4.75555 20.4806 5.26645 20.6015 5.81234C20.7223 6.35822 20.7179 6.9241 20.5868 7.46761C20.5477 7.63677 20.5658 7.81432 20.6395 7.97152C20.7132 8.12871 20.8375 8.25664 20.9926 8.3348C21.5841 8.63909 22.0844 9.09276 22.4428 9.65316C22.8011 10.2136 23.0051 10.8606 23.0331 11.5252C23.0611 12.1898 22.9123 12.8497 22.6024 13.4383C22.2926 14.0269 21.8332 14.5238 21.2694 14.8768C21.1234 14.9646 21.0107 15.0979 20.9516 15.2576C20.8924 15.4174 20.8891 15.594 20.9428 15.7557C21.1336 16.3126 21.1875 16.9051 21.0995 17.4871C21.0115 18.0692 20.7843 18.6229 20.4374 19.0985C20.0931 19.5871 19.638 19.9865 19.1088 20.2645C18.5796 20.5425 17.9926 20.6918 17.3949 20.6981C17.1038 20.6977 16.8134 20.6619 16.5307 20.5926C16.4717 20.5787 16.4111 20.5721 16.3505 20.5721C16.2075 20.5722 16.0676 20.6108 15.9462 20.6864C15.8248 20.7619 15.7267 20.8716 15.6635 20.9998C15.3515 21.62 14.8721 22.1387 14.2792 22.4998C13.6863 22.861 13.0032 23.0491 12.309 23.0418ZM7.76064 9.77913C7.4621 9.77877 7.17524 9.89654 6.96376 10.1073C6.85958 10.2113 6.77698 10.3345 6.7206 10.4705C6.66421 10.6066 6.63417 10.754 6.63417 10.9012C6.63417 11.0485 6.66421 11.1929 6.7206 11.3289C6.77698 11.465 6.85958 11.5882 6.96376 11.6922L10.6771 15.4129C10.7808 15.5178 10.9043 15.6022 11.0404 15.659C11.1765 15.7159 11.3221 15.744 11.4696 15.744C11.6171 15.744 11.7642 15.7159 11.9003 15.659C12.0364 15.6022 12.1599 15.5178 12.2636 15.4129L17.0448 10.6375C17.1546 10.5338 17.242 10.4096 17.3026 10.2713C17.3633 10.133 17.3958 9.98286 17.3978 9.83187C17.3998 9.68088 17.3713 9.53225 17.3143 9.39242C17.2574 9.25258 17.1738 9.12399 17.0668 9.01742C16.9598 8.91084 16.8318 8.82779 16.6918 8.77132C16.5517 8.71486 16.4019 8.68672 16.2509 8.68929C16.0999 8.69186 15.9509 8.72477 15.8129 8.78597C15.6748 8.84717 15.5514 8.93656 15.4481 9.04671L11.4711 13.0194L8.55605 10.1043C8.4517 9.99959 8.32807 9.91731 8.1913 9.86117C8.05453 9.80502 7.90847 9.77793 7.76064 9.77913Z" fill="black"/>
</g>
<defs>
<clipPath id="clip0_122_830">
<rect width="24" height="24" fill="white"/>
</clipPath>
</defs>
</svg>
