<svg width="24" height="24" viewBox="0 0 24 24" fill="none" xmlns="http://www.w3.org/2000/svg">
<path d="M12.0012 7.9992C11.2102 7.9992 10.437 8.23375 9.77926 8.67317C9.12155 9.1126 8.60891 9.73718 8.30616 10.4679C8.0034 11.1987 7.92413 12.0028 8.07836 12.7786C8.23258 13.5545 8.61339 14.2671 9.17262 14.8265C9.73186 15.3859 10.4444 15.7669 11.2202 15.9214C11.9959 16.0759 12.8001 15.9968 13.5309 15.6943C14.2618 15.3918 14.8865 14.8793 15.3262 14.2217C15.7658 13.5642 16.0006 12.791 16.0008 12C16.0011 11.4746 15.8979 10.9543 15.697 10.4689C15.4961 9.9834 15.2016 9.54229 14.8301 9.17073C14.4587 8.79917 14.0176 8.50447 13.5322 8.30345C13.0468 8.10243 12.5266 7.99905 12.0012 7.9992ZM20.9412 10.9992C20.7134 8.97181 19.8036 7.08195 18.3609 5.63946C16.9182 4.19697 15.0282 3.28744 13.0008 3.06V0.999603H11.0004V3.06C8.97318 3.2877 7.08346 4.19733 5.64099 5.6398C4.19852 7.08227 3.28889 8.97199 3.06119 10.9992H1.00079V12.9996H3.06119C3.28869 15.0272 4.19838 16.9173 5.64111 18.3601C7.08385 19.8028 8.97398 20.7125 11.0016 20.94V23.0004H13.0008V20.94C15.0284 20.7125 16.9185 19.8028 18.3613 18.3601C19.804 16.9173 20.7137 15.0272 20.9412 12.9996H23.0016V10.9992H20.9412ZM12.0012 18.9996C10.6168 18.9996 9.2635 18.5891 8.11242 17.82C6.96135 17.0508 6.06419 15.9576 5.53441 14.6786C5.00462 13.3996 4.86601 11.9922 5.13609 10.6344C5.40617 9.27666 6.07282 8.02945 7.05173 7.05054C8.03064 6.07163 9.27785 5.40498 10.6356 5.1349C11.9934 4.86482 13.4008 5.00343 14.6798 5.53322C15.9588 6.063 17.052 6.96016 17.8211 8.11123C18.5903 9.26231 19.0008 10.6156 19.0008 12C19.0014 12.9194 18.8208 13.8299 18.4693 14.6794C18.1177 15.5289 17.6022 16.3008 16.9521 16.9509C16.302 17.601 15.5301 18.1165 14.6806 18.4681C13.8311 18.8196 12.9206 19.0002 12.0012 18.9996Z" fill="black"/>
</svg>
