<svg width="24" height="24" viewBox="0 0 24 24" fill="none" xmlns="http://www.w3.org/2000/svg">
<path d="M12 3.99997C13.8565 3.99997 15.637 4.73747 16.9497 6.05022C18.2625 7.36298 19 9.14346 19 11V13H16.08L21 17.92V11C20.9992 9.34683 20.5431 7.72585 19.6817 6.31486C18.8203 4.90387 17.5869 3.75739 16.1169 3.00119C14.6469 2.24499 12.9969 1.90829 11.3481 2.02803C9.69933 2.14776 8.11537 2.71931 6.77 3.67997L8.21 5.11997C9.33745 4.38584 10.6546 3.9966 12 3.99997ZM2.27 1.71997L1 2.99997L4.33 6.31997C3.4606 7.72616 3.00005 9.34672 3 11V18C3 18.7956 3.31607 19.5587 3.87868 20.1213C4.44129 20.6839 5.20435 21 6 21H9V13H5V11C4.99928 9.87857 5.27035 8.7737 5.79 7.77997L15 17V21H18C18.2919 20.9949 18.5816 20.9477 18.86 20.86L21 23L22.27 21.73L2.27 1.71997Z" fill="black"/>
</svg>
