<svg width="24" height="24" viewBox="0 0 24 24" fill="none" xmlns="http://www.w3.org/2000/svg">
<path d="M20.6257 21.4664L17.7897 19.2008H8.99969C8.52271 19.1995 8.06549 19.0088 7.72821 18.6715C7.39093 18.3342 7.20121 17.877 7.19989 17.4V15.5992H15.6003C16.5551 15.5992 17.4701 15.2216 18.1452 14.5465C18.8203 13.8714 19.1999 12.9544 19.1999 11.9996V7.20081H19.8005C20.2779 7.20081 20.7354 7.39058 21.0729 7.72815C21.4105 8.06571 21.6003 8.52224 21.6003 8.99963V20.9996C21.6007 21.1131 21.5687 21.2238 21.5085 21.3199C21.4482 21.4161 21.3617 21.4935 21.2595 21.5426C21.1572 21.5917 21.043 21.6104 20.9304 21.5973C20.8177 21.5842 20.711 21.5397 20.6227 21.4684L20.6257 21.4664ZM2.74774 17.3414C2.6448 17.2929 2.55768 17.2149 2.49677 17.1188C2.43585 17.0226 2.40392 16.9123 2.40399 16.7985V4.79846C2.40399 4.16194 2.65703 3.55128 3.10712 3.1012C3.5572 2.65111 4.16786 2.39807 4.80438 2.39807H15.6042C16.2407 2.39807 16.8514 2.65111 17.3015 3.1012C17.7515 3.55128 18.0036 4.16194 18.0036 4.79846V11.9977C18.0023 12.6333 17.7494 13.242 17.2995 13.691C16.8496 14.14 16.2398 14.3922 15.6042 14.3922H6.81903L3.38739 17.2574C3.27878 17.347 3.14142 17.3952 3.00067 17.3942C2.91335 17.3954 2.82695 17.3782 2.74774 17.3414ZM6.0036 8.99768C6.0036 9.15681 6.06686 9.30899 6.17938 9.42151C6.2919 9.53403 6.44506 9.59729 6.60419 9.59729H11.404C11.5631 9.59729 11.7153 9.53403 11.8278 9.42151C11.9403 9.30899 12.0036 9.15681 12.0036 8.99768C12.0036 8.83855 11.9403 8.68442 11.8278 8.5719C11.7153 8.45938 11.5631 8.39612 11.404 8.39612H6.60419C6.52514 8.39612 6.44671 8.41265 6.37372 8.44299C6.30073 8.47333 6.23416 8.51782 6.17841 8.57385C6.12265 8.62989 6.0785 8.69602 6.04852 8.76917C6.01855 8.84231 6.00321 8.92059 6.0036 8.99963V8.99768ZM6.0036 6.59729C6.0036 6.75642 6.06686 6.9086 6.17938 7.02112C6.2919 7.13364 6.44506 7.1969 6.60419 7.1969H13.8044C13.9635 7.1969 14.1157 7.13364 14.2282 7.02112C14.3407 6.9086 14.404 6.75642 14.404 6.59729C14.404 6.43816 14.3407 6.28598 14.2282 6.17346C14.1157 6.06094 13.9635 5.99768 13.8044 5.99768H6.60419C6.52514 5.99768 6.44671 6.01226 6.37372 6.0426C6.30073 6.07294 6.23416 6.11743 6.17841 6.17346C6.12265 6.2295 6.0785 6.29563 6.04852 6.36877C6.01855 6.44192 6.00321 6.5202 6.0036 6.59924V6.59729Z" fill="black"/>
</svg>
