<svg width="24" height="24" viewBox="0 0 24 24" fill="none" xmlns="http://www.w3.org/2000/svg">
<path d="M11 21V18.5L18.373 11.127L20.873 13.627L13.5 21H11ZM9.19922 21H4C3.46957 21 2.96101 20.7891 2.58594 20.4141C2.21086 20.039 2 19.5304 2 19V5C2.00184 4.47013 2.21322 3.96256 2.58789 3.58789C2.96256 3.21322 3.47013 3.00184 4 3H16C16.5304 3 17.039 3.21086 17.4141 3.58594C17.7891 3.96101 18 4.46957 18 5V8.82617L15 11.8262V11H5V13H13.8223L11.8223 15H5V17H9.82422L9.19922 17.624V21ZM5 9H15V7H5V9ZM19.0859 10.415L20.3086 9.19238C20.37 9.13052 20.4429 9.08135 20.5234 9.04785C20.6039 9.01435 20.6902 8.99707 20.7773 8.99707C20.8645 8.99707 20.9508 9.01435 21.0312 9.04785C21.1117 9.08135 21.1847 9.13052 21.2461 9.19238L22.8086 10.7539C22.8703 10.8154 22.9197 10.8883 22.9531 10.9688C22.9866 11.0492 23.002 11.1355 23.002 11.2227C23.002 11.3098 22.9866 11.3961 22.9531 11.4766C22.9197 11.557 22.8703 11.6309 22.8086 11.6924L21.5859 12.915L19.0859 10.415Z" fill="black"/>
</svg>
