<svg width="24" height="24" viewBox="0 0 24 24" fill="none" xmlns="http://www.w3.org/2000/svg">
<path d="M16.9139 15.9129H15.1749C15.0606 15.913 14.9475 15.8906 14.8419 15.8469C14.7362 15.8032 14.6403 15.7391 14.5594 15.6583C14.4786 15.5775 14.4146 15.4816 14.3709 15.376C14.3272 15.2704 14.3048 15.1572 14.3049 15.0429V13.3899C14.3064 13.316 14.3263 13.2436 14.3628 13.1794C14.3993 13.1151 14.4512 13.061 14.5139 13.0219C14.965 12.6654 15.3316 12.2136 15.5873 11.6987C15.843 11.1838 15.9815 10.6187 15.9929 10.0439C16.0036 9.96725 16.0341 9.89472 16.0812 9.83337C16.1284 9.77202 16.1907 9.72392 16.262 9.69385C16.5809 9.56775 16.8552 9.3497 17.0499 9.06738C17.2447 8.78506 17.3512 8.45123 17.3558 8.10828C17.3604 7.76533 17.2629 7.42875 17.0758 7.1413C16.8887 6.85384 16.6204 6.62852 16.3049 6.4939C16.2277 6.46067 16.162 6.40553 16.1158 6.33533C16.0696 6.26513 16.0449 6.18292 16.0449 6.09888V5.4729C16.0449 5.3519 16.0379 5.23189 16.0269 5.11389C15.9379 4.25821 15.535 3.46585 14.896 2.88983C14.257 2.31381 13.4273 1.99495 12.567 1.99487H10.8279C9.90625 1.99725 9.02301 2.36444 8.37128 3.01617C7.71954 3.66791 7.35229 4.55121 7.34991 5.4729V6.09888C7.34992 6.18292 7.32532 6.26513 7.27911 6.33533C7.2329 6.40553 7.16716 6.46067 7.08997 6.4939C6.77451 6.62852 6.50619 6.85384 6.31909 7.1413C6.13199 7.42875 6.03452 7.76533 6.03912 8.10828C6.04373 8.45123 6.15021 8.78506 6.34497 9.06738C6.53973 9.3497 6.81398 9.56775 7.13293 9.69385C7.20423 9.72392 7.26651 9.77202 7.31366 9.83337C7.36081 9.89472 7.39121 9.96725 7.40192 10.0439C7.41374 10.6186 7.55248 11.1835 7.80817 11.6984C8.06385 12.2132 8.43017 12.6651 8.88092 13.0219C8.94357 13.061 8.99549 13.1152 9.03198 13.1794C9.06847 13.2437 9.08842 13.316 9.08997 13.3899V15.0429C9.0901 15.1572 9.06766 15.2704 9.02399 15.376C8.98031 15.4816 8.91626 15.5775 8.83545 15.6583C8.75464 15.7391 8.65865 15.8032 8.55304 15.8469C8.44743 15.8906 8.33426 15.913 8.21997 15.9129H6.48096C5.55853 15.9129 4.67386 16.2793 4.02161 16.9316C3.36935 17.5838 3.00293 18.4684 3.00293 19.3909V20.1969C3.00307 20.2888 3.03216 20.3783 3.086 20.4528C3.13984 20.5272 3.2157 20.5829 3.30292 20.6119C8.75009 22.4621 14.6558 22.4621 20.103 20.6119C20.1902 20.5829 20.266 20.5272 20.3199 20.4528C20.3737 20.3783 20.4028 20.2888 20.403 20.1969V19.3909C20.403 18.9332 20.3126 18.4801 20.1371 18.0574C19.9617 17.6347 19.7045 17.2508 19.3804 16.9277C19.0562 16.6046 18.6715 16.3486 18.2483 16.1744C17.8251 16.0003 17.3716 15.9115 16.9139 15.9129Z" fill="black"/>
</svg>
