<svg width="16" height="16" viewBox="0 0 16 16" fill="none" xmlns="http://www.w3.org/2000/svg">
<g id="ico_0092_accordion">
<path id="Vector" d="M2.66667 14C2.48986 14 2.32034 13.9297 2.19531 13.8047C2.07029 13.6797 2 13.5101 2 13.3333V12C2 11.8232 2.07029 11.6537 2.19531 11.5286C2.32034 11.4036 2.48986 11.3333 2.66667 11.3333H13.3333C13.5101 11.3333 13.6797 11.4036 13.8047 11.5286C13.9297 11.6537 14 11.8232 14 12V13.3333C14 13.5101 13.9297 13.6797 13.8047 13.8047C13.6797 13.9297 13.5101 14 13.3333 14H2.66667ZM2.66667 10.6667C2.48986 10.6667 2.32034 10.5964 2.19531 10.4714C2.07029 10.3463 2 10.1768 2 10V8.66667C2 8.48986 2.07029 8.32034 2.19531 8.19531C2.32034 8.07029 2.48986 8 2.66667 8H13.3333C13.5101 8 13.6797 8.07029 13.8047 8.19531C13.9297 8.32034 14 8.48986 14 8.66667V10C14 10.1768 13.9297 10.3463 13.8047 10.4714C13.6797 10.5964 13.5101 10.6667 13.3333 10.6667H2.66667ZM2.66667 7.33333C2.49078 7.33193 2.32309 7.26094 2.19922 7.13607C2.07535 7.0112 2.0052 6.84256 2.00521 6.66667V2.66667C2.0052 2.49078 2.07535 2.32214 2.19922 2.19727C2.32309 2.07239 2.49078 2.00141 2.66667 2H13.3333C13.5105 2 13.6803 2.0704 13.806 2.19531C13.9317 2.32022 14.0028 2.48949 14.0039 2.66667V6.66667C14.0039 6.75455 13.9869 6.84138 13.9531 6.92253C13.9194 7.00367 13.8696 7.07736 13.8073 7.13932C13.745 7.20128 13.6712 7.25059 13.5898 7.28385C13.5085 7.31712 13.4212 7.33386 13.3333 7.33333H2.66667ZM3.33333 6H12.6667V3.33333H3.33333V6Z" fill="#808080"/>
</g>
</svg>
