<svg width="24" height="24" viewBox="0 0 24 24" fill="none" xmlns="http://www.w3.org/2000/svg">
<path d="M12.9971 6.41L16.9971 10.41L22.7071 4.71L21.2871 3.29L16.9971 7.59L14.4071 5H15.9971V3H10.9971V8H12.9971V6.41Z" fill="black"/>
<path d="M19.9971 15.52C18.7571 15.52 17.5471 15.32 16.4271 14.95C16.0771 14.83 15.6771 14.92 15.4071 15.19L13.2071 17.39C10.3771 15.94 8.05712 13.63 6.61712 10.8L8.81712 8.6C9.09712 8.32 9.17712 7.93 9.06712 7.58C8.69712 6.46 8.49712 5.26 8.49712 4.01C8.49712 3.46 8.04712 3.01 7.49712 3.01H3.99712C3.44712 3.01 2.99712 3.46 2.99712 4.01C2.99712 13.4 10.6071 21.01 19.9971 21.01C20.5471 21.01 20.9971 20.56 20.9971 20.01V16.52C20.9971 15.97 20.5471 15.52 19.9971 15.52Z" fill="black"/>
</svg>
