<svg width="24" height="24" viewBox="0 0 24 24" fill="none" xmlns="http://www.w3.org/2000/svg">
<path d="M12.007 13.033L12 6H16V8.667H13.334V15.333C13.334 15.8608 13.1774 16.3767 12.884 16.8154C12.5907 17.2542 12.1737 17.596 11.686 17.7976C11.1983 17.9993 10.6617 18.0517 10.1441 17.9482C9.62658 17.8448 9.15138 17.5901 8.77867 17.2164C8.40596 16.8427 8.15251 16.3668 8.0504 15.849C7.94828 15.3312 8.0021 14.7947 8.20503 14.3075C8.40796 13.8203 8.75089 13.4043 9.19039 13.1121C9.6299 12.8199 10.1462 12.6646 10.674 12.666C11.1427 12.6706 11.6021 12.797 12.007 13.033Z" fill="black"/>
<path fill-rule="evenodd" clip-rule="evenodd" d="M3.58594 20.4141C3.96101 20.7891 4.46957 21 5 21H19C19.5299 20.9982 20.0374 20.7868 20.4121 20.4121C20.7868 20.0374 20.9982 19.5299 21 19V5C21 4.46957 20.7891 3.96101 20.4141 3.58594C20.039 3.21086 19.5304 3 19 3H5C4.46957 3 3.96101 3.21086 3.58594 3.58594C3.21086 3.96101 3 4.46957 3 5V19C3 19.5304 3.21086 20.039 3.58594 20.4141ZM19 19H5V5H19V19Z" fill="black"/>
</svg>
