<svg width="24" height="24" viewBox="0 0 24 24" fill="none" xmlns="http://www.w3.org/2000/svg">
<path d="M18 2H6C5.47005 2.00158 4.96227 2.2128 4.58753 2.58753C4.2128 2.96227 4.00158 3.47005 4 4V20C4.00158 20.5299 4.2128 21.0377 4.58753 21.4125C4.96227 21.7872 5.47005 21.9984 6 22H18C18.5299 21.9984 19.0377 21.7872 19.4125 21.4125C19.7872 21.0377 19.9984 20.5299 20 20V4C19.9984 3.47005 19.7872 2.96227 19.4125 2.58753C19.0377 2.2128 18.5299 2.00158 18 2ZM6 4H11V12L8.5 10.5L6 12V4Z" fill="black"/>
</svg>
