<svg width="24" height="24" viewBox="0 0 24 24" fill="none" xmlns="http://www.w3.org/2000/svg">
<path d="M18 22H5.99023C5.46154 21.9974 4.95494 21.7859 4.58203 21.4111C4.20912 21.0363 3.99999 20.5287 4 20L4.01172 4C4.01171 3.4713 4.22181 2.96365 4.59473 2.58887C4.96764 2.21408 5.47325 2.00264 6.00195 2H14.002L20.002 8V20C20.002 20.2628 19.9502 20.5228 19.8496 20.7656C19.749 21.0084 19.601 21.2293 19.415 21.415C19.2291 21.6008 19.0085 21.7482 18.7656 21.8486C18.5227 21.949 18.2628 22.0003 18 22ZM7.5 15.5996L12 20.0996L16.5 15.5996H13.7998V12H10.2002V15.5996H7.5ZM13 3.5V9H18.5L13 3.5Z" fill="black"/>
</svg>
