<svg width="24" height="24" viewBox="0 0 24 24" fill="none" xmlns="http://www.w3.org/2000/svg">
<path d="M12.1006 17.5018C12.1006 16.0431 12.6804 14.6446 13.7119 13.6132C14.7433 12.5817 16.1419 12.0018 17.6006 12.0018C19.0592 12.0018 20.4588 12.5817 21.4902 13.6132C22.5217 14.6446 23.1006 16.0431 23.1006 17.5018C23.1006 18.9605 22.5217 20.3591 21.4902 21.3905C20.4588 22.422 19.0592 23.0018 17.6006 23.0018C16.1419 23.0018 14.7433 22.422 13.7119 21.3905C12.6804 20.3591 12.1006 18.9605 12.1006 17.5018ZM17.1006 13.5487V18.4979H21.459C21.5472 18.1718 21.5936 17.8358 21.5976 17.4979C21.5955 16.4377 21.1735 15.4214 20.4238 14.6718C19.6741 13.9221 18.6578 13.5 17.5976 13.4979C17.4315 13.506 17.2658 13.5228 17.1015 13.5487H17.1006ZM3.00095 18.9257C2.75606 18.9249 2.5213 18.8278 2.3486 18.6542C2.17591 18.4805 2.07952 18.2448 2.08005 17.9999V2.99988C2.07952 2.75499 2.17591 2.51921 2.3486 2.34558C2.5213 2.17195 2.75606 2.07489 3.00095 2.0741H16.5009C16.7458 2.07489 16.9806 2.17195 17.1533 2.34558C17.326 2.51921 17.4224 2.75499 17.4218 2.99988V10.9999C15.7293 11.0452 14.1218 11.75 12.9404 12.9628C11.759 14.1756 11.0966 15.8009 11.0957 17.494C11.0966 17.9732 11.151 18.4507 11.2578 18.9178L3.00095 18.9257ZM6.8906 7.92566C6.89454 8.01756 6.91087 8.10909 6.93747 8.19714L4.84763 11.3339C4.70329 11.3524 4.56449 11.3998 4.43845 11.4725C4.31241 11.5453 4.2025 11.642 4.11423 11.7577C4.02596 11.8734 3.96066 12.0056 3.9238 12.1464C3.88694 12.2871 3.87915 12.4339 3.89939 12.578C3.9364 12.8452 4.06981 13.0897 4.27439 13.2655C4.47896 13.4414 4.73999 13.5366 5.00974 13.5331C5.3024 13.5299 5.58213 13.411 5.78806 13.203C5.99398 12.995 6.11008 12.7144 6.11032 12.4218C6.10926 12.3295 6.09352 12.2375 6.06345 12.1503L8.16306 9.00769L8.19138 9.00183H8.2031L9.89255 10.2635C9.91852 10.5566 10.0594 10.8276 10.2842 11.0175C10.5089 11.2074 10.7994 11.3005 11.0927 11.2772C11.3694 11.2522 11.6271 11.1259 11.8154 10.9218C12.0037 10.7176 12.1097 10.4515 12.1123 10.1737C12.1088 10.1304 12.1022 10.0874 12.0937 10.0448V10.0233L12.0879 9.99402L14.0556 7.53308C14.349 7.51906 14.6257 7.3902 14.8242 7.17371C15.0227 6.95721 15.1276 6.67035 15.1162 6.37683C15.1095 6.23079 15.0738 6.08732 15.0117 5.95496C14.9496 5.82259 14.8619 5.70387 14.7539 5.60535C14.6459 5.50682 14.5203 5.43042 14.3828 5.38074C14.2453 5.33105 14.0991 5.30956 13.9531 5.31628C13.6683 5.33043 13.3994 5.45314 13.2031 5.66003C13.0068 5.86693 12.8985 6.14243 12.8994 6.42761C12.8954 6.48853 12.9027 6.54934 12.9218 6.6073L10.9433 9.06824C10.8905 9.07146 10.8379 9.08086 10.7871 9.09558L9.10837 7.83972C9.08307 7.56177 8.95529 7.30221 8.74997 7.11316C8.54465 6.9241 8.27613 6.81861 7.99704 6.81628C7.70403 6.81813 7.42368 6.93498 7.21677 7.14246C7.00985 7.34993 6.89262 7.63069 6.89157 7.92371L6.8906 7.92566Z" fill="black"/>
</svg>
