<svg width="24" height="24" viewBox="0 0 24 24" fill="none" xmlns="http://www.w3.org/2000/svg">
<path d="M19 23.002H4.98926C4.46056 22.9993 3.95397 22.7879 3.58105 22.4131C3.20814 22.0383 2.99902 21.5307 2.99902 21.002L3.01074 3.00195C3.00915 2.47346 3.21745 1.96584 3.58984 1.59082C3.96223 1.2158 4.46858 1.00407 4.99707 1.00195H14.9971L20.9971 7.00195V21.002C20.9971 21.5319 20.7865 22.0401 20.4121 22.415C20.0377 22.79 19.5299 23.0012 19 23.002ZM10.2393 16.3955L9.53906 17.2285C10.1357 17.7967 10.9271 18.1154 11.751 18.1182C13.064 18.1182 13.9824 17.3623 13.9824 16.2793C13.9929 15.9074 13.8781 15.5419 13.6562 15.2432C13.4344 14.9444 13.1179 14.7293 12.7588 14.6318L11.9639 14.2969L11.8984 14.2705C11.4044 14.0705 11.0137 13.916 11.0137 13.499C11.0137 13.105 11.3496 12.8604 11.8906 12.8604C12.3669 12.8641 12.8255 13.0419 13.1797 13.3604L13.7949 12.5957C13.2898 12.0945 12.6061 11.815 11.8945 11.8174C11.64 11.7878 11.3822 11.8104 11.1367 11.8838C10.8912 11.9572 10.6633 12.0797 10.4668 12.2441C10.2703 12.4086 10.1097 12.6112 9.99414 12.8398C9.87857 13.0685 9.81074 13.3185 9.79492 13.5742C9.80439 13.94 9.92786 14.293 10.1484 14.585C10.369 14.8769 10.6761 15.0931 11.0254 15.2021L11.8359 15.5488L11.9023 15.5771C12.4123 15.7931 12.7471 15.9342 12.7471 16.3672C12.7471 16.8002 12.3953 17.0674 11.7812 17.0674C11.2028 17.0394 10.6544 16.8003 10.2393 16.3965V16.3955ZM15.0605 11.9326V18.002H16.79C17.5823 17.9749 18.3321 17.6394 18.8799 17.0664C19.4277 16.4934 19.7303 15.7282 19.7217 14.9355C19.7131 14.1429 19.3941 13.3852 18.834 12.8242C18.2739 12.2633 17.5163 11.9434 16.7236 11.9336L15.0605 11.9326ZM4.57227 11.9326V18.002H5.78809V15.8477H6.59766C8.06566 15.8477 8.94336 15.0969 8.94336 13.8379C8.94336 12.5789 8.14338 11.9375 6.56738 11.9375L4.57227 11.9326ZM13.998 2.50195V8.00195H19.498L13.998 2.50195ZM16.6514 17.0273H16.2734V12.9023H16.6514C17.8874 12.9023 18.4893 13.5704 18.4893 14.9434C18.4893 16.3164 17.8733 17.0254 16.6533 17.0254L16.6514 17.0273ZM6.51562 14.8838H5.78711V12.8936H6.47559C7.37559 12.8936 7.75293 13.1759 7.75293 13.8359C7.75693 14.5399 7.35155 14.8828 6.51855 14.8828L6.51562 14.8838Z" fill="black"/>
</svg>
