<svg width="24" height="24" viewBox="0 0 24 24" fill="none" xmlns="http://www.w3.org/2000/svg">
<path d="M9 11.75C8.75278 11.75 8.5111 11.8233 8.30554 11.9607C8.09998 12.098 7.93976 12.2932 7.84515 12.5216C7.75055 12.7501 7.72579 13.0014 7.77402 13.2439C7.82225 13.4863 7.94131 13.7091 8.11612 13.8839C8.29094 14.0587 8.51366 14.1778 8.75614 14.226C8.99862 14.2742 9.24995 14.2495 9.47836 14.1548C9.70677 14.0602 9.90199 13.9 10.0393 13.6945C10.1767 13.4889 10.25 13.2472 10.25 13C10.25 12.8358 10.2177 12.6733 10.1549 12.5216C10.092 12.37 9.99996 12.2322 9.88389 12.1161C9.76781 12 9.63002 11.908 9.47836 11.8452C9.3267 11.7823 9.16416 11.75 9 11.75ZM15 11.75C14.7528 11.75 14.5111 11.8233 14.3055 11.9607C14.1 12.098 13.9398 12.2932 13.8452 12.5216C13.7505 12.7501 13.7258 13.0014 13.774 13.2439C13.8223 13.4863 13.9413 13.7091 14.1161 13.8839C14.2909 14.0587 14.5137 14.1778 14.7561 14.226C14.9986 14.2742 15.25 14.2495 15.4784 14.1548C15.7068 14.0602 15.902 13.9 16.0393 13.6945C16.1767 13.4889 16.25 13.2472 16.25 13C16.25 12.6685 16.1183 12.3505 15.8839 12.1161C15.6495 11.8817 15.3315 11.75 15 11.75ZM12 2C10.0222 2 8.08879 2.58649 6.4443 3.6853C4.79981 4.78412 3.51809 6.3459 2.76121 8.17317C2.00433 10.0004 1.8063 12.0111 2.19215 13.9509C2.578 15.8907 3.53041 17.6725 4.92894 19.0711C6.32746 20.4696 8.10929 21.422 10.0491 21.8079C11.9889 22.1937 13.9996 21.9957 15.8268 21.2388C17.6541 20.4819 19.2159 19.2002 20.3147 17.5557C21.4135 15.9112 22 13.9778 22 12C22 10.6868 21.7413 9.38642 21.2388 8.17317C20.7363 6.95991 19.9997 5.85752 19.0711 4.92893C18.1425 4.00035 17.0401 3.26375 15.8268 2.7612C14.6136 2.25866 13.3132 2 12 2ZM12 20C9.87917 19.9971 7.84602 19.1533 6.34636 17.6536C4.8467 16.154 4.00291 14.1208 4 12C4.00142 11.7127 4.01811 11.4256 4.05 11.14C6.41237 10.0862 8.27816 8.16315 9.26 5.77C10.1812 7.07776 11.4035 8.14476 12.8237 8.88096C14.2439 9.61716 15.8203 10.001 17.42 10C18.1776 10.0009 18.9326 9.91369 19.67 9.74C20.0239 10.9328 20.0942 12.1918 19.8755 13.4167C19.6567 14.6415 19.1548 15.7983 18.4098 16.7948C17.6648 17.7914 16.6974 18.6001 15.5845 19.1566C14.4717 19.713 13.2442 20.0019 12 20Z" fill="black"/>
</svg>
