<svg width="24" height="24" viewBox="0 0 24 24" fill="none" xmlns="http://www.w3.org/2000/svg">
<path d="M11.9984 1.99805C10.0206 1.99805 8.08627 2.58478 6.44178 3.68359C4.79729 4.78241 3.51702 6.34364 2.76014 8.1709C2.00326 9.99816 1.80398 12.0094 2.18983 13.9492C2.57568 15.889 3.52958 17.6708 4.92811 19.0693C6.32663 20.4679 8.10744 21.4198 10.0473 21.8057C11.9871 22.1915 13.9973 21.9942 15.8246 21.2373C17.6519 20.4804 19.2141 19.1982 20.3129 17.5537C21.4117 15.9092 21.9984 13.9759 21.9984 11.998C21.9958 9.34669 20.9416 6.80448 19.0668 4.92969C17.192 3.0549 14.6498 2.00069 11.9984 1.99805ZM10.4398 13.998L9.99842 4.99805H13.9984L13.5551 13.998H10.4398ZM11.9984 18.998C11.6029 18.998 11.216 18.8809 10.8871 18.6611C10.5582 18.4414 10.3021 18.1291 10.1508 17.7637C9.99939 17.3982 9.96031 16.9954 10.0375 16.6074C10.1147 16.2195 10.3047 15.8637 10.5844 15.584C10.8641 15.3043 11.2198 15.1133 11.6078 15.0361C11.9958 14.959 12.3986 14.999 12.764 15.1504C13.1295 15.3018 13.4408 15.5578 13.6605 15.8867C13.8803 16.2156 13.9984 16.6025 13.9984 16.998C13.9984 17.5285 13.7876 18.037 13.4125 18.4121C13.0374 18.7872 12.5289 18.998 11.9984 18.998Z" fill="black"/>
</svg>
