<svg width="16" height="16" viewBox="0 0 16 16" fill="none" xmlns="http://www.w3.org/2000/svg">
<g id="ico_0293_api">
<g id="Veoctor">
<path d="M5.45569 9.33333H4.05568V8.33333H5.45569V9.33333Z" fill="#808080"/>
<path d="M8.39148 9.33333L8.39189 8.38338H10.0056V9.33333H8.39148Z" fill="#808080"/>
<path fill-rule="evenodd" clip-rule="evenodd" d="M12.4921 6.44193C12.3301 5.49559 11.8729 4.62478 11.1857 3.95422C10.4986 3.28366 9.6169 2.84776 8.66689 2.70893C7.71688 2.57011 6.74731 2.73549 5.89704 3.18139C5.04677 3.6273 4.35942 4.33084 3.93344 5.19127C2.99548 5.31388 2.13838 5.78607 1.53357 6.51341C0.928763 7.24074 0.620838 8.16959 0.671383 9.11419C0.721927 10.0588 1.12721 10.9495 1.80618 11.6081C2.48515 12.2667 3.38775 12.6448 4.33344 12.6666H12.2781C13.0761 12.6512 13.8378 12.3304 14.4064 11.7703C14.975 11.2101 15.3072 10.4533 15.3347 9.65567C15.3621 8.858 15.0826 8.08016 14.5538 7.48232C14.025 6.88448 13.2872 6.51213 12.4921 6.44193ZM5.80566 7.33333H3.70565C3.52 7.33333 3.34196 7.40356 3.21067 7.52856C3.07941 7.65365 3.00566 7.82316 3.00566 8V11.3333H4.05566V10.3333H5.45565V11.3333H6.50566V8C6.50566 7.82316 6.4319 7.65365 6.30064 7.52856C6.16935 7.40356 5.99131 7.33333 5.80566 7.33333ZM7.34066 11.3333H8.39067L8.39105 10.3833H10.339C10.5158 10.3833 10.6854 10.3096 10.8104 10.1783C10.9354 10.047 11.0057 9.86898 11.0057 9.68327V8.03337C11.0057 7.84766 10.9354 7.6696 10.8104 7.53833C10.6854 7.40706 10.5158 7.33333 10.339 7.33333H7.33899L7.34066 11.3333ZM11.8561 11.3333H12.9061L12.9078 7.33333H11.8544L11.8561 11.3333Z" fill="#808080"/>
</g>
</g>
</svg>
