<svg width="16" height="16" viewBox="0 0 16 16" fill="none" xmlns="http://www.w3.org/2000/svg">
<g id="ico_0093_carousel">
<path id="Vector" d="M4.6665 14.0006C4.48969 14.0006 4.32017 13.9303 4.19515 13.8053C4.07013 13.6803 3.99984 13.5108 3.99984 13.3339V2.66728C3.99984 2.49047 4.07013 2.32095 4.19515 2.19592C4.32017 2.0709 4.48969 2.00061 4.6665 2.00061H11.3332C11.51 2.00061 11.6795 2.0709 11.8045 2.19592C11.9295 2.32095 11.9998 2.49047 11.9998 2.66728V13.3339C11.9998 13.5108 11.9295 13.6803 11.8045 13.8053C11.6795 13.9303 11.51 14.0006 11.3332 14.0006H4.6665ZM5.33317 10.0006H10.6665V3.33394H5.33317V10.0006ZM12.6665 12.0006V4.00061H14.6665C14.8433 4.00061 15.0128 4.0709 15.1379 4.19592C15.2629 4.32095 15.3332 4.49047 15.3332 4.66728V11.3339C15.3332 11.5108 15.2629 11.6803 15.1379 11.8053C15.0128 11.9303 14.8433 12.0006 14.6665 12.0006H12.6665ZM1.33317 12.0006C1.15636 12.0006 0.986841 11.9303 0.861816 11.8053C0.736792 11.6803 0.666504 11.5108 0.666504 11.3339V4.66728C0.666504 4.49047 0.736792 4.32095 0.861816 4.19592C0.986841 4.0709 1.15636 4.00061 1.33317 4.00061H3.33317V12.0006H1.33317Z" fill="#808080"/>
</g>
</svg>
