<svg width="24" height="24" viewBox="0 0 24 24" fill="none" xmlns="http://www.w3.org/2000/svg">
<path d="M3 8H1V20C1.00158 20.5299 1.2128 21.0377 1.58753 21.4125C1.96227 21.7872 2.47005 21.9984 3 22H19V20H3V8ZM21 3H7C6.4713 3.00264 5.96516 3.21452 5.59225 3.58931C5.21933 3.9641 5.00999 4.4713 5.01 5L5 16C5.00158 16.5299 5.2128 17.0377 5.58753 17.4125C5.96227 17.7872 6.47005 17.9984 7 18H21C21.5299 17.9984 22.0377 17.7872 22.4125 17.4125C22.7872 17.0377 22.9984 16.5299 23 16V5C22.9984 4.47005 22.7872 3.96227 22.4125 3.58753C22.0377 3.2128 21.5299 3.00158 21 3ZM7 15L11.5 9L15 13.51L17.5 10.5L21 15H7Z" fill="black"/>
</svg>
