<svg width="16" height="16" viewBox="0 0 16 16" fill="none" xmlns="http://www.w3.org/2000/svg">
<g id="ico_0090_text">
<path id="Vector" d="M12.9892 2.66669H2.81184L2.6665 6.10002H3.63517L3.6285 5.84335C3.6171 5.44969 3.68044 5.05742 3.81517 4.68735C3.89991 4.46812 4.04337 4.27644 4.22984 4.13335C4.41347 4.00627 4.62632 3.92783 4.8485 3.90535C5.11992 3.87549 5.39278 3.86057 5.66584 3.86069C5.88935 3.852 6.1132 3.85846 6.33584 3.88002C6.46336 3.8881 6.58976 3.90887 6.71317 3.94202C6.72538 3.96732 6.73089 3.99532 6.72917 4.02335V11.0114C6.73199 11.242 6.71436 11.4725 6.6765 11.7C6.65699 11.8323 6.60009 11.9563 6.5125 12.0574C6.39816 12.1711 6.25544 12.2521 6.09917 12.292C5.82748 12.3627 5.5479 12.3985 5.26717 12.3987H5.0265V13.432H10.6998V12.3994H10.4665C10.1862 12.3991 9.90702 12.3631 9.63584 12.292C9.48786 12.2551 9.35264 12.1789 9.2445 12.0714C9.15323 11.9657 9.09403 11.8362 9.07384 11.698C9.03618 11.4702 9.01856 11.2396 9.02117 11.0087L9.01517 3.98469C9.03601 3.9599 9.06516 3.94355 9.09717 3.93869C9.23096 3.90456 9.3679 3.88424 9.50584 3.87802C9.6965 3.86535 9.9505 3.85935 10.2705 3.85935C10.5445 3.85416 10.818 3.88532 11.0838 3.95202C11.282 4.00287 11.4633 4.10522 11.6092 4.24869C11.7688 4.41574 11.8866 4.61812 11.9532 4.83936C12.0531 5.17047 12.11 5.51306 12.1225 5.85869L12.1312 6.09869H13.1312L12.9892 2.66669Z" fill="#808080"/>
</g>
</svg>
