<svg width="24" height="24" viewBox="0 0 24 24" fill="none" xmlns="http://www.w3.org/2000/svg">
<path d="M22.4989 20.4H1.49886C1.45962 20.3995 1.42126 20.392 1.38519 20.3766C1.34912 20.3611 1.31651 20.339 1.2891 20.3109C1.26168 20.2829 1.23922 20.2489 1.22464 20.2125C1.21007 20.1761 1.20307 20.1369 1.20355 20.0977V3.89766C1.20275 3.85845 1.21015 3.81926 1.22464 3.78281C1.23914 3.74637 1.26042 3.71233 1.28792 3.68438C1.31543 3.65642 1.34781 3.63617 1.38402 3.6211C1.42022 3.60602 1.45964 3.59749 1.49886 3.59766H22.4989C22.5783 3.59797 22.6548 3.63053 22.711 3.68672C22.7672 3.74291 22.7985 3.81819 22.7989 3.89766V20.0977C22.7982 20.1773 22.767 20.2544 22.711 20.3109C22.6549 20.3674 22.5785 20.3988 22.4989 20.4ZM16.2 12.8977C16.1605 12.8975 16.1217 12.9061 16.0852 12.9211C16.0487 12.9361 16.0147 12.9565 15.9868 12.9844C15.9588 13.0122 15.9375 13.0463 15.9223 13.0828C15.9071 13.1193 15.8989 13.1582 15.8989 13.1977V16.1977C15.8998 16.2771 15.9316 16.3525 15.9879 16.4086C16.0442 16.4647 16.1205 16.497 16.2 16.4977H19.2C19.2789 16.4955 19.354 16.4621 19.4098 16.4063C19.4656 16.3504 19.4979 16.2766 19.5 16.1977V13.1977C19.4994 13.1183 19.4671 13.0428 19.411 12.9867C19.3548 12.9306 19.2794 12.8983 19.2 12.8977H16.2ZM10.4953 12.8977C10.4158 12.8977 10.3395 12.9281 10.2832 12.9844C10.227 13.0406 10.1953 13.1181 10.1953 13.1977V16.1977C10.196 16.277 10.2271 16.3525 10.2832 16.4086C10.3394 16.4647 10.416 16.497 10.4953 16.4977H13.4953C13.5749 16.4977 13.6512 16.4649 13.7075 16.4086C13.7637 16.3523 13.7953 16.2772 13.7953 16.1977V13.1977C13.7958 13.1581 13.788 13.1194 13.7731 13.0828C13.7582 13.0462 13.7366 13.0123 13.7086 12.9844C13.6807 12.9564 13.6468 12.9337 13.6102 12.9188C13.5736 12.9038 13.5349 12.8972 13.4953 12.8977H10.4953ZM4.79769 12.8977C4.75847 12.8975 4.71905 12.906 4.68285 12.9211C4.64664 12.9362 4.61426 12.9564 4.58675 12.9844C4.55924 13.0123 4.53796 13.0464 4.52347 13.0828C4.50898 13.1193 4.50158 13.1584 4.50238 13.1977V16.1977C4.50206 16.2367 4.50998 16.2763 4.52464 16.3125C4.53931 16.3487 4.56051 16.3807 4.58792 16.4086C4.61534 16.4365 4.64803 16.459 4.68402 16.4742C4.72 16.4895 4.75861 16.4973 4.79769 16.4977H7.79769C7.83719 16.4978 7.876 16.4892 7.91253 16.4742C7.94907 16.4592 7.98299 16.4388 8.01097 16.4109C8.03896 16.3831 8.06027 16.349 8.07542 16.3125C8.09058 16.276 8.09886 16.2372 8.09886 16.1977V13.1977C8.09918 13.1581 8.09163 13.1194 8.0766 13.0828C8.06156 13.0462 8.03902 13.0123 8.01097 12.9844C7.98292 12.9564 7.95039 12.9336 7.91371 12.9188C7.87702 12.9039 7.83728 12.8972 7.79769 12.8977H4.79769ZM16.1977 7.49766C16.1585 7.49718 16.1192 7.50416 16.0828 7.51875C16.0465 7.53335 16.0136 7.55461 15.9856 7.58203C15.9576 7.60946 15.9353 7.64206 15.92 7.67813C15.9046 7.71419 15.8968 7.75379 15.8965 7.79297V10.793C15.8975 10.8725 15.9293 10.9478 15.9856 11.0039C16.0419 11.06 16.1182 11.0923 16.1977 11.093H19.1977C19.2766 11.0908 19.3516 11.0574 19.4075 11.0016C19.4633 10.9458 19.4956 10.8719 19.4977 10.793V7.79297C19.4964 7.71424 19.4648 7.6396 19.4086 7.58438C19.3525 7.52915 19.2764 7.49765 19.1977 7.49766H16.1977ZM10.493 7.49766C10.4539 7.49734 10.4156 7.50409 10.3793 7.51875C10.3431 7.53342 10.3099 7.55462 10.2821 7.58203C10.2542 7.60945 10.2317 7.64214 10.2164 7.67813C10.2012 7.71411 10.1933 7.75389 10.193 7.79297V10.793C10.1936 10.8723 10.2248 10.9478 10.2809 11.0039C10.337 11.06 10.4136 11.0923 10.493 11.093H13.493C13.5726 11.093 13.6489 11.0602 13.7051 11.0039C13.7614 10.9476 13.793 10.8725 13.793 10.793V7.79297C13.7932 7.75375 13.7858 7.71433 13.7707 7.67813C13.7557 7.64192 13.7331 7.60954 13.7051 7.58203C13.6772 7.55453 13.6443 7.53324 13.6078 7.51875C13.5714 7.50426 13.5322 7.49686 13.493 7.49766H10.493ZM4.79535 7.49766C4.71705 7.49766 4.64211 7.52902 4.58675 7.58438C4.53139 7.63974 4.50003 7.71468 4.50003 7.79297V10.793C4.49972 10.8321 4.50764 10.8716 4.5223 10.9078C4.53696 10.944 4.55817 10.9761 4.58558 11.0039C4.61299 11.0318 4.64569 11.0543 4.68167 11.0695C4.71766 11.0848 4.75626 11.0927 4.79535 11.093H7.79535C7.83484 11.0931 7.87365 11.0845 7.91019 11.0695C7.94673 11.0545 7.98064 11.0341 8.00863 11.0063C8.03661 10.9784 8.05793 10.9443 8.07308 10.9078C8.08823 10.8713 8.09652 10.8325 8.09652 10.793V7.79297C8.09653 7.7537 8.08829 7.71434 8.07308 7.67813C8.05787 7.64192 8.03551 7.60953 8.00746 7.58203C7.97941 7.55454 7.9467 7.53323 7.91019 7.51875C7.87368 7.50428 7.83461 7.49686 7.79535 7.49766H4.79535Z" fill="black"/>
</svg>
