<svg width="16" height="16" viewBox="0 0 16 16" fill="none" xmlns="http://www.w3.org/2000/svg">
<g id="ico_0043_detail">
<path id="Vector" d="M6.25196 13C6.21901 13.0003 6.18677 12.9939 6.15626 12.9814C6.12575 12.969 6.09757 12.951 6.07423 12.9277C6.05088 12.9045 6.03212 12.8762 6.01954 12.8457C6.00696 12.8152 6.00085 12.783 6.00098 12.75V11.25C6.00125 11.1835 6.02819 11.1203 6.0752 11.0732C6.12222 11.0262 6.18547 10.9993 6.25196 10.999H13.752C13.8184 10.9993 13.8817 11.0262 13.9287 11.0732C13.9757 11.1203 14.0027 11.1835 14.0029 11.25V12.75C14.0031 12.783 13.997 12.8152 13.9844 12.8457C13.9718 12.8762 13.953 12.9045 13.9297 12.9277C13.9063 12.951 13.8782 12.969 13.8477 12.9814C13.8172 12.9939 13.7849 13.0003 13.752 13H6.25196ZM2.25196 13C2.21909 13.0001 2.18665 12.994 2.15626 12.9814C2.12587 12.9689 2.09844 12.95 2.0752 12.9268C2.05196 12.9035 2.03303 12.8761 2.02052 12.8457C2.008 12.8153 2.00183 12.7829 2.00196 12.75V11.25C2.00222 11.1837 2.0284 11.1202 2.0752 11.0732C2.122 11.0263 2.18565 10.9996 2.25196 10.999H3.75196C3.81828 10.9996 3.88192 11.0263 3.92872 11.0732C3.97552 11.1202 4.0017 11.1837 4.00196 11.25V12.75C4.00209 12.7829 3.99592 12.8153 3.98341 12.8457C3.97089 12.8761 3.95196 12.9035 3.92872 12.9268C3.90548 12.95 3.87806 12.9689 3.84766 12.9814C3.81727 12.994 3.78483 13.0001 3.75196 13H2.25196ZM6.25196 9C6.18555 8.99948 6.12216 8.97274 6.0752 8.92578C6.02824 8.87882 6.00151 8.81543 6.00098 8.74903V7.24903C6.00085 7.21607 6.00696 7.18378 6.01954 7.15332C6.03212 7.12287 6.05088 7.09455 6.07423 7.07129C6.09757 7.04804 6.12575 7.03004 6.15626 7.01758C6.18677 7.00512 6.21901 6.99876 6.25196 6.99903H13.752C13.7849 6.99876 13.8172 7.00512 13.8477 7.01758C13.8782 7.03004 13.9063 7.04804 13.9297 7.07129C13.953 7.09455 13.9718 7.12287 13.9844 7.15332C13.997 7.18378 14.0031 7.21607 14.0029 7.24903V8.74903C14.0024 8.81543 13.9757 8.87882 13.9287 8.92578C13.8818 8.97274 13.8184 8.99948 13.752 9H6.25196ZM2.25196 9C2.18573 8.99922 2.12292 8.97271 2.07618 8.92578C2.02944 8.87885 2.00248 8.81526 2.00196 8.74903V7.24903C2.00183 7.21616 2.008 7.18371 2.02052 7.15332C2.03303 7.12293 2.05196 7.09551 2.0752 7.07227C2.09844 7.04903 2.12587 7.0301 2.15626 7.01758C2.18665 7.00506 2.21909 6.99889 2.25196 6.99903H3.75196C3.78483 6.99889 3.81727 7.00506 3.84766 7.01758C3.87806 7.0301 3.90548 7.04903 3.92872 7.07227C3.95196 7.09551 3.97089 7.12293 3.98341 7.15332C3.99592 7.18371 4.00209 7.21616 4.00196 7.24903V8.74903C4.00144 8.81526 3.97546 8.87885 3.92872 8.92578C3.88197 8.97271 3.81819 8.99922 3.75196 9H2.25196ZM6.25196 5C6.21896 5.00013 6.18677 4.99401 6.15626 4.98145C6.12575 4.96888 6.09756 4.95009 6.07423 4.92676C6.05089 4.90343 6.03211 4.87524 6.01954 4.84473C6.00697 4.81422 6.00085 4.78202 6.00098 4.74903V3.24903C6.00085 3.21603 6.00697 3.18286 6.01954 3.15235C6.03211 3.12183 6.05089 3.09463 6.07423 3.07129C6.09756 3.04796 6.12575 3.02917 6.15626 3.0166C6.18677 3.00404 6.21896 2.99792 6.25196 2.99805H13.752C13.785 2.99792 13.8181 3.00404 13.8486 3.0166C13.8792 3.02917 13.9064 3.04796 13.9297 3.07129C13.953 3.09463 13.9718 3.12183 13.9844 3.15235C13.997 3.18286 14.0031 3.21603 14.0029 3.24903V4.74903C14.0031 4.78202 13.997 4.81422 13.9844 4.84473C13.9718 4.87524 13.953 4.90343 13.9297 4.92676C13.9064 4.95009 13.8792 4.96888 13.8486 4.98145C13.8181 4.99401 13.785 5.00013 13.752 5H6.25196ZM2.25196 5C2.21901 5.00014 2.18671 4.99403 2.15626 4.98145C2.1258 4.96887 2.09748 4.95011 2.07423 4.92676C2.05097 4.90341 2.03297 4.87524 2.02052 4.84473C2.00806 4.81422 2.0017 4.78198 2.00196 4.74903V3.24903C2.0017 3.21607 2.00806 3.18383 2.02052 3.15332C2.03297 3.12282 2.05097 3.09464 2.07423 3.07129C2.09748 3.04794 2.1258 3.02918 2.15626 3.0166C2.18671 3.00402 2.21901 2.99792 2.25196 2.99805H3.75196C3.78491 2.99792 3.81721 3.00402 3.84766 3.0166C3.87812 3.02918 3.90644 3.04794 3.9297 3.07129C3.95295 3.09464 3.97095 3.12282 3.98341 3.15332C3.99586 3.18383 4.00223 3.21607 4.00196 3.24903V4.74903C4.00223 4.78198 3.99586 4.81422 3.98341 4.84473C3.97095 4.87524 3.95295 4.90341 3.9297 4.92676C3.90644 4.95011 3.87812 4.96887 3.84766 4.98145C3.81721 4.99403 3.78491 5.00014 3.75196 5H2.25196Z" fill="#808080"/>
</g>
</svg>
