<svg width="16" height="16" viewBox="0 0 16 16" fill="none" xmlns="http://www.w3.org/2000/svg">
<g id="ico_0032_time">
<path id="Vector" d="M0.998047 8.00118C0.998048 6.61637 1.40821 5.26285 2.17773 4.11153C2.94726 2.96022 4.04076 2.06298 5.32031 1.53341C6.59986 1.00383 8.0091 0.865201 9.36719 1.13595C10.7253 1.40669 11.9725 2.07415 12.9512 3.05392C13.9298 4.03368 14.596 5.28244 14.8652 6.64083C15.1344 7.99922 14.9939 9.40681 14.4629 10.6858C13.9318 11.9647 13.0331 13.0572 11.8809 13.8254C10.7287 14.5936 9.37504 15.0028 7.99023 15.0012C6.13511 14.9991 4.35595 14.261 3.04492 12.9484C1.7339 11.6359 0.998046 9.85631 0.998047 8.00118ZM2.39844 8.00118C2.39844 9.10876 2.72646 10.1916 3.3418 11.1125C3.95713 12.0334 4.8322 12.7512 5.85547 13.175C6.87873 13.5989 8.00355 13.7094 9.08984 13.4934C10.1761 13.2773 11.1739 12.7443 11.957 11.9611C12.7402 11.178 13.2742 10.1802 13.4902 9.09395C13.7063 8.00766 13.5957 6.88187 13.1719 5.8586C12.748 4.83534 12.0303 3.96027 11.1094 3.34493C10.1885 2.72959 9.10562 2.40157 7.99805 2.40157C6.51283 2.40157 5.08927 2.99102 4.03906 4.04122C2.98886 5.09142 2.39844 6.51597 2.39844 8.00118ZM7.29883 8.70138V4.50118H8.34961V8.17306L11.4941 10.0422L10.9707 10.9065L7.29883 8.70138Z" fill="#808080"/>
</g>
</svg>
