<svg width="24" height="24" viewBox="0 0 24 24" fill="none" xmlns="http://www.w3.org/2000/svg">
<path d="M6 22.0011C4.93913 22.0011 3.92202 21.5794 3.17188 20.8293C2.42173 20.0791 2 19.062 2 18.0011H13C13 19.062 13.4217 20.0791 14.1719 20.8293C14.922 21.5794 15.9391 22.0011 17 22.0011H6ZM17.5 21.0011C17.433 21.0011 17.3725 21.0011 17.3105 21.0011C16.8576 20.9748 16.4153 20.857 16.0088 20.6554C15.6023 20.4539 15.2405 20.1729 14.9453 19.8283C14.3327 19.1308 13.9957 18.2332 13.998 17.3049V17.005H5.99805V3.12712L6.93359 2.18766C7.05578 2.06381 7.20153 1.96605 7.3623 1.89958C7.52308 1.8331 7.69614 1.79954 7.87012 1.80095C8.04465 1.79979 8.21751 1.83313 8.37891 1.89958C8.5403 1.96602 8.68644 2.06396 8.80957 2.18766C8.93142 2.31224 9.07749 2.41151 9.23828 2.47868C9.39908 2.54585 9.57184 2.58015 9.74609 2.57927C9.92083 2.57934 10.0936 2.54481 10.2549 2.4777C10.4162 2.4106 10.5624 2.31164 10.6855 2.18766C10.9341 1.93998 11.2712 1.80095 11.6221 1.80095C11.973 1.80095 12.3091 1.93998 12.5576 2.18766C12.6804 2.31151 12.8273 2.41062 12.9883 2.4777C13.1493 2.54479 13.3217 2.57927 13.4961 2.57927C13.6705 2.57927 13.8429 2.54479 14.0039 2.4777C14.1649 2.41062 14.3108 2.31151 14.4336 2.18766C14.6828 1.94004 15.0198 1.80192 15.3711 1.80192C15.7224 1.80192 16.0594 1.94004 16.3086 2.18766C16.4314 2.31151 16.5783 2.41062 16.7393 2.4777C16.9003 2.54479 17.0727 2.57927 17.2471 2.57927C17.4215 2.57927 17.5939 2.54479 17.7549 2.4777C17.9159 2.41062 18.0618 2.31151 18.1846 2.18766C18.4339 1.93998 18.7716 1.80095 19.123 1.80095C19.4745 1.80095 19.8112 1.93998 20.0605 2.18766L20.998 3.12712V17.507C20.998 18.4353 20.629 19.3252 19.9727 19.9816C19.3163 20.638 18.4263 21.007 17.498 21.007L17.5 21.0011ZM8 13.5011H14V12.0011H8V13.5011ZM8 10.5011H19V9.00114H8V10.5011ZM8 7.50114H19V6.00114H8V7.50114Z" fill="black"/>
</svg>
