<svg width="24" height="24" viewBox="0 0 24 24" fill="none" xmlns="http://www.w3.org/2000/svg">
<path d="M16.496 19.501C16.3634 19.501 16.2363 19.4483 16.1425 19.3545C16.0487 19.2607 15.996 19.1336 15.996 19.001V13.001C15.996 12.8684 16.0487 12.7412 16.1425 12.6475C16.2363 12.5537 16.3634 12.501 16.496 12.501H21.496C21.6286 12.501 21.7558 12.5537 21.8495 12.6475C21.9433 12.7412 21.996 12.8684 21.996 13.001V19.001C21.996 19.1336 21.9433 19.2607 21.8495 19.3545C21.7558 19.4483 21.6286 19.501 21.496 19.501H16.496ZM9.49601 19.501C9.3634 19.501 9.23626 19.4483 9.14249 19.3545C9.04872 19.2607 8.99601 19.1336 8.99601 19.001V13.001C8.99601 12.8684 9.04872 12.7412 9.14249 12.6475C9.23626 12.5537 9.3634 12.501 9.49601 12.501H14.496C14.6286 12.501 14.7558 12.5537 14.8495 12.6475C14.9433 12.7412 14.996 12.8684 14.996 13.001V19.001C14.996 19.1336 14.9433 19.2607 14.8495 19.3545C14.7558 19.4483 14.6286 19.501 14.496 19.501H9.49601ZM2.49601 19.501C2.43012 19.5018 2.36563 19.4897 2.3046 19.4648C2.24357 19.44 2.18713 19.403 2.14054 19.3564C2.09395 19.3099 2.05796 19.2544 2.03312 19.1934C2.00827 19.1323 1.9952 19.0669 1.99601 19.001V13.001C1.99601 12.8684 2.04872 12.7412 2.14249 12.6475C2.23626 12.5537 2.3634 12.501 2.49601 12.501H7.49601C7.62862 12.501 7.75575 12.5537 7.84952 12.6475C7.94329 12.7412 7.99601 12.8684 7.99601 13.001V19.001C7.99601 19.1336 7.94329 19.2607 7.84952 19.3545C7.75575 19.4483 7.62862 19.501 7.49601 19.501H2.49601ZM16.496 11.501C16.3634 11.501 16.2363 11.4483 16.1425 11.3545C16.0487 11.2607 15.996 11.1336 15.996 11.001V5.00098C15.996 4.86837 16.0487 4.74123 16.1425 4.64746C16.2363 4.55369 16.3634 4.50098 16.496 4.50098H21.496C21.6286 4.50098 21.7558 4.55369 21.8495 4.64746C21.9433 4.74123 21.996 4.86837 21.996 5.00098V11.001C21.996 11.1336 21.9433 11.2607 21.8495 11.3545C21.7558 11.4483 21.6286 11.501 21.496 11.501H16.496ZM9.49601 11.501C9.3634 11.501 9.23626 11.4483 9.14249 11.3545C9.04872 11.2607 8.99601 11.1336 8.99601 11.001V5.00098C8.99601 4.86837 9.04872 4.74123 9.14249 4.64746C9.23626 4.55369 9.3634 4.50098 9.49601 4.50098H14.496C14.6286 4.50098 14.7558 4.55369 14.8495 4.64746C14.9433 4.74123 14.996 4.86837 14.996 5.00098V11.001C14.996 11.1336 14.9433 11.2607 14.8495 11.3545C14.7558 11.4483 14.6286 11.501 14.496 11.501H9.49601ZM2.49601 11.501C2.3634 11.501 2.23626 11.4483 2.14249 11.3545C2.04872 11.2607 1.99601 11.1336 1.99601 11.001V5.00098C1.99601 4.86837 2.04872 4.74123 2.14249 4.64746C2.23626 4.55369 2.3634 4.50098 2.49601 4.50098H7.49601C7.62862 4.50098 7.75575 4.55369 7.84952 4.64746C7.94329 4.74123 7.99601 4.86837 7.99601 5.00098V11.001C7.99601 11.1336 7.94329 11.2607 7.84952 11.3545C7.75575 11.4483 7.62862 11.501 7.49601 11.501H2.49601Z" fill="black"/>
</svg>
