<svg width="24" height="24" viewBox="0 0 24 24" fill="none" xmlns="http://www.w3.org/2000/svg">
<path d="M8.65483 22.0134L11.9996 16.4363L15.3462 22.0134H8.65483ZM18.1626 20.0134C18.0651 19.9166 17.9879 19.8005 17.9351 19.6736C17.8823 19.5467 17.855 19.4107 17.855 19.2732C17.855 19.1357 17.8823 18.9997 17.9351 18.8728C17.9879 18.7459 18.0651 18.6308 18.1626 18.5339C19.3814 17.3151 20.2112 15.7626 20.5474 14.072C20.8837 12.3815 20.7119 10.6293 20.0523 9.03687C19.3927 7.44442 18.2755 6.08334 16.8423 5.12573C15.4092 4.16812 13.7242 3.65698 12.0005 3.65698C10.2769 3.65698 8.59191 4.16812 7.15874 5.12573C5.72557 6.08334 4.6084 7.44442 3.94878 9.03687C3.28915 10.6293 3.11643 12.3815 3.45268 14.072C3.78894 15.7626 4.61865 17.3151 5.83745 18.5339C6.03064 18.7316 6.13921 18.9968 6.13921 19.2732C6.13921 19.5496 6.03064 19.8158 5.83745 20.0134C5.64142 20.2086 5.37676 20.3181 5.10014 20.3181C4.82353 20.3181 4.55789 20.2086 4.36186 20.0134C2.85237 18.5027 1.82471 16.5779 1.40874 14.4832C0.99276 12.3884 1.20725 10.2168 2.02495 8.2439C2.84264 6.27099 4.22663 4.58548 6.00249 3.39917C7.77834 2.21286 9.86586 1.57983 12.0015 1.57983C14.1372 1.57983 16.2247 2.21286 18.0005 3.39917C19.7764 4.58548 21.1614 6.27099 21.979 8.2439C22.7967 10.2168 23.0112 12.3884 22.5953 14.4832C22.1793 16.5779 21.1516 18.5027 19.6421 20.0134C19.4446 20.2105 19.177 20.3212 18.898 20.322C18.7613 20.3223 18.6257 20.2955 18.4996 20.2429C18.3734 20.1904 18.2587 20.1136 18.1626 20.0164V20.0134ZM7.31694 17.0583C6.39099 16.1322 5.75983 14.9522 5.50444 13.6677C5.24905 12.3832 5.38112 11.0515 5.88237 9.84155C6.38362 8.63163 7.2319 7.59744 8.32085 6.86987C9.4098 6.14231 10.6899 5.75366 11.9996 5.75366C13.3092 5.75366 14.5893 6.14231 15.6783 6.86987C16.7672 7.59744 17.6165 8.63163 18.1177 9.84155C18.619 11.0515 18.7501 12.3832 18.4947 13.6677C18.2393 14.9522 17.6091 16.1322 16.6832 17.0583C16.4862 17.2518 16.2209 17.3601 15.9449 17.3601C15.6688 17.3601 15.4035 17.2518 15.2066 17.0583C15.1073 16.9625 15.0281 16.8475 14.9742 16.7205C14.9202 16.5934 14.8931 16.4561 14.8931 16.3181C14.8931 16.1801 14.9202 16.0438 14.9742 15.9167C15.0281 15.7897 15.1073 15.6747 15.2066 15.5789C15.8406 14.9449 16.2728 14.1369 16.4478 13.2576C16.6228 12.3782 16.5331 11.4668 16.19 10.6384C15.8469 9.81008 15.2655 9.10238 14.5201 8.60425C13.7746 8.10612 12.8981 7.84058 12.0015 7.84058C11.1049 7.84058 10.2284 8.10612 9.48295 8.60425C8.73749 9.10238 8.15708 9.81008 7.81401 10.6384C7.47094 11.4668 7.38122 12.3782 7.5562 13.2576C7.73118 14.1369 8.16239 14.9449 8.79643 15.5789C8.90001 15.6745 8.98375 15.7901 9.04155 15.9187C9.09935 16.0473 9.13058 16.1869 9.13335 16.3279C9.13612 16.4689 9.10988 16.6082 9.05717 16.739C9.00447 16.8698 8.92645 16.9889 8.82671 17.0886C8.72696 17.1883 8.60793 17.2665 8.4771 17.3191C8.34627 17.3717 8.20597 17.3981 8.06499 17.3953C7.924 17.3924 7.78537 17.3604 7.65678 17.3025C7.5282 17.2446 7.41255 17.162 7.31694 17.0583Z" fill="black"/>
</svg>
