<svg width="24" height="24" viewBox="0 0 24 24" fill="none" xmlns="http://www.w3.org/2000/svg">
<path d="M7.77734 22.002C7.54408 22.0021 7.31319 21.9564 7.09766 21.8672C6.88212 21.778 6.68545 21.6474 6.52051 21.4824C6.35556 21.3175 6.22495 21.1208 6.13574 20.9053C6.04654 20.6897 6.00085 20.4589 6.00098 20.2256V7.78027C6.00124 7.30933 6.18848 6.85742 6.52148 6.52441C6.85449 6.19141 7.3064 6.00417 7.77734 6.00391H20.2227C20.6936 6.00417 21.1455 6.19141 21.4785 6.52441C21.8115 6.85742 21.9988 7.30933 21.999 7.78027V20.2256C21.9992 20.4589 21.9535 20.6897 21.8643 20.9053C21.7751 21.1208 21.6444 21.3175 21.4795 21.4824C21.3145 21.6474 21.1179 21.778 20.9023 21.8672C20.6868 21.9564 20.4559 22.0021 20.2227 22.002H7.77734ZM7.77734 14.002L12.2236 18.4482L20.2236 10.4482L18.9678 9.18262L12.2246 15.9297L9.03125 12.7471L7.77734 14.002ZM2.00195 18.002V4.00195C2.00195 3.47152 2.21282 2.96296 2.58789 2.58789C2.96296 2.21282 3.47152 2.00195 4.00195 2.00195H18.002V4.00195H4.00195V18.002H2.00195Z" fill="black"/>
</svg>
