<svg width="24" height="24" viewBox="0 0 24 24" fill="none" xmlns="http://www.w3.org/2000/svg">
<path d="M20.2179 21.8546C19.8588 21.7848 19.5349 21.5902 19.3048 21.3058C19.0747 21.0214 18.9524 20.6657 18.9591 20.3V19.9543C18.5813 20.141 18.1834 20.2825 17.7726 20.3761C16.5073 20.6823 15.1754 20.5521 13.9933 20.007C13.5354 19.7572 13.1406 19.4076 12.837 18.9836C12.5335 18.5595 12.3291 18.0717 12.2403 17.5578C12.1803 17.3078 12.0911 16.9191 12.0021 16.8781C11.8786 17.0787 11.7955 17.3018 11.7579 17.5343C11.6703 18.0525 11.4668 18.5436 11.1622 18.9718C10.8576 19.4001 10.4599 19.7542 9.99913 20.007C9.26548 20.3618 8.45947 20.5394 7.64464 20.5265C7.16376 20.5256 6.6836 20.475 6.213 20.3761C5.80468 20.2815 5.40902 20.14 5.03331 19.9543V20.216C5.03913 20.5831 4.91445 20.9418 4.68175 21.2257C4.44904 21.5097 4.12388 21.7003 3.7628 21.7668C3.40139 21.8464 3.02276 21.7968 2.69542 21.6242C2.36808 21.4515 2.11314 21.1686 1.97472 20.8253C1.19711 18.5781 0.874604 16.1985 1.02647 13.8254C1.00752 11.9996 1.37137 10.1896 2.09386 8.51285C2.66877 7.17911 3.52941 5.9879 4.61632 5.02457C5.70322 4.06124 6.98881 3.34919 8.38194 2.93863C10.0681 2.44403 11.8414 2.31664 13.5812 2.56363C15.321 2.81062 16.9879 3.42591 18.4698 4.37027C20.4899 5.76671 21.9371 7.84495 22.547 10.2238C22.9187 11.894 23.059 13.6072 22.964 15.3156C23.022 17.2319 22.6989 19.1409 22.0118 20.9308C21.8941 21.2168 21.6935 21.4618 21.4366 21.6339C21.1797 21.8061 20.8777 21.8975 20.5685 21.8976C20.4503 21.8952 20.333 21.8815 20.2179 21.8546ZM12.4679 15.7023C12.7394 15.8486 12.9702 16.0606 13.1407 16.3175C13.3113 16.5745 13.416 16.868 13.4454 17.175C13.4917 17.5253 13.6165 17.8602 13.8107 18.1554C14.0048 18.4507 14.2632 18.6987 14.5665 18.88C15.4911 19.2952 16.5291 19.386 17.5118 19.1378C18.0262 19.0339 18.5131 18.8242 18.9425 18.5226L19.1505 18.3078C19.5199 17.9931 19.8114 17.5973 20.003 17.1515C20.2114 16.6754 20.3229 16.1634 20.3312 15.6437C20.3394 15.124 20.245 14.6087 20.0519 14.1261C19.6109 13.4761 18.6097 13.4089 17.7267 13.3449C16.3317 13.2449 14.9497 13.1712 13.5597 13.1242H10.4357C9.04699 13.1708 7.65985 13.2442 6.27452 13.3449C5.38652 13.4089 4.38447 13.4761 3.94347 14.1261C3.7493 14.6084 3.653 15.1239 3.66124 15.6437C3.66948 16.1635 3.78196 16.6756 3.99132 17.1515C4.183 17.5973 4.47541 17.9931 4.84483 18.3078L4.99913 18.464C5.4351 18.7972 5.94117 19.0274 6.47862 19.1378C7.46331 19.3862 8.50315 19.2955 9.42979 18.88C9.72333 18.7115 9.97461 18.4801 10.1651 18.2004C10.3557 17.9206 10.4801 17.5997 10.5294 17.2648C10.558 16.9476 10.6611 16.6416 10.8312 16.3722C11.0012 16.1029 11.2328 15.8782 11.5069 15.716C11.6846 15.6861 11.865 15.6748 12.045 15.6828C12.186 15.6779 12.3279 15.6848 12.4679 15.7023ZM10.7862 4.75699C10.6252 4.75699 10.4647 4.76271 10.3087 4.76871C10.1682 4.77965 10.0298 4.80978 9.89757 4.85855C9.78057 4.89885 9.67994 4.97816 9.61143 5.08121C9.52777 5.20158 9.4876 5.34711 9.49815 5.49332V10.9308C9.49837 10.9881 9.51077 11.0446 9.53429 11.0968C9.5526 11.1927 9.58696 11.2853 9.63487 11.3703C9.66166 11.4127 9.69639 11.4489 9.73741 11.4777C9.77843 11.5065 9.8242 11.5274 9.87315 11.5382C10.1262 11.5907 10.3843 11.6188 10.6427 11.6222C10.9057 11.6222 11.1612 11.6224 11.4122 11.6164C11.6122 11.6164 11.8292 11.6023 12.0792 11.5793C12.2977 11.5556 12.5151 11.5194 12.7296 11.4718C13.0317 11.4199 13.3174 11.2972 13.5636 11.1144C13.7673 10.9557 13.929 10.7502 14.0353 10.5148C14.137 10.2839 14.1865 10.0327 14.1788 9.78043C14.1763 9.51157 14.1313 9.24472 14.047 8.98941C13.9833 8.77112 13.8781 8.56771 13.7364 8.3898C13.604 8.2239 13.4451 8.0814 13.2657 7.96793C13.495 7.83043 13.6841 7.63489 13.8146 7.40152C13.9358 7.17859 14.0068 6.93216 14.0226 6.67887C14.0353 6.42418 13.9906 6.16976 13.8917 5.93473C13.7904 5.6888 13.6355 5.46896 13.4386 5.29019C13.3675 5.20641 13.2776 5.1405 13.1759 5.09879C13.0791 5.04639 12.9781 5.0009 12.8751 4.96207C12.6671 4.88594 12.4515 4.83396 12.2316 4.80777C12.0046 4.77877 11.7843 4.75909 11.5753 4.75309C11.4443 4.74709 11.3079 4.74723 11.1759 4.74723C11.0439 4.74723 10.9172 4.75699 10.7862 4.75699ZM11.1495 10.4757C11.0372 10.4587 10.9329 10.4086 10.8497 10.3312C10.8154 10.2972 10.7888 10.2572 10.7716 10.2121C10.7543 10.1669 10.7462 10.1178 10.7491 10.0695C10.7551 9.96249 10.755 9.86952 10.755 9.77652C10.755 9.62252 10.7615 9.46796 10.7735 9.29996C10.7853 9.1335 10.7853 8.96642 10.7735 8.79996C10.7668 8.73057 10.7814 8.65959 10.8155 8.59879C10.8272 8.57568 10.8437 8.5558 10.8644 8.54019C10.885 8.52459 10.9093 8.51384 10.9347 8.50894C10.996 8.48898 11.0596 8.47888 11.1241 8.47965C11.1961 8.47365 11.2792 8.47379 11.3692 8.47379C11.5575 8.47428 11.7458 8.49176 11.9308 8.52652C12.1172 8.55405 12.2921 8.63414 12.4366 8.75504C12.5511 8.83265 12.6418 8.93978 12.6993 9.06559C12.7701 9.19016 12.8128 9.329 12.8243 9.47184C12.8407 9.61279 12.8335 9.75538 12.8019 9.89371C12.7691 10.025 12.7073 10.1479 12.6222 10.2531C12.5053 10.36 12.3562 10.4244 12.1983 10.4367C11.9983 10.4657 11.7937 10.4921 11.5987 10.5031H11.5167C11.3938 10.5048 11.2708 10.4955 11.1495 10.4757ZM11.2208 7.49918C11.1096 7.49263 11.0018 7.45519 10.9103 7.39176C10.8671 7.35862 10.8335 7.31658 10.8116 7.26676C10.7898 7.21693 10.7804 7.16079 10.7853 7.1066C10.7853 6.9936 10.7911 6.8799 10.7911 6.7609C10.7911 6.6419 10.797 6.52443 10.797 6.40543C10.7865 6.29288 10.7985 6.17937 10.8321 6.07144C10.8444 6.03784 10.8649 6.00638 10.8907 5.9816C10.9166 5.95682 10.9475 5.93783 10.9816 5.92691C11.0831 5.90325 11.1871 5.89444 11.2911 5.90152C11.4231 5.90152 11.5844 5.90915 11.7804 5.91715C12.0311 5.91424 12.2779 5.97731 12.4962 6.10074C12.5877 6.16813 12.6573 6.26163 12.6964 6.36832C12.7355 6.47501 12.7422 6.58979 12.7159 6.70035C12.7127 6.89482 12.6388 7.08184 12.5079 7.22574C12.3571 7.35649 12.1704 7.43793 11.9718 7.45816C11.8718 7.47616 11.7504 7.49304 11.6144 7.50504C11.5464 7.51104 11.4782 7.5148 11.4142 7.5148C11.3502 7.5148 11.2838 7.50518 11.2208 7.49918Z" fill="black"/>
</svg>
