<svg width="24" height="24" viewBox="0 0 24 24" fill="none" xmlns="http://www.w3.org/2000/svg">
<path d="M16.8397 17.2507H13.0507V15.2507H14.8437L12.6366 13.0447H7.80069V10.9451H10.539L8.33194 8.73804H6.74991C5.88649 8.73804 5.0577 9.08064 4.44717 9.69116C3.83665 10.3017 3.49405 11.1305 3.49405 11.9939C3.49405 12.8573 3.83665 13.6851 4.44717 14.2957C5.0577 14.9062 5.88649 15.2488 6.74991 15.2488H10.9491V17.2488H6.74991C5.39158 17.2497 4.08626 16.7246 3.10733 15.783C2.1284 14.8413 1.55169 13.5563 1.49991 12.199C1.44812 10.8416 1.92565 9.51719 2.82998 8.50366C3.73432 7.49014 4.99507 6.86701 6.34951 6.7644L3.99014 4.40503L5.44326 2.9519L20.9765 18.4851L19.5233 19.9382L16.8397 17.2507ZM19.4569 14.3923C19.938 13.9481 20.2748 13.3684 20.4218 12.7302C20.5687 12.0921 20.5195 11.4251 20.2812 10.8152C20.0428 10.2053 19.6265 9.68073 19.0858 9.31128C18.5452 8.94183 17.9047 8.74431 17.2499 8.7439H13.8124L13.0507 7.98218V6.75171H17.2519C18.3009 6.75219 19.3246 7.06679 20.1933 7.65503C21.0619 8.24327 21.7351 9.07854 22.1249 10.0525C22.5147 11.0264 22.6037 12.0948 22.3808 13.1199C22.1579 14.145 21.632 15.0793 20.873 15.8035L19.4569 14.3923Z" fill="black"/>
</svg>
