<svg width="24" height="24" viewBox="0 0 24 24" fill="none" xmlns="http://www.w3.org/2000/svg">
<path d="M16.7305 19.9995C16.7297 16.6235 15.3881 13.3867 13.001 10.9995C10.6138 8.61235 7.37596 7.27081 4 7.27002V4.43994C8.12645 4.44153 12.0832 6.08157 15.001 8.99951C17.9187 11.9174 19.5582 15.874 19.5596 20.0005L16.7305 19.9995ZM11.0703 19.9995C11.069 18.1247 10.3236 16.3272 8.99805 15.0015C7.67248 13.6757 5.87477 12.9308 4 12.9292V10.0991C6.62564 10.0991 9.14339 11.1419 11 12.9985C12.8566 14.8551 13.9004 17.3729 13.9004 19.9985L11.0703 19.9995ZM4 17.8198C4 17.3887 4.12765 16.9674 4.36719 16.6089C4.60673 16.2504 4.94736 15.9712 5.3457 15.8062C5.74405 15.6412 6.18259 15.598 6.60547 15.6821C7.02835 15.7662 7.4168 15.9739 7.72168 16.2788C8.02656 16.5837 8.23424 16.9721 8.31836 17.395C8.40248 17.8179 8.35934 18.2555 8.19434 18.6538C8.02934 19.0522 7.7501 19.3928 7.3916 19.6323C7.0331 19.8719 6.61085 19.9995 6.17969 19.9995C5.89333 19.9998 5.61031 19.9439 5.3457 19.8345C5.0811 19.725 4.84018 19.5643 4.6377 19.3618C4.43521 19.1593 4.2745 18.9194 4.16504 18.6548C4.05558 18.3902 3.99974 18.1062 4 17.8198Z" fill="black"/>
</svg>
