<svg width="24" height="24" viewBox="0 0 24 24" fill="none" xmlns="http://www.w3.org/2000/svg">
<path d="M13.11 5.72L12.54 8.61C12.4824 8.8999 12.4897 9.19898 12.5615 9.48571C12.6333 9.77243 12.7677 10.0397 12.9551 10.2682C13.1426 10.4968 13.3783 10.681 13.6454 10.8075C13.9126 10.934 14.2044 10.9998 14.5 11H20V12.08L17.43 18H9.34C9.25062 17.9975 9.1656 17.9609 9.10237 17.8976C9.03915 17.8344 9.00252 17.7494 9 17.66V9.82L13.11 5.72ZM14 2L7.59 8.41C7.4031 8.59626 7.25478 8.81756 7.15354 9.06122C7.05229 9.30489 7.00012 9.56614 7 9.83V17.66C7.00079 18.2804 7.24758 18.8751 7.68625 19.3138C8.12491 19.7524 8.71964 19.9992 9.34 20H17.44C17.7861 20.001 18.1266 19.9121 18.4281 19.7421C18.7295 19.5721 18.9817 19.3267 19.16 19.03L21.83 12.88C21.9417 12.6281 21.9996 12.3556 22 12.08V11C21.9984 10.4701 21.7872 9.96227 21.4125 9.58753C21.0377 9.2128 20.5299 9.00158 20 9H14.5L15.42 4.35C15.4694 4.12731 15.4412 3.89444 15.34 3.69C15.1126 3.23961 14.8156 2.82789 14.46 2.47L14 2ZM4 9H2V20H4C4.26522 20 4.51957 19.8946 4.70711 19.7071C4.89464 19.5196 5 19.2652 5 19V10C5 9.73478 4.89464 9.48043 4.70711 9.29289C4.51957 9.10536 4.26522 9 4 9Z" fill="black"/>
</svg>
