<svg width="24" height="24" viewBox="0 0 24 24" fill="none" xmlns="http://www.w3.org/2000/svg">
<path d="M18 11V13H22V11H18ZM16 17.61C16.96 18.32 18.21 19.26 19.2 20C19.6 19.47 20 18.93 20.4 18.4C19.41 17.66 18.16 16.72 17.2 16C16.8 16.54 16.4 17.08 16 17.61ZM20.4 5.6C20 5.07 19.6 4.53 19.2 4C18.21 4.74 16.96 5.68 16 6.4C16.4 6.93 16.8 7.47 17.2 8C18.16 7.28 19.41 6.35 20.4 5.6ZM4 9C3.47005 9.00158 2.96227 9.2128 2.58753 9.58753C2.2128 9.96227 2.00158 10.4701 2 11V13C2.00158 13.5299 2.2128 14.0377 2.58753 14.4125C2.96227 14.7872 3.47005 14.9984 4 15H5V19H7V15H8L13 18V6L8 9H4ZM15.5 12C15.5007 11.3674 15.3674 10.7417 15.1088 10.1643C14.8503 9.58692 14.4724 9.07082 14 8.65V15.34C14.473 14.9219 14.8515 14.4077 15.1101 13.8317C15.3688 13.2558 15.5017 12.6313 15.5 12Z" fill="black"/>
</svg>
