<svg width="24" height="24" viewBox="0 0 24 24" fill="none" xmlns="http://www.w3.org/2000/svg">
<path d="M19.14 12.9399C19.1809 12.6283 19.2009 12.3142 19.2 11.9999C19.2023 11.6852 19.1789 11.3708 19.13 11.0599L21.16 9.4799C21.2473 9.40769 21.307 9.3075 21.3288 9.19632C21.3507 9.08514 21.3335 8.96981 21.28 8.8699L19.36 5.54991C19.3035 5.44947 19.2132 5.37228 19.1052 5.33201C18.9972 5.29175 18.8785 5.291 18.77 5.32991L16.38 6.28991C15.8841 5.90605 15.3393 5.58994 14.76 5.34991L14.4 2.80991C14.3823 2.69544 14.3241 2.59111 14.236 2.51588C14.148 2.44065 14.0358 2.3995 13.92 2.39991H10.08C9.96532 2.39982 9.85449 2.44132 9.76807 2.51671C9.68164 2.5921 9.62549 2.69627 9.61 2.80991L9.25 5.34991C8.67148 5.59157 8.1269 5.90756 7.63 6.28991L5.24 5.32991C5.13171 5.28865 5.01212 5.28823 4.90354 5.32872C4.79497 5.3692 4.70484 5.44783 4.65 5.54991L2.74 8.8699C2.67889 8.96784 2.65729 9.08533 2.67957 9.1986C2.70185 9.31186 2.76635 9.41242 2.86 9.4799L4.89 11.0599C4.77672 11.6809 4.76996 12.3166 4.87 12.9399L2.84 14.5199C2.75268 14.5921 2.69303 14.6923 2.67116 14.8035C2.64929 14.9147 2.66654 15.03 2.72 15.1299L4.64 18.4499C4.69653 18.5503 4.78678 18.6275 4.89477 18.6678C5.00276 18.7081 5.12151 18.7088 5.23 18.6699L7.62 17.7099C8.11588 18.0938 8.66067 18.4099 9.24 18.6499L9.6 21.1899C9.61923 21.3037 9.67783 21.4071 9.76558 21.482C9.85332 21.557 9.96461 21.5987 10.08 21.5999H13.92C14.0352 21.6017 14.1469 21.5608 14.2337 21.4851C14.3205 21.4094 14.3762 21.3042 14.39 21.1899L14.75 18.6499C15.3304 18.4121 15.8755 18.0958 16.37 17.7099L18.76 18.6699C18.8683 18.7112 18.9879 18.7116 19.0965 18.6711C19.205 18.6306 19.2952 18.552 19.35 18.4499L21.27 15.1299C21.3293 15.0315 21.3498 14.9145 21.3276 14.8018C21.3054 14.689 21.2421 14.5886 21.15 14.5199L19.14 12.9399ZM12 15.5999C11.288 15.5999 10.592 15.3888 9.99995 14.9932C9.40793 14.5976 8.94651 14.0354 8.67404 13.3776C8.40156 12.7198 8.33027 11.9959 8.46917 11.2976C8.60808 10.5992 8.95095 9.95779 9.45442 9.45432C9.95789 8.95085 10.5993 8.60799 11.2977 8.46908C11.996 8.33017 12.7198 8.40146 13.3777 8.67394C14.0355 8.94641 14.5977 9.40784 14.9933 9.99985C15.3889 10.5919 15.6 11.2879 15.6 11.9999C15.5971 12.9538 15.2169 13.8678 14.5424 14.5423C13.8679 15.2168 12.9539 15.597 12 15.5999Z" fill="black"/>
</svg>
