<svg width="24" height="24" viewBox="0 0 24 24" fill="none" xmlns="http://www.w3.org/2000/svg">
<path d="M15.2366 22.9998H8.89282C8.84459 22.9984 8.79938 22.9798 8.76392 22.947C8.72845 22.9143 8.70475 22.87 8.69946 22.822L7.90063 16.4998H4.58423C4.51014 16.4995 4.43926 16.4702 4.38696 16.4178C4.33467 16.3653 4.30493 16.2946 4.30493 16.2205V9.78201C4.30493 9.70792 4.33467 9.63723 4.38696 9.58474C4.43926 9.53226 4.51014 9.502 4.58423 9.50174H6.85767C6.29999 8.58106 6.0038 7.52541 6.00415 6.449C6.01203 4.92432 6.60077 3.45985 7.64868 2.35232C8.69659 1.2448 10.1268 0.577267 11.6487 0.485135C11.7609 0.459857 11.8754 0.447334 11.9905 0.448025H11.9983C12.1214 0.450266 12.2444 0.462751 12.3655 0.485135C13.3919 0.539101 14.3856 0.858157 15.2522 1.41092C16.1187 1.96367 16.8272 2.73143 17.3088 3.63943C17.7905 4.54744 18.0305 5.56413 18.0022 6.59158C17.9739 7.61903 17.6797 8.62166 17.1487 9.50174H19.4241C19.4609 9.50147 19.4975 9.50923 19.5315 9.52322C19.5655 9.53721 19.5973 9.5577 19.6233 9.58377C19.6493 9.60983 19.67 9.6405 19.6838 9.67459C19.6977 9.70867 19.7038 9.74521 19.7034 9.78201V16.2205C19.7038 16.2573 19.6977 16.2928 19.6838 16.3269C19.67 16.361 19.6493 16.3927 19.6233 16.4187C19.5973 16.4448 19.5655 16.4653 19.5315 16.4793C19.4975 16.4933 19.4609 16.5 19.4241 16.4998H16.1252L15.4358 22.822C15.4304 22.871 15.4081 22.9162 15.3713 22.949C15.3346 22.9818 15.2858 22.9998 15.2366 22.9998ZM16.7444 13.6687C16.7004 13.6684 16.6569 13.6786 16.6174 13.698C16.5808 13.72 16.5496 13.7496 16.5256 13.7849L16.2913 14.1551C16.2838 14.1652 16.2815 14.1776 16.2815 14.1902C16.2815 14.2028 16.2838 14.2152 16.2913 14.2254C16.3665 14.2976 16.4497 14.3605 16.5393 14.4138C16.6346 14.4713 16.7359 14.5203 16.8401 14.5594C16.9458 14.6024 17.0559 14.634 17.1682 14.6541C17.461 14.7122 17.7637 14.6938 18.0471 14.6004C18.1962 14.5431 18.3326 14.4565 18.4475 14.3455C18.5564 14.2372 18.6421 14.1071 18.6995 13.9646C18.7576 13.8179 18.7867 13.6615 18.7854 13.5037C18.788 13.3726 18.7639 13.2426 18.7151 13.1209C18.6715 13.0189 18.6088 12.927 18.5295 12.8494C18.4546 12.7736 18.3675 12.7106 18.2717 12.6638C18.1792 12.6182 18.0839 12.578 17.9866 12.5437C17.8866 12.5107 17.7974 12.4819 17.7034 12.4529C17.6223 12.4313 17.543 12.4026 17.467 12.367C17.4099 12.3395 17.357 12.303 17.3108 12.2595C17.2938 12.2422 17.2802 12.2218 17.2717 12.199C17.2633 12.1763 17.2604 12.1519 17.262 12.1277C17.2593 12.0881 17.2658 12.049 17.2815 12.0125C17.2971 11.976 17.3213 11.9431 17.3518 11.9178C17.4363 11.8558 17.5404 11.8266 17.6448 11.8357C17.7175 11.8338 17.7898 11.8436 17.8596 11.864C17.9172 11.8849 17.9733 11.9099 18.0276 11.9383L18.053 11.9519L18.1682 12.0135C18.2127 12.0391 18.2634 12.0532 18.3147 12.0545C18.3592 12.0552 18.4028 12.0422 18.4397 12.0174C18.4797 11.9915 18.5134 11.9568 18.5393 11.9168L18.7385 11.5457C18.7465 11.5157 18.7389 11.4952 18.7209 11.4812C18.6563 11.4208 18.5849 11.3679 18.5081 11.324C18.4244 11.2769 18.3377 11.2358 18.2483 11.201C18.1532 11.1672 18.0551 11.1422 17.9553 11.1267C17.8522 11.1094 17.7473 11.102 17.6428 11.1033C17.4657 11.1001 17.2899 11.1292 17.1233 11.1892C16.9783 11.2438 16.8458 11.3265 16.7327 11.4324C16.6303 11.5298 16.5473 11.6457 16.4885 11.7742C16.4358 11.901 16.4079 12.0363 16.4065 12.1736C16.4031 12.3175 16.4285 12.4614 16.4807 12.5955C16.5215 12.7036 16.5844 12.8009 16.6663 12.8826C16.7395 12.9597 16.8261 13.0233 16.9221 13.0691C17.0165 13.1138 17.1137 13.1524 17.2131 13.1844L17.3323 13.2195C17.3873 13.2365 17.4394 13.2514 17.4944 13.2664C17.5744 13.2881 17.653 13.3159 17.7288 13.3494C17.786 13.374 17.8352 13.4111 17.8752 13.4588C17.9121 13.5026 17.9327 13.5589 17.9299 13.616C17.9347 13.6635 17.9286 13.7118 17.9124 13.7566C17.8961 13.8015 17.8683 13.8414 17.8342 13.8748C17.7456 13.9337 17.6417 13.9627 17.5354 13.9578C17.4484 13.9587 17.362 13.9448 17.2795 13.9168C17.2101 13.8912 17.142 13.8597 17.0784 13.822L17.0315 13.7947L17.0022 13.7771L16.9866 13.7683C16.9596 13.7523 16.9373 13.7393 16.9143 13.7273C16.8644 13.6913 16.8059 13.6705 16.7444 13.6687ZM13.8987 12.45L14.5569 14.6101C14.5604 14.622 14.5684 14.632 14.5784 14.6394C14.5883 14.6468 14.5992 14.6512 14.6116 14.6511H15.3264C15.3386 14.6505 15.3518 14.6457 15.3616 14.6385C15.3714 14.6312 15.377 14.6216 15.3811 14.6101L16.4338 11.2029C16.4364 11.1946 16.4356 11.1861 16.4338 11.1775C16.4321 11.169 16.4278 11.1607 16.4221 11.1541C16.4164 11.1478 16.4103 11.143 16.4026 11.1394C16.3949 11.1358 16.3857 11.1329 16.3772 11.1326H15.762C15.6882 11.1309 15.6157 11.1531 15.5549 11.1951C15.5042 11.2319 15.4671 11.2863 15.4534 11.3474L14.9807 13.1219V13.1394C14.9727 13.1804 14.9643 13.2166 14.9573 13.2576C14.9518 13.2483 14.9475 13.2393 14.9436 13.2293C14.9412 13.2177 14.9381 13.2061 14.9338 13.1951C14.9295 13.1788 14.9246 13.1629 14.9182 13.1472L14.3635 11.3386C14.3434 11.2751 14.3011 11.2214 14.2444 11.1863C14.1806 11.1487 14.1074 11.1296 14.0334 11.1326H13.7952C13.7208 11.1316 13.6477 11.1523 13.5842 11.1912C13.5321 11.2263 13.4917 11.2761 13.469 11.3347L12.9221 13.1101L12.887 13.2097L12.8713 13.2635C12.8713 13.2505 12.8715 13.2384 12.8635 13.2254C12.8573 13.1911 12.8473 13.157 12.8342 13.1248L12.3694 11.3465C12.3537 11.2832 12.3135 11.2283 12.2581 11.1941C12.1977 11.1533 12.1258 11.1334 12.053 11.1365H11.3889C11.381 11.1363 11.3726 11.1379 11.3655 11.1414C11.3583 11.1449 11.3526 11.1496 11.3479 11.156C11.3413 11.1624 11.3376 11.1704 11.3362 11.1795C11.3347 11.1885 11.3358 11.1978 11.3401 11.2058L12.3909 14.6131C12.3931 14.6252 12.4006 14.6358 12.4104 14.6433C12.4202 14.6509 12.4313 14.655 12.4436 14.6541H13.1858C13.1979 14.654 13.2094 14.6498 13.219 14.6424C13.2286 14.6349 13.2354 14.6248 13.2385 14.6131L13.885 12.5037C13.8888 12.4984 13.8907 12.4926 13.8909 12.4861C13.8969 12.4741 13.9005 12.4639 13.9065 12.4529L13.8987 12.45ZM8.8772 11.1375C8.86302 11.1377 8.8503 11.1433 8.84009 11.1531C8.82988 11.1629 8.82327 11.1761 8.82251 11.1902V14.5974C8.82273 14.6122 8.8299 14.6258 8.84009 14.6365C8.85028 14.6472 8.86242 14.6541 8.8772 14.6551H11.0686C11.0759 14.6548 11.0834 14.6532 11.0901 14.6502C11.0967 14.6471 11.1027 14.6429 11.1077 14.6375C11.1126 14.6321 11.1169 14.6258 11.1194 14.6189C11.1218 14.612 11.1217 14.6047 11.1213 14.5974V13.9881C11.1218 13.9809 11.1219 13.9742 11.1194 13.9676C11.1169 13.9609 11.1127 13.9541 11.1077 13.949C11.1027 13.9439 11.0967 13.9399 11.0901 13.9373C11.0835 13.9347 11.0757 13.9341 11.0686 13.9344H9.72095V13.2293H10.7424C10.7498 13.23 10.7568 13.2287 10.7639 13.2263C10.771 13.224 10.7779 13.2206 10.7834 13.2156C10.789 13.2106 10.794 13.2048 10.7971 13.198C10.8002 13.1912 10.8009 13.183 10.801 13.1756V12.5857C10.8012 12.578 10.8 12.5704 10.7971 12.5633C10.7942 12.5561 10.789 12.5501 10.7834 12.5447C10.7779 12.5393 10.7711 12.5348 10.7639 12.532C10.7567 12.5292 10.7502 12.5278 10.7424 12.5281H9.72095V11.8533H11.0686C11.0757 11.8536 11.0835 11.852 11.0901 11.8494C11.0967 11.8468 11.1027 11.8428 11.1077 11.8377C11.1127 11.8326 11.1169 11.8268 11.1194 11.8201C11.1219 11.8134 11.1218 11.8057 11.1213 11.7986V11.1892C11.1216 11.1822 11.1219 11.1753 11.1194 11.1687C11.1168 11.1622 11.1126 11.1561 11.1077 11.1511C11.1027 11.1462 11.0966 11.142 11.0901 11.1394C11.0835 11.1369 11.0756 11.1362 11.0686 11.1365L8.8772 11.1375ZM6.09399 12.6121L7.58618 14.5008C7.62198 14.5519 7.6731 14.592 7.73071 14.616C7.7853 14.6409 7.84453 14.6537 7.90454 14.6531H8.31665C8.33124 14.6521 8.34389 14.6453 8.35376 14.6345C8.36362 14.6238 8.36968 14.6101 8.36938 14.5955V11.1883C8.36938 11.1742 8.3637 11.1601 8.35376 11.1502C8.34382 11.1402 8.33071 11.1345 8.31665 11.1345H7.61548C7.60142 11.1345 7.58831 11.1402 7.57837 11.1502C7.56843 11.1601 7.56274 11.1742 7.56274 11.1883V12.9881C7.56274 13.0431 7.56274 13.0989 7.56274 13.1609V13.1785L6.05493 11.2713C6.03776 11.2468 6.01768 11.2245 5.99438 11.2058C5.97348 11.186 5.94961 11.1694 5.92407 11.156H5.91235C5.89093 11.1483 5.86843 11.143 5.84595 11.1394H5.80688H5.75024H5.33813C5.3311 11.1391 5.32321 11.1398 5.31665 11.1424C5.31009 11.1449 5.30405 11.1491 5.29907 11.1541C5.29409 11.1591 5.29187 11.1651 5.28931 11.1717C5.28674 11.1782 5.28512 11.1851 5.2854 11.1922V14.5994C5.285 14.6067 5.2849 14.614 5.28735 14.6209C5.28981 14.6278 5.29414 14.634 5.29907 14.6394C5.30401 14.6448 5.31001 14.6491 5.31665 14.6521C5.32329 14.6552 5.33082 14.6568 5.33813 14.657H6.03735C6.05177 14.6555 6.06664 14.6492 6.07642 14.6385C6.08619 14.6278 6.08992 14.6139 6.09009 14.5994V12.7742C6.09009 12.7222 6.09009 12.674 6.09009 12.617L6.09399 12.6121ZM14.8889 7.36404C14.868 7.36347 14.8461 7.36865 14.8284 7.37967C14.8106 7.39068 14.7961 7.40659 14.7874 7.42556C14.7811 7.43827 14.7785 7.45244 14.7795 7.46658C14.7325 8.15269 14.6264 8.83367 14.4631 9.50174H14.8069C15.3954 8.96145 15.8169 8.26421 16.0217 7.49197C16.0249 7.47618 16.0234 7.45981 16.0198 7.44412C16.0162 7.42842 16.01 7.41395 16.0002 7.40115C15.9908 7.38955 15.9786 7.38021 15.9651 7.37381C15.9516 7.3674 15.9371 7.36399 15.9221 7.36404H14.8889ZM8.07837 7.36404C8.06209 7.36352 8.04613 7.36666 8.03149 7.37381C8.01685 7.38095 8.00399 7.3919 7.99438 7.40506C7.9859 7.41769 7.98151 7.43208 7.97876 7.44705C7.97601 7.46202 7.97532 7.47715 7.97876 7.49197C8.17964 8.26495 8.60022 8.96288 9.1897 9.50174H9.5354C9.37332 8.83073 9.26917 8.14738 9.22095 7.45877C9.21966 7.43312 9.20831 7.40907 9.1897 7.39138C9.17108 7.3737 9.14506 7.36401 9.11938 7.36404H8.07837ZM11.1545 7.36404C11.1406 7.36407 11.1282 7.36715 11.1155 7.37283C11.1027 7.37851 11.0897 7.38688 11.0803 7.39724C11.0709 7.40691 11.0651 7.41861 11.0608 7.43142C11.0565 7.44423 11.0552 7.45804 11.0569 7.47146C11.1032 8.16147 11.2336 8.8425 11.4456 9.50076H12.5569C12.7704 8.84281 12.9014 8.16166 12.9475 7.47146C12.9485 7.45775 12.9462 7.4434 12.9417 7.43045C12.9371 7.41749 12.9295 7.40533 12.9202 7.39529C12.9108 7.38525 12.8996 7.37731 12.887 7.37185C12.8744 7.3664 12.8616 7.36401 12.8479 7.36404H11.1545ZM14.5491 3.199C14.529 3.20011 14.5098 3.20554 14.4924 3.2156C14.4745 3.22734 14.4617 3.24466 14.4534 3.26443C14.445 3.2842 14.4415 3.30585 14.4456 3.32693C14.6234 4.01929 14.7364 4.72694 14.7834 5.44021C14.7847 5.46586 14.7961 5.48991 14.8147 5.5076C14.8333 5.52528 14.8574 5.53497 14.8831 5.53494H15.9202C15.9354 5.53452 15.9516 5.53033 15.9651 5.52322C15.9786 5.51611 15.9893 5.50626 15.9983 5.49392C16.0082 5.48119 16.0161 5.46667 16.0198 5.45095C16.0234 5.43524 16.0231 5.41889 16.0198 5.4031C15.7955 4.54253 15.3003 3.77728 14.6077 3.21951C14.59 3.20784 14.5701 3.20015 14.5491 3.19803V3.199ZM11.9983 2.34646C11.9804 2.34696 11.9646 2.35161 11.9495 2.36111C11.9343 2.37061 11.9206 2.38431 11.9124 2.40017C11.3657 3.31636 11.0717 4.35977 11.0569 5.42654C11.0552 5.43996 11.0565 5.45377 11.0608 5.46658C11.0651 5.47939 11.0709 5.4911 11.0803 5.50076C11.0998 5.52095 11.1265 5.53298 11.1545 5.53396H12.8479C12.8612 5.53339 12.8749 5.52986 12.887 5.5242C12.899 5.51853 12.9093 5.51063 12.9182 5.50076C12.9356 5.48004 12.9455 5.45362 12.9456 5.42654C12.9288 4.36033 12.6336 3.31758 12.0901 2.40017C12.0808 2.38478 12.0685 2.37215 12.053 2.36306C12.0374 2.35398 12.0182 2.34898 12.0002 2.34842L11.9983 2.34646ZM9.45337 3.199C9.42998 3.20049 9.40886 3.20818 9.38892 3.22049C8.699 3.77999 8.20552 4.54473 7.98071 5.40408C7.97402 5.43534 7.97938 5.4678 7.99634 5.4949C8.00642 5.50754 8.01892 5.51808 8.03345 5.52517C8.04798 5.53226 8.06416 5.53574 8.08032 5.53592H9.11743C9.1432 5.53366 9.1675 5.52295 9.18579 5.50467C9.20408 5.48638 9.21479 5.46207 9.21704 5.43631C9.26319 4.72452 9.37498 4.01815 9.55103 3.32693C9.55511 3.30585 9.55354 3.2842 9.54517 3.26443C9.53679 3.24466 9.52213 3.22734 9.50415 3.2156C9.48882 3.20563 9.47156 3.19989 9.45337 3.19803V3.199Z" fill="black"/>
</svg>
