<svg width="24" height="24" viewBox="0 0 24 24" fill="none" xmlns="http://www.w3.org/2000/svg">
<path fill-rule="evenodd" clip-rule="evenodd" d="M21.9 7.89L20.85 4.52C20.63 3.62 19.85 3 18.94 3H5.05C4.15 3 3.36 3.63 3.15 4.52L2.1 7.89C1.67 9.74 2.8 10.86 2.98 11.04C2.99 11.05 3 11.06 3 11.06V19C3 20.1 3.9 21 5 21H19C20.1 21 21 20.1 21 19V11.06C22.12 9.94 22.09 8.65 21.9 7.89ZM6.44 8.86C6.36 9.51 5.84 10 5.23 10C4.3 10 3.88 9.03 4.04 8.36L5.05 5H7.02L6.44 8.86ZM8.49 8.52L9.04 5H11V8.69C11 9.41 10.45 10 9.71 10C8.97 10 8.41 9.3 8.49 8.52ZM9.5 19V12L15.5 15.5L9.5 19ZM14.22 10C13.55 10 13 9.41 13 8.69V5H14.96L15.5 8.52C15.59 9.23 15.11 10 14.22 10ZM18.77 10C18.16 10 17.63 9.51 17.56 8.86L16.98 5H18.91L19.96 8.36C20.12 9.03 19.71 10 18.77 10Z" fill="black"/>
</svg>
