<svg width="24" height="24" viewBox="0 0 24 24" fill="none" xmlns="http://www.w3.org/2000/svg">
<path d="M8 22C7.47005 21.9984 6.96262 21.7868 6.58789 21.4121C6.21316 21.0374 6.00158 20.5299 6 20V8C6 7.46957 6.21086 6.96101 6.58594 6.58594C6.96101 6.21086 7.46957 6 8 6H20C20.5304 6 21.039 6.21086 21.4141 6.58594C21.7891 6.96101 22 7.46957 22 8V20C21.9979 20.5298 21.7867 21.0375 21.4121 21.4121C21.0375 21.7867 20.5298 21.9979 20 22H8ZM12.959 17.9502C12.959 18.2276 13.0695 18.4933 13.2656 18.6895C13.4618 18.8856 13.7275 18.9961 14.0049 18.9961C14.2823 18.9961 14.549 18.8856 14.7451 18.6895C14.9413 18.4933 15.0508 18.2276 15.0508 17.9502C15.0534 17.8129 15.0289 17.6762 14.9775 17.5488C14.9262 17.4215 14.849 17.3061 14.752 17.209C14.6549 17.1119 14.5395 17.0357 14.4121 16.9844C14.2848 16.933 14.148 16.9076 14.0107 16.9102C13.8729 16.9078 13.7364 16.933 13.6084 16.9844C13.4804 17.0357 13.3637 17.112 13.2656 17.209C13.1676 17.306 13.0898 17.4214 13.0371 17.5488C12.9844 17.6763 12.958 17.8133 12.959 17.9512V17.9502ZM15.1406 12.3711C14.6926 13.0071 13.9208 13.4389 13.5088 14.1709C13.2795 14.6891 13.1898 15.2586 13.248 15.8223H14.7686C14.7686 15.0393 14.8182 14.8797 14.9492 14.6387C15.2792 14.0387 15.8787 13.7581 16.5107 12.8281C16.7414 12.4389 16.8625 11.9944 16.8604 11.542C16.8582 11.0896 16.7333 10.6458 16.499 10.2588C16.2271 9.84803 15.8522 9.51613 15.4121 9.29492C14.972 9.07371 14.4821 8.97115 13.9902 8.99805C13.3524 8.9943 12.7304 9.19539 12.2158 9.57227C11.7012 9.94914 11.3208 10.4816 11.1318 11.0908L12.502 11.6572C12.5811 11.3156 12.7716 11.0093 13.043 10.7871C13.3143 10.5649 13.6514 10.4389 14.002 10.4287C14.2385 10.4033 14.477 10.4467 14.6895 10.5537C14.9019 10.6607 15.0789 10.827 15.1992 11.0322C15.3195 11.2374 15.3785 11.4733 15.3682 11.7109C15.3578 11.9486 15.2784 12.1781 15.1406 12.3721V12.3711ZM2 18V4C2.00158 3.47005 2.21316 2.96262 2.58789 2.58789C2.96262 2.21316 3.47005 2.00158 4 2H18V4H4V18H2Z" fill="black"/>
</svg>
