<svg width="24" height="24" viewBox="0 0 24 24" fill="none" xmlns="http://www.w3.org/2000/svg">
<path d="M16.4753 23C16.4094 22.9985 16.3457 22.9745 16.2956 22.9316C16.2455 22.8888 16.2116 22.8295 16.1999 22.7646L15.9997 21.3086C15.6668 21.1726 15.3542 20.9928 15.07 20.7725L13.7009 21.3213C13.6388 21.3438 13.5713 21.3432 13.5095 21.3203C13.4476 21.2974 13.3954 21.2537 13.363 21.1963L12.2634 19.2959C12.2343 19.238 12.2251 19.1719 12.238 19.1084C12.2509 19.0449 12.2843 18.9882 12.3337 18.9463L13.4987 18.04C13.4408 17.6838 13.4434 17.3202 13.5065 16.9648L12.3464 16.0586C12.2917 16.0206 12.2534 15.9629 12.2409 15.8975C12.2284 15.8321 12.2422 15.7645 12.279 15.709L13.3698 13.8086C13.4022 13.7501 13.4545 13.7057 13.5173 13.6826C13.5801 13.6595 13.649 13.6591 13.7116 13.6826L15.0768 14.2334C15.3634 14.0164 15.6755 13.8356 16.0065 13.6953L16.2145 12.2393C16.2228 12.1741 16.255 12.1136 16.3044 12.0703C16.3537 12.027 16.4174 12.0036 16.4831 12.0039H18.6833C18.7494 12.0043 18.8128 12.0282 18.863 12.0713C18.9132 12.1143 18.9463 12.174 18.9567 12.2393L19.1569 13.6953C19.4893 13.8327 19.8018 14.0137 20.0866 14.2334L21.4567 13.6826C21.5188 13.6611 21.5866 13.6625 21.6481 13.6855C21.7097 13.7086 21.7609 13.7516 21.7936 13.8086L22.8942 15.709C22.9259 15.7658 22.9366 15.8316 22.9245 15.8955C22.9124 15.9595 22.8781 16.0172 22.8278 16.0586L21.6667 16.9648C21.6934 17.1429 21.7065 17.3229 21.7057 17.5029C21.7059 17.6825 21.694 17.862 21.6706 18.04L22.8239 18.9463C22.8759 18.9864 22.9114 19.0439 22.9235 19.1084C22.9357 19.1729 22.9241 19.2396 22.8903 19.2959L21.7897 21.1963C21.7579 21.2541 21.7071 21.2983 21.6452 21.3213C21.5833 21.3442 21.5146 21.3444 21.4528 21.3213L20.0827 20.7725C19.7981 20.9922 19.4856 21.1719 19.153 21.3086L18.945 22.7646C18.9378 22.83 18.9065 22.8911 18.8571 22.9346C18.8077 22.978 18.7442 23.0011 18.6784 23H16.4753ZM15.5134 17.5C15.5132 17.9078 15.6337 18.3063 15.86 18.6455C16.0864 18.9847 16.4082 19.249 16.7849 19.4053C17.1615 19.5616 17.5763 19.6027 17.9763 19.5234C18.3763 19.4441 18.7434 19.2481 19.0319 18.96C19.3205 18.6718 19.5175 18.3052 19.5974 17.9053C19.6772 17.5054 19.6369 17.0907 19.4811 16.7139C19.3254 16.337 19.0612 16.014 18.7224 15.7871C18.3835 15.5602 17.9846 15.4398 17.5768 15.4395C17.3059 15.4389 17.0373 15.4914 16.7868 15.5947C16.5363 15.6981 16.3096 15.8496 16.1179 16.041C15.9261 16.2325 15.7733 16.4597 15.6696 16.71C15.5659 16.9603 15.5132 17.2291 15.5134 17.5ZM1.69305 21C1.69305 13.319 4.54164 11.1002 8.16864 10.6152C7.1023 10.17 6.2239 9.3689 5.68134 8.34863C5.13878 7.32836 4.96601 6.15159 5.19305 5.01855C5.4201 3.88552 6.03267 2.86624 6.92645 2.13379C7.82023 1.40134 8.93984 1.00098 10.0954 1.00098C11.251 1.00098 12.3706 1.40134 13.2643 2.13379C14.1581 2.86624 14.7707 3.88552 14.9977 5.01855C15.2248 6.15159 15.053 7.32836 14.5104 8.34863C13.9679 9.3689 13.0885 10.17 12.0222 10.6152C13.0481 10.7332 14.0392 11.0599 14.9343 11.5752C14.0824 11.9566 13.3229 12.5168 12.7077 13.2188C12.0925 13.9207 11.6362 14.748 11.3698 15.6426C11.1034 16.5371 11.0328 17.4782 11.1638 18.4023C11.2947 19.3265 11.6232 20.2117 12.1276 20.9971L1.69305 21Z" fill="black"/>
</svg>
