<svg width="24" height="24" viewBox="0 0 24 24" fill="none" xmlns="http://www.w3.org/2000/svg">
<path d="M11 2.82C13.17 2.82 15.25 3.68 16.78 5.22C18.24 6.68 19.1 8.64 19.17 10.7C19.81 10.86 20.42 11.11 20.98 11.43C20.98 11.29 20.98 11.14 20.98 11C20.98 8.35 19.92 5.81 18.05 3.93C16.19 2.06 13.65 1 11 1C10 1 9 1.15 8.04 1.45L8.58 3.19C9.36 2.95 10.18 2.82 11 2.83V2.82Z" fill="black"/>
<path d="M11.12 14.62C9.55 13.85 8.27 12.58 7.49 11.01L8.53 10.13C8.6 10.06 8.65 9.97 8.67 9.87C8.69 9.77 8.69 9.67 8.66 9.58C8.46 8.98 8.37 8.34 8.37 7.71C8.37 7.57 8.31 7.44 8.21 7.34C8.11 7.24 7.98 7.19 7.84 7.19H6C5.71 7.19 5.36 7.31 5.36 7.71C5.38 10.1 6.34 12.38 8.02 14.06C8.8 14.84 9.7 15.46 10.68 15.91C10.78 15.46 10.93 15.02 11.12 14.61V14.62Z" fill="black"/>
<path d="M19.83 18.92C19.72 18.85 19.6 18.81 19.47 18.81C19.3 18.81 19.13 18.88 19.01 19C18.89 19.12 18.82 19.29 18.82 19.46C18.82 19.59 18.86 19.72 18.93 19.82C19 19.93 19.1 20.01 19.22 20.06C19.34 20.11 19.47 20.12 19.6 20.1C19.73 20.07 19.84 20.01 19.94 19.92C20.03 19.83 20.09 19.71 20.12 19.58C20.15 19.45 20.13 19.32 20.08 19.2C20.03 19.08 19.95 18.98 19.84 18.91L19.83 18.92Z" fill="black"/>
<path d="M15.28 16.14C15.4 16.19 15.53 16.2 15.66 16.18C15.79 16.15 15.9 16.09 16 16C16.1 15.91 16.15 15.79 16.18 15.66C16.21 15.53 16.19 15.4 16.14 15.28C16.09 15.16 16.01 15.06 15.9 14.99C15.79 14.92 15.67 14.88 15.54 14.88C15.45 14.88 15.37 14.9 15.29 14.93C15.21 14.96 15.14 15.01 15.08 15.07C15.02 15.13 14.97 15.2 14.94 15.28C14.91 15.36 14.89 15.44 14.89 15.53C14.89 15.66 14.93 15.79 15 15.89C15.07 15.99 15.17 16.08 15.29 16.13L15.28 16.14Z" fill="black"/>
<path d="M17.5 12C14.46 12 12 14.46 12 17.5C12 20.54 14.46 23 17.5 23C20.54 23 23 20.54 23 17.5C23 14.46 20.54 12 17.5 12ZM14 15.53C14 15.23 14.09 14.93 14.26 14.68C14.43 14.43 14.67 14.23 14.95 14.12C15.23 14 15.54 13.97 15.83 14.03C16.13 14.09 16.4 14.23 16.61 14.45C16.82 14.66 16.97 14.94 17.03 15.23C17.09 15.53 17.06 15.83 16.94 16.11C16.82 16.39 16.63 16.63 16.38 16.8C16.13 16.97 15.83 17.06 15.53 17.06C15.12 17.06 14.74 16.9 14.45 16.61C14.16 16.32 14 15.93 14 15.53ZM20.88 20.05C20.76 20.33 20.57 20.57 20.32 20.74C20.07 20.91 19.77 21 19.47 21C19.06 21 18.68 20.84 18.39 20.55C18.1 20.26 17.94 19.87 17.94 19.47C17.94 19.17 18.03 18.87 18.2 18.62C18.37 18.37 18.61 18.17 18.89 18.06C19.17 17.94 19.48 17.91 19.77 17.97C20.07 18.03 20.34 18.17 20.55 18.39C20.76 18.6 20.91 18.88 20.97 19.17C21.03 19.47 21 19.77 20.88 20.05ZM14.62 20.99L14 20.37L20.38 13.99L21 14.61L14.62 20.99Z" fill="black"/>
<path d="M8.58 18.82L8.04 20.55C9 20.85 10 21 11 21C11.14 21 11.29 21 11.43 21C11.11 20.44 10.86 19.83 10.7 19.19C9.98 19.16 9.27 19.04 8.58 18.83V18.82Z" fill="black"/>
<path d="M3.85 14.98L2.26 15.87C3.09 17.35 4.28 18.6 5.73 19.5L6.69 17.96C5.51 17.23 4.53 16.2 3.85 14.98Z" fill="black"/>
<path d="M2.82 11C2.82 10.31 2.91 9.62 3.08 8.94L1.32 8.49C1.11 9.31 1 10.15 1 11C1 11.85 1.11 12.69 1.32 13.51L3.08 13.06C2.91 12.39 2.82 11.7 2.82 11Z" fill="black"/>
<path d="M11.15 7.71L10.39 8.45L13.05 11.11L16.46 7.38L15.68 6.66L13.01 9.57L11.15 7.71Z" fill="black"/>
<path d="M6.69 4.04L5.73 2.49C4.29 3.39 3.09 4.64 2.26 6.13L3.85 7.01C4.53 5.79 5.51 4.77 6.69 4.04Z" fill="black"/>
</svg>
