<svg width="24" height="24" viewBox="0 0 24 24" fill="none" xmlns="http://www.w3.org/2000/svg">
<path d="M13 2H11V5H13V2Z" fill="black"/>
<path d="M19.0699 4.50872L16.9486 6.63004L18.3628 8.04425L20.4841 5.92293L19.0699 4.50872Z" fill="black"/>
<path d="M4.92928 4.51223L3.51507 5.92645L5.63639 8.04777L7.0506 6.63355L4.92928 4.51223Z" fill="black"/>
<path d="M23 12H20V14H23V12Z" fill="black"/>
<path d="M19 13C19 9.13 15.87 6 12 6C8.13 6 5 9.13 5 13V18H3V22H21V18H19V13ZM12 9.75C10.21 9.75 8.75 11.21 8.75 13H7.25C7.25 10.38 9.38 8.25 12 8.25V9.75Z" fill="black"/>
<path d="M4 12H1V14H4V12Z" fill="black"/>
</svg>
