<svg width="24" height="24" viewBox="0 0 24 24" fill="none" xmlns="http://www.w3.org/2000/svg">
<path d="M17 3H5C4.46957 3 3.96086 3.21071 3.58579 3.58579C3.21071 3.96086 3 4.46957 3 5V19C3 19.5304 3.21071 20.0391 3.58579 20.4142C3.96086 20.7893 4.46957 21 5 21H19C19.5299 20.9984 20.0377 20.7872 20.4125 20.4125C20.7872 20.0377 20.9984 19.5299 21 19V7L17 3ZM12 19C11.4067 19 10.8266 18.8241 10.3333 18.4944C9.83994 18.1648 9.45542 17.6962 9.22836 17.1481C9.0013 16.5999 8.94189 15.9967 9.05764 15.4147C9.1734 14.8328 9.45912 14.2982 9.87868 13.8787C10.2982 13.4591 10.8328 13.1734 11.4147 13.0576C11.9967 12.9419 12.5999 13.0013 13.1481 13.2284C13.6962 13.4554 14.1648 13.8399 14.4944 14.3333C14.8241 14.8266 15 15.4067 15 16C15 16.7956 14.6839 17.5587 14.1213 18.1213C13.5587 18.6839 12.7956 19 12 19ZM15 9H5V5H15V9Z" fill="black"/>
</svg>
