<svg width="24" height="24" viewBox="0 0 24 24" fill="none" xmlns="http://www.w3.org/2000/svg">
<path d="M12.85 13.47C12.73 13.34 12.59 13.23 12.42 13.16C12.25 13.09 12.05 13.05 11.83 13.05C11.61 13.05 11.41 13.09 11.24 13.16C11.07 13.23 10.93 13.34 10.81 13.47C10.7 13.61 10.6 13.77 10.54 13.97C10.47 14.17 10.44 14.39 10.44 14.64C10.44 14.89 10.48 15.11 10.54 15.31C10.6 15.51 10.69 15.68 10.81 15.81C10.92 15.95 11.07 16.05 11.24 16.12C11.41 16.19 11.61 16.23 11.83 16.23C12.05 16.23 12.25 16.19 12.42 16.12C12.59 16.05 12.73 15.94 12.85 15.81C12.97 15.67 13.06 15.51 13.12 15.31C13.19 15.11 13.22 14.89 13.22 14.64C13.22 14.39 13.18 14.17 13.12 13.97C13.06 13.77 12.97 13.6 12.85 13.47Z" fill="black"/>
<path d="M19 8H5C3.9 8 3 8.9 3 10V20C3 21.1 3.9 22 5 22H19C20.1 22 21 21.1 21 20V10C21 8.9 20.1 8 19 8ZM6.07 17.22L4 12.05H5.02C5.13 12.05 5.23 12.08 5.3 12.13C5.38 12.18 5.43 12.25 5.46 12.34L6.44 15.08C6.47 15.16 6.5 15.25 6.53 15.34C6.55 15.38 6.56 15.43 6.58 15.48C6.61 15.56 6.64 15.64 6.66 15.73C6.67 15.68 6.69 15.63 6.7 15.58C6.71 15.54 6.72 15.51 6.73 15.48C6.76 15.39 6.79 15.3 6.82 15.21C6.83 15.17 6.85 15.13 6.86 15.09L7.84 12.36C7.86 12.28 7.91 12.22 7.99 12.16C8.07 12.1 8.16 12.07 8.27 12.07H9.31L7.22 17.26H6.07V17.22ZM14.33 15.7C14.2 16.02 14.02 16.3 13.78 16.54C13.55 16.78 13.26 16.97 12.93 17.1C12.6 17.23 12.23 17.3 11.83 17.3C11.43 17.3 11.06 17.23 10.73 17.1C10.4 16.97 10.12 16.78 9.88 16.54C9.64 16.31 9.46 16.02 9.33 15.7C9.21 15.38 9.14 15.03 9.14 14.65C9.14 14.27 9.2 13.92 9.33 13.6C9.46 13.28 9.64 13 9.88 12.76C10.11 12.52 10.4 12.33 10.73 12.2C11.06 12.07 11.43 12 11.83 12C12.23 12 12.6 12.07 12.93 12.21C13.26 12.34 13.55 12.53 13.78 12.77C14.02 13 14.21 13.29 14.33 13.61C14.45 13.93 14.52 14.27 14.52 14.65C14.52 15.03 14.46 15.38 14.33 15.7ZM16.43 15.33C16.5 15.53 16.59 15.7 16.71 15.83C16.83 15.96 16.96 16.06 17.12 16.13C17.27 16.19 17.44 16.23 17.62 16.23C17.73 16.23 17.83 16.22 17.91 16.21C18 16.2 18.08 16.18 18.15 16.16C18.22 16.13 18.29 16.1 18.36 16.06C18.43 16.02 18.49 15.97 18.56 15.91C18.59 15.89 18.62 15.87 18.66 15.85C18.73 15.82 18.81 15.82 18.88 15.85H18.87L18.97 15.93L19.47 16.45L19.44 16.48C19.23 16.75 18.97 16.96 18.65 17.1C18.33 17.24 17.96 17.31 17.53 17.31C17.14 17.31 16.78 17.24 16.47 17.11C16.16 16.97 15.89 16.79 15.67 16.55C15.45 16.32 15.29 16.03 15.17 15.71C15.06 15.39 15 15.05 15 14.66C15 14.27 15.07 13.91 15.2 13.59C15.33 13.27 15.52 12.98 15.76 12.75C16 12.52 16.29 12.33 16.62 12.2C16.95 12.07 17.32 12 17.72 12C17.91 12 18.1 12.02 18.27 12.05C18.44 12.08 18.6 12.13 18.75 12.19C18.9 12.25 19.04 12.33 19.17 12.41C19.3 12.49 19.41 12.59 19.51 12.69L19.54 12.72L19.12 13.29C19.12 13.29 19.06 13.36 19.02 13.39C18.97 13.42 18.91 13.44 18.84 13.44C18.79 13.44 18.74 13.43 18.7 13.41C18.66 13.39 18.58 13.34 18.58 13.34L18.44 13.25C18.44 13.25 18.35 13.21 18.3 13.18H18.27C18.21 13.14 18.13 13.12 18.04 13.1C17.96 13.07 17.85 13.07 17.73 13.07C17.52 13.07 17.33 13.11 17.16 13.18C16.99 13.25 16.84 13.36 16.72 13.49C16.6 13.63 16.5 13.8 16.43 13.99C16.37 14.19 16.33 14.39 16.33 14.65C16.33 14.91 16.36 15.13 16.43 15.33Z" fill="black"/>
<path d="M18.5 5H5.5C4.67 5 4 5.67 4 6.5H20C20 5.67 19.33 5 18.5 5Z" fill="black"/>
<path d="M17.5 2H6.5C5.67 2 5 2.67 5 3.5H19C19 2.67 18.33 2 17.5 2Z" fill="black"/>
</svg>
