<svg width="24" height="24" viewBox="0 0 24 24" fill="none" xmlns="http://www.w3.org/2000/svg">
<path d="M2 18H4V4H18V2H4C3.47005 2.00158 2.96227 2.2128 2.58753 2.58753C2.2128 2.96227 2.00158 3.47005 2 4V18Z" fill="black"/>
<path fill-rule="evenodd" clip-rule="evenodd" d="M8 6H20C20.5299 6.00158 21.0377 6.2128 21.4125 6.58753C21.7872 6.96227 21.9984 7.47005 22 8V20C21.9984 20.5299 21.7872 21.0377 21.4125 21.4125C21.0377 21.7872 20.5299 21.9984 20 22H8C7.47005 21.9984 6.96227 21.7872 6.58753 21.4125C6.2128 21.0377 6.00158 20.5299 6 20V8C6.00158 7.47005 6.2128 6.96227 6.58753 6.58753C6.96227 6.2128 7.47005 6.00158 8 6ZM9 15H19V13H9V15ZM9 19H15V17H9V19ZM9 11H19V9H9V11Z" fill="black"/>
</svg>
