<svg width="16" height="16" viewBox="0 0 16 16" fill="none" xmlns="http://www.w3.org/2000/svg">
<g id="ico_0095_button">
<path id="Vector" d="M14.6668 5.99996V9.99996C14.6658 10.3533 14.525 10.6918 14.2751 10.9416C14.0253 11.1914 13.6868 11.3322 13.3335 11.3333H12.6668V9.99996H13.3335V5.99996H2.66683V9.99996H6.66683V11.3333H2.66683C2.31353 11.3322 1.97501 11.1914 1.72519 10.9416C1.47537 10.6918 1.33455 10.3533 1.3335 9.99996V5.99996C1.33455 5.64666 1.47537 5.30814 1.72519 5.05832C1.97501 4.8085 2.31353 4.66768 2.66683 4.66663H13.3335C13.6868 4.66768 14.0253 4.8085 14.2751 5.05832C14.525 5.30814 14.6658 5.64666 14.6668 5.99996ZM9.66683 12.6666L10.3935 11.06L12.0002 10.3333L10.3935 9.60663L9.66683 7.99996L8.94016 9.60663L7.3335 10.3333L8.94016 11.06L9.66683 12.6666ZM11.3335 9.33329L11.7468 8.41329L12.6668 7.99996L11.7468 7.58663L11.3335 6.66663L10.9202 7.58663L10.0002 7.99996L10.9202 8.41329L11.3335 9.33329ZM9.66683 12.6666L10.3935 11.06L12.0002 10.3333L10.3935 9.60663L9.66683 7.99996L8.94016 9.60663L7.3335 10.3333L8.94016 11.06L9.66683 12.6666ZM11.3335 9.33329L11.7468 8.41329L12.6668 7.99996L11.7468 7.58663L11.3335 6.66663L10.9202 7.58663L10.0002 7.99996L10.9202 8.41329L11.3335 9.33329Z" fill="#808080"/>
</g>
</svg>
