<svg width="24" height="24" viewBox="0 0 24 24" fill="none" xmlns="http://www.w3.org/2000/svg">
<path d="M12 22.0005C12.5298 21.9989 13.0375 21.7877 13.4121 21.4131C13.7867 21.0385 13.9979 20.5308 13.9995 20.001H10.0005C10.0005 20.5313 10.2111 21.0399 10.5861 21.4148C10.9611 21.7898 11.4697 22.0005 12 22.0005ZM18 16.0005V11.001C18.1009 9.58888 17.7069 8.18571 16.8857 7.0325C16.0645 5.87929 14.8674 5.04802 13.5 4.68149V4.00049C13.5 3.60266 13.342 3.22113 13.0606 2.93983C12.7793 2.65852 12.3978 2.50049 12 2.50049C11.6022 2.50049 11.2206 2.65852 10.9393 2.93983C10.658 3.22113 10.5 3.60266 10.5 4.00049V4.67999C9.13076 5.04341 7.93159 5.87392 7.10988 7.02789C6.28816 8.18185 5.89556 9.58671 5.99999 10.9995V16.0005L4.00049 18V19.0005H20.001V18L18 16.0005Z" fill="black"/>
</svg>
