<svg width="24" height="24" viewBox="0 0 24 24" fill="none" xmlns="http://www.w3.org/2000/svg">
<path d="M19.484 4H4.218L4 9.15H5.453L5.443 8.765C5.42589 8.1745 5.5209 7.5861 5.723 7.031C5.8501 6.70214 6.0653 6.41464 6.345 6.2C6.62044 6.00937 6.93973 5.89171 7.273 5.858C7.68013 5.8132 8.08941 5.79083 8.499 5.791C8.83427 5.77796 9.17004 5.78765 9.504 5.82C9.69529 5.83212 9.88489 5.86328 10.07 5.913C10.0883 5.95094 10.0966 5.99295 10.094 6.035V16.517C10.0982 16.863 10.0718 17.2087 10.015 17.55C9.98573 17.7485 9.90038 17.9344 9.769 18.086C9.59749 18.2566 9.3834 18.3782 9.149 18.438C8.74146 18.544 8.3221 18.5978 7.901 18.598H7.54V20.148H16.05V18.599H15.7C15.2795 18.5987 14.8608 18.5446 14.454 18.438C14.232 18.3827 14.0292 18.2683 13.867 18.107C13.7301 17.9485 13.6413 17.7542 13.611 17.547C13.5545 17.2053 13.5281 16.8593 13.532 16.513L13.523 5.977C13.5543 5.93983 13.598 5.9153 13.646 5.908C13.8467 5.85681 14.0521 5.82633 14.259 5.817C14.545 5.798 14.926 5.789 15.406 5.789C15.817 5.7812 16.2273 5.82794 16.626 5.928C16.9233 6.00428 17.1952 6.1578 17.414 6.373C17.6534 6.62357 17.8302 6.92715 17.93 7.259C18.0798 7.75568 18.1652 8.26956 18.184 8.788L18.197 9.148H19.697L19.484 4Z" fill="black"/>
</svg>
