<svg width="24" height="24" viewBox="0 0 24 24" fill="none" xmlns="http://www.w3.org/2000/svg">
<path d="M18.4501 23H16.2499C16.1838 23.0008 16.1199 22.9781 16.0693 22.9355C16.0186 22.893 15.9841 22.8329 15.9736 22.7676L15.7695 21.3135C15.4385 21.1735 15.1255 20.993 14.8388 20.7764L13.4726 21.3252C13.4107 21.3465 13.3436 21.3458 13.2822 21.3232C13.2208 21.3006 13.169 21.2575 13.1357 21.2012L12.0361 19.3008C12.0046 19.2432 11.9944 19.1767 12.0068 19.1123C12.0192 19.0479 12.0538 18.99 12.1044 18.9482L13.2656 18.0479C13.2078 17.6891 13.2129 17.3231 13.2792 16.9658L12.1161 16.0664C12.0635 16.027 12.027 15.9688 12.0146 15.9043C12.0022 15.8398 12.0145 15.7729 12.0488 15.7168L13.1425 13.8174C13.1718 13.7571 13.2235 13.7095 13.2861 13.6855C13.3487 13.6616 13.4184 13.6632 13.4804 13.6885L14.8456 14.2334C15.1327 14.0167 15.446 13.8362 15.7773 13.6963L15.9853 12.2422C15.9938 12.1768 16.0257 12.1168 16.0751 12.0732C16.1246 12.0296 16.1879 12.0051 16.2538 12.0049H18.454C18.5204 12.0045 18.5846 12.0286 18.6347 12.0723C18.6848 12.1159 18.7168 12.1764 18.7255 12.2422L18.9345 13.6963C19.2663 13.8345 19.5796 14.0151 19.8652 14.2334L21.2324 13.6885C21.2944 13.6651 21.3628 13.6647 21.4247 13.6885C21.4867 13.7123 21.5378 13.7585 21.5683 13.8174L22.6679 15.7168C22.6991 15.7738 22.7096 15.8396 22.6972 15.9033C22.6848 15.9671 22.6499 16.0253 22.5995 16.0664L21.4335 16.9658C21.4658 17.1426 21.4814 17.3223 21.4785 17.502C21.4788 17.6846 21.4666 17.8669 21.4423 18.0479L22.5956 18.9482C22.6482 18.9886 22.6844 19.0471 22.6962 19.1123C22.7081 19.1776 22.6952 19.2445 22.6601 19.3008L21.5595 21.2012C21.5274 21.2586 21.4758 21.3025 21.414 21.3252C21.3522 21.3479 21.2843 21.3481 21.2226 21.3252L19.8535 20.7764C19.5706 20.9966 19.2583 21.1774 18.9267 21.3135L18.7177 22.7676C18.7115 22.8311 18.682 22.8907 18.6347 22.9336C18.5874 22.9765 18.5257 23.0001 18.4619 23H18.4501ZM15.288 17.5C15.2876 17.9078 15.4085 18.3062 15.6347 18.6455C15.861 18.9848 16.1829 19.2498 16.5595 19.4062C16.9361 19.5627 17.3499 19.6036 17.7499 19.5244C18.15 19.4452 18.5179 19.25 18.8066 18.9619C19.0952 18.6738 19.2921 18.3062 19.372 17.9062C19.452 17.5063 19.4115 17.0918 19.2558 16.7148C19.1001 16.3379 18.8359 16.016 18.497 15.7891C18.1581 15.5622 17.7593 15.4408 17.3515 15.4404C16.8049 15.4407 16.2814 15.6568 15.8945 16.043C15.5076 16.4291 15.2893 16.9534 15.288 17.5ZM3.99799 20C3.46755 20 2.959 19.7891 2.58392 19.4141C2.20885 19.039 1.99799 18.5304 1.99799 18V4C1.99983 3.47013 2.2112 2.96256 2.58588 2.58789C2.96055 2.21322 3.46812 2.00184 3.99799 2H15.998C16.5279 2.00158 17.0354 2.21316 17.4101 2.58789C17.7848 2.96262 17.9964 3.47005 17.998 4V11.0186C17.833 11.0056 17.6611 10.998 17.4921 10.998C16.6338 10.9962 15.7837 11.1662 14.9921 11.498V9.99805H4.99213V11.998H14.0263C13.205 12.5189 12.5095 13.2158 11.9902 14.0381V13.998H4.99017V15.998H11.1669C10.8485 17.3317 10.9608 18.732 11.4872 19.998L3.99799 20ZM4.99799 8H14.998V6H4.99799V8Z" fill="black"/>
</svg>
