<svg width="24" height="24" viewBox="0 0 24 24" fill="none" xmlns="http://www.w3.org/2000/svg">
<path d="M18.588 22H16.3878C16.3215 22.0009 16.2575 21.9781 16.2066 21.9355C16.1558 21.893 16.1217 21.833 16.1109 21.7676L15.9039 20.3145C15.573 20.1749 15.2614 19.9937 14.9762 19.7754L13.609 20.3242C13.5469 20.3459 13.4793 20.347 13.4176 20.3242C13.3559 20.3014 13.3041 20.2561 13.2711 20.1992L12.171 18.3008C12.1395 18.2433 12.1289 18.1758 12.1407 18.1113C12.1526 18.0468 12.186 17.9878 12.2359 17.9453L13.402 17.0469C13.3447 16.6889 13.3484 16.3237 13.4122 15.9668L12.2521 15.0664C12.1985 15.0276 12.1617 14.9691 12.1485 14.9043C12.1354 14.8395 12.1466 14.7734 12.1808 14.7168L13.276 12.8164C13.3069 12.7574 13.3587 12.7109 13.421 12.6875C13.4833 12.6641 13.5518 12.6654 13.6139 12.6895L14.9811 13.2383C15.2661 13.0191 15.5781 12.8379 15.9098 12.6992L16.1168 11.2461C16.1264 11.1807 16.1592 11.1214 16.2091 11.0781C16.259 11.0348 16.3227 11.01 16.3888 11.0098H18.589C18.655 11.01 18.7187 11.0348 18.7687 11.0781C18.8186 11.1214 18.8514 11.1807 18.8609 11.2461L19.068 12.6992C19.4008 12.8357 19.7135 13.0171 19.9972 13.2383L21.3639 12.6895C21.4261 12.6667 21.4947 12.6662 21.5567 12.6895C21.6187 12.7128 21.6699 12.7583 21.7018 12.8164L22.8019 14.7168C22.8331 14.7737 22.844 14.8385 22.8321 14.9023C22.8203 14.9661 22.7865 15.0245 22.7369 15.0664L21.5709 15.9668C21.6018 16.1447 21.6155 16.3253 21.6119 16.5059C21.6127 16.6868 21.6005 16.8676 21.5758 17.0469L22.7311 17.9453C22.783 17.9864 22.818 18.0463 22.8302 18.1113C22.8423 18.1764 22.8306 18.2438 22.797 18.3008L21.6969 20.1992C21.6649 20.2571 21.6134 20.3032 21.5514 20.3262C21.4893 20.3491 21.421 20.3473 21.359 20.3242L19.9918 19.7754C19.7076 19.9952 19.3958 20.1765 19.0641 20.3145L18.857 21.7676C18.8504 21.8311 18.8205 21.8908 18.773 21.9336C18.7256 21.9764 18.6641 21.9999 18.6002 22H18.588ZM15.4249 16.5C15.4248 16.771 15.478 17.0387 15.5816 17.2891C15.6853 17.5395 15.8373 17.7673 16.0289 17.959C16.2205 18.1507 16.448 18.3025 16.6983 18.4062C16.9487 18.51 17.2169 18.5645 17.4879 18.5645C18.0341 18.5623 18.5573 18.3438 18.943 17.957C19.3286 17.5702 19.5455 17.0462 19.546 16.5C19.5455 15.954 19.3287 15.4294 18.943 15.043C18.5572 14.6565 18.0339 14.4391 17.4879 14.4375C16.9409 14.4378 16.4164 14.6564 16.0294 15.043C15.6424 15.4296 15.4247 15.953 15.4239 16.5H15.4249ZM5.00205 22C4.47162 22 3.96306 21.7891 3.58799 21.4141C3.21292 21.039 3.00205 20.5304 3.00205 20V4C3.00442 3.4703 3.21587 2.96245 3.59043 2.58789C3.96499 2.21333 4.47235 2.00237 5.00205 2H17.0021C17.5318 2.00237 18.0391 2.21333 18.4137 2.58789C18.7882 2.96245 18.9997 3.4703 19.0021 4V10.1797C18.5109 10.0606 18.0074 9.99988 17.5021 9.99805C15.7781 9.99805 14.1248 10.6834 12.9059 11.9023C11.6869 13.1213 11.0021 14.7741 11.0021 16.498C11.0015 17.598 11.281 18.6804 11.8141 19.6426C12.3471 20.6048 13.1161 21.4151 14.0489 21.998L5.00205 22ZM10.0021 11V4H5.00205V11L7.50205 9.5L10.0021 11Z" fill="black"/>
</svg>
