<svg width="24" height="24" viewBox="0 0 24 24" fill="none" xmlns="http://www.w3.org/2000/svg">
<path fill-rule="evenodd" clip-rule="evenodd" d="M11.5 15.5V8.5C11.5 7.95 11.95 7.5 12.5 7.5H22V5C22 4.45 21.55 4 21 4H3C2.45 4 2 4.45 2 5V19C2 19.55 2.45 20 3 20H21C21.55 20 22 19.55 22 19V16.5H12.5C11.95 16.5 11.5 16.05 11.5 15.5Z" fill="black"/>
<path fill-rule="evenodd" clip-rule="evenodd" d="M22 9H13V15H22C22.55 15 23 14.55 23 14V10C23 9.45 22.55 9 22 9ZM16 13C15.45 13 15 12.55 15 12C15 11.45 15.45 11 16 11C16.55 11 17 11.45 17 12C17 12.55 16.55 13 16 13Z" fill="black"/>
</svg>
