<svg width="24" height="24" viewBox="0 0 24 24" fill="none" xmlns="http://www.w3.org/2000/svg">
<path d="M19.9943 21.4111L18.464 19.8779C17.7493 20.3352 16.9189 20.5783 16.0704 20.5781C15.0674 20.5803 14.0919 20.2488 13.298 19.6357C12.5041 19.0227 11.9363 18.1633 11.6847 17.1924C11.4331 16.2214 11.5121 15.1939 11.9083 14.2725C12.3045 13.351 12.9954 12.5878 13.8732 12.1025C14.751 11.6172 15.7659 11.4373 16.757 11.5918C17.748 11.7463 18.6593 12.2266 19.3478 12.9561C20.0362 13.6855 20.4618 14.6228 20.5587 15.6211C20.6557 16.6194 20.4182 17.6215 19.8829 18.4697L20.8917 19.4766L21.4406 20.0264L23.0011 21.582L21.5822 23.001L19.9943 21.4111ZM13.5812 16.0781C13.5812 16.5726 13.7274 17.0557 14.0021 17.4668C14.2768 17.8779 14.6673 18.1985 15.1241 18.3877C15.581 18.5769 16.0835 18.6267 16.5685 18.5303C17.0534 18.4338 17.4991 18.1953 17.8488 17.8457C18.1984 17.4961 18.4369 17.0504 18.5333 16.5654C18.6298 16.0805 18.58 15.5779 18.3907 15.1211C18.2015 14.6643 17.881 14.2737 17.4698 13.999C17.0587 13.7243 16.5756 13.5781 16.0812 13.5781C15.4181 13.5781 14.7824 13.8417 14.3136 14.3105C13.8448 14.7794 13.5812 15.4151 13.5812 16.0781ZM8.00598 22V20H9.99817V18H10.3429C10.7512 19.1424 11.4945 20.1351 12.4757 20.8486C13.4569 21.5622 14.6302 21.9636 15.8429 22H8.00598ZM9.99817 17H4.00598C3.47555 17 2.96699 16.7891 2.59192 16.4141C2.21685 16.039 2.00598 15.5304 2.00598 15V4C2.00598 3.46957 2.21685 2.96101 2.59192 2.58594C2.96699 2.21086 3.47555 2 4.00598 2H19.9991C20.5296 2 21.0381 2.21086 21.4132 2.58594C21.7883 2.96101 21.9991 3.46957 21.9991 4V15C21.9984 15.125 21.9874 15.2498 21.9669 15.373C21.8656 14.4321 21.5437 13.5285 21.0275 12.7354C20.5112 11.9422 19.8155 11.2813 18.9962 10.8076V8.10254H15.006V10.0859C14.6635 10.1426 14.3269 10.2297 14.0001 10.3467V5H10.0001V15C10.0321 15.333 10.0001 15.67 10.0001 16C10.0002 16.3351 10.0283 16.6696 10.0841 17H9.99817ZM5.00793 15H9.00793V7.17188H5.00793V15Z" fill="black"/>
</svg>
