<svg width="24" height="24" viewBox="0 0 24 24" fill="none" xmlns="http://www.w3.org/2000/svg">
<path d="M12 17C12.3956 17 12.7822 16.8827 13.1111 16.6629C13.44 16.4432 13.6964 16.1308 13.8478 15.7654C13.9991 15.3999 14.0387 14.9978 13.9616 14.6098C13.8844 14.2219 13.6939 13.8655 13.4142 13.5858C13.1345 13.3061 12.7781 13.1156 12.3902 13.0384C12.0022 12.9613 11.6001 13.0009 11.2346 13.1522C10.8692 13.3036 10.5568 13.56 10.3371 13.8889C10.1173 14.2178 10 14.6044 10 15C10.0016 15.5299 10.2128 16.0377 10.5875 16.4125C10.9623 16.7872 11.4701 16.9984 12 17ZM18 8H17V6C17 4.67392 16.4732 3.40215 15.5355 2.46447C14.5979 1.52678 13.3261 1 12 1C10.6739 1 9.40215 1.52678 8.46447 2.46447C7.52678 3.40215 7 4.67392 7 6H8.9C8.9 5.17783 9.22661 4.38933 9.80797 3.80797C10.3893 3.22661 11.1778 2.9 12 2.9C12.8222 2.9 13.6107 3.22661 14.192 3.80797C14.7734 4.38933 15.1 5.17783 15.1 6V8H6C5.47005 8.00158 4.96227 8.2128 4.58753 8.58753C4.2128 8.96227 4.00158 9.47005 4 10V20C4.00158 20.5299 4.2128 21.0377 4.58753 21.4125C4.96227 21.7872 5.47005 21.9984 6 22H18C18.5299 21.9984 19.0377 21.7872 19.4125 21.4125C19.7872 21.0377 19.9984 20.5299 20 20V10C19.9984 9.47005 19.7872 8.96227 19.4125 8.58753C19.0377 8.2128 18.5299 8.00158 18 8ZM18 20H6V10H18V20Z" fill="black"/>
</svg>
