<svg width="24" height="24" viewBox="0 0 24 24" fill="none" xmlns="http://www.w3.org/2000/svg">
<path d="M21.7 18L14.6 10.9C15.052 9.72924 15.1508 8.4516 14.8842 7.22522C14.6176 5.99884 13.9973 4.87753 13.1 4.00005C12.1443 3.05786 10.9244 2.42885 9.60263 2.19664C8.28082 1.96443 6.91963 2.14001 5.70001 2.70005L10 7.00005L7.00001 10L2.60001 5.70005C2.01577 6.91456 1.82697 8.28167 2.06017 9.60908C2.29336 10.9365 2.93681 12.1574 3.90001 13.1C4.77749 13.9973 5.8988 14.6177 7.12518 14.8843C8.35156 15.1509 9.6292 15.052 10.8 14.6L17.9 21.7001C17.9903 21.7948 18.0989 21.8702 18.2192 21.9218C18.3396 21.9733 18.4691 21.9999 18.6 21.9999C18.7309 21.9999 18.8604 21.9733 18.9808 21.9218C19.1011 21.8702 19.2097 21.7948 19.3 21.7001L21.6 19.4C21.7108 19.3234 21.8029 19.2229 21.8697 19.1059C21.9364 18.9889 21.9761 18.8584 21.9857 18.724C21.9953 18.5897 21.9746 18.4549 21.9251 18.3296C21.8757 18.2043 21.7988 18.0917 21.7 18Z" fill="black"/>
</svg>
