<svg width="24" height="24" viewBox="0 0 24 24" fill="none" xmlns="http://www.w3.org/2000/svg">
<path d="M19 3H5C4.46957 3 3.96086 3.21071 3.58579 3.58579C3.21071 3.96086 3 4.46957 3 5V19C3 19.5304 3.21071 20.0391 3.58579 20.4142C3.96086 20.7893 4.46957 21 5 21H19C19.5299 20.9984 20.0377 20.7872 20.4125 20.4125C20.7872 20.0377 20.9984 19.5299 21 19V5C21 4.46957 20.7893 3.96086 20.4142 3.58579C20.0391 3.21071 19.5304 3 19 3ZM19 19H5V5H19V19ZM13.5 12C13.5 12.2967 13.412 12.5867 13.2472 12.8334C13.0824 13.08 12.8481 13.2723 12.574 13.3858C12.2999 13.4994 11.9983 13.5291 11.7074 13.4712C11.4164 13.4133 11.1491 13.2704 10.9393 13.0607C10.7296 12.8509 10.5867 12.5836 10.5288 12.2926C10.4709 12.0017 10.5006 11.7001 10.6142 11.426C10.7277 11.1519 10.92 10.9176 11.1666 10.7528C11.4133 10.588 11.7033 10.5 12 10.5C12.3978 10.5 12.7794 10.658 13.0607 10.9393C13.342 11.2206 13.5 11.6022 13.5 12ZM12 8C10.7151 7.99268 9.45734 8.36959 8.38822 9.08233C7.3191 9.79508 6.48743 10.8111 6 12C6.49356 13.1846 7.32671 14.1965 8.39445 14.9083C9.46219 15.6202 10.7167 16 12 16C13.2833 16 14.5378 15.6202 15.6056 14.9083C16.6733 14.1965 17.5064 13.1846 18 12C17.5126 10.8111 16.6809 9.79508 15.6118 9.08233C14.5427 8.36959 13.2849 7.99268 12 8ZM12 14.5C11.5055 14.5 11.0222 14.3534 10.6111 14.0787C10.2 13.804 9.87952 13.4135 9.6903 12.9567C9.50108 12.4999 9.45157 11.9972 9.54804 11.5123C9.6445 11.0273 9.8826 10.5819 10.2322 10.2322C10.5819 9.8826 11.0273 9.6445 11.5123 9.54804C11.9972 9.45157 12.4999 9.50108 12.9567 9.6903C13.4135 9.87952 13.804 10.2 14.0787 10.6111C14.3534 11.0222 14.5 11.5055 14.5 12C14.5 12.663 14.2366 13.2989 13.7678 13.7678C13.2989 14.2366 12.663 14.5 12 14.5Z" fill="black"/>
</svg>
