<svg width="24" height="24" viewBox="0 0 24 24" fill="none" xmlns="http://www.w3.org/2000/svg">
<path d="M13 17.999C13 17.0101 13.2934 16.0429 13.8428 15.2207C14.3922 14.3985 15.1733 13.7583 16.0869 13.3799C17.0005 13.0014 18.0057 12.9018 18.9756 13.0947C19.9455 13.2877 20.8359 13.7646 21.5352 14.4639C22.2344 15.1631 22.7114 16.0535 22.9043 17.0234C23.0972 17.9933 22.9976 18.9985 22.6191 19.9121C22.2407 20.8257 21.6006 21.6068 20.7783 22.1562C19.9561 22.7057 18.9889 22.999 18 22.999C16.6739 22.999 15.4025 22.4719 14.4648 21.5342C13.5272 20.5965 13 19.3251 13 17.999ZM14.5 17.5098L17.5566 20.5674L21.498 16.2666L20.1611 15.002L17.5176 17.9258L15.8057 16.2051L14.5 17.5098ZM5 20C4.73582 20 4.48229 19.8952 4.29492 19.709C4.10756 19.5227 4.00159 19.27 4 19.0059V3.00586C4 2.74064 4.10543 2.48636 4.29297 2.29883C4.48051 2.11129 4.73478 2.00586 5 2.00586H19C19.2652 2.00586 19.5195 2.11129 19.707 2.29883C19.8946 2.48636 20 2.74064 20 3.00586V12.3496C19.3602 12.1221 18.6859 12.0066 18.0068 12.0078C17.1626 12.0082 16.3283 12.1866 15.5576 12.5312C14.7869 12.8759 14.0974 13.3789 13.5342 14.0078H7.25781C7.19079 14.0075 7.12687 14.034 7.0791 14.0811C7.03134 14.1281 7.00372 14.1918 7.00293 14.2588V15.7588C7.00345 15.7917 7.01033 15.8243 7.02344 15.8545C7.03655 15.8847 7.05541 15.9117 7.0791 15.9346C7.10279 15.9574 7.13146 15.9763 7.16211 15.9883C7.19276 16.0003 7.2249 16.0055 7.25781 16.0049H12.3457C11.8931 17.2998 11.8931 18.71 12.3457 20.0049L5 20ZM7 10.2539V11.7539C7.00079 11.8208 7.02838 11.8848 7.07617 11.9316C7.12397 11.9785 7.18795 12.0044 7.25488 12.0039H16.7549C16.8204 12.0026 16.8827 11.9754 16.9287 11.9287C16.9747 11.882 17.0007 11.8194 17.001 11.7539V10.2539C17.0015 10.2212 16.9955 10.1886 16.9834 10.1582C16.9713 10.1278 16.9535 10.1005 16.9307 10.0771C16.9078 10.0538 16.8807 10.0352 16.8506 10.0225C16.8205 10.0097 16.7876 10.0031 16.7549 10.0029H7.25488C7.22179 10.0025 7.18893 10.0092 7.1582 10.0215C7.12748 10.0338 7.09985 10.0511 7.07617 10.0742C7.05249 10.0973 7.03354 10.1258 7.02051 10.1562C7.00748 10.1867 7.00039 10.2189 7 10.252V10.2539ZM7 6.25391V7.75391C6.99973 7.78742 7.00582 7.82056 7.01855 7.85156C7.03129 7.88257 7.05047 7.91092 7.07422 7.93457C7.09796 7.95822 7.12617 7.97665 7.15723 7.98926C7.18828 8.00187 7.22137 8.00821 7.25488 8.00781H16.7549C16.7877 8.00729 16.8205 8.00035 16.8506 7.9873C16.8807 7.97426 16.9078 7.95523 16.9307 7.93164C16.9535 7.90805 16.9713 7.88014 16.9834 7.84961C16.9955 7.81908 17.0015 7.78674 17.001 7.75391V6.25391C17.0015 6.22141 16.9956 6.18932 16.9834 6.15918C16.9712 6.12903 16.9536 6.10116 16.9307 6.07812C16.9077 6.05509 16.8797 6.03767 16.8496 6.02539C16.8195 6.01311 16.7874 6.00643 16.7549 6.00684H7.25488C7.18899 6.00575 7.12584 6.03071 7.07812 6.07617C7.03041 6.12164 7.00209 6.18413 7 6.25V6.25391Z" fill="black"/>
</svg>
