<svg width="24" height="24" viewBox="0 0 24 24" fill="none" xmlns="http://www.w3.org/2000/svg">
<path d="M18 2.99996H14.82C14.6152 2.4154 14.2339 1.90892 13.7287 1.55058C13.2235 1.19224 12.6194 0.999756 12 0.999756C11.3806 0.999756 10.7765 1.19224 10.2713 1.55058C9.76612 1.90892 9.38476 2.4154 9.18 2.99996H6C5.47005 3.00154 4.96227 3.21276 4.58753 3.58749C4.2128 3.96222 4.00158 4.47001 4 4.99996V20C4.00158 20.5299 4.2128 21.0377 4.58753 21.4124C4.96227 21.7872 5.47005 21.9984 6 22H18C18.5299 21.9984 19.0377 21.7872 19.4125 21.4124C19.7872 21.0377 19.9984 20.5299 20 20V4.99996C19.9984 4.47001 19.7872 3.96222 19.4125 3.58749C19.0377 3.21276 18.5299 3.00154 18 2.99996ZM12 2.99996C12.1978 2.99996 12.3911 3.05861 12.5556 3.16849C12.72 3.27837 12.8482 3.43455 12.9239 3.61727C12.9996 3.8 13.0194 4.00107 12.9808 4.19505C12.9422 4.38903 12.847 4.56721 12.7071 4.70706C12.5673 4.84692 12.3891 4.94216 12.1951 4.98074C12.0011 5.01933 11.8 4.99953 11.6173 4.92384C11.4346 4.84815 11.2784 4.71998 11.1685 4.55553C11.0586 4.39108 11 4.19774 11 3.99996C11 3.73474 11.1054 3.48039 11.2929 3.29285C11.4804 3.10531 11.7348 2.99996 12 2.99996ZM18 20H6V4.99996H8V7.99996H16V4.99996H18V20Z" fill="black"/>
</svg>
