<svg width="24" height="24" viewBox="0 0 24 24" fill="none" xmlns="http://www.w3.org/2000/svg">
<path d="M19.001 23H4.99319C4.46467 22.9971 3.95867 22.7849 3.58597 22.4102C3.21327 22.0354 3.00393 21.5285 3.00394 21L3.01175 3C3.01175 2.47078 3.22217 1.96276 3.59573 1.58789C3.96929 1.21302 4.47569 1.00185 5.00491 1H15.0049L21.0049 7V21C21.0049 21.263 20.9533 21.5237 20.8526 21.7666C20.7518 22.0095 20.6041 22.2302 20.418 22.416C20.2319 22.6018 20.0107 22.7484 19.7676 22.8486C19.5245 22.9489 19.264 23.0005 19.001 23ZM18.2198 11.8154C17.8146 11.815 17.414 11.8986 17.043 12.0615C16.672 12.2245 16.3393 12.4631 16.0655 12.7617C15.7916 13.0604 15.5824 13.4122 15.4522 13.7959C15.322 14.1796 15.2731 14.5866 15.3086 14.9902C15.2727 15.5708 15.4098 16.1485 15.7022 16.6514C15.9945 17.1542 16.4289 17.5594 16.9512 17.8154C17.4735 18.0714 18.0602 18.1668 18.6367 18.0898C19.2133 18.0129 19.7546 17.7668 20.1914 17.3828V14.6484H18.0342V15.6377H19.1094V16.8379C18.888 16.9978 18.6186 17.079 18.3457 17.0674C17.1857 17.0674 16.5459 16.3161 16.5459 14.9521C16.5459 13.6811 17.2188 12.8604 18.2608 12.8604C18.4838 12.8568 18.7053 12.9002 18.9102 12.9883C19.1151 13.0764 19.2993 13.2068 19.4502 13.3711L20.0967 12.5996C19.8537 12.3475 19.5615 12.1485 19.2383 12.0137C18.9151 11.8788 18.5679 11.8118 18.2178 11.8164L18.2198 11.8154ZM9.47073 11.9297V18H10.6221V15.5605C10.6221 15.0195 10.5667 14.4533 10.5147 13.9053L10.5078 13.8252C10.4948 13.6972 10.4837 13.5702 10.4727 13.4482H10.5147L11.1289 14.748L12.8848 17.999H14.1133V11.9287H12.9659V14.3477C12.9659 14.9687 13.0406 15.6925 13.1016 16.2725L13.1231 16.4717H13.0811L12.4756 15.1611L10.711 11.9297H9.47073ZM4.00296 11.9297V18H5.2178V15.8428H6.0303C7.4983 15.8428 8.37405 15.0911 8.37405 13.8311C8.37405 12.5711 7.57412 11.9307 5.99612 11.9307L4.00296 11.9297ZM14.003 2.49707V7.99707H19.503L14.003 2.49707ZM5.9473 14.8828H5.2178V12.8896H5.9053C6.8053 12.8896 7.1846 13.1711 7.1846 13.8311C7.1826 14.5411 6.77737 14.8848 5.94437 14.8848L5.9473 14.8828Z" fill="black"/>
</svg>
