<svg width="24" height="24" viewBox="0 0 24 24" fill="none" xmlns="http://www.w3.org/2000/svg">
<path d="M17.624 22H15.8408C15.773 22.0008 15.7069 21.9781 15.6533 21.9365C15.5997 21.8949 15.5619 21.8374 15.5459 21.7715L14.6865 18H9.31543L8.45508 21.7715C8.43907 21.8372 8.40103 21.895 8.34766 21.9365C8.29429 21.9781 8.22878 22.0006 8.16113 22H6.37695C6.33205 22 6.28757 21.9901 6.24707 21.9707C6.20657 21.9513 6.17071 21.9227 6.14258 21.8877C6.11446 21.8522 6.09483 21.8108 6.08496 21.7666C6.07509 21.7224 6.07559 21.6769 6.08594 21.6328L6.91797 18H3.30176C3.22219 18 3.1461 17.9684 3.08984 17.9121C3.03358 17.8558 3.00195 17.7798 3.00195 17.7002V6.2998C3.00195 6.22024 3.03358 6.14415 3.08984 6.08789C3.1461 6.03163 3.22219 6 3.30176 6H20.7021C20.7817 6 20.8578 6.03163 20.9141 6.08789C20.9703 6.14415 21.002 6.22024 21.002 6.2998V17.7002C21.002 17.7798 20.9703 17.8558 20.9141 17.9121C20.8578 17.9684 20.7817 18 20.7021 18H17.0859L17.917 21.6328C17.9273 21.6769 17.9278 21.7224 17.918 21.7666C17.9081 21.8108 17.8885 21.8522 17.8604 21.8877C17.832 21.9229 17.7958 21.9513 17.7549 21.9707C17.714 21.9901 17.6693 22.0003 17.624 22ZM15.501 10V16H17.501V10H15.501ZM12.501 12V16H14.501V12H12.501ZM9.50098 11V16H11.4951V11H9.50098ZM6.50098 13V16H8.50098V13H6.50098ZM6.50098 10.5V11.5H8.50098V10.5H6.50098ZM12.501 9.5V10.5H14.501V9.5H12.501ZM9.50098 8.5V9.5H11.4951V8.5H9.50098ZM15.501 7.5V8.5H17.501V7.5H15.501ZM21.7012 5H2.30078C2.22122 5 2.14513 4.96837 2.08887 4.91211C2.03261 4.85585 2.00098 4.77976 2.00098 4.7002V3.2998C2.00098 3.22024 2.03261 3.14415 2.08887 3.08789C2.14513 3.03163 2.22122 3 2.30078 3H10.001V2.2998C10.001 2.22024 10.0326 2.14415 10.0889 2.08789C10.1451 2.03163 10.2212 2 10.3008 2H13.7012C13.7807 2 13.8568 2.03163 13.9131 2.08789C13.9693 2.14415 14.001 2.22024 14.001 2.2998V3H21.7012C21.7807 3 21.8568 3.03163 21.9131 3.08789C21.9693 3.14415 22.001 3.22024 22.001 3.2998V4.7002C22.001 4.77976 21.9693 4.85585 21.9131 4.91211C21.8568 4.96837 21.7807 5 21.7012 5Z" fill="black"/>
</svg>
