<svg width="24" height="24" viewBox="0 0 24 24" fill="none" xmlns="http://www.w3.org/2000/svg">
<path d="M4.00055 21.5026C3.47072 21.5002 2.96295 21.2885 2.58844 20.9137C2.21393 20.5389 2.00301 20.0314 2.00104 19.5016V5.0011C2.00301 4.47141 2.21462 3.96391 2.58917 3.58936C2.96372 3.2148 3.47086 3.00356 4.00055 3.00159H5.00104V1.00208H7.00055V3.00305H17.001V1.00208H19.0005V3.00305H20.001C20.5307 3.00503 21.0379 3.21627 21.4124 3.59082C21.787 3.96537 21.9986 4.47287 22.0005 5.00256V19.5031C21.9986 20.0329 21.7877 20.5404 21.4131 20.9152C21.0386 21.29 20.5309 21.5017 20.001 21.504L4.00055 21.5026ZM4.00055 19.5016H20.001V8.00256H4.00055V19.5016ZM15.0001 17.4017V14.4017H18.0001V17.4017H15.0001ZM10.5001 17.4017V14.4017H13.5001V17.4017H10.5001ZM6.00006 17.4017V14.4017H9.00006V17.4017H6.00006ZM15.0001 12.9017V9.90173H18.0001V12.9017H15.0001ZM10.5001 12.9017V9.90173H13.5001V12.9017H10.5001ZM6.00006 12.9017V9.90173H9.00006V12.9017H6.00006Z" fill="black"/>
</svg>
