<svg width="24" height="24" viewBox="0 0 24 24" fill="none" xmlns="http://www.w3.org/2000/svg">
<path d="M21.0036 21.5962C20.8675 21.5959 20.7357 21.5487 20.6306 21.4624L17.7927 19.1968H8.9997C8.52317 19.1955 8.06665 19.0059 7.73017 18.6685C7.39368 18.331 7.20477 17.8735 7.20477 17.397V15.5972H15.6052C16.5599 15.5972 17.475 15.2176 18.1501 14.5425C18.8252 13.8673 19.2048 12.9514 19.2048 11.9966V7.19678H19.8044C20.2818 7.19678 20.7403 7.38656 21.0778 7.72412C21.4154 8.06169 21.6052 8.51919 21.6052 8.99658V20.9966C21.605 21.1097 21.5731 21.2208 21.5134 21.3169C21.4537 21.413 21.3687 21.4903 21.2673 21.5405C21.185 21.5788 21.0943 21.5983 21.0036 21.5962ZM3.0036 17.396C2.91619 17.395 2.83014 17.3749 2.75165 17.3364C2.64856 17.2878 2.56257 17.2101 2.50165 17.1138C2.44073 17.0174 2.40764 16.9065 2.4079 16.7925V4.79248C2.4079 4.15596 2.66094 3.5453 3.11102 3.09521C3.56111 2.64513 4.17177 2.39209 4.80829 2.39209H15.6071C15.9223 2.39209 16.2359 2.4541 16.527 2.57471C16.8182 2.69532 17.0815 2.87235 17.3044 3.09521C17.5272 3.31808 17.7053 3.58235 17.8259 3.87354C17.9465 4.16472 18.0075 4.47731 18.0075 4.79248V11.9966C18.0062 12.6322 17.7524 13.2419 17.3024 13.6909C16.8525 14.1399 16.2428 14.3921 15.6071 14.3921H6.82196L3.38642 17.2554C3.27915 17.3457 3.14382 17.3952 3.0036 17.396ZM8.0036 5.13623V11.9897L14.0036 8.56494L8.0036 5.13623Z" fill="black"/>
</svg>
