<svg width="16" height="17" viewBox="0 0 16 17" fill="none" xmlns="http://www.w3.org/2000/svg">
<g id="ico_0292_split">
<path id="Union" d="M4.66667 2.12292L2 4.78959H4.00667C4.08667 7.84959 5.22 8.87626 6.14 9.70292C6.8606 10.3501 7.33328 11.1057 7.33328 12.1229V15.4563H8.66661L8.66667 12.1229C8.66667 11.0624 9.10211 10.3836 9.85995 9.70292C10.7799 8.87626 11.9133 7.84959 11.9933 4.78959H13.9999L11.3333 2.12292L8.66661 4.78959H10.6599C10.5933 7.24293 9.80661 7.95626 8.96661 8.70959C8.63331 9.0029 8.29354 9.3225 7.99997 9.74289C7.70641 9.3225 7.36664 9.0029 7.03333 8.70959C6.19333 7.95626 5.40667 7.24293 5.34 4.78959H7.33333L4.66667 2.12292Z" fill="#808080"/>
</g>
</svg>
