<svg width="24" height="24" viewBox="0 0 24 24" fill="none" xmlns="http://www.w3.org/2000/svg">
<path d="M8 8C9.65685 8 11 6.65685 11 5C11 3.34315 9.65685 2 8 2C6.34315 2 5 3.34315 5 5C5 6.65685 6.34315 8 8 8Z" fill="black"/>
<path d="M5.5 9.35V12H10.5V9.35C9.59 9.12 8.68 9 8 9C7.32 9 6.41 9.12 5.5 9.35Z" fill="black"/>
<path d="M12 9.86V18H4V9.86C2.87 10.36 2 11.07 2 12V23H4V19H12V23H14V12C14 11.07 13.13 10.35 12 9.86Z" fill="black"/>
<path d="M19.93 2C19.81 2 19.7 2.05 19.62 2.13C19.54 2.21 19.49 2.32 19.49 2.44C19.49 2.97 19.41 3.5 19.24 4.01C19.22 4.09 19.21 4.17 19.24 4.25C19.26 4.33 19.3 4.4 19.36 4.46L20.23 5.2C19.57 6.52 18.49 7.59 17.17 8.24L16.47 7.36C16.41 7.3 16.34 7.26 16.26 7.24C16.18 7.22 16.1 7.23 16.02 7.25C15.51 7.41 14.98 7.5 14.45 7.5C14.33 7.5 14.22 7.55 14.14 7.63C14.06 7.71 14.01 7.82 14.01 7.94V9.47C14.01 9.53 14.01 9.6 14.03 9.66C14.05 9.72 14.08 9.78 14.12 9.83C14.16 9.88 14.21 9.92 14.27 9.95C14.33 9.98 14.39 9.99 14.45 10C16.45 9.98 18.36 9.18 19.78 7.77C21.19 6.36 22 4.44 22.01 2.44C22.01 2.11 21.72 2 21.48 2H19.93Z" fill="black"/>
</svg>
