<svg width="24" height="24" viewBox="0 0 24 24" fill="none" xmlns="http://www.w3.org/2000/svg">
<path d="M19 23H4.99219C4.46366 22.9971 3.95766 22.7849 3.58496 22.4102C3.21226 22.0354 3.00292 21.5285 3.00293 21L3.00977 3C3.00976 2.4713 3.21888 1.96365 3.5918 1.58887C3.96471 1.21408 4.4713 1.00264 5 1H15L21 7V21C21 21.5304 20.7891 22.039 20.4141 22.4141C20.039 22.7891 19.5304 23 19 23ZM8.5 17.2637V19.7725H15.6523V18.6494H9.92969V17.2637H8.5ZM12 15.9424C11.9129 15.9414 11.8267 15.9573 11.7461 15.9902C11.6655 16.0231 11.5918 16.0722 11.5303 16.1338C11.4687 16.1954 11.4206 16.268 11.3877 16.3486C11.3548 16.4293 11.3379 16.5155 11.3389 16.6025C11.3389 16.7764 11.4083 16.9435 11.5312 17.0664C11.6542 17.1893 11.8203 17.2588 11.9941 17.2588C12.168 17.2588 12.3351 17.1893 12.458 17.0664C12.5809 16.9435 12.6504 16.7764 12.6504 16.6025C12.6523 16.5161 12.6363 16.431 12.6045 16.3506C12.5726 16.2702 12.5254 16.1965 12.4648 16.1348C12.4043 16.0731 12.3317 16.0245 12.252 15.9912C12.1722 15.9579 12.0865 15.9411 12 15.9414V15.9424ZM11.9893 12.248C9.80226 12.248 8.59766 12.7951 8.59766 13.7881C8.59766 14.7811 9.79826 15.3271 11.9893 15.3271C14.1803 15.3271 15.3887 14.7801 15.3887 13.7881C15.3887 12.7961 14.1812 12.2471 11.9902 12.2471L11.9893 12.248ZM7.83984 10.7051V11.7939H16.0996V10.7051H12.7139V9.83789H11.2607V10.7051H7.83984ZM13.9971 2.50488V8.00488H19.4971L13.9971 2.50488ZM11.9893 14.3213C10.7363 14.3213 10.1533 14.153 10.1533 13.792C10.1533 13.431 10.7023 13.2627 11.9893 13.2627C13.2763 13.2627 13.8252 13.421 13.8252 13.792C13.8252 14.163 13.2432 14.3164 11.9902 14.3164L11.9893 14.3213Z" fill="black"/>
</svg>
