<svg width="24" height="24" viewBox="0 0 24 24" fill="none" xmlns="http://www.w3.org/2000/svg">
<path d="M2 20H4C4.26522 20 4.51957 19.8946 4.70711 19.7071C4.89464 19.5196 5 19.2652 5 19V10C5 9.73478 4.89464 9.48043 4.70711 9.29289C4.51957 9.10536 4.26522 9 4 9H2V20ZM21.83 12.88C21.9417 12.6281 21.9996 12.3556 22 12.08V11C21.9984 10.4701 21.7872 9.96227 21.4125 9.58753C21.0377 9.2128 20.5299 9.00158 20 9H14.5L15.42 4.35C15.4694 4.12731 15.4412 3.89444 15.34 3.69C15.1126 3.23961 14.8156 2.82789 14.46 2.47L14 2L7.59 8.41C7.4031 8.59626 7.25478 8.81756 7.15354 9.06122C7.05229 9.30489 7.00012 9.56614 7 9.83V17.67C7.00291 18.2888 7.25069 18.8813 7.68919 19.3179C8.12768 19.7545 8.7212 19.9997 9.34 20H17.45C17.7959 19.9996 18.1358 19.9102 18.437 19.7403C18.7383 19.5704 18.9907 19.3258 19.17 19.03L21.83 12.88Z" fill="black"/>
</svg>
