<svg width="24" height="24" viewBox="0 0 24 24" fill="none" xmlns="http://www.w3.org/2000/svg">
<path d="M19 23H4.99023C4.46171 22.9971 3.9557 22.7849 3.58301 22.4102C3.21031 22.0354 3.00097 21.5285 3.00098 21L3.01172 3C3.01171 2.47147 3.22105 1.9646 3.59375 1.58984C3.96645 1.21509 4.47245 1.00291 5.00098 1H15.001L21.001 7V21C21.001 21.2627 20.9492 21.5229 20.8486 21.7656C20.7481 22.0083 20.6009 22.2293 20.415 22.415C20.2292 22.6008 20.0084 22.7472 19.7656 22.8477C19.5229 22.9481 19.2627 23.0001 19 23ZM15.5439 16.3926L14.8438 17.2285C15.4424 17.7941 16.234 18.111 17.0576 18.1133C18.3716 18.1133 19.29 17.3593 19.29 16.2803C19.3006 15.9077 19.1856 15.5417 18.9639 15.2422C18.7421 14.9426 18.4268 14.7266 18.0674 14.6279L17.2666 14.2939L17.2129 14.2734C16.7129 14.0734 16.3135 13.919 16.3135 13.498C16.3135 13.104 16.6494 12.8604 17.1904 12.8604C17.6668 12.8604 18.1251 13.0388 18.4766 13.3604L19.0918 12.5957C18.8417 12.3476 18.5457 12.1511 18.2197 12.0176C17.8937 11.8841 17.5447 11.8168 17.1924 11.8184C16.938 11.7888 16.6799 11.8105 16.4346 11.8838C16.1892 11.9571 15.9611 12.0799 15.7646 12.2441C15.5682 12.4083 15.4077 12.6114 15.292 12.8398C15.1763 13.0683 15.1079 13.3177 15.0918 13.5732C15.1016 13.9393 15.225 14.2925 15.4453 14.585C15.6656 14.8775 15.9722 15.0946 16.3213 15.2051L17.1338 15.5469L17.207 15.5781C17.714 15.7951 18.0459 15.9362 18.0459 16.3672C18.0459 16.7982 17.6921 17.0674 17.0771 17.0674C16.4986 17.0393 15.9504 16.7994 15.5361 16.3945L15.5439 16.3926ZM4.60254 11.9326L6.20312 14.8682L4.49414 18.001H5.78125L6.42969 16.6562C6.59869 16.3042 6.75802 15.9283 6.87402 15.6562H6.9043C7.0043 15.8483 7.08725 16.0346 7.15625 16.1836L7.16797 16.209C7.24097 16.364 7.30981 16.5092 7.38281 16.6572L8.06348 18.002H9.40723L7.70703 14.9268L9.30664 11.9346H8.02832L7.45508 13.1797C7.33208 13.4467 7.21169 13.7346 7.05469 14.1406H7L6.7627 13.6318C6.6977 13.4888 6.62576 13.3317 6.55176 13.1797L5.94531 11.9346L4.60254 11.9326ZM10.5176 11.9326V18H14.1904V16.9824H11.7305V11.9316L10.5176 11.9326ZM13.999 2.49707V7.99707H19.499L13.999 2.49707Z" fill="black"/>
</svg>
