<svg width="24" height="24" viewBox="0 0 24 24" fill="none" xmlns="http://www.w3.org/2000/svg">
<g clip-path="url(#clip0_122_708)">
<path d="M0 11.9989C0 9.62581 0.703811 7.30582 2.02225 5.33263C3.34069 3.35945 5.21495 1.82133 7.40744 0.91317C9.59992 0.00501223 12.0128 -0.232351 14.3403 0.230623C16.6678 0.693598 18.8052 1.83641 20.4832 3.51446C22.1613 5.19252 23.3041 7.33083 23.7671 9.65836C24.23 11.9859 23.9927 14.3978 23.0845 16.5903C22.1764 18.7827 20.6382 20.657 18.6651 21.9754C16.6919 23.2939 14.3719 23.9977 11.9988 23.9977C8.81779 23.9935 5.76845 22.7278 3.51917 20.4785C1.26988 18.2292 0.00423283 15.1799 0 11.9989ZM0.754805 11.9989C0.754805 14.2238 1.41403 16.3984 2.65012 18.2483C3.8862 20.0982 5.64291 21.54 7.69842 22.3914C9.75394 23.2428 12.0157 23.4651 14.1977 23.031C16.3798 22.5969 18.3848 21.5255 19.9579 19.9522C21.531 18.3789 22.6018 16.3752 23.0357 14.193C23.4696 12.0109 23.2467 9.74916 22.3951 7.69372C21.5436 5.63828 20.102 3.88133 18.252 2.64541C16.402 1.40949 14.2275 0.749903 12.0027 0.750101C9.0201 0.752748 6.16033 1.93862 4.05134 4.04761C1.94235 6.1566 0.756476 9.01637 0.753828 11.9989H0.754805ZM10.8065 18.7492V16.5492H13.0065V18.7492H10.8065ZM10.8065 15.15C10.8065 11.5823 14.0962 11.8603 14.0962 9.65055C14.0962 9.06713 13.8643 8.50758 13.4517 8.09504C13.0392 7.68251 12.4796 7.45058 11.8962 7.45058C11.3128 7.45058 10.7533 7.68251 10.3407 8.09504C9.92819 8.50758 9.69626 9.06713 9.69626 9.65055H7.49629C7.47099 9.05754 7.56607 8.46486 7.77556 7.90952C7.98505 7.35417 8.30524 6.84701 8.71589 6.41846C9.12655 5.98991 9.61905 5.64861 10.165 5.41563C10.7109 5.18266 11.2988 5.06313 11.8923 5.06313C12.4859 5.06313 13.0728 5.18266 13.6187 5.41563C14.1646 5.64861 14.6581 5.98991 15.0688 6.41846C15.4794 6.84701 15.7996 7.35417 16.0091 7.90952C16.2186 8.46486 16.3127 9.05754 16.2874 9.65055C16.2874 12.4033 12.9977 12.6772 12.9977 15.15H10.8065Z" fill="black"/>
</g>
<defs>
<clipPath id="clip0_122_708">
<rect width="24" height="23.9985" fill="white"/>
</clipPath>
</defs>
</svg>
