<svg width="24" height="24" viewBox="0 0 24 24" fill="none" xmlns="http://www.w3.org/2000/svg">
<path d="M13 16.4951C13 15.8029 13.2053 15.1264 13.5898 14.5508C13.9744 13.9752 14.5206 13.5266 15.1602 13.2617C15.7997 12.9968 16.5037 12.9275 17.1826 13.0625C17.8616 13.1975 18.4851 13.531 18.9746 14.0205C19.4641 14.51 19.7976 15.1336 19.9326 15.8125C20.0677 16.4914 19.9983 17.1954 19.7334 17.835C19.4685 18.4745 19.0199 19.0207 18.4443 19.4053C17.8688 19.7899 17.1922 19.9951 16.5 19.9951C15.5723 19.9933 14.6833 19.6238 14.0273 18.9678C13.3714 18.3118 13.0019 17.4228 13 16.4951ZM15 16.4951C15 16.7918 15.0881 17.0815 15.2529 17.3281C15.4178 17.5748 15.6517 17.7673 15.9258 17.8809C16.1999 17.9944 16.502 18.0237 16.793 17.9658C17.0839 17.9079 17.3508 17.7654 17.5605 17.5557C17.7703 17.3459 17.9128 17.0791 17.9707 16.7881C18.0286 16.4971 17.9993 16.195 17.8857 15.9209C17.7722 15.6468 17.5797 15.4129 17.333 15.248C17.0863 15.0832 16.7967 14.9951 16.5 14.9951C16.1022 14.9951 15.7208 15.1533 15.4395 15.4346C15.1581 15.7159 15 16.0973 15 16.4951ZM4 18.5791L18.5879 3.99121L20.0029 5.40625L5.41504 19.9941L4 18.5791ZM4 7.49805C4 6.80581 4.20526 6.12928 4.58984 5.55371C4.97443 4.97814 5.52061 4.52956 6.16016 4.26465C6.7997 3.99974 7.50368 3.93038 8.18262 4.06543C8.86155 4.20048 9.48513 4.53395 9.97461 5.02344C10.4641 5.51292 10.7976 6.1365 10.9326 6.81543C11.0677 7.49436 10.9983 8.19835 10.7334 8.83789C10.4685 9.47743 10.0199 10.0236 9.44434 10.4082C8.86876 10.7928 8.19223 10.998 7.5 10.998C6.57283 10.9962 5.68421 10.627 5.02832 9.97168C4.37243 9.31635 4.00264 8.42815 4 7.50098V7.49805ZM6 7.49805C6 7.79472 6.08811 8.08438 6.25293 8.33105C6.41775 8.57773 6.65169 8.77026 6.92578 8.88379C7.19987 8.99732 7.502 9.0276 7.79297 8.96973C8.08394 8.91185 8.35077 8.76837 8.56055 8.55859C8.77033 8.34881 8.91283 8.08199 8.9707 7.79102C9.02858 7.50004 8.99927 7.19792 8.88574 6.92383C8.77221 6.64974 8.57968 6.4158 8.33301 6.25098C8.08633 6.08615 7.79667 5.99805 7.5 5.99805C7.30276 5.99805 7.10699 6.03674 6.9248 6.1123C6.74262 6.18787 6.5778 6.29887 6.43848 6.43848C6.29915 6.57808 6.18849 6.74345 6.11328 6.92578C6.03808 7.10812 5.99961 7.30374 6 7.50098V7.49805Z" fill="black"/>
</svg>
