<svg width="24" height="24" viewBox="0 0 24 24" fill="none" xmlns="http://www.w3.org/2000/svg">
<g clip-path="url(#clip0_122_712)">
<path d="M0 12.0005C0 9.62731 0.70384 7.30722 2.02234 5.33396C3.34083 3.36069 5.21517 1.8225 7.40775 0.914307C9.60032 0.00611107 12.0133 -0.231263 14.3409 0.231732C16.6685 0.694726 18.806 1.83758 20.4841 3.51571C22.1622 5.19383 23.3051 7.33223 23.7681 9.65986C24.2311 11.9875 23.9937 14.3995 23.0855 16.592C22.1773 18.7846 20.6391 20.659 18.6658 21.9775C16.6926 23.296 14.3725 23.9998 11.9993 23.9998C8.81808 23.9958 5.76875 22.7299 3.51931 20.4805C1.26988 18.231 0.00396904 15.1817 0 12.0005ZM0.751907 12.0005C0.752302 14.2254 1.41186 16.4004 2.64827 18.2502C3.88469 20.0999 5.64207 21.5414 7.69777 22.3925C9.75346 23.2435 12.0153 23.4655 14.1974 23.0311C16.3794 22.5967 18.3838 21.5247 19.9568 19.9512C21.5297 18.3777 22.601 16.3731 23.0347 14.1908C23.4684 12.0086 23.2449 9.7476 22.3931 7.69221C21.5413 5.63682 20.099 3.87945 18.2489 2.64369C16.3987 1.40793 14.2232 0.748882 11.9983 0.749278C9.01584 0.753248 6.15711 1.93959 4.04858 4.04888C1.94004 6.15816 0.754817 9.01809 0.751907 12.0005ZM10.8734 19.1241V10.1247H13.5011V19.1241H10.8734ZM10.5013 6.93737C10.5013 6.60373 10.6001 6.27831 10.7855 6.00091C10.9708 5.7235 11.234 5.50655 11.5423 5.37887C11.8505 5.2512 12.1896 5.21809 12.5168 5.28318C12.844 5.34827 13.1451 5.50915 13.381 5.74506C13.6169 5.98098 13.7768 6.28106 13.8419 6.60829C13.907 6.93552 13.8739 7.27558 13.7462 7.58382C13.6185 7.89206 13.4026 8.15525 13.1252 8.3406C12.8478 8.52596 12.5214 8.62477 12.1877 8.62477C11.966 8.6249 11.7461 8.5817 11.5413 8.49685C11.3364 8.41199 11.1502 8.28754 10.9935 8.13066C10.8368 7.97378 10.7129 7.78682 10.6282 7.58186C10.5436 7.37691 10.5009 7.15715 10.5013 6.93542V6.93737Z" fill="black"/>
</g>
<defs>
<clipPath id="clip0_122_712">
<rect width="24" height="23.9998" fill="white"/>
</clipPath>
</defs>
</svg>
