<svg width="24" height="24" viewBox="0 0 24 24" fill="none" xmlns="http://www.w3.org/2000/svg">
<path d="M19 23H4.98828C4.45993 22.9968 3.95451 22.7849 3.58203 22.4102C3.20955 22.0354 2.99999 21.5284 3 21L3.01172 3C3.00986 2.47177 3.21783 1.96486 3.58984 1.58984C3.96186 1.21483 4.46786 1.00238 4.99609 1H15L21 7V21C21 21.5304 20.7891 22.039 20.4141 22.4141C20.039 22.7891 19.5304 23 19 23ZM9.65234 11.9316L11.252 14.8672L9.55273 18.0029H10.8379L11.4824 16.6592C11.6174 16.3752 11.7508 16.0762 11.9258 15.6592H11.957C12.02 15.7852 12.0778 15.9055 12.1328 16.0215C12.1578 16.0735 12.1801 16.1208 12.2031 16.1748C12.2811 16.3388 12.3555 16.4992 12.4355 16.6582L13.1133 18.002H14.457L12.7578 14.9248L14.3574 11.9316H13.082L12.5098 13.1797C12.3688 13.4797 12.2415 13.7917 12.1035 14.1377H12.0664L11.9805 13.959C11.9235 13.839 11.8713 13.7271 11.8223 13.6191C11.7503 13.4651 11.6813 13.3187 11.6133 13.1797L11.0078 11.9316H9.65234ZM16.332 12.9424V18H17.5469V12.9395H19.2715V11.9287H14.6289V12.9395L16.332 12.9424ZM6.44531 12.9424V18H7.6582V12.9395H9.37891V11.9287H4.73633V12.9395L6.44531 12.9424ZM14 2.50098V8.00098H19.5L14 2.50098Z" fill="black"/>
</svg>
