<svg width="24" height="24" viewBox="0 0 24 24" fill="none" xmlns="http://www.w3.org/2000/svg">
<path d="M19.0005 3H4.99051C4.46164 3.00199 3.95514 3.21357 3.58202 3.58838C3.2089 3.96318 2.99961 4.47063 3.00001 4.9995L3.01051 18.999C3.00971 19.5279 3.21862 20.0355 3.59146 20.4106C3.9643 20.7857 4.47064 20.9976 4.99951 21H15L21 15V4.9995C20.9984 4.46969 20.7873 3.96202 20.4126 3.58739C20.038 3.21275 19.5303 3.00158 19.0005 3ZM7.00051 7.9995H17.001V10.0005H7.00051V7.9995ZM12 13.9995H7.00051V12H12V13.9995ZM13.9995 19.5V13.9995H19.5L13.9995 19.5Z" fill="black"/>
</svg>
