<svg width="24" height="24" viewBox="0 0 24 24" fill="none" xmlns="http://www.w3.org/2000/svg">
<path d="M17.63 5.84C17.4453 5.57979 17.2009 5.36769 16.9173 5.22152C16.6337 5.07535 16.3191 4.99939 16 5L5 5.01C4.4713 5.01 3.9641 5.21934 3.58931 5.59225C3.21452 5.96516 3.00264 6.47131 3 7V17C3.00264 17.5287 3.21452 18.0348 3.58931 18.4078C3.9641 18.7807 4.4713 18.99 5 18.99L16 19C16.3191 19.0006 16.6337 18.9247 16.9173 18.7785C17.2009 18.6323 17.4453 18.4202 17.63 18.16L22 12L17.63 5.84Z" fill="black"/>
</svg>
