<svg width="24" height="24" viewBox="0 0 24 24" fill="none" xmlns="http://www.w3.org/2000/svg">
<path d="M9.37794 19.5C9.32851 19.5004 9.28015 19.4909 9.23439 19.4722C9.18863 19.4535 9.14636 19.4265 9.11134 19.3916C9.07632 19.3567 9.04818 19.3142 9.02931 19.2686C9.01044 19.2229 9.00128 19.1744 9.00148 19.125V16.875C9.00187 16.7753 9.04228 16.6804 9.11281 16.6099C9.18333 16.5393 9.27821 16.4989 9.37794 16.4985H20.6279C20.7277 16.4989 20.8226 16.5393 20.8931 16.6099C20.9636 16.6804 21.004 16.7753 21.0044 16.875V19.125C21.0046 19.1744 20.9954 19.2229 20.9766 19.2686C20.9577 19.3142 20.9296 19.3567 20.8945 19.3916C20.8595 19.4265 20.8173 19.4535 20.7715 19.4722C20.7257 19.4909 20.6774 19.5004 20.6279 19.5H9.37794ZM3.37794 19.5C3.32864 19.5002 3.27997 19.4909 3.23439 19.4722C3.1888 19.4534 3.14767 19.425 3.1128 19.3901C3.07794 19.3553 3.04955 19.3141 3.03077 19.2686C3.012 19.223 3.00274 19.1743 3.00294 19.125V16.875C3.00333 16.7755 3.04261 16.6803 3.1128 16.6099C3.183 16.5394 3.27847 16.4993 3.37794 16.4985H5.62794C5.72741 16.4993 5.82288 16.5394 5.89308 16.6099C5.96328 16.6803 6.00255 16.7755 6.00294 16.875V19.125C6.00314 19.1743 5.99388 19.223 5.97511 19.2686C5.95633 19.3141 5.92794 19.3553 5.89308 19.3901C5.85822 19.425 5.81708 19.4534 5.7715 19.4722C5.72591 19.4909 5.67724 19.5002 5.62794 19.5H3.37794ZM9.37794 13.5C9.27833 13.4992 9.18324 13.4591 9.11281 13.3887C9.04237 13.3182 9.00226 13.2231 9.00148 13.1235V10.8735C9.00128 10.8241 9.01044 10.7757 9.02931 10.73C9.04818 10.6843 9.07632 10.6418 9.11134 10.6069C9.14636 10.5721 9.18863 10.5451 9.23439 10.5264C9.28015 10.5077 9.32851 10.4981 9.37794 10.4985H20.6279C20.6774 10.4981 20.7257 10.5077 20.7715 10.5264C20.8173 10.5451 20.8595 10.5721 20.8945 10.6069C20.9296 10.6418 20.9577 10.6843 20.9766 10.73C20.9954 10.7757 21.0046 10.8241 21.0044 10.8735V13.1235C21.0036 13.2231 20.9635 13.3182 20.8931 13.3887C20.8226 13.4591 20.7276 13.4992 20.6279 13.5H9.37794ZM3.37794 13.5C3.27859 13.4988 3.18439 13.4591 3.11427 13.3887C3.04415 13.3183 3.00372 13.2229 3.00294 13.1235V10.8735C3.00274 10.8242 3.012 10.7756 3.03077 10.73C3.04955 10.6844 3.07794 10.6433 3.1128 10.6084C3.14767 10.5735 3.1888 10.5451 3.23439 10.5264C3.27997 10.5076 3.32864 10.4983 3.37794 10.4985H5.62794C5.67724 10.4983 5.72591 10.5076 5.7715 10.5264C5.81708 10.5451 5.85822 10.5735 5.89308 10.6084C5.92794 10.6433 5.95633 10.6844 5.97511 10.73C5.99388 10.7756 6.00314 10.8242 6.00294 10.8735V13.1235C6.00216 13.2229 5.96319 13.3183 5.89308 13.3887C5.82296 13.4591 5.72729 13.4988 5.62794 13.5H3.37794ZM9.37794 7.5C9.32844 7.5002 9.28016 7.49102 9.23439 7.47217C9.18862 7.45332 9.14634 7.42514 9.11134 7.39014C9.07634 7.35514 9.04816 7.31286 9.02931 7.26709C9.01046 7.22132 9.00128 7.17304 9.00148 7.12354V4.87354C9.00128 4.82404 9.01046 4.77429 9.02931 4.72852C9.04816 4.68275 9.07634 4.64194 9.11134 4.60694C9.14634 4.57194 9.18862 4.54376 9.23439 4.52491C9.28016 4.50605 9.32844 4.49688 9.37794 4.49707H20.6279C20.6774 4.49688 20.7272 4.50605 20.773 4.52491C20.8187 4.54376 20.8595 4.57194 20.8945 4.60694C20.9295 4.64194 20.9577 4.68275 20.9766 4.72852C20.9954 4.77429 21.0046 4.82404 21.0044 4.87354V7.12354C21.0046 7.17304 20.9954 7.22132 20.9766 7.26709C20.9577 7.31286 20.9295 7.35514 20.8945 7.39014C20.8595 7.42514 20.8187 7.45332 20.773 7.47217C20.7272 7.49102 20.6774 7.5002 20.6279 7.5H9.37794ZM3.37794 7.5C3.32851 7.5002 3.28007 7.49104 3.23439 7.47217C3.1887 7.4533 3.14622 7.42516 3.11134 7.39014C3.07646 7.35512 3.04946 7.31285 3.03077 7.26709C3.01209 7.22133 3.00254 7.17297 3.00294 7.12354V4.87354C3.00254 4.82411 3.01209 4.77574 3.03077 4.72998C3.04946 4.68422 3.07646 4.64196 3.11134 4.60694C3.14622 4.57192 3.1887 4.54377 3.23439 4.52491C3.28007 4.50604 3.32851 4.49687 3.37794 4.49707H5.62794C5.67737 4.49687 5.72581 4.50604 5.7715 4.52491C5.81718 4.54377 5.85966 4.57192 5.89454 4.60694C5.92942 4.64196 5.95642 4.68422 5.97511 4.72998C5.9938 4.77574 6.00334 4.82411 6.00294 4.87354V7.12354C6.00334 7.17297 5.9938 7.22133 5.97511 7.26709C5.95642 7.31285 5.92942 7.35512 5.89454 7.39014C5.85966 7.42516 5.81718 7.4533 5.7715 7.47217C5.72581 7.49104 5.67737 7.5002 5.62794 7.5H3.37794Z" fill="black"/>
</svg>
