<svg width="24" height="24" viewBox="0 0 24 24" fill="none" xmlns="http://www.w3.org/2000/svg">
<path d="M14.0001 18.1804C14.9776 17.8631 15.8664 17.3196 16.5938 16.5935C17.3213 15.8674 17.8664 14.9797 18.1856 14.0027H19.7422C19.3849 15.3853 18.6641 16.6471 17.6544 17.657C16.6446 18.6669 15.3826 19.3882 14.0001 19.7458V18.1804ZM10.0001 19.7458C8.61786 19.3879 7.35706 18.6669 6.34772 17.657C5.33838 16.6471 4.61705 15.3851 4.25983 14.0027H5.81842C6.13602 14.9805 6.68254 15.8692 7.41022 16.5955C8.1379 17.3217 9.02748 17.8647 10.0059 18.1804V19.7458H10.0001ZM9.00006 12.0017C9.00006 11.4084 9.17628 10.8281 9.50592 10.3347C9.83556 9.84137 10.3034 9.45729 10.8516 9.23022C11.3998 9.00316 12.0041 8.94357 12.586 9.05933C13.1679 9.17508 13.7016 9.46106 14.1212 9.88062C14.5407 10.3002 14.8257 10.8348 14.9415 11.4167C15.0572 11.9987 14.9986 12.602 14.7715 13.1501C14.5445 13.6983 14.1594 14.1662 13.6661 14.4958C13.1727 14.8255 12.5934 15.0017 12.0001 15.0017C11.2049 15.0012 10.4431 14.6851 9.88092 14.1228C9.31877 13.5605 9.00228 12.7978 9.00201 12.0027L9.00006 12.0017ZM18.1876 10.0017C17.8695 9.02277 17.3239 8.13359 16.5958 7.40601C15.8677 6.67842 14.9773 6.13357 13.9981 5.81616V4.25757C15.3817 4.61317 16.6443 5.33427 17.6544 6.34448C18.6644 7.35469 19.3849 8.61711 19.7403 10.0007L18.1876 10.0017ZM4.25006 10.0017C4.60801 8.61794 5.33109 7.35507 6.34186 6.34448C7.35263 5.33389 8.61427 4.61234 9.99811 4.25464V5.81714C9.01869 6.13449 8.12889 6.67941 7.40045 7.40698C6.67201 8.13455 6.12718 9.02364 5.80865 10.0027L4.25006 10.0017Z" fill="black"/>
<path d="M12.75 2H11.25V7.5H12.75V2Z" fill="black"/>
<path d="M12.75 16.5H11.25V22H12.75V16.5Z" fill="black"/>
<path d="M7.5 11.25H2V12.75H7.5V11.25Z" fill="black"/>
<path d="M22 11.25H16.5V12.75H22V11.25Z" fill="black"/>
</svg>
