<svg width="24" height="24" viewBox="0 0 24 24" fill="none" xmlns="http://www.w3.org/2000/svg">
<path d="M11.01 14.09C11.11 14.16 11.22 14.21 11.34 14.21C11.36 14.21 11.38 14.21 11.39 14.21C11.44 14.21 11.49 14.22 11.54 14.22C11.61 14.22 11.68 14.22 11.75 14.21C11.9 14.2 12.02 14.18 12.13 14.16C12.34 14.14 12.54 14.04 12.7 13.89C12.84 13.72 12.92 13.5 12.92 13.28C12.95 13.15 12.94 13.02 12.9 12.89C12.86 12.77 12.78 12.66 12.69 12.58C12.46 12.44 12.19 12.36 11.93 12.37H11.84C11.67 12.36 11.53 12.35 11.41 12.35C11.3 12.35 11.19 12.35 11.08 12.38C11.04 12.39 11.01 12.41 10.98 12.44C10.95 12.47 10.93 12.51 10.92 12.54C10.88 12.67 10.87 12.8 10.88 12.93C10.88 13 10.88 13.07 10.88 13.14C10.88 13.21 10.88 13.28 10.88 13.35C10.88 13.42 10.88 13.49 10.88 13.56C10.88 13.63 10.88 13.69 10.88 13.76C10.88 13.82 10.88 13.89 10.91 13.95C10.93 14.01 10.97 14.06 11.02 14.1L11.01 14.09Z" fill="black"/>
<path d="M10.94 17.51C11.03 17.6 11.14 17.66 11.26 17.68C11.39 17.7 11.52 17.71 11.65 17.71H11.74C11.95 17.7 12.17 17.67 12.38 17.63C12.55 17.62 12.71 17.54 12.83 17.42C12.92 17.3 12.99 17.15 13.02 17C13.05 16.84 13.06 16.67 13.04 16.51C13.03 16.34 12.98 16.18 12.91 16.04C12.85 15.89 12.75 15.77 12.63 15.68C12.48 15.54 12.29 15.45 12.09 15.41C11.89 15.37 11.69 15.35 11.49 15.35C11.4 15.35 11.31 15.35 11.23 15.35C11.16 15.35 11.09 15.36 11.03 15.38C11 15.38 10.98 15.4 10.95 15.42C10.93 15.44 10.91 15.46 10.9 15.49C10.86 15.56 10.85 15.64 10.86 15.72C10.87 15.91 10.87 16.11 10.86 16.3C10.85 16.5 10.84 16.68 10.84 16.85C10.84 16.96 10.84 17.07 10.84 17.19C10.84 17.25 10.84 17.3 10.86 17.36C10.88 17.41 10.91 17.46 10.94 17.5V17.51Z" fill="black"/>
<path fill-rule="evenodd" clip-rule="evenodd" d="M22 9.01H17.21L12.82 2.44C12.42 1.85 11.55 1.85 11.16 2.44L6.77 9.01H2C1.45 9.01 1 9.46 1 10.01C1 10.1 1.01 10.19 1.04 10.28L3.58 19.55C3.81 20.39 4.58 21.01 5.5 21.01H18.5C19.42 21.01 20.19 20.39 20.43 19.55L22.97 10.28L23 10.01C23 9.46 22.55 9.01 22 9.01ZM14.35 17.72C14.24 17.99 14.06 18.23 13.85 18.42C13.59 18.63 13.28 18.78 12.96 18.84C12.73 18.9 12.5 18.94 12.27 18.96C12 18.99 11.77 19 11.56 19C11.3 19 11.03 19 10.76 19H10.74C10.46 19 10.19 18.96 9.92 18.9C9.87 18.89 9.82 18.86 9.78 18.83C9.74 18.8 9.7 18.75 9.67 18.71C9.62 18.61 9.58 18.5 9.56 18.39C9.53 18.33 9.52 18.26 9.52 18.2V11.87C9.51 11.7 9.55 11.53 9.64 11.39C9.71 11.27 9.82 11.18 9.95 11.13C10.09 11.07 10.24 11.04 10.39 11.03C10.56 11.03 10.73 11.02 10.9 11.02C10.97 11.02 11.04 11.02 11.11 11.02C11.18 11.02 11.25 11.02 11.32 11.02C11.46 11.02 11.6 11.02 11.74 11.02C11.96 11.02 12.2 11.05 12.44 11.08C12.67 11.11 12.91 11.17 13.13 11.26C13.24 11.31 13.35 11.36 13.45 11.42C13.56 11.47 13.65 11.55 13.73 11.64C13.94 11.85 14.11 12.1 14.21 12.39C14.32 12.66 14.36 12.96 14.35 13.26C14.33 13.55 14.26 13.84 14.13 14.1C13.99 14.37 13.79 14.6 13.54 14.76C13.73 14.89 13.9 15.06 14.04 15.25C14.19 15.46 14.3 15.69 14.37 15.95C14.46 16.25 14.51 16.56 14.51 16.87C14.51 17.16 14.47 17.46 14.36 17.72H14.35ZM9.18 9.01L11.99 4.8L14.8 9.01H9.18Z" fill="black"/>
</svg>
