<svg width="24" height="24" viewBox="0 0 24 24" fill="none" xmlns="http://www.w3.org/2000/svg">
<path d="M10 22.0034H4V16.0034C4 15.1844 4.521 14.0034 7 13.0034C8.58367 12.3407 10.2833 11.9995 12 11.9995C13.7167 11.9995 15.4163 12.3407 17 13.0034C19.479 13.9974 20 15.1824 20 16.0034V22.0034H14L13 16.0034L14 13.643L12 12.2788L10 13.643L11 16.0034L10 22.0034ZM12.0137 10.5298C11.2225 10.5298 10.4488 10.2955 9.79102 9.85594C9.13322 9.41641 8.62111 8.79094 8.31836 8.06004C8.01561 7.32913 7.93746 6.52541 8.0918 5.74949C8.24614 4.97357 8.62614 4.26105 9.18555 3.70164C9.74496 3.14223 10.4585 2.76125 11.2344 2.60691C12.0103 2.45257 12.814 2.5317 13.5449 2.83445C14.2758 3.1372 14.9003 3.64931 15.3398 4.30711C15.7794 4.9649 16.0137 5.73864 16.0137 6.52976C16.0138 7.05513 15.9099 7.5756 15.709 8.06101C15.508 8.54643 15.2152 8.98732 14.8438 9.35886C14.4723 9.7304 14.0303 10.025 13.5449 10.2261C13.0596 10.4271 12.539 10.5307 12.0137 10.5307V10.5298Z" fill="black"/>
</svg>
