<svg width="24" height="24" viewBox="0 0 24 24" fill="none" xmlns="http://www.w3.org/2000/svg">
<path d="M3 17.2515V21.0015H6.75L17.8095 9.94198L14.0595 6.19198L3 17.2515ZM20.7105 7.04098C20.8032 6.94847 20.8768 6.83858 20.9269 6.7176C20.9771 6.59663 21.0029 6.46695 21.0029 6.33598C21.0029 6.20501 20.9771 6.07533 20.9269 5.95435C20.8768 5.83338 20.8032 5.72349 20.7105 5.63098L18.3705 3.29098C18.278 3.19828 18.1681 3.12473 18.0471 3.07455C17.9262 3.02436 17.7965 2.99854 17.6655 2.99854C17.5345 2.99854 17.4049 3.02436 17.2839 3.07455C17.1629 3.12473 17.053 3.19828 16.9605 3.29098L15.1305 5.12098L18.8805 8.87098L20.7105 7.04098Z" fill="black"/>
</svg>
