<svg width="24" height="24" viewBox="0 0 24 24" fill="none" xmlns="http://www.w3.org/2000/svg">
<path d="M19 19.9997V16.9997C18.9721 16.2098 18.7434 15.4398 18.3359 14.7624C17.9285 14.0851 17.3557 13.5225 16.6709 13.1277C19.4299 13.5277 23.002 14.8177 23.002 16.9997V19.9997H19ZM1 19.9997V16.9997C1 14.3397 6.332 12.9997 9 12.9997C11.668 12.9997 17 14.3387 17 16.9997V19.9997H1ZM13.6709 11.7605C14.5314 10.6959 15.001 9.36863 15.001 7.99973C15.001 6.63084 14.5314 5.3036 13.6709 4.23899C14.0986 4.08908 14.5478 4.00875 15.001 4.00169C16.0618 4.00169 17.079 4.42342 17.8291 5.17356C18.5792 5.92371 19.001 6.94082 19.001 8.00169C19.001 9.06255 18.5792 10.0797 17.8291 10.8298C17.079 11.58 16.0618 12.0017 15.001 12.0017C14.5472 11.9939 14.0976 11.9123 13.6699 11.7605H13.6709ZM5 7.99973C5 7.20861 5.2343 6.43487 5.67383 5.77708C6.11335 5.11928 6.73882 4.60717 7.46973 4.30442C8.20063 4.00167 9.00435 3.92254 9.78027 4.07688C10.5562 4.23122 11.2687 4.6122 11.8281 5.17161C12.3875 5.73102 12.7685 6.44354 12.9229 7.21946C13.0772 7.99538 12.9981 8.7991 12.6953 9.53001C12.3926 10.2609 11.8805 10.8864 11.2227 11.3259C10.5649 11.7654 9.79113 11.9997 9 11.9997C7.93913 11.9997 6.92202 11.578 6.17188 10.8279C5.42173 10.0777 5 9.0606 5 7.99973Z" fill="black"/>
</svg>
