<svg width="24" height="24" viewBox="0 0 24 24" fill="none" xmlns="http://www.w3.org/2000/svg">
<path d="M16 22H8V20H10V18H14V20H16V22ZM20 17H4C3.46957 17 2.96101 16.7891 2.58594 16.4141C2.21086 16.039 2 15.5304 2 15V4C2 3.46957 2.21086 2.96101 2.58594 2.58594C2.96101 2.21086 3.46957 2 4 2H20C20.5304 2 21.039 2.21086 21.4141 2.58594C21.7891 2.96101 22 3.46957 22 4V15C22 15.5304 21.7891 16.039 21.4141 16.4141C21.039 16.7891 20.5304 17 20 17ZM9.73535 12.5615C9.95279 12.7234 10.1868 12.8608 10.4346 12.9707L10.5977 14.1621V14.1699L10.6055 14.1777C10.6238 14.2686 10.6723 14.3506 10.7441 14.4092C10.816 14.4677 10.9063 14.4995 10.999 14.499H12.9404C13.0353 14.4985 13.1263 14.4641 13.1982 14.4023C13.2702 14.3406 13.3181 14.2557 13.333 14.1621V14.1543L13.5 12.9629C13.7477 12.8545 13.9827 12.7183 14.2002 12.5576L15.3232 13.0078C15.3687 13.0231 15.4159 13.0313 15.4639 13.0312C15.5339 13.0307 15.6026 13.0122 15.6641 12.9785C15.7255 12.9448 15.7782 12.8966 15.8164 12.8379L16.7852 11.1621C16.8321 11.0791 16.8486 10.9817 16.832 10.8877C16.8154 10.7937 16.7669 10.7094 16.6943 10.6475H16.6855L15.7334 9.89844C15.7478 9.76559 15.7546 9.63168 15.7549 9.49805C15.7549 9.36705 15.7444 9.237 15.7344 9.125V9.09766L16.6865 8.35156C16.7615 8.29079 16.8128 8.20608 16.8311 8.11133C16.8493 8.01658 16.8341 7.91829 16.7871 7.83398L15.8145 6.16113C15.7792 6.10009 15.7281 6.04977 15.667 6.01465C15.6059 5.97953 15.5363 5.96066 15.4658 5.96094C15.4177 5.96193 15.3705 5.97107 15.3252 5.9873L14.2021 6.43652C13.9847 6.27706 13.7497 6.14345 13.502 6.03711L13.335 4.83691V4.83008C13.3183 4.7379 13.2701 4.65485 13.1982 4.59473C13.1264 4.5346 13.036 4.50113 12.9424 4.50098H11C10.9046 4.50133 10.8125 4.53628 10.7402 4.59863C10.668 4.66098 10.6208 4.74646 10.6064 4.84082H10.5986L10.4355 6.04102C10.1879 6.1475 9.95381 6.28208 9.73633 6.44141L8.61621 5.99121C8.57043 5.97302 8.52093 5.96381 8.47168 5.96484C8.4012 5.96456 8.3326 5.98343 8.27148 6.01855C8.21037 6.05368 8.15927 6.104 8.12402 6.16504L7.15527 7.83789C7.10757 7.92108 7.091 8.01897 7.1084 8.11328C7.12579 8.20759 7.17576 8.29184 7.25 8.35254L8.20312 9.09766C8.18768 9.23046 8.17863 9.36436 8.17676 9.49805C8.17676 9.62105 8.18529 9.7273 8.19629 9.8623V9.90723L7.24316 10.6523H7.23633C7.16347 10.7149 7.11498 10.8007 7.09961 10.8955C7.08424 10.9903 7.10298 11.0875 7.15234 11.1699L8.12109 12.8428C8.16916 12.924 8.24388 12.9855 8.33301 13.0166C8.42213 13.0477 8.52022 13.0464 8.6084 13.0127L9.73242 12.5586L9.73535 12.5615ZM11.9668 10.7314C11.642 10.7301 11.3312 10.5998 11.1016 10.3701C10.8719 10.1405 10.7425 9.82963 10.7412 9.50488V9.49707C10.7431 9.17391 10.8727 8.86485 11.1016 8.63672C11.3304 8.40858 11.6397 8.28008 11.9629 8.2793V8.12012V8.2793C12.2819 8.28841 12.5852 8.42156 12.8076 8.65039C13.03 8.87922 13.1543 9.18579 13.1543 9.50488C13.1543 9.82398 13.03 10.1305 12.8076 10.3594C12.5852 10.5882 12.2819 10.7214 11.9629 10.7305L11.9668 10.7314Z" fill="black"/>
</svg>
