<svg width="24" height="24" viewBox="0 0 24 24" fill="none" xmlns="http://www.w3.org/2000/svg">
<path d="M19.9992 6H11.9988L9.99958 3.9996H3.99958C3.46952 4.00119 2.96163 4.21245 2.58683 4.58726C2.21202 4.96206 2.00076 5.46995 1.99918 6V18C2.00076 18.5301 2.21202 19.0379 2.58683 19.4128C2.96163 19.7876 3.46952 19.9988 3.99958 20.0004H19.9992C20.5292 19.9988 21.0371 19.7876 21.4119 19.4128C21.7867 19.0379 21.998 18.5301 21.9996 18V7.9992C21.9977 7.46936 21.7863 6.96178 21.4115 6.58723C21.0367 6.21268 20.529 6.00158 19.9992 6ZM17.9388 17.0004L14.9988 15.2796L12.0588 16.9992L12.8388 13.6692L10.2492 11.43L13.6596 11.1396L15 7.9992L16.3392 11.1396L19.7496 11.43L17.16 13.6704L17.9388 17.0004Z" fill="black"/>
</svg>
