<svg width="24" height="24" viewBox="0 0 24 24" fill="none" xmlns="http://www.w3.org/2000/svg">
<path d="M19 23H4.98926C4.46073 22.9971 3.95473 22.7849 3.58203 22.4102C3.20933 22.0354 2.99999 21.5285 3 21L3.01074 3C3.01074 2.4713 3.21986 1.96365 3.59277 1.58887C3.96569 1.21408 4.47228 1.00264 5.00098 1H15.001L21.001 7V21C21.001 21.2627 20.9492 21.5229 20.8486 21.7656C20.7481 22.0083 20.6009 22.2293 20.415 22.415C20.2292 22.6008 20.0084 22.7472 19.7656 22.8477C19.5229 22.9481 19.2627 23.0001 19 23ZM18.3301 11.9697C17.9409 11.9759 17.5569 12.0633 17.2031 12.2256C16.8494 12.3878 16.534 12.6212 16.2754 12.9121C16.0168 13.203 15.8208 13.5447 15.7012 13.915C15.5815 14.2854 15.5405 14.6773 15.5801 15.0645C15.5366 15.4471 15.574 15.8341 15.6904 16.2012C15.8068 16.5683 15.9999 16.9066 16.2559 17.1943C16.5118 17.482 16.8257 17.7128 17.1768 17.8711C17.5278 18.0294 17.9079 18.1119 18.293 18.1133C18.6526 18.1197 19.0092 18.045 19.3359 17.8945C19.6627 17.7441 19.9508 17.5216 20.1797 17.2441L19.5557 16.5059C19.4049 16.6851 19.2174 16.8301 19.0059 16.9307C18.7943 17.0312 18.5643 17.0851 18.3301 17.0889C17.3781 17.0889 16.7871 16.2993 16.7871 15.0273C16.7871 13.8053 17.4184 12.9844 18.3564 12.9844C18.5626 12.9892 18.7647 13.0351 18.9521 13.1211C19.1396 13.2071 19.3082 13.3312 19.4463 13.4844L20.0664 12.7324C19.8434 12.4948 19.5747 12.304 19.2764 12.1729C18.978 12.0417 18.6559 11.9723 18.3301 11.9688V11.9697ZM12.2305 11.9697C10.5965 11.9697 9.58203 13.1366 9.58203 15.0146C9.58203 16.8926 10.6225 18.1152 12.2305 18.1152C13.8385 18.1152 14.877 16.8986 14.877 15.0146C14.877 13.1636 13.8375 11.9688 12.2285 11.9688L12.2305 11.9697ZM4.32422 12.0791V17.999H6.01172C6.78434 17.9726 7.51643 17.6446 8.05078 17.0859C8.58514 16.5273 8.88004 15.7818 8.87207 15.0088C8.8641 14.2358 8.55357 13.4968 8.00781 12.9492C7.46206 12.4017 6.72417 12.0896 5.95117 12.0791H4.32422ZM14 2.50098V8.00098H19.5L14 2.50098ZM12.2305 17.0879C11.3545 17.0879 10.7891 16.2746 10.7891 15.0146C10.7891 13.7546 11.3425 12.9844 12.2305 12.9844C13.1185 12.9844 13.667 13.7616 13.667 15.0146C13.667 16.2676 13.0995 17.0869 12.2285 17.0869L12.2305 17.0879ZM5.875 17.0498H5.50879V13.0264H5.875C7.081 13.0264 7.66797 13.6756 7.66797 15.0146C7.66797 16.3536 7.06302 17.0488 5.87402 17.0488L5.875 17.0498Z" fill="black"/>
</svg>
