<svg width="24" height="24" viewBox="0 0 24 24" fill="none" xmlns="http://www.w3.org/2000/svg">
<path d="M13 18C13 17.0111 13.2924 16.0439 13.8418 15.2217C14.3912 14.3994 15.1723 13.7593 16.086 13.3809C16.9996 13.0024 18.0047 12.9028 18.9746 13.0957C19.9445 13.2886 20.8359 13.7656 21.5352 14.4648C22.2344 15.1641 22.7114 16.0545 22.9043 17.0244C23.0972 17.9943 22.9976 18.9995 22.6192 19.9131C22.2407 20.8267 21.5996 21.6078 20.7774 22.1572C19.9551 22.7066 18.9889 23 18 23C16.6739 23 15.4026 22.4728 14.4649 21.5352C13.5272 20.5975 13 19.3261 13 18ZM14.5 17.5098L17.5606 20.5674L21.5 16.2666L20.1641 15.002L17.5176 17.9248L15.8106 16.2041L14.5 17.5098ZM3.00002 22C2.86844 22.0009 2.73896 21.9757 2.61721 21.9258C2.49547 21.8759 2.38409 21.802 2.29104 21.709C2.198 21.6159 2.12417 21.5055 2.07424 21.3838C2.02432 21.262 1.99909 21.1316 2.00002 21V15.6533C2.00015 15.188 2.16241 14.7374 2.45901 14.3789C2.75561 14.0204 3.168 13.7767 3.62502 13.6895L7.63088 12.9229C7.94902 12.8652 8.24854 12.7301 8.50198 12.5293C8.75541 12.3285 8.95507 12.069 9.08401 11.7725C9.21625 11.4785 9.27557 11.1567 9.25588 10.835C9.2362 10.5132 9.13782 10.2005 8.97073 9.9248L6.00002 5L7.00002 2H17L18 5L15.0235 9.92773C14.77 10.3464 14.6791 10.8438 14.7676 11.3252C14.8561 11.8066 15.1182 12.2388 15.5039 12.54C14.4601 13.0209 13.5753 13.7902 12.9551 14.7578C12.3349 15.7254 12.0051 16.8507 12.0039 18H3.99612V20H12.3477C12.603 20.739 13.004 21.4191 13.5274 22H3.00002Z" fill="black"/>
</svg>
