<svg width="24" height="24" viewBox="0 0 24 24" fill="none" xmlns="http://www.w3.org/2000/svg">
<path d="M4 19H9.48389C8.43693 16.8187 7.92726 14.4185 7.99707 12C7.9273 9.58146 8.43697 7.18132 9.48389 5H4C3.73478 5 3.48051 5.10543 3.29297 5.29297C3.10543 5.4805 3 5.73478 3 6V18C3 18.2652 3.10543 18.5195 3.29297 18.707C3.48051 18.8946 3.73478 19 4 19Z" fill="black"/>
<path fill-rule="evenodd" clip-rule="evenodd" d="M14.5132 19.001H20C20.5513 19.001 20.9995 18.5527 20.9995 18.002V6C20.9995 5.44824 20.5513 5 20 5H14.5142C15.457 6.71875 15.998 9.26953 15.998 12.001C15.998 14.7334 15.4565 17.2842 14.5132 19.001ZM19.4995 6.5V17.501H16.7397C17.23 15.8789 17.498 13.9756 17.498 12.001C17.498 10.0264 17.23 8.12207 16.7397 6.5H19.4995Z" fill="black"/>
</svg>
