<svg width="24" height="24" viewBox="0 0 24 24" fill="none" xmlns="http://www.w3.org/2000/svg">
<path d="M19 23.002H4.99219C4.46314 22.9998 3.95538 22.7879 3.58203 22.4131C3.20869 22.0382 3 21.531 3 21.002L3.01172 3.00195C3.01171 2.47359 3.22127 1.96653 3.59375 1.5918C3.96623 1.21707 4.47165 1.00512 5 1.00195H15L21 7.00195V21.002C21 21.5324 20.7891 22.0409 20.4141 22.416C20.039 22.7911 19.5304 23.002 19 23.002ZM14.123 11.9336V18.0039H15.3359V15.8438H16.1484C17.6174 15.8438 18.4922 15.093 18.4922 13.835C18.4922 12.577 17.6921 11.9346 16.1191 11.9346L14.123 11.9336ZM11.1719 11.9336V18.0039H12.3848V11.9336H11.1719ZM8.33203 12.9443L5.50781 17.2715V18.0039H9.85156V16.9863H7L9.82031 12.6543V11.9326H5.77734V12.9434L8.33203 12.9443ZM14 2.50293V8.00293H19.5L14 2.50293ZM16.0645 14.8867H15.3359V12.8936H16.0254C16.9204 12.8936 17.3027 13.1759 17.3027 13.8359C17.2997 14.5399 16.9005 14.8838 16.0645 14.8838V14.8867Z" fill="black"/>
</svg>
