<svg width="24" height="24" viewBox="0 0 24 24" fill="none" xmlns="http://www.w3.org/2000/svg">
<path d="M19 23H4.99219C4.46279 22.9984 3.95581 22.787 3.58203 22.4121C3.20826 22.0372 2.99804 21.5294 2.99805 21L3.00977 3C3.00976 2.4713 3.21888 1.96365 3.5918 1.58887C3.96471 1.21408 4.4713 1.00264 5 1H15L21 7V21C21 21.5304 20.7891 22.039 20.4141 22.4141C20.039 22.7891 19.5304 23 19 23ZM16.7803 12.9414V18H17.9932V12.9385H19.7158V11.9277H15.0762V12.9385L16.7803 12.9414ZM10.2598 11.9307V18H11.4727V15.8408H12.2871C13.7551 15.8408 14.6309 15.09 14.6309 13.832C14.6309 12.574 13.8309 11.9316 12.2529 11.9316L10.2598 11.9307ZM4.79102 11.9307V18H6.00488V15.8408H6.81641C8.28641 15.8408 9.16406 15.09 9.16406 13.832C9.16406 12.574 8.36413 11.9316 6.78613 11.9316L4.79102 11.9307ZM13.998 2.50098V8.00098H19.498L13.998 2.50098ZM12.2041 14.8848H11.4727V12.8916H12.1621C13.0621 12.8916 13.4443 13.174 13.4443 13.834C13.4453 14.541 13.0401 14.8848 12.2051 14.8848H12.2041ZM6.73633 14.8848H6.00488V12.8916H6.69434C7.59434 12.8916 7.9707 13.174 7.9707 13.834C7.9727 14.541 7.5683 14.8848 6.7373 14.8848H6.73633Z" fill="black"/>
</svg>
