<svg width="24" height="24" viewBox="0 0 24 24" fill="none" xmlns="http://www.w3.org/2000/svg">
<path fill-rule="evenodd" clip-rule="evenodd" d="M21.2304 8.17C20.7306 6.96 19.991 5.85 19.0615 4.93C18.1319 4 17.0325 3.26 15.8231 2.76C14.6137 2.26 13.3143 2 11.995 2C10.016 2 8.08696 2.59 6.43778 3.69C4.7986 4.79 3.50925 6.35 2.75962 8.18C2 10 1.81009 12.01 2.18991 13.95C2.57971 15.89 3.52924 17.67 4.92854 19.07C6.32784 20.47 8.10695 21.42 10.046 21.81C11.985 22.2 13.994 22 15.8231 21.24C17.6522 20.48 19.2114 19.2 20.3108 17.56C21.4103 15.92 22 13.98 22 12C22 10.69 21.7401 9.39 21.2404 8.17H21.2304ZM11.1154 17.5L4.9985 10.94L6.72764 9.09L11.0355 13.71L17.1824 6.5L18.9915 8.27L11.1154 17.5Z" fill="black"/>
</svg>
