<svg width="24" height="24" viewBox="0 0 24 24" fill="none" xmlns="http://www.w3.org/2000/svg">
<path d="M18.4 10.6C17.0977 9.45755 15.5323 8.65604 13.844 8.2673C12.1558 7.87856 10.3975 7.91473 8.72666 8.37257C7.05584 8.83041 5.5247 9.69562 4.27046 10.8907C3.01621 12.0857 2.07804 13.5733 1.54001 15.22L3.90001 16C4.30494 14.7581 5.00888 13.6347 5.94989 12.7288C6.89089 11.8228 8.04013 11.162 9.2965 10.8044C10.5529 10.4469 11.8778 10.4035 13.1549 10.6783C14.4319 10.953 15.6218 11.5374 16.62 12.38L13 16H22V7L18.4 10.6Z" fill="black"/>
</svg>
