<svg width="24" height="24" viewBox="0 0 24 24" fill="none" xmlns="http://www.w3.org/2000/svg">
<path d="M12 7C13.3261 7 14.5979 7.52678 15.5355 8.46447C16.4732 9.40215 17 10.6739 17 12C16.9994 12.6275 16.8772 13.249 16.64 13.83L19.56 16.75C21.0839 15.4797 22.2635 13.8462 22.99 12C22.1213 9.7901 20.6074 7.89286 18.6455 6.55521C16.6836 5.21755 14.3645 4.50141 11.99 4.5C10.6327 4.4996 9.28573 4.7365 8.01 5.2L10.17 7.36C10.751 7.12281 11.3725 7.00055 12 7ZM2 4.27L4.28 6.55L4.74 7.01C3.06842 8.30786 1.77664 10.0314 1 12C1.56938 13.4496 2.41958 14.7724 3.50174 15.8924C4.58389 17.0124 5.87669 17.9076 7.30585 18.5264C8.73501 19.1453 10.2724 19.4757 11.8296 19.4986C13.3868 19.5215 14.9332 19.2365 16.38 18.66L16.8 19.08L19.73 22L21 20.73L3.27 3L2 4.27ZM7.53 9.8L9.08 11.35C9.02819 11.5628 9.00134 11.781 9 12C9 12.7956 9.31607 13.5587 9.87868 14.1213C10.4413 14.6839 11.2044 15 12 15C12.219 14.9987 12.4372 14.9718 12.65 14.92L14.2 16.47C13.2668 16.9398 12.2092 17.1034 11.1776 16.9374C10.1461 16.7715 9.1931 16.2845 8.45431 15.5457C7.71551 14.8069 7.2285 13.8539 7.06256 12.8224C6.89661 11.7908 7.06018 10.7332 7.53 9.8ZM11.84 9.02L14.99 12.17L15.01 12.01C15.01 11.2144 14.6939 10.4513 14.1313 9.88868C13.5687 9.32607 12.8056 9.01 12.01 9.01L11.84 9.02Z" fill="black"/>
</svg>
