<svg width="16" height="16" viewBox="0 0 16 16" fill="none" xmlns="http://www.w3.org/2000/svg">
<g id="ico_0008_cal">
<path id="Vector" d="M2.66699 14.335C2.31377 14.3334 1.97526 14.1922 1.72559 13.9424C1.47591 13.6925 1.3353 13.3542 1.33398 13.001V3.33398C1.3353 2.98086 1.47637 2.64252 1.72607 2.39282C1.97578 2.14312 2.31386 2.00229 2.66699 2.00098H3.33398V0.667969H4.66699V2.00195H11.334V0.667969H12.667V2.00195H13.334C13.6871 2.00327 14.0252 2.1441 14.2749 2.3938C14.5246 2.6435 14.6657 2.98183 14.667 3.33496V13.002C14.6657 13.3552 14.5251 13.6935 14.2754 13.9434C14.0257 14.1932 13.6872 14.3344 13.334 14.3359L2.66699 14.335ZM2.66699 13.001H13.334V5.33496H2.66699V13.001ZM10 11.6011V9.60107H12V11.6011H10ZM7 11.6011V9.60107H9V11.6011H7ZM4 11.6011V9.60107H6V11.6011H4ZM10 8.60107V6.60107H12V8.60107H10ZM7 8.60107V6.60107H9V8.60107H7ZM4 8.60107V6.60107H6V8.60107H4Z" fill="#808080"/>
</g>
</svg>
