<svg width="24" height="24" viewBox="0 0 24 24" fill="none" xmlns="http://www.w3.org/2000/svg">
<path d="M19.9995 1.99951H3.99901C3.47041 2.00189 2.96429 2.21365 2.5915 2.58842C2.2187 2.96318 2.00961 3.4704 2.01001 3.99901L1.99951 21.999L6.00001 17.9985H19.9995C20.5293 17.9969 21.037 17.7858 21.4116 17.4111C21.7863 17.0365 21.9974 16.5288 21.999 15.999V3.99901C21.9974 3.4692 21.7863 2.96154 21.4116 2.5869C21.037 2.21226 20.5293 2.00109 19.9995 1.99951ZM7.99951 13.9995H6.00001V12H7.99951V13.9995ZM7.99951 10.9995H6.00001V9.00001H7.99951V10.9995ZM7.99951 7.99951H6.00001V6.00001H7.99951V7.99951ZM15 13.9995H9.99901V12H14.9985L15 13.9995ZM18 10.9995H9.99901V9.00001H17.9985L18 10.9995ZM18 7.99951H9.99901V6.00001H17.9985L18 7.99951Z" fill="black"/>
</svg>
