<svg width="24" height="24" viewBox="0 0 24 24" fill="none" xmlns="http://www.w3.org/2000/svg">
<path d="M19.4883 21.3281C19.3801 21.3266 19.2726 21.3051 19.1719 21.2656L14.7168 19.3525C13.8299 19.5609 12.9218 19.6664 12.0107 19.666H12C6.486 19.666 2 15.929 2 11.335C2 6.74096 6.486 3 12 3C17.514 3 22 6.73896 22 11.335C21.9845 12.4089 21.7418 13.4674 21.2871 14.4404C20.8324 15.4135 20.1762 16.2796 19.3623 16.9805L20.2998 20.2734C20.3333 20.3979 20.3376 20.5279 20.3125 20.6543C20.2874 20.7807 20.2338 20.8998 20.1553 21.002C20.0767 21.1041 19.9751 21.1864 19.8594 21.2432C19.7437 21.2999 19.6172 21.3295 19.4883 21.3291V21.3281ZM9.49902 7.19922V15.1992L16.499 11.1992L9.49902 7.19922Z" fill="#808080"/>
</svg>
