<svg width="24" height="24" viewBox="0 0 24 24" fill="none" xmlns="http://www.w3.org/2000/svg">
<path d="M16 22H8V20H10V18H14V20H16V22ZM20 17H4C3.46957 17 2.96101 16.7894 2.58594 16.4143C2.21086 16.0392 2 15.5304 2 15V4C2 3.46957 2.21086 2.96077 2.58594 2.58569C2.96101 2.21062 3.46957 2 4 2H20C20.5304 2 21.039 2.21062 21.4141 2.58569C21.7891 2.96077 22 3.46957 22 4V15C22 15.5304 21.7891 16.0392 21.4141 16.4143C21.039 16.7894 20.5304 17 20 17ZM15 10V15H19V10H15ZM10 5V15H14V5H10ZM5 8V15H9V8H5Z" fill="black"/>
</svg>
