<svg width="24" height="24" viewBox="0 0 24 24" fill="none" xmlns="http://www.w3.org/2000/svg">
<path d="M12 2.57098C6.32799 2.57098 1.71399 6.41598 1.71399 11.142C1.72773 12.2473 1.977 13.337 2.44517 14.3383C2.91334 15.3397 3.58965 16.2297 4.42899 16.949L3.46199 20.335C3.42077 20.4904 3.42369 20.6542 3.47041 20.8081C3.51713 20.9619 3.60582 21.0997 3.7265 21.206C3.84719 21.3122 3.9951 21.3827 4.15363 21.4096C4.31217 21.4364 4.47505 21.4186 4.62399 21.358L9.20799 19.394C10.1236 19.6074 11.0608 19.7148 12.001 19.714C17.673 19.714 22.287 15.869 22.287 11.143C22.287 6.41698 17.671 2.57098 12 2.57098ZM12.175 14.962C12.1199 14.9866 12.0603 14.9993 12 14.9993C11.9397 14.9993 11.8801 14.9866 11.825 14.962C11.64 14.879 7.28599 12.899 7.28599 10.285C7.23168 9.75404 7.32597 9.21844 7.55835 8.73797C7.79073 8.2575 8.15205 7.85105 8.60199 7.56398C9.16271 7.34142 9.77216 7.27046 10.369 7.35823C10.9659 7.446 11.5291 7.68942 12.002 8.06398C12.4748 7.68933 13.0381 7.44585 13.6349 7.35808C14.2318 7.2703 14.8413 7.34132 15.402 7.56398C15.8512 7.85156 16.2117 8.25823 16.4434 8.73866C16.675 9.2191 16.7687 9.75443 16.714 10.285C16.714 12.899 12.36 14.879 12.175 14.962Z" fill="black"/>
</svg>
