<svg width="24" height="24" viewBox="0 0 24 24" fill="none" xmlns="http://www.w3.org/2000/svg">
<path d="M12 21.35L10.55 20.03C5.40002 15.36 2.00002 12.28 2.00002 8.50002C1.99293 7.77578 2.13036 7.0574 2.40425 6.38691C2.67815 5.71642 3.08301 5.10728 3.59515 4.59515C4.10728 4.08301 4.71642 3.67815 5.38691 3.40425C6.0574 3.13036 6.77578 2.99293 7.50002 3.00002C8.35589 3.00654 9.20041 3.19647 9.97667 3.557C10.7529 3.91753 11.4429 4.44028 12 5.09002C12.5572 4.44028 13.2471 3.91753 14.0234 3.557C14.7996 3.19647 15.6441 3.00654 16.5 3.00002C17.2243 2.99293 17.9426 3.13036 18.6131 3.40425C19.2836 3.67815 19.8927 4.08301 20.4049 4.59515C20.917 5.10728 21.3219 5.71642 21.5958 6.38691C21.8697 7.0574 22.0071 7.77578 22 8.50002C22 12.28 18.6 15.36 13.45 20.04L12 21.35Z" fill="black"/>
</svg>
