<svg width="24" height="24" viewBox="0 0 24 24" fill="none" xmlns="http://www.w3.org/2000/svg">
<path d="M4.40001 20.4L21.85 12.92C22.0304 12.8432 22.1842 12.715 22.2923 12.5514C22.4004 12.3879 22.4581 12.1961 22.4581 12C22.4581 11.804 22.4004 11.6122 22.2923 11.4486C22.1842 11.2851 22.0304 11.1569 21.85 11.08L4.40001 3.60003C4.24891 3.53412 4.08378 3.50687 3.91952 3.52073C3.75525 3.53459 3.59702 3.58912 3.45911 3.67942C3.32119 3.76971 3.20792 3.89292 3.12951 4.03793C3.05111 4.18293 3.01004 4.34518 3.01001 4.51003L3.00001 9.12003C2.99909 9.36282 3.08707 9.59756 3.24734 9.77994C3.40762 9.96233 3.6291 10.0797 3.87001 10.11L18 12L3.87001 13.88C3.62896 13.9142 3.4083 14.0341 3.24851 14.2178C3.08871 14.4014 3.00049 14.6366 3.00001 14.88L3.01001 19.49C3.01004 19.6549 3.05111 19.8171 3.12951 19.9621C3.20792 20.1071 3.32119 20.2303 3.45911 20.3206C3.59702 20.4109 3.75525 20.4655 3.91952 20.4793C4.08378 20.4932 4.24891 20.4659 4.40001 20.4Z" fill="black"/>
</svg>
