<svg width="24" height="24" viewBox="0 0 24 24" fill="none" xmlns="http://www.w3.org/2000/svg">
<path d="M19.9971 9.00291H16.4071L22.7071 2.70291L21.2871 1.29291L14.9971 7.58291V4.00291H12.9971V11.0029H19.9971V9.00291Z" fill="black"/>
<path d="M19.9971 15.5229C18.7571 15.5229 17.5471 15.3229 16.4271 14.9529C16.0771 14.8329 15.6771 14.9229 15.4071 15.1929L13.2071 17.3929C10.3771 15.9429 8.05711 13.6329 6.61711 10.8029L8.81711 8.60291C9.09711 8.32291 9.17711 7.93291 9.06711 7.58291C8.69711 6.46291 8.49711 5.26291 8.49711 4.01291C8.49711 3.46291 8.04711 3.01291 7.49711 3.01291H3.99711C3.44711 3.01291 2.99711 3.46291 2.99711 4.01291C2.99711 13.4029 10.6071 21.0129 19.9971 21.0129C20.5471 21.0129 20.9971 20.5629 20.9971 20.0129V16.5229C20.9971 15.9729 20.5471 15.5229 19.9971 15.5229Z" fill="black"/>
</svg>
