<svg width="24" height="24" viewBox="0 0 24 24" fill="none" xmlns="http://www.w3.org/2000/svg">
<path d="M15 2H5C4.47005 2.00158 3.96227 2.2128 3.58753 2.58753C3.2128 2.96227 3.00158 3.47005 3 4V16H5V4H15V2ZM18 6H9C8.47005 6.00158 7.96227 6.2128 7.58753 6.58753C7.2128 6.96227 7.00158 7.47005 7 8V20C7.00158 20.5299 7.2128 21.0377 7.58753 21.4125C7.96227 21.7872 8.47005 21.9984 9 22H18C18.5299 21.9984 19.0377 21.7872 19.4125 21.4125C19.7872 21.0377 19.9984 20.5299 20 20V8C19.9984 7.47005 19.7872 6.96227 19.4125 6.58753C19.0377 6.2128 18.5299 6.00158 18 6ZM18 20H9V8H18V20Z" fill="black"/>
</svg>
