<svg width="24" height="24" viewBox="0 0 24 24" fill="none" xmlns="http://www.w3.org/2000/svg">
<path d="M19 23.002H4.99219C4.46175 23.002 3.9532 22.7911 3.57812 22.416C3.20305 22.0409 2.99219 21.5324 2.99219 21.002L3.00586 3.00195C3.00585 2.47325 3.21498 1.96561 3.58789 1.59082C3.9608 1.21603 4.4674 1.0046 4.99609 1.00195H14.9961L20.9961 7.00195V21.002C20.9961 21.5317 20.7863 22.0401 20.4121 22.415C20.0379 22.79 19.5297 23.0009 19 23.002ZM10.0469 11.7021H10.0312C9.56228 11.7148 9.10443 11.8488 8.70312 12.0918C8.30182 12.3348 7.97078 12.6782 7.74219 13.0879C6.81219 14.7029 7.40941 17.1632 8.44141 18.6572C8.85141 19.2482 9.41444 20.0566 10.1484 20.0566H10.1895C10.4646 20.0385 10.7334 19.9662 10.9805 19.8438C11.2981 19.6881 11.6482 19.6058 12.002 19.6035C12.3378 19.6051 12.6685 19.6846 12.9688 19.835C13.2219 19.9637 13.4993 20.0339 13.7832 20.04H13.8223C14.5973 20.027 15.0866 19.3126 15.5156 18.6836C15.8437 18.2007 16.1007 17.674 16.2793 17.1182C15.8423 16.9305 15.4698 16.6191 15.207 16.2227C14.9443 15.8262 14.8033 15.3614 14.8008 14.8857C14.8039 14.464 14.914 14.05 15.1211 13.6826C15.3282 13.3153 15.6252 13.0071 15.9844 12.7861L15.9941 12.7793C15.7655 12.4521 15.4658 12.1821 15.1152 11.9912C14.7647 11.8003 14.3735 11.6933 13.9746 11.6787C13.9155 11.6726 13.8563 11.6698 13.7969 11.6699C13.3543 11.697 12.9202 11.8064 12.5176 11.9922C12.3093 12.0916 12.0864 12.1565 11.8574 12.1855C11.6256 12.1607 11.3997 12.097 11.1895 11.9961L11.1719 11.9893C10.823 11.8244 10.4457 11.7272 10.0605 11.7031L10.0469 11.7021ZM13.9844 9.00195C13.3541 9.06093 12.7709 9.36025 12.3555 9.83789C12.147 10.0684 11.9878 10.3389 11.8867 10.6328C11.7857 10.9267 11.745 11.2379 11.7676 11.5479C11.8052 11.5498 11.8432 11.5498 11.8809 11.5479C12.1765 11.5327 12.4653 11.4547 12.7285 11.3193C12.9918 11.184 13.2238 10.9943 13.4082 10.7627C13.824 10.2726 14.031 9.63912 13.9844 8.99805V9.00195ZM13.9961 2.50195V8.00195H19.4961L13.9961 2.50195Z" fill="black"/>
</svg>
