<svg width="24" height="24" viewBox="0 0 24 24" fill="none" xmlns="http://www.w3.org/2000/svg">
<path d="M16.5 11.5005L21.4995 6.501L16.5 1.5V4.5H12.4995V8.5005H16.5V11.5005ZM18.4995 16.0005C17.2867 16.0023 16.0814 15.8098 14.9295 15.4305C14.7537 15.3745 14.5659 15.3672 14.3863 15.4095C14.2067 15.4518 14.0419 15.542 13.9095 15.6705L11.7105 17.8695C8.87139 16.426 6.56363 14.1188 5.1195 11.28L7.32 9.0705C7.45263 8.94485 7.54665 8.78397 7.59102 8.60675C7.63539 8.42952 7.62827 8.24332 7.5705 8.07C7.19117 6.91805 6.99873 5.7128 7.0005 4.5C6.99971 4.23489 6.89404 3.98087 6.70659 3.79341C6.51913 3.60596 6.26511 3.50029 6 3.4995H2.5005C2.23539 3.50029 1.98137 3.60596 1.79391 3.79341C1.60646 3.98087 1.50079 4.23489 1.5 4.5C1.4998 6.73246 1.93937 8.9431 2.79361 11.0057C3.64784 13.0682 4.90001 14.9423 6.4786 16.5209C8.05719 18.0995 9.93128 19.3517 11.9938 20.2059C14.0564 21.0601 16.267 21.4997 18.4995 21.4995C18.7643 21.4987 19.0181 21.3933 19.2056 21.2061C19.393 21.019 19.4988 20.7653 19.5 20.5005V16.9995C19.4988 16.7347 19.393 16.481 19.2056 16.2939C19.0181 16.1067 18.7643 16.0013 18.4995 16.0005Z" fill="black"/>
</svg>
