<svg width="24" height="24" viewBox="0 0 24 24" fill="none" xmlns="http://www.w3.org/2000/svg">
<path d="M19 23H4.99121C4.46234 22.9976 3.95614 22.7859 3.58301 22.4111C3.20988 22.0363 2.99999 21.5289 3 21L3.01074 3C3.01073 2.47164 3.22029 1.96457 3.59277 1.58984C3.96525 1.21511 4.47067 1.00317 4.99902 1H14.999L20.999 7V21C20.999 21.5303 20.7879 22.039 20.4131 22.4141C20.0382 22.7891 19.5303 22.9997 19 23ZM16.0107 11.9316V18H17.2246V15.5381H19.3779V14.5254H17.2246V12.9414H19.748V11.9316H16.0107ZM10.1553 11.9316V18H11.8838C12.2887 18.0339 12.696 17.9775 13.0762 17.834C13.4563 17.6904 13.7996 17.463 14.0811 17.1699C14.3625 16.8768 14.5752 16.5253 14.7031 16.1396C14.8311 15.754 14.8717 15.3446 14.8213 14.9414C14.8736 14.5346 14.8323 14.1207 14.7002 13.7324C14.5681 13.3441 14.3482 12.9916 14.0586 12.7012C13.769 12.4107 13.4172 12.1899 13.0293 12.0566C12.6414 11.9234 12.2282 11.8805 11.8213 11.9316H10.1553ZM4.68848 11.9316V18H5.90137V15.8428H6.71094C8.18094 15.8428 9.05762 15.0929 9.05762 13.8359C9.05762 12.5789 8.25769 11.9355 6.67969 11.9355L4.68848 11.9316ZM14 2.49805V7.99805H19.5L14 2.49805ZM11.7461 17.0244H11.3691V12.8984H11.7461C12.9821 12.8984 13.584 13.5664 13.584 14.9404C13.584 16.3144 12.9651 17.0254 11.7451 17.0254L11.7461 17.0244ZM6.62988 14.8818H5.90137V12.8896H6.58789C7.48789 12.8896 7.86621 13.172 7.86621 13.834C7.86521 14.541 7.46091 14.8838 6.62891 14.8838L6.62988 14.8818Z" fill="black"/>
</svg>
