<svg width="24" height="24" viewBox="0 0 24 24" fill="none" xmlns="http://www.w3.org/2000/svg">
<path d="M2 19.0059C1.73448 19.0035 1.48053 18.8973 1.29333 18.709C1.10614 18.5207 1.00078 18.2655 1 18V6C1 5.73478 1.10531 5.48051 1.29285 5.29297C1.48038 5.10543 1.73478 5 2 5H22C22.2652 5 22.5196 5.10543 22.7072 5.29297C22.8947 5.48051 23 5.73478 23 6V18C23.0008 18.1318 22.9756 18.2627 22.9257 18.3848C22.8758 18.5068 22.8022 18.6174 22.7092 18.7109C22.6163 18.8044 22.5058 18.8791 22.384 18.9297C22.2623 18.9803 22.1318 19.0059 22 19.0059H2ZM2 18H22V6H2V18ZM18 17V7H21V17H18ZM3 17V7H6V17H3Z" fill="black"/>
</svg>
