<svg width="24" height="24" viewBox="0 0 24 24" fill="none" xmlns="http://www.w3.org/2000/svg">
<path d="M2.00002 19.0059C1.86819 19.0059 1.7377 18.9803 1.61598 18.9297C1.49427 18.8791 1.38373 18.8044 1.29079 18.7109C1.19785 18.6174 1.12426 18.5068 1.07436 18.3848C1.02446 18.2627 0.999227 18.1318 1.00002 18V6C1.00002 5.73478 1.10533 5.48051 1.29286 5.29297C1.4804 5.10543 1.7348 5 2.00002 5H22C22.2652 5 22.5196 5.10543 22.7072 5.29297C22.8947 5.48051 23 5.73478 23 6V18C22.9992 18.2655 22.8939 18.5207 22.7067 18.709C22.5195 18.8973 22.2655 19.0035 22 19.0059H2.00002ZM2.00002 18H22V6H2.00002V18ZM7.00002 17V7H17V17H7.00002ZM3.00002 17V7H6.00002V17H3.00002Z" fill="black"/>
</svg>
