<svg width="24" height="24" viewBox="0 0 24 24" fill="none" xmlns="http://www.w3.org/2000/svg">
<path fill-rule="evenodd" clip-rule="evenodd" d="M4.00049 19.001H9.48535L9.48486 19C8.54004 17.2803 7.99805 14.7285 7.99805 12.001C7.99805 9.26953 8.54053 6.71875 9.48486 5H4.00049C3.44922 5 3.00098 5.44824 3.00098 6V18.002C3.00098 18.5527 3.44922 19.001 4.00049 19.001ZM6.49805 12.001C6.49805 13.9746 6.7666 15.8779 7.2583 17.501H4.50098V6.5H7.25781C6.7666 8.12305 6.49805 10.0273 6.49805 12.001Z" fill="black"/>
<path d="M14.5132 19H20C20.2652 19 20.5195 18.8946 20.707 18.707C20.8946 18.5195 21 18.2652 21 18V6C21 5.73478 20.8946 5.4805 20.707 5.29297C20.5195 5.10543 20.2652 5 20 5H14.5142C15.5593 7.18183 16.068 9.58177 15.998 12C16.0684 14.4184 15.5594 16.8185 14.5132 19Z" fill="black"/>
</svg>
