<svg width="24" height="24" viewBox="0 0 24 24" fill="none" xmlns="http://www.w3.org/2000/svg">
<path d="M19.82 10.71V9.12001C19.82 9.12001 19.82 9.05001 19.82 9.02001C19.77 4.58001 16.29 1.01001 12 1.01001C7.71 1.01001 4.18 4.63001 4.18 9.11001V10.71C2.95 10.9 2 12 2 13.34V14.11C2 15.46 2.98 16.57 4.23 16.74C4.4 17.4 4.97 17.88 5.65 17.88C6.46 17.88 7.12 17.2 7.12 16.36V11.09C7.12 10.25 6.46 9.57001 5.65 9.57001C5.48 9.57001 5.33 9.60001 5.18 9.65001V9.11001C5.18 8.89001 5.18 8.68001 5.21 8.47001C5.92 8.35001 6.52 7.86001 6.8 7.14001C7.66 4.92001 9.7 3.48001 12 3.48001C14.3 3.48001 16.35 4.92001 17.2 7.14001C17.48 7.86001 18.08 8.35001 18.78 8.47001C18.8 8.68001 18.81 8.89001 18.81 9.11001V9.65001C18.66 9.60001 18.51 9.57001 18.35 9.57001C17.54 9.57001 16.88 10.25 16.88 11.09V16.36C16.88 17.2 17.54 17.88 18.35 17.88C18.51 17.88 18.67 17.85 18.81 17.8C18.74 19.39 17.42 20.66 15.81 20.66H15.05C14.83 19.91 14.16 19.36 13.37 19.36C12.4 19.36 11.62 20.17 11.62 21.18C11.62 22.19 12.41 23 13.37 23C14.17 23 14.85 22.43 15.06 21.66H15.81C18.02 21.66 19.81 19.87 19.81 17.66V17.64C19.81 17.64 19.81 17.54 19.81 17.49V16.72C21.04 16.53 21.99 15.43 21.99 14.09V13.32C21.99 11.99 21.04 10.88 19.81 10.69L19.82 10.71Z" fill="black"/>
</svg>
