<svg width="24" height="24" viewBox="0 0 24 24" fill="none" xmlns="http://www.w3.org/2000/svg">
<path d="M19.5828 8.35817L12.5328 2.35817C12.3728 2.28817 12.1928 2.24817 12.0128 2.24817C11.8328 2.24817 11.6528 2.28817 11.4828 2.35817L4.58284 8.35817C4.42284 8.52817 4.32284 8.72817 4.28284 8.95817V19.0082C4.28284 19.1082 4.28284 19.2082 4.32284 19.2982C4.36284 19.3882 4.41284 19.4782 4.48284 19.5482C4.55284 19.6182 4.64284 19.6782 4.73284 19.7082C4.82284 19.7482 4.92284 19.7582 5.02284 19.7482H11.2428V11.8682L8.81284 12.5782V10.7082L13.4828 9.08817H13.7128V19.7482H18.9728C19.0728 19.7482 19.1728 19.7482 19.2628 19.7082C19.3528 19.6682 19.4428 19.6082 19.5128 19.5382C19.5828 19.4682 19.6428 19.3782 19.6728 19.2882C19.7128 19.1982 19.7228 19.0982 19.7128 18.9982V8.95817C19.7328 8.74817 19.6828 8.53817 19.5628 8.35817H19.5828Z" fill="black"/>
</svg>
