<svg width="24" height="24" viewBox="0 0 24 24" fill="none" xmlns="http://www.w3.org/2000/svg">
<path d="M12 3.00106C17.515 3.00106 22 6.73906 22 11.3301C21.9853 12.4049 21.7426 13.4644 21.2878 14.4384C20.8331 15.4124 20.1766 16.2787 19.362 16.9801L20.3 20.2721C20.3413 20.4234 20.3394 20.5833 20.2946 20.7337C20.2497 20.8841 20.1637 21.0189 20.0463 21.1229C19.9288 21.2269 19.7846 21.296 19.6299 21.3224C19.4752 21.3488 19.3163 21.3313 19.171 21.2721L14.716 19.3561C13.8308 19.5625 12.9249 19.6668 12.016 19.6671H12C6.487 19.6681 2 15.9301 2 11.3301C2 6.73006 6.487 3.00106 12 3.00106ZM7 13.0011C7.29667 13.0011 7.58668 12.9131 7.83335 12.7483C8.08003 12.5834 8.27229 12.3492 8.38582 12.0751C8.49935 11.801 8.52906 11.4994 8.47118 11.2084C8.4133 10.9175 8.27044 10.6502 8.06066 10.4404C7.85088 10.2306 7.58361 10.0878 7.29264 10.0299C7.00166 9.972 6.70006 10.0017 6.42597 10.1152C6.15189 10.2288 5.91762 10.421 5.7528 10.6677C5.58797 10.9144 5.5 11.2044 5.5 11.5011C5.5 11.8989 5.65804 12.2804 5.93934 12.5617C6.22064 12.843 6.60218 13.0011 7 13.0011ZM12 13.0011C12.2967 13.0011 12.5867 12.9131 12.8334 12.7483C13.08 12.5834 13.2723 12.3492 13.3858 12.0751C13.4994 11.801 13.5291 11.4994 13.4712 11.2084C13.4133 10.9175 13.2704 10.6502 13.0607 10.4404C12.8509 10.2306 12.5836 10.0878 12.2926 10.0299C12.0017 9.972 11.7001 10.0017 11.426 10.1152C11.1519 10.2288 10.9176 10.421 10.7528 10.6677C10.588 10.9144 10.5 11.2044 10.5 11.5011C10.5 11.8989 10.658 12.2804 10.9393 12.5617C11.2206 12.843 11.6022 13.0011 12 13.0011ZM17 13.0011C17.2967 13.0011 17.5867 12.9131 17.8334 12.7483C18.08 12.5834 18.2723 12.3492 18.3858 12.0751C18.4994 11.801 18.5291 11.4994 18.4712 11.2084C18.4133 10.9175 18.2704 10.6502 18.0607 10.4404C17.8509 10.2306 17.5836 10.0878 17.2926 10.0299C17.0017 9.972 16.7001 10.0017 16.426 10.1152C16.1519 10.2288 15.9176 10.421 15.7528 10.6677C15.588 10.9144 15.5 11.2044 15.5 11.5011C15.5 11.8989 15.658 12.2804 15.9393 12.5617C16.2206 12.843 16.6022 13.0011 17 13.0011Z" fill="black"/>
</svg>
