<svg width="16" height="17" viewBox="0 0 16 17" fill="none" xmlns="http://www.w3.org/2000/svg">
<g id="ico_0287_success">
<path id="Vector" fill-rule="evenodd" clip-rule="evenodd" d="M14.1538 6.13091C13.8206 5.32424 13.3275 4.58424 12.7078 3.97091C12.0881 3.35091 11.3552 2.85758 10.5489 2.52424C9.74262 2.19091 8.87639 2.01758 7.99683 2.01758C6.67749 2.01758 5.39147 2.41091 4.29202 3.14424C3.19923 3.87758 2.33966 4.91758 1.83991 6.13758C1.3335 7.35091 1.20689 8.69091 1.4601 9.98424C1.71997 11.2776 2.35299 12.4642 3.28585 13.3976C4.21872 14.3309 5.40479 14.9642 6.69748 15.2242C7.99017 15.4842 9.3295 15.3509 10.5489 14.8442C11.7683 14.3376 12.8078 13.4842 13.5407 12.3909C14.2737 11.2976 14.6668 10.0042 14.6668 8.68425C14.6668 7.81091 14.4936 6.94424 14.1604 6.13091H14.1538ZM7.41046 12.3509L3.3325 7.97758L4.48525 6.74425L7.35715 9.82424L11.4551 5.01758L12.6612 6.19758L7.41046 12.3509Z" fill="#808080"/>
</g>
</svg>
