<svg width="24" height="24" viewBox="0 0 24 24" fill="none" xmlns="http://www.w3.org/2000/svg">
<path d="M16.1992 22.5V21.1729H19C19.5757 21.1729 20.1281 20.9442 20.5352 20.5371C20.9422 20.1301 21.1699 19.5786 21.1699 19.0029C21.1699 18.4273 20.9422 17.8748 20.5352 17.4678C20.1281 17.0607 19.5757 16.832 19 16.832H16.1992V15.501H19C19.9283 15.501 20.8182 15.87 21.4746 16.5264C22.131 17.1827 22.5 18.0727 22.5 19.001C22.5 19.9292 22.131 20.8192 21.4746 21.4756C20.8182 22.132 19.9283 22.501 19 22.501L16.1992 22.5ZM12 22.5C11.0717 22.5 10.1818 22.131 9.52539 21.4746C8.86901 20.8182 8.5 19.9283 8.5 19C8.5 18.0717 8.86901 17.1818 9.52539 16.5254C10.1818 15.869 11.0717 15.5 12 15.5H14.8008V16.8311H12C11.4243 16.8311 10.8719 17.0597 10.4648 17.4668C10.0578 17.8738 9.83008 18.4263 9.83008 19.002C9.83008 19.5776 10.0578 20.1291 10.4648 20.5361C10.8719 20.9432 11.4243 21.1719 12 21.1719H14.8008V22.499L12 22.5ZM5 20C4.73478 20 4.48051 19.8946 4.29297 19.707C4.10543 19.5195 4 19.2652 4 19V3C4 2.73478 4.10543 2.48051 4.29297 2.29297C4.48051 2.10543 4.73478 2 5 2H19C19.2652 2 19.5195 2.10543 19.707 2.29297C19.8946 2.48051 20 2.73478 20 3V14.0996C19.6709 14.0326 19.3359 13.9994 19 14H12C10.6744 14.0016 9.40413 14.5285 8.4668 15.4658C7.52946 16.4032 7.00159 17.6744 7 19C7.00042 19.3358 7.03352 19.6708 7.09961 20H5ZM7 10.2461V11.7461C7.00079 11.8119 7.02742 11.8747 7.07422 11.9209C7.12102 11.9671 7.18421 11.9932 7.25 11.9932H16.75C16.7828 11.9936 16.8153 11.9878 16.8457 11.9756C16.8761 11.9634 16.9043 11.9448 16.9277 11.9219C16.9511 11.8989 16.9696 11.872 16.9824 11.8418C16.9952 11.8116 17.0017 11.7789 17.002 11.7461V10.2461C17.0021 10.213 16.9951 10.18 16.9824 10.1494C16.9698 10.1188 16.9512 10.0907 16.9277 10.0674C16.9043 10.044 16.8763 10.0262 16.8457 10.0137C16.8151 10.0012 16.7831 9.99485 16.75 9.99512H7.25C7.21678 9.99525 7.1849 10.0017 7.1543 10.0146C7.1237 10.0276 7.09552 10.0466 7.07227 10.0703C7.04901 10.094 7.02989 10.1225 7.01758 10.1533C7.00526 10.1842 6.99947 10.2168 7 10.25V10.2461ZM7 6.24609V7.74609C6.99918 7.77919 7.00532 7.81202 7.01758 7.84277C7.02984 7.87353 7.0489 7.90135 7.07227 7.9248C7.09563 7.94826 7.12164 7.96711 7.15234 7.97949C7.18305 7.99188 7.2169 7.99776 7.25 7.99707H16.75C16.7832 7.99775 16.8168 7.99185 16.8477 7.97949C16.8785 7.96713 16.9062 7.94823 16.9297 7.9248C16.9532 7.90137 16.9719 7.87354 16.9844 7.84277C16.9969 7.81201 17.0025 7.77929 17.002 7.74609V6.24609C17.0021 6.21319 16.9951 6.18075 16.9824 6.15039C16.9697 6.12003 16.9512 6.09237 16.9277 6.06934C16.9042 6.04631 16.8763 6.02769 16.8457 6.01562C16.8151 6.00356 16.7829 5.99822 16.75 5.99902H7.25C7.18387 5.99902 7.12107 6.0256 7.07422 6.07227C7.02736 6.11893 7.00026 6.18192 7 6.24805V6.24609ZM12.6992 19.7002V18.2998H18.3008V19.7002H12.6992Z" fill="black"/>
</svg>
