<svg width="24" height="24" viewBox="0 0 24 24" fill="none" xmlns="http://www.w3.org/2000/svg">
<path d="M15 18.0102H18V13.0004H20V18.0122H23L19 22.0122L15 18.0102ZM1 10.0102C0.99862 8.42714 1.46697 6.87971 2.34571 5.56293C3.22445 4.24616 4.47316 3.21993 5.93555 2.61371C7.39794 2.00749 9.00791 1.84879 10.5605 2.15766C12.1132 2.46652 13.5392 3.22835 14.6582 4.34809C15.7772 5.46783 16.5398 6.89487 16.8477 8.4477C17.1556 10.0005 16.9958 11.6097 16.3887 13.0717C15.7815 14.5337 14.7548 15.7827 13.4375 16.6606C12.1202 17.5385 10.5713 18.0057 8.98828 18.0034C6.86811 18.0002 4.83568 17.1553 3.33789 15.6547C1.84011 14.1541 0.999206 12.1206 1 10.0004V10.0102ZM2.59961 10.0102C2.601 11.2757 2.97756 12.5124 3.68164 13.5639C4.38573 14.6155 5.38707 15.4351 6.55664 15.9184C7.72621 16.4017 9.01094 16.5275 10.252 16.2797C11.493 16.032 12.633 15.4221 13.5273 14.5268C14.4217 13.6315 15.031 12.4907 15.2773 11.2495C15.5237 10.0082 15.3967 8.72123 14.9121 7.55219C14.4275 6.38315 13.607 5.38403 12.5547 4.6811C11.5024 3.97816 10.2655 3.60297 9 3.60297C7.30314 3.60297 5.67476 4.27741 4.47461 5.477C3.27447 6.67658 2.60041 8.30357 2.59961 10.0004V10.0102ZM8.19922 10.8012V6.00043H9.40039V10.2006L13 12.3354L12.4004 13.3237L8.19922 10.8012Z" fill="black"/>
</svg>
