<svg width="24" height="24" viewBox="0 0 24 24" fill="none" xmlns="http://www.w3.org/2000/svg">
<path d="M3.00003 21.125V17.9942C2.99744 17.3779 3.16523 16.7723 3.4844 16.2451C3.80358 15.7179 4.26136 15.2893 4.80862 15.0059C7.03173 13.8547 9.49851 13.2539 12.002 13.2539C14.5055 13.2539 16.9722 13.8547 19.1953 15.0059C19.7422 15.2889 20.1999 15.7177 20.5176 16.2451C20.8354 16.7726 21.0016 17.3784 20.9961 17.9942V21.125H3.00003ZM7.50003 7.62501V3.68556C7.50005 3.32305 7.61591 2.97072 7.83206 2.6797C8.04821 2.38868 8.35221 2.17509 8.69925 2.07032C9.04629 1.96556 9.41872 1.97486 9.7598 2.09767C10.1009 2.22048 10.3932 2.45001 10.5938 2.75196C11.3043 2.98413 12.0611 3.03685 12.7969 2.90528C13.5327 2.77372 14.2245 2.46205 14.8106 1.99806C15.0325 1.99726 15.2519 2.04046 15.4571 2.12501C15.6622 2.20956 15.849 2.33334 16.0059 2.49025C16.1628 2.64715 16.2885 2.83392 16.3731 3.03907C16.4576 3.24423 16.4989 3.46366 16.4981 3.68556V7.62501C16.4981 8.81848 16.0256 9.96274 15.1817 10.8067C14.3378 11.6506 13.1916 12.125 11.9981 12.125C10.8046 12.125 9.66035 11.6506 8.81644 10.8067C7.97252 9.96274 7.49808 8.81848 7.49808 7.62501H7.50003Z" fill="black"/>
</svg>
