<svg width="24" height="24" viewBox="0 0 24 24" fill="none" xmlns="http://www.w3.org/2000/svg">
<path d="M7.5 23C8.88071 23 10 21.8807 10 20.5C10 19.1193 8.88071 18 7.5 18C6.11929 18 5 19.1193 5 20.5C5 21.8807 6.11929 23 7.5 23Z" fill="black"/>
<path d="M18.5 23C19.8807 23 21 21.8807 21 20.5C21 19.1193 19.8807 18 18.5 18C17.1193 18 16 19.1193 16 20.5C16 21.8807 17.1193 23 18.5 23Z" fill="black"/>
<path fill-rule="evenodd" clip-rule="evenodd" d="M21 17C21 16.45 20.55 16 20 16H7V3C7 2.45 6.55 2 6 2H2C1.45 2 1 2.45 1 3C1 3.55 1.45 4 2 4H5V17C5 17.55 5.45 18 6 18H20C20.55 18 21 17.55 21 17Z" fill="black"/>
<path fill-rule="evenodd" clip-rule="evenodd" d="M20 5C20 4.45 19.55 4 19 4H9C8.45 4 8 4.45 8 5V15H20V5ZM16 10L15 9L14 10L13 9L12 10V6H16V10Z" fill="black"/>
</svg>
