<svg width="16" height="17" viewBox="0 0 16 17" fill="none" xmlns="http://www.w3.org/2000/svg">
<g id="ico_0116_checklist">
<path id="Vector" d="M8.6665 12.473C8.6665 11.8138 8.86208 11.169 9.22835 10.6208C9.59462 10.0726 10.1154 9.64589 10.7244 9.3936C11.3335 9.1413 12.0036 9.07487 12.6502 9.20349C13.2968 9.33211 13.8904 9.65008 14.3566 10.1163C14.8228 10.5824 15.1407 11.176 15.2694 11.8226C15.398 12.4692 15.3316 13.1393 15.0793 13.7484C14.827 14.3575 14.4002 14.8782 13.852 15.2445C13.3039 15.6108 12.6591 15.8064 11.9998 15.8064C11.1158 15.8064 10.2682 15.4549 9.64307 14.8298C9.01794 14.2047 8.6665 13.3571 8.6665 12.473ZM9.6665 12.1469L11.7043 14.1853L14.3319 11.3181L13.4406 10.475L11.6782 12.4242L10.5369 11.2771L9.6665 12.1469ZM3.33317 13.807C3.15705 13.807 2.98803 13.7372 2.86312 13.613C2.73821 13.4888 2.66756 13.3204 2.6665 13.1442V2.47758C2.6665 2.30077 2.73679 2.13125 2.86182 2.00623C2.98684 1.8812 3.15636 1.81091 3.33317 1.81091H12.6665C12.8433 1.81091 13.0128 1.8812 13.1379 2.00623C13.2629 2.13125 13.3332 2.30077 13.3332 2.47758V8.70675C12.9066 8.5551 12.4571 8.47811 12.0044 8.47888C11.4416 8.47914 10.8854 8.5981 10.3716 8.82784C9.85777 9.05758 9.39809 9.39293 9.02262 9.81222H4.83838C4.7937 9.81204 4.75108 9.8297 4.71924 9.86104C4.68739 9.89239 4.66898 9.93485 4.66846 9.97953V10.9795C4.6688 11.0015 4.67339 11.0232 4.68213 11.0433C4.69087 11.0635 4.70344 11.0815 4.71924 11.0967C4.73503 11.112 4.75414 11.1245 4.77458 11.1325C4.79501 11.1405 4.81644 11.144 4.83838 11.1436H8.23031C7.92854 12.0069 7.92854 12.947 8.23031 13.8103L3.33317 13.807ZM4.6665 7.30961V8.30961C4.66703 8.35423 4.68542 8.39686 4.71728 8.4281C4.74915 8.45934 4.79181 8.47663 4.83643 8.47628H11.1698C11.2134 8.47541 11.255 8.45729 11.2856 8.42615C11.3163 8.395 11.3337 8.3533 11.3338 8.30961V7.30961C11.3342 7.28782 11.3302 7.26605 11.3221 7.24581C11.314 7.22557 11.3022 7.20734 11.2869 7.19177C11.2717 7.17621 11.2536 7.16379 11.2336 7.15531C11.2135 7.14683 11.1916 7.14238 11.1698 7.14229H4.83643C4.81436 7.14203 4.79246 7.14646 4.77197 7.15466C4.75149 7.16286 4.73307 7.1744 4.71728 7.18982C4.7015 7.20523 4.68886 7.22422 4.68018 7.24451C4.67149 7.26479 4.66676 7.28625 4.6665 7.30831V7.30961ZM4.6665 4.64294V5.64294C4.66632 5.66529 4.67039 5.68738 4.67887 5.70805C4.68736 5.72872 4.70015 5.74762 4.71598 5.76339C4.73181 5.77916 4.75062 5.79144 4.77132 5.79985C4.79202 5.80825 4.81408 5.81248 4.83643 5.81222H11.1698C11.1916 5.81187 11.2135 5.80724 11.2336 5.79854C11.2536 5.78984 11.2717 5.77716 11.2869 5.76143C11.3022 5.74571 11.3141 5.7271 11.3221 5.70675C11.3302 5.68639 11.3342 5.66483 11.3338 5.64294V4.64294C11.3342 4.62128 11.3302 4.59989 11.3221 4.57979C11.314 4.5597 11.3022 4.54111 11.2869 4.52576C11.2717 4.5104 11.253 4.49879 11.2329 4.4906C11.2128 4.48241 11.1914 4.47796 11.1698 4.47823H4.83643C4.7925 4.47751 4.75039 4.49414 4.71859 4.52445C4.68678 4.55476 4.6679 4.59643 4.6665 4.64034V4.64294Z" fill="#808080"/>
</g>
</svg>
