<svg width="24" height="24" viewBox="0 0 24 24" fill="none" xmlns="http://www.w3.org/2000/svg">
<g clip-path="url(#clip0_122_714)">
<path d="M0 11.9989C0 9.62581 0.703811 7.30582 2.02225 5.33263C3.34069 3.35945 5.21495 1.82133 7.40744 0.91317C9.59992 0.00501223 12.0128 -0.232351 14.3403 0.230623C16.6678 0.693598 18.8052 1.83641 20.4832 3.51446C22.1613 5.19252 23.3041 7.33083 23.7671 9.65836C24.23 11.9859 23.9927 14.3978 23.0845 16.5903C22.1764 18.7827 20.6382 20.657 18.6651 21.9754C16.6919 23.2939 14.3719 23.9977 11.9988 23.9977C8.81754 23.9943 5.76765 22.729 3.51819 20.4795C1.26873 18.23 0.00344073 15.1801 0 11.9989ZM0.753828 11.9989C0.754224 14.2236 1.41382 16.3978 2.65012 18.2473C3.88642 20.0968 5.64392 21.5385 7.6994 22.3895C9.75488 23.2404 12.0159 23.4625 14.1977 23.0281C16.3796 22.5936 18.3832 21.5217 19.9559 19.9483C21.5287 18.3749 22.6002 16.3702 23.0337 14.1882C23.4672 12.0062 23.2441 9.74492 22.3922 7.68981C21.5404 5.63471 20.0982 3.87894 18.2481 2.64346C16.3981 1.40798 14.2224 0.748531 11.9978 0.749124C9.01556 0.752566 6.15678 1.93849 4.04841 4.04761C1.94004 6.15673 0.755233 9.01672 0.752852 11.9989H0.753828ZM12.1716 13.7624L8.19642 17.7376L6.60576 16.146L10.58 12.1718L6.60576 8.19367L8.19642 6.60203L12.1755 10.5811L16.1497 6.60203L17.7404 8.19367L13.7662 12.1718L17.7404 16.146L16.1497 17.7376L12.1716 13.7624Z" fill="black"/>
</g>
<defs>
<clipPath id="clip0_122_714">
<rect width="24" height="23.9985" fill="white"/>
</clipPath>
</defs>
</svg>
