<svg width="24" height="24" viewBox="0 0 24 24" fill="none" xmlns="http://www.w3.org/2000/svg">
<path d="M19 8H5C3.9 8 3 8.9 3 10V20C3 21.1 3.9 22 5 22H19C20.1 22 21 21.1 21 20V10C21 8.9 20.1 8 19 8ZM13 20.5H11V19H13V20.5ZM13 18H11C11 16.5 8.5 15 8.5 13C8.5 11 10.07 9.5 12 9.5C13.93 9.5 15.5 11.07 15.5 13C15.5 14.93 13 16.5 13 18Z" fill="black"/>
<path d="M17.5 2H6.5C5.67 2 5 2.67 5 3.5H19C19 2.67 18.33 2 17.5 2Z" fill="black"/>
<path d="M18.5 5H5.5C4.67 5 4 5.67 4 6.5H20C20 5.67 19.33 5 18.5 5Z" fill="black"/>
</svg>
