<svg width="16" height="16" viewBox="0 0 16 16" fill="none" xmlns="http://www.w3.org/2000/svg">
<g id="ico_0091_sound">
<path id="Vector" d="M2 5.99999V9.99999H4.66667L8 13.3333V2.66665L4.66667 5.99999H2ZM11 7.99999C10.9999 7.4414 10.8438 6.89395 10.5493 6.41928C10.2549 5.94461 9.83372 5.56158 9.33333 5.31332V10.68C9.83397 10.4338 10.2555 10.0522 10.5502 9.57848C10.8448 9.10474 11.0006 8.55787 11 7.99999ZM9.33333 2.15332V3.52665C10.2974 3.81313 11.143 4.40336 11.7444 5.20944C12.3458 6.01551 12.6707 6.9943 12.6707 7.99999C12.6707 9.00568 12.3458 9.98446 11.7444 10.7905C11.143 11.5966 10.2974 12.1868 9.33333 12.4733V13.8467C10.6586 13.5452 11.8421 12.8025 12.6899 11.7402C13.5377 10.6779 13.9995 9.35911 13.9995 7.99999C13.9995 6.64087 13.5377 5.32207 12.6899 4.25978C11.8421 3.1975 10.6586 2.45476 9.33333 2.15332Z" fill="#808080"/>
</g>
</svg>
