<svg width="24" height="24" viewBox="0 0 24 24" fill="none" xmlns="http://www.w3.org/2000/svg">
<g clip-path="url(#clip0_122_634)">
<path d="M19.5979 22.3698C20.8676 20.6186 21.5913 18.5311 21.678 16.3698L23.678 16.4508C23.5803 19.0061 22.7243 21.4744 21.219 23.5416L19.5979 22.3698ZM16.9573 20.9606C18.2315 19.2116 18.9563 17.1229 19.0393 14.9606L21.0393 15.0406C20.9417 17.5954 20.0871 20.0643 18.5842 22.1324L16.9573 20.9606ZM12.4124 21.8356L7.36353 20.194C6.99731 20.0753 6.65735 19.8854 6.36548 19.6344C6.07361 19.3834 5.8345 19.0764 5.66235 18.7321L2.02563 11.4479C2.02563 11.4479 3.17337 10.8796 3.20337 10.8756C3.39833 10.7917 3.6177 10.7837 3.8186 10.8522C3.96351 10.9 4.0934 10.9849 4.19556 11.0983C4.22056 11.1133 6.62329 13.7662 6.62329 13.7662L9.30103 5.53088C9.39014 5.25559 9.58632 5.02679 9.84399 4.89514C10.1017 4.76349 10.4007 4.73962 10.676 4.82874C10.9513 4.91785 11.1791 5.11305 11.3108 5.37073C11.4424 5.6284 11.4663 5.92746 11.3772 6.20276L9.80493 11.0465L10.4924 11.2701L12.6311 4.70374C12.6752 4.56742 12.7472 4.44169 12.8401 4.33264C12.933 4.22359 13.0465 4.13318 13.1741 4.06799C13.3017 4.00281 13.4395 3.96416 13.5823 3.95276C13.7251 3.94136 13.8698 3.95746 14.0061 4.00159C14.1424 4.04571 14.2681 4.11666 14.3772 4.20959C14.4862 4.30252 14.5757 4.41599 14.6409 4.54358C14.7061 4.67117 14.7467 4.80994 14.7581 4.95276C14.7695 5.09558 14.7514 5.2393 14.7073 5.37561L12.5686 11.9459L13.26 12.1686L15.1721 6.29358C15.2612 6.01828 15.4555 5.79046 15.7131 5.65881C15.9708 5.52716 16.2699 5.50329 16.5452 5.59241C16.8205 5.68152 17.0502 5.87575 17.1819 6.13342C17.3135 6.3911 17.3374 6.69114 17.2483 6.96643L15.3362 12.8463L16.0276 13.0729L17.262 9.26526C17.3035 9.12557 17.3725 8.99501 17.4651 8.88245C17.5577 8.76989 17.672 8.67772 17.801 8.60999C17.9301 8.54225 18.0699 8.50018 18.2151 8.48792C18.3603 8.47565 18.5062 8.49259 18.6448 8.53772C18.7834 8.58285 18.9116 8.65616 19.0217 8.75159C19.1319 8.84702 19.2229 8.96265 19.2874 9.09338C19.3518 9.22412 19.3901 9.36683 19.3987 9.51233C19.4072 9.65783 19.3848 9.80365 19.3362 9.94104L16.0784 19.9703C15.8375 20.7025 15.3178 21.3099 14.6311 21.6598C13.9444 22.0097 13.1463 22.073 12.4124 21.8375V21.8356ZM3.27173 8.03577C3.66904 5.50945 4.80676 3.15834 6.54321 1.28088L8.01196 2.63831C6.54499 4.22607 5.5802 6.2131 5.24243 8.34827L3.27173 8.03577ZM0.400635 7.15588C0.800566 4.63186 1.938 2.28297 3.67212 0.405884L5.14478 1.7594C3.67593 3.34822 2.71108 5.33701 2.37329 7.47424L0.400635 7.15588Z" fill="black"/>
</g>
<defs>
<clipPath id="clip0_122_634">
<rect width="24" height="24" fill="white"/>
</clipPath>
</defs>
</svg>
