<svg width="24" height="24" viewBox="0 0 24 24" fill="none" xmlns="http://www.w3.org/2000/svg">
<path d="M8.8461 22.5078L9.43594 20.6016C10.2991 20.8665 11.1971 21.0017 12.1 21.002C14.4862 20.9996 16.774 20.0506 18.4613 18.3633C20.1486 16.676 21.0976 14.3882 21.1 12.002C21.0974 9.61583 20.1481 7.32789 18.4608 5.64064C16.7736 3.95338 14.4861 3.00461 12.1 3.00196C11.1968 2.99903 10.2984 3.13431 9.43594 3.40236L8.8461 1.49025C9.89987 1.16384 10.9968 0.998408 12.1 1.00001C15.0164 1.00319 17.8127 2.16241 19.8749 4.22462C21.9371 6.28683 23.0968 9.0836 23.1 12C23.0958 14.9161 21.9354 17.7115 19.8734 19.7734C17.8115 21.8354 15.0161 22.9958 12.1 23C10.9966 23.0024 9.89944 22.8363 8.8461 22.5078ZM2.49112 17.3535L4.23477 16.377C4.9822 17.7158 6.05881 18.8427 7.36221 19.6504L6.30411 21.3496C4.71716 20.3596 3.40569 18.9851 2.49112 17.3535ZM5.89102 8.38478C5.89102 7.94778 6.27222 7.81056 6.59122 7.81056H8.60977C8.76201 7.81234 8.90781 7.87338 9.01602 7.98048C9.12424 8.08758 9.18649 8.23256 9.18985 8.38478C9.18634 9.08376 9.29468 9.77842 9.51016 10.4434C9.54364 10.5464 9.54844 10.658 9.52432 10.7637C9.5002 10.8693 9.44784 10.9666 9.37296 11.0449L8.2338 12.0098C9.10186 13.7391 10.513 15.1356 12.2509 15.9863L13.1659 14.8418C13.2411 14.7652 13.3361 14.7108 13.4403 14.6856C13.5446 14.6603 13.6539 14.6636 13.7558 14.6973C14.4185 14.916 15.1121 15.0274 15.81 15.0274C15.9623 15.0289 16.1079 15.0901 16.2162 15.1973C16.3245 15.3044 16.3869 15.4493 16.39 15.6016V17.6152C16.4087 17.7763 16.3631 17.9387 16.2631 18.0664C16.1631 18.1941 16.0167 18.2783 15.8559 18.2988C15.8406 18.298 15.8254 18.2999 15.8109 18.3047C13.1868 18.2835 10.6763 17.2306 8.82071 15.375C6.96511 13.5194 5.91317 11.0089 5.892 8.38478H5.89102ZM1.10001 12C1.10053 11.0679 1.22012 10.14 1.45596 9.23829L3.38809 9.73829C3.19753 10.4772 3.10068 11.2369 3.10001 12C3.09966 12.763 3.19557 13.5227 3.38516 14.2617L1.45303 14.7617C1.21865 13.8598 1.10001 12.9319 1.10001 12ZM11.4311 9.19923L12.2602 8.37696L14.3139 10.4317L17.2431 7.23048L18.102 8.01368L14.35 12.1211L11.4311 9.19923ZM2.48819 6.64064C3.40375 5.00709 4.71689 3.63122 6.30606 2.64064L7.36417 4.34181C6.06177 5.15075 4.98592 6.27536 4.23721 7.61329L2.48819 6.64064Z" fill="black"/>
</svg>
