<svg width="24" height="24" viewBox="0 0 24 24" fill="none" xmlns="http://www.w3.org/2000/svg">
<path fill-rule="evenodd" clip-rule="evenodd" d="M16.13 8.8H14.63L14.06 11.84H13.24L12.58 8.8H11.22L10.56 11.84H9.75L9.18 8.8H7.68L8.36 11.84H7.49V12.84H8.58L9.26 15.88H10.85L11.48 12.84H12.28L12.91 15.88H14.5L15.19 12.84H16.29V11.84H15.42L16.11 8.8H16.13ZM10.16 13.69H10.1L9.94 12.83H10.35L10.16 13.69ZM11.7 11.83L11.87 11.04H11.93L12.1 11.83H11.7ZM13.7 13.7H13.64L13.45 12.83H13.86L13.7 13.7Z" fill="black"/>
<path fill-rule="evenodd" clip-rule="evenodd" d="M22 4H2C1.45 4 1 4.45 1 5V19C1 19.55 1.45 20 2 20H22C22.55 20 23 19.55 23 19V5C23 4.45 22.55 4 22 4ZM12 18C8.69 18 6 15.31 6 12C6 8.69 8.69 6 12 6C15.31 6 18 8.69 18 12C18 15.31 15.31 18 12 18Z" fill="black"/>
</svg>
