<svg width="24" height="24" viewBox="0 0 24 24" fill="none" xmlns="http://www.w3.org/2000/svg">
<path d="M1.49707 12.0018C1.49707 9.92456 2.11232 7.89427 3.2666 6.1673C4.42089 4.44032 6.06114 3.09448 7.98047 2.30011C9.89979 1.50574 12.0137 1.2978 14.0508 1.70392C16.0879 2.11004 17.9588 3.11122 19.4268 4.58087C20.8947 6.05052 21.8941 7.92365 22.2978 9.96124C22.7016 11.9988 22.4909 14.1102 21.6943 16.0286C20.8978 17.947 19.5496 19.5858 17.8213 20.7381C16.093 21.8904 14.0626 22.5041 11.9854 22.5018C9.20266 22.4986 6.53392 21.3915 4.56738 19.4227C2.60085 17.4539 1.49707 14.7845 1.49707 12.0018ZM3.59766 12.0018C3.59766 13.6631 4.08969 15.2874 5.0127 16.6688C5.9357 18.0501 7.2483 19.1267 8.7832 19.7625C10.3181 20.3983 12.0053 20.5642 13.6348 20.2401C15.2642 19.9159 16.7608 19.1165 17.9355 17.9417C19.1103 16.767 19.9112 15.2704 20.2353 13.6409C20.5595 12.0115 20.3936 10.3228 19.7578 8.7879C19.122 7.253 18.0454 5.9404 16.6641 5.0174C15.2827 4.09439 13.6584 3.60236 11.9971 3.60236C9.76925 3.60236 7.6339 4.48652 6.05859 6.06183C4.48329 7.63714 3.59766 9.77395 3.59766 12.0018ZM10.9482 13.0521V6.75177H12.5244V12.2596L17.2412 15.0633L16.4561 16.3597L10.9482 13.0521Z" fill="black"/>
</svg>
