<svg width="24" height="24" viewBox="0 0 24 24" fill="none" xmlns="http://www.w3.org/2000/svg">
<path d="M19.8 8.39995L12.75 2.39995C12.5851 2.32502 12.4061 2.28625 12.225 2.28625C12.0439 2.28625 11.8649 2.32502 11.7 2.39995L4.8 8.39995C4.64193 8.56522 4.53738 8.77433 4.5 8.99995V19.0499C4.49386 19.15 4.50906 19.2503 4.54458 19.3441C4.5801 19.4378 4.63513 19.523 4.70604 19.5939C4.77695 19.6648 4.86211 19.7198 4.95588 19.7554C5.04966 19.7909 5.14991 19.8061 5.25 19.7999H9.75C9.85009 19.8061 9.95034 19.7909 10.0441 19.7554C10.1379 19.7198 10.2231 19.6648 10.294 19.5939C10.3649 19.523 10.4199 19.4378 10.4554 19.3441C10.4909 19.2503 10.5061 19.15 10.5 19.0499V13.1999H13.95V18.8999C13.9439 19 13.9591 19.1003 13.9946 19.1941C14.0301 19.2878 14.0851 19.373 14.156 19.4439C14.2269 19.5148 14.3121 19.5698 14.4059 19.6054C14.4997 19.6409 14.5999 19.6561 14.7 19.6499H19.2C19.3001 19.6561 19.4003 19.6409 19.4941 19.6054C19.5879 19.5698 19.6731 19.5148 19.744 19.4439C19.8149 19.373 19.8699 19.2878 19.9054 19.1941C19.9409 19.1003 19.9561 19 19.95 18.8999V8.99995C19.9724 8.78851 19.9193 8.57595 19.8 8.39995Z" fill="black"/>
</svg>
