<svg width="16" height="16" viewBox="0 0 16 16" fill="none" xmlns="http://www.w3.org/2000/svg">
<g id="ico_0139_photo">
<path id="Vector" d="M14 12.6667V3.33333C13.9989 2.98004 13.8581 2.64151 13.6083 2.39169C13.3585 2.14187 13.02 2.00106 12.6667 2H3.33333C2.98004 2.00106 2.64151 2.14187 2.39169 2.39169C2.14187 2.64151 2.00106 2.98004 2 3.33333V12.6667C2.00106 13.02 2.14187 13.3585 2.39169 13.6083C2.64151 13.8581 2.98004 13.9989 3.33333 14H12.6667C13.02 13.9989 13.3585 13.8581 13.6083 13.6083C13.8581 13.3585 13.9989 13.02 14 12.6667ZM5.66667 9L7.33333 11.0067L9.66667 8L12.6667 12H3.33333L5.66667 9Z" fill="#808080"/>
</g>
</svg>
