<svg width="24" height="24" viewBox="0 0 24 24" fill="none" xmlns="http://www.w3.org/2000/svg">
<path d="M4.25001 5.61C6.27001 8.2 10 13 10 13V19C10 19.2652 10.1054 19.5196 10.2929 19.7071C10.4804 19.8946 10.7348 20 11 20H13C13.2652 20 13.5196 19.8946 13.7071 19.7071C13.8946 19.5196 14 19.2652 14 19V13C14 13 17.72 8.2 19.74 5.61C19.8538 5.46216 19.924 5.28542 19.9426 5.09978C19.9612 4.91414 19.9275 4.72699 19.8454 4.55949C19.7632 4.39199 19.6358 4.25083 19.4775 4.15195C19.3193 4.05308 19.1366 4.00045 18.95 4H5.04001C4.85343 4.00045 4.6707 4.05308 4.51248 4.15195C4.35425 4.25083 4.22685 4.39199 4.14466 4.55949C4.06247 4.72699 4.02878 4.91414 4.0474 5.09978C4.06601 5.28542 4.13619 5.46216 4.25001 5.61Z" fill="black"/>
</svg>
