<svg width="24" height="24" viewBox="0 0 24 24" fill="none" xmlns="http://www.w3.org/2000/svg">
<path d="M19 23.002H4.99414C4.46475 23.0004 3.95776 22.789 3.58398 22.4141C3.21021 22.0392 3 21.5313 3 21.002L3.01172 3.00195C3.01171 2.47325 3.22084 1.96561 3.59375 1.59082C3.96666 1.21603 4.47325 1.0046 5.00195 1.00195H15.002L21.002 7.00195V21.002C21.002 21.2648 20.9502 21.5248 20.8496 21.7676C20.749 22.0104 20.6019 22.2312 20.416 22.417C20.2301 22.6027 20.0085 22.7502 19.7656 22.8506C19.5227 22.951 19.2628 23.0022 19 23.002ZM7 17.002V19.002H14V17.002H7ZM7 14.002V16.002H17V14.002H7ZM7 11.002V13.002H17V11.002H7ZM14 2.50195V8.00195H19.5L14 2.50195Z" fill="black"/>
</svg>
