<svg width="24" height="24" viewBox="0 0 24 24" fill="none" xmlns="http://www.w3.org/2000/svg">
<path d="M16.5 1H6.5C5.83696 1 5.20107 1.26339 4.73223 1.73223C4.26339 2.20107 4 2.83696 4 3.5V20.5C4 21.163 4.26339 21.7989 4.73223 22.2678C5.20107 22.7366 5.83696 23 6.5 23H16.5C17.163 23 17.7989 22.7366 18.2678 22.2678C18.7366 21.7989 19 21.163 19 20.5V3.5C19 2.83696 18.7366 2.20107 18.2678 1.73223C17.7989 1.26339 17.163 1 16.5 1ZM11.5 22C11.2033 22 10.9133 21.912 10.6666 21.7472C10.42 21.5824 10.2277 21.3481 10.1142 21.074C10.0006 20.7999 9.97094 20.4983 10.0288 20.2074C10.0867 19.9164 10.2296 19.6491 10.4393 19.4393C10.6491 19.2296 10.9164 19.0867 11.2074 19.0288C11.4983 18.9709 11.7999 19.0007 12.074 19.1142C12.3481 19.2277 12.5824 19.42 12.7472 19.6666C12.912 19.9133 13 20.2033 13 20.5C13 20.8978 12.842 21.2794 12.5607 21.5607C12.2794 21.842 11.8978 22 11.5 22ZM17 18H6V4H17V18Z" fill="black"/>
</svg>
