<svg width="24" height="24" viewBox="0 0 24 24" fill="none" xmlns="http://www.w3.org/2000/svg">
<path d="M20 2H4C3.4713 2.00264 2.96516 2.21452 2.59225 2.58931C2.21933 2.9641 2.00999 3.4713 2.01 4L2 22L6 18H20C20.5299 17.9984 21.0377 17.7872 21.4125 17.4125C21.7872 17.0377 21.9984 16.5299 22 16V4C21.9984 3.47005 21.7872 2.96227 21.4125 2.58753C21.0377 2.2128 20.5299 2.00158 20 2ZM6 14V11.53L12.88 4.65C12.9265 4.60314 12.9818 4.56594 13.0427 4.54055C13.1036 4.51517 13.169 4.5021 13.235 4.5021C13.301 4.5021 13.3664 4.51517 13.4273 4.54055C13.4882 4.56594 13.5435 4.60314 13.59 4.65L15.36 6.42C15.4069 6.46648 15.4441 6.52178 15.4694 6.58271C15.4948 6.64364 15.5079 6.70899 15.5079 6.775C15.5079 6.84101 15.4948 6.90636 15.4694 6.96729C15.4441 7.02822 15.4069 7.08352 15.36 7.13L8.47 14H6ZM18 14H10.5L12.5 12H18V14Z" fill="black"/>
</svg>
