<svg width="24" height="24" viewBox="0 0 24 24" fill="none" xmlns="http://www.w3.org/2000/svg">
<path fill-rule="evenodd" clip-rule="evenodd" d="M22 4H2C1.45 4 1 4.45 1 5V19C1 19.55 1.45 20 2 20H22C22.55 20 23 19.55 23 19V5C23 4.45 22.55 4 22 4ZM12 18C8.69 18 6 15.31 6 12C6 8.69 8.69 6 12 6C15.31 6 18 8.69 18 12C18 15.31 15.31 18 12 18Z" fill="black"/>
<path fill-rule="evenodd" clip-rule="evenodd" d="M14.46 8.99C14.21 8.77 13.9 8.6 13.53 8.48C13.16 8.36 12.72 8.3 12.21 8.3H9.66V15.75H11.36V13.26H12.21C12.7 13.26 13.13 13.2 13.51 13.08C13.88 12.96 14.19 12.78 14.44 12.56C14.69 12.34 14.87 12.07 15 11.76C15.12 11.45 15.18 11.11 15.18 10.74C15.18 10.39 15.12 10.07 15 9.77C14.88 9.47 14.7 9.21 14.46 8.99ZM13.17 11.6C12.98 11.8 12.67 11.91 12.21 11.91H11.36V9.64H12.21C12.44 9.64 12.63 9.67 12.78 9.72C12.94 9.77 13.06 9.85 13.16 9.94C13.26 10.03 13.34 10.15 13.38 10.28C13.43 10.42 13.46 10.57 13.46 10.74C13.46 11.11 13.36 11.4 13.16 11.6H13.17Z" fill="black"/>
</svg>
