<svg width="24" height="24" viewBox="0 0 24 24" fill="none" xmlns="http://www.w3.org/2000/svg">
<path d="M16.6573 19.0659C16.0423 18.7811 15.4876 18.3813 15.0226 17.8882C14.5447 17.3787 14.1672 16.7834 13.9109 16.1335C13.6346 15.4466 13.4954 14.7134 13.4993 13.973C13.4784 12.7542 13.678 11.5406 14.0896 10.3933C15.6413 6.54174 18.5735 3.40793 22.3126 1.60198C22.6575 1.45199 22.8701 1.47201 22.9556 1.64299C22.9787 1.68544 22.9857 1.73511 22.9746 1.78214C22.9636 1.82918 22.9351 1.87017 22.8955 1.89786C20.9308 3.50051 19.4208 5.59037 18.516 7.95888C18.4365 8.19436 18.6738 8.22636 18.8163 8.25036C19.7565 8.42562 20.6543 8.77841 21.463 9.28885C21.7308 9.44958 21.9821 9.63659 22.213 9.84691C22.5764 10.1725 22.8932 10.5453 23.1548 10.9572C23.7085 11.8646 24.0014 12.9085 23.9999 13.9716C24.0036 14.7137 23.857 15.448 23.5693 16.132C23.2958 16.7786 22.9118 17.3723 22.4341 17.8868C21.956 18.386 21.384 18.7863 20.7512 19.0644C20.0983 19.351 19.393 19.4983 18.6801 19.4965C17.9829 19.5012 17.2921 19.3542 16.6573 19.0659ZM3.15838 19.0659C2.54205 18.7812 1.98599 18.3814 1.51936 17.8882C1.04334 17.3772 0.666156 16.7823 0.407632 16.1335C0.133116 15.4463 -0.00420445 14.713 0.00190354 13.973C-0.0219025 12.754 0.177737 11.5399 0.592187 10.3933C2.14213 6.54064 5.07489 3.40627 8.81515 1.60198C9.15562 1.45199 9.36681 1.47201 9.4523 1.64299C9.4754 1.68544 9.48241 1.73511 9.47134 1.78214C9.46027 1.82918 9.43185 1.87017 9.39225 1.89786C7.42754 3.50051 5.91755 5.59037 5.01272 7.95888C4.93923 8.19436 5.1705 8.22636 5.31299 8.25036C6.25561 8.42527 7.15577 8.77805 7.96707 9.28885C8.64535 9.71303 9.22041 10.2823 9.65004 10.9572C10.2037 11.8646 10.4966 12.9085 10.4952 13.9716C10.4989 14.7137 10.3523 15.448 10.0646 16.132C9.79325 16.7801 9.4085 17.3743 8.92793 17.8868C8.44452 18.395 7.86317 18.7995 7.2186 19.0761C6.57402 19.3528 5.87967 19.4962 5.17824 19.4965C4.48497 19.5007 3.79935 19.3537 3.16864 19.0659H3.15838Z" fill="black"/>
</svg>
