<svg width="24" height="24" viewBox="0 0 24 24" fill="none" xmlns="http://www.w3.org/2000/svg">
<path d="M16.164 21.996H7.831C7.29382 22.0116 6.77255 21.8136 6.38129 21.4452C5.99002 21.0768 5.76081 20.5683 5.74408 20.0311V7.61707H18.2499V20.0311C18.233 20.568 18.0037 21.0769 17.6127 21.4452C17.2217 21.8135 16.7009 22.0111 16.164 21.996ZM15.124 10.119C15.0422 10.119 14.9612 10.1346 14.8857 10.1659C14.8102 10.1972 14.7418 10.2428 14.684 10.3007C14.6263 10.3585 14.5805 10.4282 14.5493 10.5038C14.5181 10.5794 14.5018 10.6603 14.5019 10.7421V18.871C14.5004 18.9535 14.5157 19.0346 14.5463 19.1112C14.577 19.1878 14.6222 19.2575 14.6801 19.3163C14.738 19.3751 14.8075 19.4232 14.8837 19.455C14.9599 19.4867 15.0414 19.5021 15.124 19.5018C15.2063 19.5013 15.2878 19.485 15.3637 19.453C15.4396 19.421 15.5085 19.3749 15.5663 19.3163C15.6242 19.2577 15.6696 19.1875 15.7006 19.1112C15.7316 19.0349 15.7475 18.9533 15.747 18.871V10.7421C15.7462 10.5774 15.6802 10.4206 15.5634 10.3046C15.4466 10.1885 15.2886 10.1227 15.124 10.1229V10.119ZM11.998 10.119C11.9161 10.1189 11.8349 10.1346 11.7592 10.1659C11.6836 10.1972 11.6149 10.2428 11.5571 10.3007C11.4992 10.3585 11.4536 10.4281 11.4223 10.5038C11.391 10.5794 11.3748 10.6602 11.3749 10.7421V18.871C11.3743 18.9533 11.3899 19.0349 11.4208 19.1112C11.4518 19.1875 11.4977 19.2577 11.5556 19.3163C11.6135 19.3749 11.6823 19.4211 11.7582 19.453C11.8342 19.485 11.9156 19.5014 11.998 19.5018C12.0805 19.5021 12.162 19.4867 12.2382 19.455C12.3144 19.4232 12.3839 19.3751 12.4418 19.3163C12.4998 19.2575 12.545 19.1878 12.5756 19.1112C12.6063 19.0346 12.6215 18.9535 12.6201 18.871V10.7421C12.619 10.5777 12.553 10.4205 12.4365 10.3046C12.32 10.1886 12.1624 10.1232 11.998 10.1229V10.119ZM8.87201 10.119C8.70678 10.119 8.54842 10.1838 8.43158 10.3007C8.31475 10.4175 8.24896 10.5768 8.24896 10.7421V18.871C8.24844 18.9533 8.26433 19.0349 8.29535 19.1112C8.32637 19.1875 8.37178 19.2577 8.42963 19.3163C8.48748 19.3749 8.55639 19.421 8.63226 19.453C8.70814 19.485 8.78967 19.5013 8.87201 19.5018C8.95483 19.5018 9.03672 19.4847 9.11322 19.453C9.18972 19.4213 9.2593 19.3749 9.31781 19.3163C9.37633 19.2577 9.42293 19.1897 9.45453 19.1132C9.48613 19.0366 9.50203 18.9538 9.50189 18.871V10.7421C9.50005 10.5766 9.43294 10.4186 9.31488 10.3026C9.19682 10.1866 9.03752 10.1219 8.87201 10.1229V10.119ZM18.2509 6.37097H5.74506C5.41432 6.36991 5.0976 6.23812 4.8642 6.00378C4.6308 5.76945 4.49967 5.45171 4.49994 5.12097C4.49941 4.78997 4.63031 4.47287 4.86371 4.23816C5.09711 4.00345 5.41406 3.87034 5.74506 3.86902H8.24506L9.49799 1.99597H14.498L15.7421 3.86902H18.2421C18.5741 3.86928 18.8922 4.00147 19.1269 4.23621C19.3616 4.47094 19.4938 4.789 19.4941 5.12097C19.4944 5.45174 19.3637 5.76887 19.1308 6.00378C18.8979 6.2387 18.5817 6.37224 18.2509 6.37488V6.37097Z" fill="black"/>
</svg>
