<svg width="24" height="24" viewBox="0 0 24 24" fill="none" xmlns="http://www.w3.org/2000/svg">
<path d="M19.9992 3.99963H3.99961C3.47044 4.00122 2.96354 4.2128 2.59026 4.58787C2.21698 4.96295 2.00785 5.47086 2.00881 6.00003L1.99921 18C2.00079 18.5301 2.21205 19.038 2.58686 19.4128C2.96166 19.7876 3.46955 19.9988 3.99961 20.0004H19.9992C20.5293 19.9988 21.0371 19.7876 21.412 19.4128C21.7868 19.038 21.998 18.5301 21.9996 18V6.00003C21.998 5.46998 21.7868 4.96209 21.412 4.58729C21.0371 4.21248 20.5293 4.00122 19.9992 3.99963ZM19.9992 7.99923L11.9988 12.9996L3.99961 7.99923V6.00003L12 11.0004L19.9992 6.00003V7.99923Z" fill="black"/>
</svg>
