<svg width="24" height="24" viewBox="0 0 24 24" fill="none" xmlns="http://www.w3.org/2000/svg">
<path d="M18.6748 23.0007H16.4746C16.4085 22.9995 16.3457 22.9747 16.2958 22.9314C16.246 22.8881 16.2126 22.8287 16.2021 22.7634L15.997 21.3083C15.6621 21.1748 15.3481 20.9945 15.0634 20.7732L13.6962 21.3201C13.6644 21.3324 13.6298 21.3381 13.5957 21.3376C13.5468 21.3375 13.4989 21.3247 13.457 21.2996C13.4151 21.2744 13.3814 21.2382 13.3583 21.1951L12.2578 19.2947C12.2292 19.2363 12.2211 19.17 12.2333 19.1062C12.2456 19.0424 12.278 18.9848 12.3261 18.9412L13.4882 18.0359C13.4285 17.6805 13.431 17.3171 13.496 16.9626L12.3378 16.0583C12.2854 16.0186 12.2498 15.9608 12.2373 15.8962C12.2247 15.8316 12.2367 15.7642 12.2705 15.7078L13.3642 13.8083C13.3866 13.7648 13.4201 13.7275 13.4619 13.7019C13.5037 13.6763 13.5515 13.6629 13.6005 13.6628C13.6348 13.6632 13.6693 13.6705 13.7011 13.6833L15.0644 14.2302C15.3523 14.0128 15.6656 13.8317 15.998 13.6912L16.207 12.2351C16.2148 12.17 16.2459 12.1098 16.2949 12.0662C16.3439 12.0225 16.407 11.9981 16.4726 11.9978H18.6728C18.7394 11.9987 18.8038 12.0229 18.8544 12.0662C18.905 12.1095 18.9389 12.1695 18.9501 12.2351L19.1552 13.6912C19.4875 13.8292 19.7999 14.0105 20.0849 14.2302L21.4521 13.6833C21.484 13.6711 21.5175 13.6645 21.5517 13.6648C21.6011 13.6649 21.6498 13.6787 21.6923 13.7039C21.7349 13.729 21.77 13.7651 21.7939 13.8083L22.8935 15.7078C22.9248 15.7645 22.9362 15.8306 22.9248 15.8943C22.9133 15.958 22.8801 16.0161 22.831 16.0583L21.6679 16.9626C21.6948 17.141 21.707 17.3214 21.7041 17.5017C21.7057 17.6802 21.6948 17.8588 21.6718 18.0359L22.8222 18.9412C22.8744 18.982 22.9103 19.0401 22.9228 19.1052C22.9353 19.1703 22.923 19.2374 22.8896 19.2947L21.79 21.1951C21.7662 21.2382 21.7318 21.2744 21.6894 21.2996C21.647 21.3247 21.5981 21.3375 21.5488 21.3376C21.5145 21.3378 21.481 21.3318 21.4492 21.3191L20.0771 20.7722C19.7963 20.9945 19.4849 21.1739 19.1523 21.3064L18.9394 22.7625C18.9338 22.8282 18.9035 22.8901 18.8544 22.9343C18.8054 22.9785 18.7407 23.002 18.6748 23.0007ZM17.5751 15.4392C17.1681 15.4392 16.7701 15.5598 16.4316 15.7859C16.0931 16.012 15.8288 16.3327 15.6728 16.7087C15.5168 17.0847 15.4765 17.4989 15.5556 17.8982C15.6347 18.2975 15.8306 18.6648 16.1181 18.9529C16.4057 19.241 16.7717 19.4365 17.1708 19.5164C17.57 19.5963 17.984 19.5564 18.3603 19.4011C18.7366 19.2459 19.0584 18.9824 19.2851 18.6443C19.5118 18.3062 19.6329 17.9088 19.6337 17.5017C19.633 16.9567 19.4175 16.434 19.0332 16.0476C18.6488 15.6612 18.127 15.4429 17.582 15.4392H17.5751ZM11.1513 18.9255H2.99799C2.75364 18.9242 2.51955 18.8267 2.3476 18.6531C2.17566 18.4794 2.07994 18.2441 2.081 17.9998V2.99976C2.07994 2.7554 2.17566 2.52104 2.3476 2.34741C2.51955 2.17378 2.75364 2.0753 2.99799 2.07397H16.5048C16.7492 2.0753 16.9833 2.17378 17.1552 2.34741C17.3272 2.52104 17.4229 2.7554 17.4218 2.99976V10.9998C15.7103 11.0172 14.0752 11.7101 12.872 12.9275C11.6689 14.1449 10.9953 15.7881 10.998 17.4998C10.9989 17.9795 11.0505 18.4575 11.1513 18.9265V18.9255ZM4.79878 10.4949V14.4949H8.29878V12.9949H10.2988V7.99487H11.2988V9.48706H14.7988V5.49292H11.2988V6.99292H8.29878V5.49292H4.79878V9.48706H8.29878V7.99487H9.29878V11.989H8.29878V10.489L4.79878 10.4949Z" fill="black"/>
</svg>
