<svg width="24" height="24" viewBox="0 0 24 24" fill="none" xmlns="http://www.w3.org/2000/svg">
<path d="M16.0001 18C16.0001 17.6044 16.1183 17.2176 16.338 16.8887C16.5578 16.5598 16.8691 16.3037 17.2345 16.1523C17.6 16.001 18.0028 15.9619 18.3908 16.0391C18.7787 16.1162 19.1345 16.3062 19.4142 16.5859C19.6939 16.8656 19.8839 17.2214 19.9611 17.6094C20.0383 17.9973 19.9992 18.4002 19.8478 18.7656C19.6964 19.1311 19.4404 19.4423 19.1115 19.6621C18.7826 19.8819 18.3957 20 18.0001 20C17.4697 20 16.9612 19.7891 16.5861 19.4141C16.211 19.039 16.0001 18.5304 16.0001 18ZM10.0001 18C10.0001 17.6044 10.1183 17.2176 10.338 16.8887C10.5578 16.5598 10.8691 16.3037 11.2345 16.1523C11.6 16.001 12.0028 15.9619 12.3908 16.0391C12.7787 16.1162 13.1345 16.3062 13.4142 16.5859C13.6939 16.8656 13.8839 17.2214 13.9611 17.6094C14.0383 17.9973 13.9992 18.4002 13.8478 18.7656C13.6964 19.1311 13.4404 19.4423 13.1115 19.6621C12.7826 19.8819 12.3957 20 12.0001 20C11.4697 20 10.9612 19.7891 10.5861 19.4141C10.211 19.039 10.0001 18.5304 10.0001 18ZM4.00015 18C4.00015 17.6044 4.11828 17.2176 4.33804 16.8887C4.5578 16.5598 4.86907 16.3037 5.23452 16.1523C5.59998 16.001 6.00281 15.9619 6.39077 16.0391C6.77874 16.1162 7.13451 16.3062 7.41421 16.5859C7.69392 16.8656 7.88392 17.2214 7.96109 17.6094C8.03826 17.9973 7.99918 18.4002 7.84781 18.7656C7.69643 19.1311 7.44038 19.4423 7.11148 19.6621C6.78258 19.8819 6.39571 20 6.00015 20C5.46972 20 4.96116 19.7891 4.58609 19.4141C4.21101 19.039 4.00015 18.5304 4.00015 18ZM19.1681 10.8672C18.4385 10.1857 17.6141 9.61388 16.7209 9.16797C16.566 9.09371 16.4352 8.97556 16.3439 8.83008C16.2526 8.6846 16.2048 8.51747 16.2052 8.3457V5.50391C14.8479 5.05652 13.4273 4.83099 11.9982 4.83594C10.5668 4.83387 9.14412 5.05414 7.7814 5.49219V8.33594C7.7812 8.50732 7.73359 8.675 7.64273 8.82031C7.55186 8.96562 7.42172 9.08104 7.26773 9.15625C6.3811 9.60666 5.56029 10.18 4.83218 10.8574C4.74707 10.9415 4.64812 11.0078 4.53726 11.0527C4.4264 11.0977 4.30728 11.1202 4.18765 11.1191C4.06681 11.1189 3.94762 11.0953 3.83609 11.0488C3.72455 11.0023 3.62247 10.9333 3.53726 10.8477L1.26773 8.57812C1.18168 8.49532 1.11233 8.39545 1.06656 8.28516C1.02079 8.17486 0.999963 8.05689 1.0021 7.9375C1.00061 7.81686 1.02281 7.6976 1.06851 7.58594C1.1142 7.47427 1.18208 7.37209 1.26773 7.28711C4.1647 4.53698 8.0057 3.00391 12.0001 3.00391C15.9946 3.00391 19.8375 4.53698 22.7345 7.28711C22.8196 7.37253 22.8861 7.47438 22.9318 7.58594C22.9774 7.6975 23.0009 7.81696 23.0001 7.9375C23.0006 8.18075 22.9054 8.41474 22.7345 8.58789L20.4591 10.8574C20.3741 10.9431 20.272 11.0109 20.1603 11.0566C20.0486 11.1023 19.9294 11.1245 19.8087 11.123C19.5703 11.1223 19.3415 11.0309 19.1681 10.8672Z" fill="black"/>
</svg>
