<svg width="24" height="24" viewBox="0 0 24 24" fill="none" xmlns="http://www.w3.org/2000/svg">
<path d="M18.345 5.64401C16.9434 4.23809 15.1162 3.33503 13.1481 3.07545C11.1799 2.81587 9.18108 3.21433 7.46289 4.20879C5.74469 5.20325 4.40352 6.73791 3.64817 8.57383C2.89282 10.4097 2.76569 12.4439 3.28657 14.3596C3.80745 16.2753 4.94711 17.965 6.52811 19.1656C8.10911 20.3663 10.0427 21.0105 12.0279 20.998C14.0131 20.9855 15.9385 20.317 17.5042 19.0965C19.07 17.876 20.1883 16.1721 20.685 14.25H18.345C17.9319 15.416 17.2063 16.4459 16.2474 17.2273C15.2885 18.0087 14.1332 18.5115 12.9079 18.6806C11.6826 18.8498 10.4343 18.6788 9.29956 18.1864C8.16482 17.694 7.18728 16.8992 6.47379 15.8887C5.7603 14.8783 5.33832 13.6911 5.25398 12.4571C5.16964 11.223 5.42618 9.98945 5.99556 8.89133C6.56494 7.7932 7.42525 6.87274 8.48244 6.23054C9.53964 5.58835 10.753 5.24915 11.99 5.25001C12.8745 5.25116 13.7498 5.42863 14.5649 5.77203C15.3799 6.11544 16.1184 6.61789 16.737 7.25001L13.115 10.873H20.99V3.00001L18.345 5.64401Z" fill="black"/>
</svg>
