<svg width="24" height="24" viewBox="0 0 24 24" fill="none" xmlns="http://www.w3.org/2000/svg">
<path d="M12.0012 20.9992C10.2211 20.9992 8.48122 20.4706 7.00117 19.4816C5.52113 18.4927 4.36596 17.0871 3.68477 15.4426C3.00358 13.798 2.82578 11.9892 3.17305 10.2434C3.52032 8.49753 4.37922 6.89461 5.63789 5.63594C6.89656 4.37727 8.50144 3.52032 10.2473 3.17305C11.9931 2.82578 13.802 3.00358 15.4465 3.68477C17.091 4.36596 18.4966 5.51918 19.4855 6.99922C20.4745 8.47926 21.0012 10.2192 21.0012 11.9992C20.998 14.3852 20.0477 16.6734 18.3605 18.3605C16.6734 20.0477 14.3871 20.996 12.0012 20.9992ZM12.0012 5.99922C10.8145 5.99922 9.65584 6.35165 8.66914 7.01094C7.68245 7.67023 6.91233 8.60599 6.4582 9.70235C6.00408 10.7987 5.88685 12.0053 6.11836 13.1691C6.34987 14.333 6.91987 15.4023 7.75899 16.2414C8.5981 17.0805 9.66541 17.6525 10.8293 17.884C11.9932 18.1155 13.2017 17.9963 14.298 17.5422C15.3944 17.0881 16.3302 16.3199 16.9895 15.3332C17.6487 14.3465 18.0012 13.1859 18.0012 11.9992C18.0012 10.4079 17.3686 8.88225 16.2434 7.75703C15.1181 6.63181 13.5925 5.99922 12.0012 5.99922Z" fill="black"/>
</svg>
