<svg width="24" height="24" viewBox="0 0 24 24" fill="none" xmlns="http://www.w3.org/2000/svg">
<path fill-rule="evenodd" clip-rule="evenodd" d="M16.0027 2.94566C16.398 3.144 16.7781 3.37149 17.1397 3.62625C18.4121 4.52192 19.4332 5.72931 20.1051 7.13275L20.1303 7.18677C21.0061 8.99939 21.2287 11.0589 20.7605 13.0168C20.1535 14.9279 19.0581 16.6473 17.5826 18.0052C16.7936 18.8115 15.9926 19.6081 15.1915 20.4048C14.4534 21.139 13.7151 21.8732 12.9859 22.6154C12.969 22.6329 12.9487 22.6468 12.9263 22.6562C12.9038 22.6656 12.8797 22.6704 12.8554 22.6703C12.8076 22.6703 12.7618 22.6513 12.728 22.6175C12.6943 22.5838 12.6753 22.538 12.6753 22.4902V20.1262C12.6725 20.0785 12.651 20.034 12.6153 20.0022C12.5797 19.9705 12.533 19.9542 12.4853 19.9569L12.4781 19.9574C12.3942 19.9626 12.3127 19.9677 12.2252 19.9677C10.2686 20.0091 8.35065 19.4194 6.75522 18.286C5.3452 17.2739 4.25685 15.8767 3.62052 14.2619C3.58451 14.1683 3.5494 14.0737 3.51519 13.9783C3.37131 13.5721 3.25698 13.156 3.1731 12.7332C2.94265 11.5765 2.9423 10.3858 3.17206 9.22895C3.40181 8.07211 3.85719 6.97186 4.51217 5.99102C5.16716 5.01017 6.00892 4.16795 6.98941 3.51243C7.9699 2.85691 9.0699 2.40093 10.2266 2.17054H10.232C12.1884 1.78491 14.2174 2.05745 16.0027 2.94566ZM10.6478 7.85119V14.153C10.6478 14.5111 10.7902 14.8545 11.0434 15.1078C11.2967 15.361 11.6401 15.5034 11.9982 15.5034C12.3563 15.5034 12.6997 15.361 12.953 15.1078C13.2062 14.8545 13.3486 14.5111 13.3486 14.153V7.85119C13.3486 7.49305 13.2062 7.14967 12.953 6.89643C12.6997 6.64318 12.3563 6.50081 11.9982 6.50081C11.6401 6.50081 11.2967 6.64318 11.0434 6.89643C10.7902 7.14967 10.6478 7.49305 10.6478 7.85119ZM14.699 9.20158V12.8026C14.699 13.1607 14.8413 13.5041 15.0946 13.7574C15.3478 14.0106 15.6912 14.153 16.0494 14.153C16.4075 14.153 16.7509 14.0106 17.0041 13.7574C17.2574 13.5041 17.3997 13.1607 17.3997 12.8026V9.20158C17.3997 8.84343 17.2574 8.50006 17.0041 8.24681C16.7509 7.99357 16.4075 7.85119 16.0494 7.85119C15.6912 7.85119 15.3478 7.99357 15.0946 8.24681C14.8413 8.50006 14.699 8.84343 14.699 9.20158ZM6.59667 9.20158V12.8026C6.59667 13.1607 6.73904 13.5041 6.99229 13.7574C7.24553 14.0106 7.58891 14.153 7.94705 14.153C8.30519 14.153 8.64857 14.0106 8.90181 13.7574C9.15506 13.5041 9.29743 13.1607 9.29743 12.8026V9.20158C9.29743 8.84343 9.15506 8.50006 8.90181 8.24681C8.64857 7.99357 8.30519 7.85119 7.94705 7.85119C7.58891 7.85119 7.24553 7.99357 6.99229 8.24681C6.73904 8.50006 6.59667 8.84343 6.59667 9.20158Z" fill="black"/>
</svg>
