<svg width="24" height="24" viewBox="0 0 24 24" fill="none" xmlns="http://www.w3.org/2000/svg">
<path d="M9.23607 6L7.73607 3H16.2639L14.7639 6H9.23607Z" fill="black"/>
<path fill-rule="evenodd" clip-rule="evenodd" d="M7.72361 7.44721L5.65807 3.31613C4.67492 3.80866 4 4.82551 4 6V9C2.34315 9 1 10.3431 1 12C1 13.6569 2.34315 15 4 15V17C4 18.6569 5.34315 20 7 20H17C18.6569 20 20 18.6569 20 17V15C21.6569 15 23 13.6569 23 12C23 10.3431 21.6569 9 20 9V6C20 4.82551 19.3251 3.80866 18.3419 3.31613L16.2764 7.44721C16.107 7.786 15.7607 8 15.382 8H8.61803C8.23926 8 7.893 7.786 7.72361 7.44721ZM8.5 10C7.67157 10 7 10.6716 7 11.5C7 12.3284 7.67157 13 8.5 13C9.32843 13 10 12.3284 10 11.5C10 10.6716 9.32843 10 8.5 10ZM9 15C8.44772 15 8 15.4477 8 16C8 16.5523 8.44772 17 9 17H15C15.5523 17 16 16.5523 16 16C16 15.4477 15.5523 15 15 15H9ZM14 11.5C14 10.6716 14.6716 10 15.5 10C16.3284 10 17 10.6716 17 11.5C17 12.3284 16.3284 13 15.5 13C14.6716 13 14 12.3284 14 11.5Z" fill="black"/>
</svg>
