<svg width="24" height="24" viewBox="0 0 24 24" fill="none" xmlns="http://www.w3.org/2000/svg">
<path d="M13.399 21.4C12.2616 21.3993 11.1341 21.1874 10.074 20.775C8.9684 20.3438 7.964 19.6884 7.12402 18.85L8.72402 17.25C9.35828 17.8567 10.1059 18.3324 10.924 18.65C11.7287 18.9645 12.5851 19.1256 13.449 19.125C14.3608 19.1401 15.266 18.9682 16.1087 18.6199C16.9515 18.2716 17.7139 17.7544 18.349 17.1C19.0034 16.4649 19.5206 15.7025 19.8689 14.8597C20.2172 14.017 20.3891 13.1118 20.374 12.2C20.3891 11.2883 20.2172 10.3831 19.8689 9.54037C19.5206 8.69762 19.0034 7.93516 18.349 7.30005C17.7139 6.64571 16.9515 6.12845 16.1087 5.78017C15.266 5.43189 14.3608 5.25998 13.449 5.27505C12.5417 5.26155 11.6409 5.43178 10.8011 5.77549C9.96123 6.1192 9.19959 6.62929 8.56202 7.27505C7.8883 7.93813 7.35936 8.73368 7.00858 9.61148C6.65781 10.4893 6.49282 11.4303 6.52402 12.375L8.27402 10.6L9.74902 12.075L5.37402 16.45L0.999023 12.075L2.52402 10.6L4.24902 12.375C4.23967 11.1067 4.48201 9.84909 4.96202 8.67505C5.41371 7.56 6.08037 6.54472 6.92402 5.68705C7.77761 4.82683 8.79459 4.14598 9.91514 3.68454C11.0357 3.22309 12.2372 2.99037 13.449 3.00005C14.6697 2.99404 15.8784 3.24089 16.999 3.72505C18.0933 4.19328 19.0896 4.86327 19.936 5.70005C20.781 6.53779 21.4561 7.53102 21.924 8.62505C22.4025 9.75619 22.649 10.9719 22.649 12.2C22.649 13.4282 22.4025 14.6439 21.924 15.775C21.4561 16.8691 20.781 17.8623 19.936 18.7C19.0896 19.5368 18.0933 20.2068 16.999 20.675C15.8619 21.1626 14.6362 21.4094 13.399 21.4ZM16.199 16.45L12.399 12.65V7.20005H14.499V11.8L17.674 14.975L16.199 16.45Z" fill="black"/>
</svg>
