<svg width="24" height="24" viewBox="0 0 24 24" fill="none" xmlns="http://www.w3.org/2000/svg">
<path d="M21.8 7.23804C21.7075 6.47849 21.4349 5.75187 21.0049 5.1189C20.7509 4.84003 20.4423 4.61648 20.0983 4.46167C19.7543 4.30686 19.3822 4.2242 19.0049 4.21899C16.2049 4.00199 12.0049 4.00171 12.0049 4.00171H11.9951C11.9951 4.00171 7.79506 4.00199 4.99506 4.21899C4.61786 4.22426 4.24568 4.30687 3.90168 4.46167C3.55767 4.61647 3.24916 4.84008 2.99506 5.1189C2.56546 5.75203 2.29289 6.47857 2.20002 7.23804C2.07549 8.38462 2.00866 9.5364 1.99994 10.6897V12.3079C2.0086 13.4615 2.07542 14.6141 2.20002 15.761C2.29264 16.5199 2.56524 17.2454 2.99506 17.8777C3.589 18.4485 4.3764 18.7743 5.20002 18.7898C6.80002 18.9538 11.9999 19.0051 11.9999 19.0051C11.9999 19.0051 16.1999 18.997 18.9999 18.783C19.377 18.7769 19.7489 18.6941 20.0928 18.5393C20.4367 18.3846 20.7453 18.1612 20.9999 17.8831C21.4295 17.2503 21.7021 16.524 21.795 15.7649C21.9197 14.618 21.9865 13.4654 21.9951 12.3118V10.6951C21.9883 9.54019 21.9231 8.38635 21.8 7.23804ZM9.49994 15.2527V7.75269L15.752 11.5042L9.49994 15.2527Z" fill="black"/>
</svg>
