<svg width="24" height="24" viewBox="0 0 24 24" fill="none" xmlns="http://www.w3.org/2000/svg">
<path d="M3.00016 18V16H21.0002V18H3.00016ZM19.1701 12.8672C18.4397 12.1867 17.6154 11.615 16.7228 11.168C16.5681 11.0924 16.439 10.9741 16.3478 10.8281C16.2566 10.6821 16.2073 10.514 16.2072 10.3418V7.49805C14.8496 7.05156 13.4293 6.82544 12.0002 6.82812C10.5692 6.82731 9.14713 7.0508 7.78532 7.49023V10.3301C7.78444 10.5023 7.73581 10.6722 7.6447 10.8184C7.55359 10.9646 7.42395 11.0815 7.2697 11.1582C6.38011 11.6052 5.55889 12.1789 4.8322 12.8594C4.65746 13.027 4.42393 13.1198 4.18181 13.1172C3.93968 13.1146 3.70834 13.0171 3.53727 12.8457L1.26774 10.5742C1.18094 10.4915 1.11075 10.3919 1.06462 10.2812C1.01848 10.1706 0.99587 10.0515 0.998212 9.93164C0.997608 9.81065 1.02253 9.69199 1.06852 9.58008C1.11452 9.46817 1.18222 9.36489 1.26774 9.2793C4.16587 6.53143 8.00643 5 12.0002 5C15.9939 5 19.8364 6.53143 22.7345 9.2793C22.9043 9.45396 22.9993 9.68805 23.0002 9.93164C23.0012 10.175 22.9059 10.4092 22.7345 10.582L20.4631 12.8574C20.2885 13.0257 20.0551 13.1194 19.8127 13.1191C19.5742 13.1193 19.3449 13.0293 19.1701 12.8672Z" fill="black"/>
</svg>
