<svg width="24" height="24" viewBox="0 0 24 24" fill="none" xmlns="http://www.w3.org/2000/svg">
<path d="M0 11.9994C0 9.62621 0.704817 7.30612 2.02331 5.33286C3.34181 3.35959 5.21517 1.8214 7.40775 0.913208C9.60032 0.00501244 12.0133 -0.232361 14.3409 0.230633C16.6685 0.693627 18.8069 1.83648 20.4851 3.51461C22.1632 5.19274 23.3051 7.33113 23.7681 9.65876C24.2311 11.9864 23.9947 14.3984 23.0865 16.591C22.1783 18.7835 20.6401 20.6579 18.6668 21.9764C16.6935 23.2949 14.3725 23.9987 11.9993 23.9987C8.81808 23.9947 5.76875 22.7288 3.51931 20.4794C1.26988 18.2299 0.00396904 15.1806 0 11.9994ZM0.749954 11.9994C0.749558 14.2245 1.41045 16.3997 2.64632 18.25C3.88219 20.1004 5.63731 21.5424 7.69288 22.3943C9.74846 23.2462 12.012 23.4696 14.1944 23.0359C16.3769 22.6022 18.3802 21.531 19.9538 19.9579C21.5275 18.3848 22.5992 16.3808 23.0337 14.1985C23.4682 12.0163 23.2462 9.75382 22.3951 7.69794C21.544 5.64207 20.1027 3.88498 18.2528 2.64845C16.4029 1.41192 14.2283 0.751504 12.0032 0.751109C9.02062 0.754547 6.15989 1.94015 4.05053 4.04876C1.94117 6.15736 0.754452 9.01689 0.749954 11.9994ZM10.4994 17.4376C10.4994 17.1038 10.5971 16.7777 10.7825 16.5001C10.968 16.2226 11.2319 16.0069 11.5403 15.8791C11.8487 15.7513 12.1875 15.7174 12.5149 15.7824C12.8422 15.8475 13.1439 16.0083 13.38 16.2443C13.6161 16.4802 13.7777 16.7811 13.8429 17.1085C13.9081 17.4359 13.8748 17.7746 13.7472 18.083C13.6196 18.3915 13.4036 18.6552 13.1261 18.8408C12.8487 19.0264 12.5225 19.1258 12.1887 19.1259C11.7418 19.1241 11.3135 18.9458 10.9974 18.6299C10.6813 18.314 10.5015 17.8855 10.4994 17.4386V17.4376ZM10.8743 14.2513L10.4994 5.25181H13.8761L13.5011 14.2513H10.8743Z" fill="black"/>
</svg>
