<svg width="24" height="24" viewBox="0 0 24 24" fill="none" xmlns="http://www.w3.org/2000/svg">
<path d="M7.57948 4.07999L6.14998 2.65049C4.9285 3.57564 3.92598 4.75869 3.21378 6.11542C2.50158 7.47214 2.09722 8.96919 2.02948 10.5H4.02898C4.09987 9.23176 4.45594 7.99585 5.07067 6.8843C5.6854 5.77275 6.54295 4.81419 7.57948 4.07999ZM19.9695 10.5H21.969C21.8971 8.97023 21.4911 7.47476 20.7795 6.11867C20.0679 4.76259 19.068 3.5788 17.85 2.65049L16.4295 4.07999C17.4614 4.81791 18.315 5.77756 18.9276 6.8885C19.5402 7.99945 19.8962 9.23347 19.9695 10.5ZM18 10.9995C18.1009 9.58738 17.7069 8.18421 16.8857 7.031C16.0645 5.87779 14.8674 5.04652 13.5 4.67999V4.00049C13.5 3.60266 13.3419 3.22113 13.0606 2.93983C12.7793 2.65852 12.3978 2.50049 12 2.50049C11.6022 2.50049 11.2206 2.65852 10.9393 2.93983C10.658 3.22113 10.5 3.60266 10.5 4.00049V4.67999C9.13075 5.04341 7.93159 5.87392 7.10987 7.02789C6.28815 8.18185 5.89556 9.58671 5.99998 10.9995V16.0005L3.99898 18V19.0005H19.9995V18L18 16.0005V10.9995ZM12 21.999C12.1346 22.0009 12.269 21.9873 12.4005 21.9585C12.7173 21.8909 13.0133 21.7485 13.2639 21.5431C13.5144 21.3378 13.7121 21.0754 13.8405 20.778C13.9419 20.5306 13.9929 20.2654 13.9905 19.998H9.98998C9.99314 20.5294 10.2062 21.038 10.5826 21.4131C10.9591 21.7882 11.4686 21.9993 12 22.0005V21.999Z" fill="black"/>
</svg>
