<svg width="24" height="24" viewBox="0 0 24 24" fill="none" xmlns="http://www.w3.org/2000/svg">
<path d="M19 23H4.99414C4.46527 22.9976 3.95907 22.7859 3.58594 22.4111C3.21281 22.0363 3.00292 21.5289 3.00293 21L3.01465 3C3.01464 2.47181 3.22344 1.96552 3.5957 1.59082C3.96797 1.21612 4.47378 1.00343 5.00195 1H15.002L21.002 7V21C21.002 21.2628 20.9502 21.5228 20.8496 21.7656C20.749 22.0084 20.601 22.2293 20.415 22.415C20.2291 22.6008 20.0085 22.7482 19.7656 22.8486C19.5227 22.949 19.2628 23.0003 19 23ZM13.5 17L17.8301 18.5V11.5L13.499 13V12C13.499 11.8674 13.4463 11.7403 13.3525 11.6465C13.2588 11.5527 13.1316 11.5 12.999 11.5H6.99902C6.86642 11.5 6.73928 11.5527 6.64551 11.6465C6.55174 11.7403 6.49902 11.8674 6.49902 12V18C6.49902 18.1326 6.55174 18.2597 6.64551 18.3535C6.73928 18.4473 6.86642 18.5 6.99902 18.5H12.999C13.1316 18.5 13.2588 18.4473 13.3525 18.3535C13.4463 18.2597 13.499 18.1326 13.499 18V17H13.5ZM14 2.5V8H19.5L14 2.5Z" fill="black"/>
</svg>
