<svg width="16" height="16" viewBox="0 0 16 16" fill="none" xmlns="http://www.w3.org/2000/svg">
<g id="ico_0219_dashboard">
<path id="Vector" d="M11.7493 14.6667H10.5605C10.5153 14.6672 10.4713 14.6521 10.4355 14.6244C10.3998 14.5967 10.3746 14.5583 10.3639 14.5144L9.79101 12H6.21029L5.63672 14.5144C5.62605 14.5582 5.60068 14.5967 5.5651 14.6244C5.52952 14.6521 5.48585 14.6671 5.44075 14.6667H4.2513C4.22137 14.6667 4.19171 14.6601 4.16471 14.6472C4.13771 14.6343 4.11381 14.6152 4.09505 14.5918C4.07631 14.5682 4.06322 14.5405 4.05664 14.5111C4.05006 14.4817 4.05039 14.4513 4.05729 14.4219L4.61198 12H2.20117C2.14813 12 2.0974 11.979 2.0599 11.9414C2.02239 11.9039 2.0013 11.8532 2.0013 11.8002V4.19991C2.0013 4.14687 2.02239 4.09614 2.0599 4.05863C2.0974 4.02113 2.14813 4.00004 2.20117 4.00004H13.8014C13.8545 4.00004 13.9052 4.02113 13.9427 4.05863C13.9802 4.09614 14.0013 4.14687 14.0013 4.19991V11.8002C14.0013 11.8532 13.9802 11.9039 13.9427 11.9414C13.9052 11.979 13.8545 12 13.8014 12H11.3906L11.9447 14.4219C11.9516 14.4513 11.9519 14.4817 11.9453 14.5111C11.9387 14.5405 11.9256 14.5682 11.9069 14.5918C11.888 14.6153 11.8638 14.6342 11.8366 14.6472C11.8093 14.6601 11.7795 14.6669 11.7493 14.6667ZM10.334 6.66671V10.6667H11.6673V6.66671H10.334ZM8.33398 8.00004V10.6667H9.66732V8.00004H8.33398ZM6.33398 7.33337V10.6667H7.66341V7.33337H6.33398ZM4.33398 8.66671V10.6667H5.66732V8.66671H4.33398ZM4.33398 7.00004V7.66671H5.66732V7.00004H4.33398ZM8.33398 6.33337V7.00004H9.66732V6.33337H8.33398ZM6.33398 5.66671V6.33337H7.66341V5.66671H6.33398ZM10.334 5.00004V5.66671H11.6673V5.00004H10.334ZM14.4674 3.33337H1.53385C1.48081 3.33337 1.43009 3.31229 1.39258 3.27478C1.35507 3.23727 1.33398 3.18655 1.33398 3.1335V2.19991C1.33398 2.14687 1.35507 2.09614 1.39258 2.05863C1.43009 2.02113 1.48081 2.00004 1.53385 2.00004H6.66732V1.53324C6.66732 1.4802 6.6884 1.42948 6.72591 1.39197C6.76342 1.35446 6.81414 1.33337 6.86719 1.33337H9.13411C9.18716 1.33337 9.23788 1.35446 9.27539 1.39197C9.3129 1.42948 9.33398 1.4802 9.33398 1.53324V2.00004H14.4674C14.5205 2.00004 14.5712 2.02113 14.6087 2.05863C14.6462 2.09614 14.6673 2.14687 14.6673 2.19991V3.1335C14.6673 3.18655 14.6462 3.23727 14.6087 3.27478C14.5712 3.31229 14.5205 3.33337 14.4674 3.33337Z" fill="#808080"/>
</g>
</svg>
