<svg width="24" height="24" viewBox="0 0 24 24" fill="none" xmlns="http://www.w3.org/2000/svg">
<path d="M14.11 9.83C14.11 9.83 14.2 9.92 14.26 9.95C14.32 9.98 14.38 9.99 14.44 10C16.44 9.98 18.35 9.18 19.77 7.77C21.18 6.36 21.98 4.44 22 2.44C22 2.11 21.71 2 21.47 2H19.93C19.81 2 19.7 2.05 19.62 2.13C19.54 2.21 19.49 2.32 19.49 2.44C19.49 2.97 19.41 3.5 19.24 4.01C19.22 4.09 19.21 4.17 19.24 4.25C19.26 4.33 19.3 4.4 19.36 4.46L20.23 5.2C19.57 6.52 18.49 7.59 17.17 8.24L16.47 7.36C16.41 7.3 16.34 7.26 16.26 7.24C16.18 7.22 16.1 7.22 16.02 7.25C15.51 7.41 14.98 7.5 14.45 7.5C14.33 7.5 14.22 7.55 14.14 7.63C14.06 7.71 14.01 7.82 14.01 7.94V9.47C14.01 9.53 14.01 9.6 14.03 9.66C14.05 9.72 14.08 9.78 14.12 9.83H14.11Z" fill="black"/>
<path d="M17 15.5C17 14.12 15.88 13 14.5 13C13.12 13 12 14.12 12 15.5V16H9L9.88 22.14C9.95 22.63 10.37 23 10.87 23H18.14C18.64 23 19.06 22.63 19.13 22.14L20.01 16H17.01V15.5H17ZM16 16H13V15.5C13 14.67 13.67 14 14.5 14C15.33 14 16 14.67 16 15.5V16Z" fill="black"/>
<path d="M8 8C9.65685 8 11 6.65685 11 5C11 3.34315 9.65685 2 8 2C6.34315 2 5 3.34315 5 5C5 6.65685 6.34315 8 8 8Z" fill="black"/>
<path d="M11.04 14.5C11.26 12.99 12.43 11.79 13.93 11.55C13.65 10.7 12.62 10.06 11.42 9.63L10 12L8 11L6 12L4.58 9.63C3.18 10.13 2 10.92 2 12V23H8.5L7.5 14.5H11.04Z" fill="black"/>
<path d="M8 9C7.49 9 6.86 9.06 6.19 9.19L8 11L9.81 9.19C9.14 9.06 8.51 9 8 9Z" fill="black"/>
</svg>
