<svg width="24" height="24" viewBox="0 0 24 24" fill="none" xmlns="http://www.w3.org/2000/svg">
<path d="M16.4747 23C16.4087 22.9979 16.3467 22.9731 16.2969 22.9297C16.2472 22.8863 16.2123 22.8268 16.2012 22.7617L15.9962 21.3086C15.6622 21.1727 15.3484 20.9932 15.0626 20.7734L13.6934 21.3174C13.6644 21.3304 13.6334 21.337 13.6016 21.3379C13.5527 21.3381 13.5049 21.325 13.463 21.2998C13.421 21.2746 13.3862 21.2386 13.3633 21.1953L12.2637 19.2949C12.2342 19.2371 12.2244 19.1713 12.2364 19.1074C12.2483 19.0436 12.2817 18.9857 12.3301 18.9424L13.4903 18.0342C13.4305 17.6794 13.433 17.3167 13.4981 16.9629L12.3438 16.0576C12.2909 16.0179 12.2555 15.9604 12.2422 15.8955C12.229 15.8307 12.2385 15.7634 12.2715 15.7061L13.3712 13.8057C13.3927 13.7622 13.4274 13.7255 13.4688 13.7002C13.5102 13.6749 13.557 13.6624 13.6055 13.6631C13.6396 13.6625 13.6732 13.6678 13.7051 13.6797L15.0704 14.2285C15.3583 14.0108 15.6736 13.8304 16.0059 13.6895L16.2149 12.2324C16.2234 12.1678 16.2539 12.1085 16.3028 12.0654C16.3517 12.0224 16.4154 11.9982 16.4805 11.998H18.6798C18.7464 11.9985 18.8121 12.0218 18.8633 12.0645C18.9146 12.1071 18.9485 12.1669 18.961 12.2324L19.1661 13.6895C19.4982 13.8284 19.8105 14.009 20.0958 14.2285L21.4649 13.6797C21.4941 13.6679 21.5252 13.6625 21.5567 13.6631C21.6062 13.6631 21.6548 13.676 21.6973 13.7012C21.7399 13.7263 21.7751 13.7623 21.7989 13.8057L22.8985 15.7061C22.9298 15.7632 22.9414 15.8295 22.9298 15.8936C22.9181 15.9576 22.8835 16.0152 22.834 16.0576L21.6739 16.9629C21.7031 17.1413 21.7136 17.3222 21.709 17.5029C21.7125 17.6805 21.7032 17.8584 21.6778 18.0342L22.8262 18.9424C22.879 18.9826 22.9156 19.0403 22.9278 19.1055C22.94 19.1707 22.9273 19.2383 22.8926 19.2949L21.793 21.1953C21.769 21.2376 21.7351 21.2728 21.6934 21.2979C21.6517 21.3229 21.6034 21.3365 21.5548 21.3379C21.5203 21.3377 21.4867 21.3311 21.4551 21.3174L20.0821 20.7734C19.7999 20.9943 19.4884 21.1739 19.1563 21.3086L18.9434 22.7617C18.9383 22.8284 18.9075 22.8911 18.8575 22.9355C18.8075 22.9799 18.7426 23.0028 18.6758 23H16.4747ZM15.5157 17.5C15.5165 17.9073 15.6384 18.3053 15.8653 18.6436C16.0922 18.9818 16.4145 19.2451 16.7911 19.4004C17.1676 19.5557 17.5812 19.5956 17.9805 19.5156C18.3799 19.4356 18.7476 19.2395 19.0352 18.9512C19.3229 18.6628 19.5187 18.2951 19.5977 17.8955C19.6768 17.496 19.6348 17.0822 19.4786 16.7061C19.3224 16.3299 19.0576 16.0083 18.7188 15.7822C18.38 15.5562 17.9816 15.4353 17.5743 15.4355C17.0276 15.4363 16.5034 15.6549 16.1172 16.042C15.7311 16.429 15.5152 16.9533 15.5157 17.5ZM3.75397 19.3711C3.29 19.3706 2.84571 19.1855 2.51764 18.8574C2.18957 18.5293 2.0045 18.0851 2.00397 17.6211V8.875C2.00344 8.41025 2.18753 7.96386 2.51569 7.63477C2.84385 7.30567 3.28922 7.12091 3.75397 7.12012H4.62897V5.37012C4.62897 4.21086 5.0905 3.09902 5.91022 2.2793C6.72994 1.45958 7.8408 0.999023 9.00006 0.999023C10.1593 0.999023 11.2702 1.45958 12.0899 2.2793C12.9096 3.09902 13.3712 4.21086 13.3712 5.37012V7.12012H14.2462C14.7114 7.12065 15.1575 7.30573 15.4864 7.63477C15.8152 7.96381 15.9998 8.4098 16.0001 8.875V11.1689C14.5734 11.5012 13.301 12.3078 12.3926 13.457C11.4843 14.6063 10.9938 16.0303 11.0001 17.4951C11.0016 18.1299 11.0914 18.7613 11.2676 19.3711H3.75397ZM7.25397 13.2461C7.25357 13.5918 7.35519 13.9301 7.54694 14.2178C7.73868 14.5055 8.01284 14.7296 8.33209 14.8623C8.65135 14.995 9.0027 15.0299 9.34186 14.9629C9.68101 14.8958 9.99165 14.7295 10.2364 14.4854C10.4811 14.2412 10.649 13.9298 10.7169 13.5908C10.7847 13.2518 10.7492 12.9006 10.6172 12.5811C10.4853 12.2615 10.2619 11.9883 9.97467 11.7959C9.68743 11.6035 9.34969 11.5004 9.00397 11.5C8.53948 11.4995 8.0946 11.6837 7.76569 12.0117C7.43678 12.3397 7.25086 12.7845 7.25006 13.249L7.25397 13.2461ZM6.29108 5.37012V7.12012H11.713V5.37012C11.713 5.0141 11.6422 4.66192 11.5059 4.33301C11.3697 4.00409 11.1698 3.70486 10.918 3.45312C10.6663 3.20139 10.368 3.00148 10.0391 2.86523C9.71021 2.72899 9.35803 2.65918 9.00202 2.65918C8.646 2.65918 8.29382 2.72899 7.96491 2.86523C7.63599 3.00148 7.33774 3.20139 7.086 3.45312C6.83426 3.70486 6.63435 4.00409 6.49811 4.33301C6.36187 4.66192 6.29108 5.0141 6.29108 5.37012Z" fill="black"/>
</svg>
