<svg width="24" height="24" viewBox="0 0 24 24" fill="none" xmlns="http://www.w3.org/2000/svg">
<path d="M20.01 15.38C18.81 15.38 17.62 15.19 16.48 14.82C16.31 14.76 16.12 14.75 15.94 14.79C15.76 14.83 15.6 14.92 15.47 15.06L13.9 17.03C10.92 15.57 8.5 13.17 7.01 10.2L8.96 8.54C9.09 8.41 9.18 8.24 9.22 8.06C9.26 7.88 9.26 7.69 9.2 7.52C8.82 6.38 8.64 5.19 8.64 3.99C8.64 3.73 8.53 3.48 8.35 3.29C8.16 3.1 7.91 3 7.65 3H4.19C3.65 3 3 3.24 3 3.99C3.04 8.49 4.84 12.79 8.02 15.98C11.2 19.16 15.51 20.97 20.01 21C20.15 21 20.3 20.96 20.43 20.89C20.56 20.83 20.67 20.74 20.77 20.62C20.86 20.51 20.93 20.38 20.97 20.24C21.01 20.1 21.02 19.96 21 19.81V16.36C21 16.1 20.89 15.85 20.71 15.66C20.52 15.47 20.27 15.37 20.01 15.37V15.38Z" fill="black"/>
<path d="M20.53 3.47C19.6 2.53 18.33 2 17 2C16.01 2 15.04 2.29 14.22 2.84C13.4 3.39 12.76 4.17 12.38 5.08C12 5.99 11.9 7 12.09 7.97C12.28 8.94 12.76 9.83 13.46 10.53C14.16 11.23 15.05 11.71 16.02 11.9C16.99 12.09 17.99 11.99 18.91 11.62C19.82 11.24 20.6 10.6 21.15 9.78C21.7 8.96 21.99 7.99 21.99 7C21.99 5.67 21.46 4.4 20.52 3.47H20.53ZM17.7 10.21C17.51 10.4 17.26 10.5 16.99 10.5C16.79 10.5 16.6 10.44 16.43 10.33C16.27 10.22 16.14 10.06 16.06 9.88C15.98 9.7 15.96 9.5 16 9.3C16.04 9.11 16.13 8.93 16.27 8.79C16.41 8.65 16.59 8.55 16.78 8.52C16.97 8.48 17.18 8.5 17.36 8.58C17.54 8.66 17.7 8.78 17.81 8.95C17.92 9.11 17.98 9.31 17.98 9.51C17.98 9.78 17.87 10.03 17.69 10.22L17.7 10.21ZM17.77 8H16.21L15.99 3.5H17.99L17.77 8Z" fill="black"/>
</svg>
