<svg width="24" height="24" viewBox="0 0 24 24" fill="none" xmlns="http://www.w3.org/2000/svg">
<path d="M4 21C3.73478 21 3.48051 20.8946 3.29297 20.707C3.10543 20.5195 3 20.2652 3 20V18C3 17.7348 3.10543 17.4805 3.29297 17.293C3.48051 17.1054 3.73478 17 4 17H20C20.2652 17 20.5195 17.1054 20.707 17.293C20.8946 17.4805 21 17.7348 21 18V20C21 20.2652 20.8946 20.5195 20.707 20.707C20.5195 20.8946 20.2652 21 20 21H4ZM4 16C3.73478 16 3.48051 15.8946 3.29297 15.707C3.10543 15.5195 3 15.2652 3 15V13C3 12.7348 3.10543 12.4805 3.29297 12.293C3.48051 12.1054 3.73478 12 4 12H20C20.2652 12 20.5195 12.1054 20.707 12.293C20.8946 12.4805 21 12.7348 21 13V15C21 15.2652 20.8946 15.5195 20.707 15.707C20.5195 15.8946 20.2652 16 20 16H4ZM4 11C3.73617 10.9979 3.48464 10.8914 3.29883 10.7041C3.11302 10.5168 3.0078 10.2638 3.00781 10V4C3.0078 3.73616 3.11302 3.48321 3.29883 3.2959C3.48464 3.10859 3.73617 3.00211 4 3H20C20.2658 3 20.5205 3.1056 20.709 3.29297C20.8975 3.48033 21.0043 3.73423 21.0059 4V10C21.0059 10.1318 20.9803 10.2621 20.9297 10.3838C20.8791 10.5055 20.8044 10.616 20.7109 10.709C20.6174 10.8019 20.5068 10.8759 20.3848 10.9258C20.2627 10.9757 20.1318 11.0008 20 11H4ZM5 9H19V5H5V9Z" fill="black"/>
</svg>
