<svg width="24" height="24" viewBox="0 0 24 24" fill="none" xmlns="http://www.w3.org/2000/svg">
<path d="M12 1C9.8244 1 7.69767 1.64513 5.88873 2.85382C4.07979 4.06252 2.6699 5.78051 1.83734 7.7905C1.00478 9.80048 0.786926 12.0122 1.21136 14.146C1.6358 16.2798 2.68342 18.2398 4.2218 19.7782C5.76018 21.3165 7.72021 22.3642 9.854 22.7886C11.9878 23.2131 14.1995 22.9953 16.2095 22.1627C18.2195 21.3301 19.9375 19.9202 21.1462 18.1113C22.3549 16.3023 23 14.1756 23 12C23 9.08262 21.8411 6.28473 19.7782 4.22183C17.7153 2.15893 14.9174 1 12 1ZM12 4.29999C12.6527 4.29999 13.2907 4.49353 13.8334 4.85614C14.3761 5.21875 14.7991 5.73416 15.0488 6.33716C15.2986 6.94015 15.3639 7.60367 15.2366 8.2438C15.1092 8.88394 14.7949 9.47193 14.3334 9.93344C13.8719 10.395 13.2839 10.7092 12.6438 10.8366C12.0037 10.9639 11.3401 10.8986 10.7371 10.6488C10.1341 10.399 9.61877 9.97606 9.25616 9.43338C8.89355 8.8907 8.70001 8.25268 8.70001 7.60001C8.70001 6.72479 9.04769 5.88541 9.66656 5.26654C10.2854 4.64767 11.1248 4.29999 12 4.29999ZM17.768 17.532C17.0234 18.312 16.1283 18.9329 15.1369 19.3571C14.1455 19.7814 13.0784 20.0001 12 20.0001C10.9216 20.0001 9.85451 19.7814 8.8631 19.3571C7.87168 18.9329 6.97658 18.312 6.23199 17.532C6.05384 17.3477 5.91559 17.1287 5.8258 16.8887C5.73602 16.6486 5.69663 16.3926 5.71014 16.1367C5.72365 15.8807 5.78974 15.6303 5.9043 15.401C6.01885 15.1717 6.17942 14.9685 6.37598 14.804C7.99548 13.5801 9.97005 12.9179 12 12.9179C14.03 12.9179 16.0045 13.5801 17.624 14.804C17.8206 14.9685 17.9811 15.1717 18.0957 15.401C18.2103 15.6303 18.2763 15.8807 18.2899 16.1367C18.3034 16.3926 18.264 16.6486 18.1742 16.8887C18.0844 17.1287 17.9462 17.3477 17.768 17.532Z" fill="black"/>
</svg>
