<svg width="24" height="24" viewBox="0 0 24 24" fill="none" xmlns="http://www.w3.org/2000/svg">
<path d="M13.7119 18.5782C15.7473 18.1674 17.5715 17.0479 18.8593 15.419L20.9931 19.9952L17.8466 20.3555L15.5547 22.5303L13.7119 18.5782ZM6.04587 20.3555L2.90329 19.9952L5.07809 15.3302C6.34421 16.981 8.15828 18.1262 10.1933 18.5587L8.34079 22.5313L6.04587 20.3555ZM4.74606 10.0011C4.74567 8.56677 5.17017 7.16546 5.96677 5.97273C6.76336 4.78 7.89662 3.84992 9.22165 3.30086C10.5467 2.7518 12.0044 2.60805 13.4111 2.88777C14.8178 3.16749 16.1098 3.85796 17.124 4.87215C18.1382 5.88634 18.8287 7.17829 19.1084 8.58504C19.3881 9.99178 19.2443 11.4504 18.6953 12.7755C18.1462 14.1005 17.2171 15.2328 16.0244 16.0294C14.8317 16.826 13.4294 17.2505 11.9951 17.2501C10.074 17.2466 8.23206 16.4819 6.87399 15.1231C5.51592 13.7643 4.75235 11.9222 4.74997 10.0011H4.74606ZM14.959 14.2012L14.3974 10.9093L16.791 8.58015L13.4912 8.09969L12.0088 5.09969L10.5351 8.09969L7.22556 8.58015L9.62009 10.9093L9.0527 14.2012L12.0088 12.6466L14.959 14.2012Z" fill="black"/>
</svg>
