<svg width="24" height="24" viewBox="0 0 24 24" fill="none" xmlns="http://www.w3.org/2000/svg">
<path fill-rule="evenodd" clip-rule="evenodd" d="M17.67 13.63C17.55 13.55 17.4 13.5 17.25 13.5C17.05 13.5 16.86 13.58 16.72 13.72C16.58 13.86 16.5 14.05 16.5 14.25C16.5 14.4 16.54 14.54 16.63 14.67C16.72 14.8 16.83 14.89 16.97 14.95C17.11 15.01 17.26 15.02 17.4 14.99C17.55 14.96 17.68 14.89 17.78 14.78C17.88 14.67 17.96 14.54 17.99 14.4C18.02 14.25 18 14.1 17.95 13.97C17.89 13.83 17.8 13.72 17.67 13.63Z" fill="black"/>
<path fill-rule="evenodd" clip-rule="evenodd" d="M12.46 10.45C12.6 10.51 12.75 10.52 12.89 10.49C13.04 10.46 13.17 10.39 13.27 10.28C13.37 10.18 13.45 10.04 13.48 9.9C13.51 9.75 13.49 9.6 13.44 9.47C13.38 9.33 13.29 9.22 13.16 9.13C13.04 9.05 12.89 9 12.74 9C12.64 9 12.54 9.02 12.45 9.06C12.36 9.1 12.28 9.15 12.21 9.22C12.14 9.29 12.09 9.37 12.05 9.46C12.01 9.55 11.99 9.65 11.99 9.75C11.99 9.9 12.03 10.04 12.12 10.17C12.2 10.29 12.32 10.39 12.46 10.45Z" fill="black"/>
<path fill-rule="evenodd" clip-rule="evenodd" d="M22 4H8.08L6.03 6.05L3.97 4H2C1.45 4 1 4.45 1 5V19C1 19.55 1.45 20 2 20H4.03L6.03 18L8.03 20H22C22.55 20 23 19.55 23 19V5C23 4.45 22.55 4 22 4ZM6.5 16H5.5V14H6.5V16ZM6.5 13H5.5V11H6.5V13ZM6.5 10H5.5V8H6.5V10ZM11 9.75C11 9.4 11.1 9.07 11.29 8.78C11.48 8.49 11.76 8.27 12.07 8.14C12.38 8.01 12.74 7.97 13.08 8.04C13.42 8.11 13.73 8.27 13.98 8.52C14.22 8.76 14.39 9.08 14.46 9.42C14.53 9.76 14.49 10.11 14.36 10.43C14.23 10.75 14 11.02 13.72 11.21C13.43 11.4 13.09 11.5 12.75 11.5C12.29 11.5 11.84 11.31 11.51 10.99C11.18 10.66 11 10.22 11 9.75ZM18.87 14.92C18.74 15.24 18.51 15.51 18.23 15.7C17.94 15.89 17.6 15.99 17.26 15.99C16.8 15.99 16.35 15.8 16.02 15.48C15.69 15.15 15.51 14.71 15.51 14.24C15.51 13.89 15.61 13.56 15.8 13.27C15.99 12.98 16.27 12.76 16.59 12.63C16.91 12.5 17.26 12.46 17.6 12.53C17.94 12.6 18.25 12.76 18.5 13.01C18.74 13.25 18.91 13.57 18.98 13.91C19.05 14.25 19.01 14.6 18.88 14.92H18.87ZM11.71 16L11 15.29L18.29 8L19 8.71L11.71 16Z" fill="black"/>
</svg>
