<svg width="24" height="24" viewBox="0 0 24 24" fill="none" xmlns="http://www.w3.org/2000/svg">
<path d="M21.002 19.999H3.00201C2.47158 19.999 1.96302 19.7882 1.58795 19.4131C1.21288 19.038 1.00201 18.5295 1.00201 17.999V5.99902C1.00201 5.46859 1.21288 4.96003 1.58795 4.58496C1.96302 4.20989 2.47158 3.99902 3.00201 3.99902H21.002C21.5324 3.99902 22.041 4.20989 22.4161 4.58496C22.7911 4.96003 23.002 5.46859 23.002 5.99902V17.999C23.002 18.5295 22.7911 19.038 22.4161 19.4131C22.041 19.7882 21.5324 19.999 21.002 19.999ZM7.00201 12.999C6.04438 13.0012 5.09721 13.2003 4.21979 13.584C3.85693 13.7389 3.54756 13.9969 3.33014 14.3262C3.11272 14.6554 2.99716 15.041 2.99713 15.4355V16.0039H10.9971V15.4355C10.9975 15.0416 10.8826 14.6563 10.6661 14.3271C10.4496 13.998 10.1413 13.7397 9.77936 13.584C8.90359 13.2007 7.958 13.0016 7.00201 12.999ZM12.9962 14.4043V16.0039H17.9962V14.4043H12.9962ZM12.9962 11.2041V12.8037H17.9962V11.2041H12.9962ZM7.00201 8.00391C6.6062 8.00272 6.2194 8.11885 5.88971 8.33789C5.56002 8.55693 5.30275 8.86903 5.15045 9.23438C4.99816 9.59972 4.95677 10.0023 5.03326 10.3906C5.10976 10.779 5.30067 11.1357 5.58014 11.416C5.8596 11.6963 6.21545 11.8872 6.60358 11.9648C6.9917 12.0425 7.39402 12.0037 7.75983 11.8525C8.12563 11.7013 8.43823 11.4452 8.65826 11.1162C8.87829 10.7872 8.99615 10.3997 8.99615 10.0039C8.99748 9.47365 8.78804 8.96485 8.41412 8.58887C8.0402 8.21288 7.53227 8.00061 7.00201 7.99902V8.00391ZM12.9962 8.00391V9.60449H20.9962V8.00391H12.9962Z" fill="black"/>
</svg>
