<svg width="24" height="24" viewBox="0 0 24 24" fill="none" xmlns="http://www.w3.org/2000/svg">
<path d="M16.5 12C16.4998 11.1621 16.2657 10.3409 15.824 9.62894C15.3823 8.91694 14.7506 8.34239 14 7.97V10.18L16.45 12.63C16.4823 12.4215 16.4991 12.211 16.5 12ZM19 12C18.9968 12.9071 18.8132 13.8045 18.46 14.64L19.97 16.15C20.6493 14.8724 21.0031 13.447 21 12C20.9989 9.9615 20.3057 7.98376 19.0341 6.39054C17.7624 4.79732 15.9875 3.683 14 3.23V5.29C15.4445 5.7215 16.7112 6.6075 17.612 7.81636C18.5128 9.02522 18.9996 10.4924 19 12ZM4.27 3L3 4.27L7.73 9H3V15H7L12 20V13.27L16.25 17.52C15.5792 18.0487 14.8164 18.4488 14 18.7V20.76C15.3533 20.4497 16.6163 19.8302 17.69 18.95L19.73 21L21 19.73L12 10.73L4.27 3ZM12 4L9.91 6.09L12 8.18V4Z" fill="black"/>
</svg>
