<svg width="24" height="24" viewBox="0 0 24 24" fill="none" xmlns="http://www.w3.org/2000/svg">
<path d="M7 14.0001C6.20435 14.0001 5.44129 14.3161 4.87868 14.8787C4.31607 15.4413 4 16.2044 4 17.0001C3.9925 17.5282 3.77938 18.0325 3.40592 18.406C3.03246 18.7794 2.5281 18.9926 2 19.0001C2.47469 19.6114 3.08049 20.1084 3.77275 20.4546C4.46502 20.8007 5.22613 20.9871 6 21.0001C7.06087 21.0001 8.07828 20.5786 8.82843 19.8285C9.57857 19.0783 10 18.0609 10 17.0001C10 16.2044 9.68393 15.4413 9.12132 14.8787C8.55871 14.3161 7.79565 14.0001 7 14.0001ZM20.71 4.63006L19.37 3.29006C19.1826 3.10381 18.9292 2.99927 18.665 2.99927C18.4008 2.99927 18.1474 3.10381 17.96 3.29006L9 12.2501L11.75 15.0001L20.71 6.04006C20.8962 5.8527 21.0008 5.59925 21.0008 5.33506C21.0008 5.07087 20.8962 4.81742 20.71 4.63006Z" fill="black"/>
</svg>
