<svg width="24" height="24" viewBox="0 0 24 24" fill="none" xmlns="http://www.w3.org/2000/svg">
<path d="M9.5 1C5.36 1 2 4.36 2 8.5C2 10.81 3.04 12.87 4.68 14.25L10.83 12.01H10.46L9.81 8.57H8.99L8.34 12.01H6.72L6.02 8.57H4.9V7.44H5.79L5.09 4H6.62L7.2 7.44H8.03L8.7 4H10.09L10.76 7.44H11.59L12.17 4H13.7L13 7.44H13.89V8.57H12.77L12.17 11.51L14.95 10.5H16.7C16.88 9.86 16.97 9.19 16.97 8.5C17 4.36 13.64 1 9.5 1Z" fill="black"/>
<path d="M23 12H19V23H23V12Z" fill="black"/>
<path d="M7.77 14.71C7.31 14.89 7 15.33 7 15.82C7 16.47 7.53 17 8.18 17H11L12.76 16.33L13.09 17.27L11 18H4C2.89 18 2.01 18.9 2 20L10 23L17 21.02V12H15.03L7.77 14.71Z" fill="black"/>
</svg>
