<svg width="24" height="24" viewBox="0 0 24 24" fill="none" xmlns="http://www.w3.org/2000/svg">
<path d="M16.5 3.00002C15.6441 3.00654 14.7996 3.19647 14.0233 3.557C13.2471 3.91753 12.5571 4.44028 12 5.09002C11.4428 4.44028 10.7529 3.91753 9.97664 3.557C9.20038 3.19647 8.35586 3.00654 7.49999 3.00002C6.77575 2.99293 6.05737 3.13036 5.38688 3.40425C4.71639 3.67815 4.10725 4.08301 3.59511 4.59515C3.08298 5.10728 2.67812 5.71642 2.40422 6.38691C2.13033 7.0574 1.9929 7.77578 1.99999 8.50002C1.99999 12.28 5.39999 15.36 10.55 20.04L12 21.35L13.45 20.03C18.6 15.36 22 12.28 22 8.50002C22.0071 7.77578 21.8696 7.0574 21.5957 6.38691C21.3219 5.71642 20.917 5.10728 20.4049 4.59515C19.8927 4.08301 19.2836 3.67815 18.6131 3.40425C17.9426 3.13036 17.2242 2.99293 16.5 3.00002ZM12.1 18.55L12 18.65L11.9 18.55C7.13999 14.24 3.99999 11.39 3.99999 8.50002C3.98875 8.03732 4.07159 7.57716 4.24351 7.14744C4.41542 6.71772 4.67281 6.32739 5.00009 6.00012C5.32736 5.67285 5.71769 5.41545 6.14741 5.24354C6.57713 5.07162 7.03729 4.98878 7.49999 5.00002C8.26006 5.00371 9.00257 5.22892 9.63663 5.64808C10.2707 6.06723 10.7688 6.66215 11.07 7.36002H12.94C13.2379 6.66187 13.7339 6.06631 14.3666 5.64689C14.9992 5.22748 15.7409 5.00259 16.5 5.00002C16.9627 4.98878 17.4228 5.07162 17.8526 5.24354C18.2823 5.41545 18.6726 5.67285 18.9999 6.00012C19.3272 6.32739 19.5846 6.71772 19.7565 7.14744C19.9284 7.57716 20.0112 8.03732 20 8.50002C20 11.39 16.86 14.24 12.1 18.55Z" fill="black"/>
</svg>
