<svg width="24" height="24" viewBox="0 0 24 24" fill="none" xmlns="http://www.w3.org/2000/svg">
<path fill-rule="evenodd" clip-rule="evenodd" d="M17 15.5C17 14.12 15.88 13 14.5 13C13.12 13 12 14.12 12 15.5V16H9L9.88 22.14C9.95 22.63 10.37 23 10.87 23H18.14C18.64 23 19.06 22.63 19.13 22.14L20.01 16H17.01V15.5H17ZM16 16H13V15.5C13 14.67 13.67 14 14.5 14C15.33 14 16 14.67 16 15.5V16Z" fill="black"/>
<path d="M8 8C9.65685 8 11 6.65685 11 5C11 3.34315 9.65685 2 8 2C6.34315 2 5 3.34315 5 5C5 6.65685 6.34315 8 8 8Z" fill="black"/>
<path fill-rule="evenodd" clip-rule="evenodd" d="M11.04 14.5C11.26 12.99 12.43 11.79 13.93 11.55C13.65 10.7 12.62 10.06 11.42 9.63L10 12L8 11L6 12L4.58 9.63C3.18 10.13 2 10.92 2 12V23H8.5L7.5 14.5H11.04Z" fill="black"/>
<path fill-rule="evenodd" clip-rule="evenodd" d="M8 9C7.49 9 6.86 9.06 6.19 9.19L8 11L9.81 9.19C9.14 9.06 8.51 9 8 9Z" fill="black"/>
<path fill-rule="evenodd" clip-rule="evenodd" d="M21.64 2.33C21.41 2.12 21.1 2 20.77 2H15.23C14.9 2 14.59 2.12 14.36 2.33C14.13 2.54 14 2.83 14 3.12V8.72C14 8.77 14.02 8.82 14.05 8.87C14.08 8.91 14.13 8.95 14.18 8.97C14.22 8.99 14.26 9 14.31 8.99C14.38 8.99 14.45 8.97 14.51 8.93L16.27 7.59H20.78C21.11 7.59 21.42 7.47 21.65 7.26C21.88 7.05 22.01 6.77 22.01 6.47V3.12C22.01 2.82 21.88 2.54 21.65 2.33H21.64ZM19.5 6.2H15.5V5.2H19.5V6.2ZM20.5 4.2H15.5V3.2H20.5V4.2Z" fill="black"/>
</svg>
