<svg width="24" height="24" viewBox="0 0 24 24" fill="none" xmlns="http://www.w3.org/2000/svg">
<path d="M17 3V5H18.59L16 7.59L12.71 4.29L11.29 5.71L16 10.41L20 6.41V8H22V3H17Z" fill="black"/>
<path d="M20 15.52C18.76 15.52 17.55 15.32 16.43 14.95C16.08 14.83 15.68 14.92 15.41 15.19L13.21 17.39C10.38 15.94 8.06 13.63 6.62 10.8L8.82 8.6C9.1 8.32 9.18 7.93 9.07 7.58C8.7 6.46 8.5 5.26 8.5 4.01C8.5 3.46 8.05 3.01 7.5 3.01H4C3.45 3.01 3 3.46 3 4.01C3 13.4 10.61 21.01 20 21.01C20.55 21.01 21 20.56 21 20.01V16.52C21 15.97 20.55 15.52 20 15.52Z" fill="black"/>
</svg>
