<svg width="24" height="24" viewBox="0 0 24 24" fill="none" xmlns="http://www.w3.org/2000/svg">
<path d="M13 15.9961C13 15.0072 13.2924 14.04 13.8418 13.2178C14.3912 12.3955 15.1723 11.7554 16.0859 11.377C16.9996 10.9985 18.0047 10.8989 18.9746 11.0918C19.9445 11.2847 20.8359 11.7617 21.5352 12.4609C22.2344 13.1602 22.7114 14.0506 22.9043 15.0205C23.0972 15.9904 22.9976 16.9955 22.6191 17.9092C22.2407 18.8228 21.5996 19.6039 20.7773 20.1533C19.9551 20.7027 18.9889 20.9961 18 20.9961C16.6739 20.9961 15.4025 20.4689 14.4648 19.5312C13.5272 18.5936 13 17.3222 13 15.9961ZM14.5 15.5059L17.5625 18.5635L21.502 14.2627L20.166 12.998L17.5195 15.9199L15.8105 14.1992L14.5 15.5059ZM6.75586 17.252C5.36347 17.252 4.02753 16.6984 3.04297 15.7139C2.0584 14.7293 1.50586 13.3943 1.50586 12.002C1.50586 10.6096 2.0584 9.27461 3.04297 8.29004C4.02753 7.30547 5.36347 6.75195 6.75586 6.75195H17.2559C18.6478 6.75354 19.9826 7.30679 20.9668 8.29102C21.951 9.27524 22.5043 10.6101 22.5059 12.002V12.0361C21.845 11.2858 21.0083 10.7116 20.0703 10.3652C19.7832 9.87334 19.3725 9.46483 18.8789 9.18066C18.3853 8.89649 17.8254 8.74642 17.2559 8.74512H6.75586C5.89245 8.74512 5.06365 9.08772 4.45312 9.69824C3.8426 10.3088 3.5 11.1376 3.5 12.001C3.5 12.8644 3.8426 13.6922 4.45312 14.3027C5.06365 14.9133 5.89245 15.2559 6.75586 15.2559H12.0508C12.0214 15.5031 12.0065 15.752 12.0059 16.001C12.0048 16.4217 12.0479 16.8413 12.1348 17.2529L6.75586 17.252ZM6.80469 13.0518V10.9521H14.7656C13.944 11.4817 13.2623 12.2018 12.7793 13.0518H6.80469Z" fill="black"/>
</svg>
