<svg width="24" height="24" viewBox="0 0 24 24" fill="none" xmlns="http://www.w3.org/2000/svg">
<path d="M11.496 17C11.496 15.8133 11.8475 14.6537 12.5067 13.667C13.166 12.6803 14.1037 11.9112 15.2001 11.457C16.2965 11.0029 17.503 10.8837 18.6669 11.1152C19.8308 11.3467 20.8991 11.9187 21.7382 12.7578C22.5773 13.5969 23.1493 14.6652 23.3808 15.8291C23.6123 16.993 23.4931 18.1995 23.039 19.2959C22.5848 20.3923 21.8157 21.33 20.829 21.9893C19.8423 22.6485 18.6827 23 17.496 23C15.9051 22.9987 14.3797 22.3661 13.2548 21.2412C12.1299 20.1163 11.4973 18.5909 11.496 17ZM13.496 18.5H21.496V15.5H13.496V18.5ZM7.996 22V20H10.0751C10.3683 20.7196 10.7635 21.3932 11.2489 22H7.996ZM1.996 22V18.5H3.996V20H5.996V22H1.996ZM3.996 16.5H1.996V13H5.996V15H3.996V16.5ZM7.996 15V13H10.5653C10.2021 13.6264 9.9253 14.2992 9.74307 15H7.996ZM1.996 11V2H21.996V10.3818C20.5272 9.3838 18.7683 8.90252 16.996 9.01367C15.2237 9.12483 13.5386 9.82236 12.206 10.9961L1.996 11Z" fill="black"/>
</svg>
