<svg width="24" height="24" viewBox="0 0 24 24" fill="none" xmlns="http://www.w3.org/2000/svg">
<path d="M12 2C9.34784 2 6.8043 3.05357 4.92893 4.92893C3.05357 6.8043 2 9.34784 2 12C2 14.6522 3.05357 17.1957 4.92893 19.0711C6.8043 20.9464 9.34784 22 12 22C12.663 22 13.2989 21.7366 13.7678 21.2678C14.2366 20.7989 14.5 20.163 14.5 19.5C14.4958 18.8842 14.2684 18.2909 13.86 17.83C13.7799 17.7383 13.734 17.6217 13.73 17.5C13.73 17.3674 13.7827 17.2402 13.8764 17.1464C13.9702 17.0527 14.0974 17 14.23 17H16C17.5913 17 19.1174 16.3679 20.2426 15.2426C21.3679 14.1174 22 12.5913 22 11C22 6.04 17.51 2 12 2ZM17.5 13C17.2033 13 16.9133 12.912 16.6666 12.7472C16.42 12.5824 16.2277 12.3481 16.1142 12.074C16.0007 11.7999 15.9709 11.4983 16.0288 11.2074C16.0867 10.9164 16.2296 10.6491 16.4393 10.4393C16.6491 10.2296 16.9164 10.0867 17.2074 10.0288C17.4983 9.97094 17.7999 10.0006 18.074 10.1142C18.3481 10.2277 18.5824 10.42 18.7472 10.6666C18.912 10.9133 19 11.2033 19 11.5C19 11.8978 18.842 12.2794 18.5607 12.5607C18.2794 12.842 17.8978 13 17.5 13ZM14.5 9C14.2033 9 13.9133 8.91203 13.6666 8.7472C13.42 8.58238 13.2277 8.34811 13.1142 8.07403C13.0006 7.79994 12.9709 7.49834 13.0288 7.20736C13.0867 6.91639 13.2296 6.64912 13.4393 6.43934C13.6491 6.22956 13.9164 6.0867 14.2074 6.02882C14.4983 5.97094 14.7999 6.00065 15.074 6.11418C15.3481 6.22771 15.5824 6.41997 15.7472 6.66664C15.912 6.91332 16 7.20333 16 7.5C16 7.89782 15.842 8.27936 15.5607 8.56066C15.2794 8.84196 14.8978 9 14.5 9ZM5 11.5C5 11.2033 5.08797 10.9133 5.2528 10.6666C5.41762 10.42 5.65189 10.2277 5.92597 10.1142C6.20006 10.0006 6.50166 9.97094 6.79264 10.0288C7.08361 10.0867 7.35088 10.2296 7.56066 10.4393C7.77044 10.6491 7.9133 10.9164 7.97118 11.2074C8.02906 11.4983 7.99935 11.7999 7.88582 12.074C7.77229 12.3481 7.58003 12.5824 7.33336 12.7472C7.08668 12.912 6.79667 13 6.5 13C6.10218 13 5.72064 12.842 5.43934 12.5607C5.15804 12.2794 5 11.8978 5 11.5ZM11 7.5C11 7.79667 10.912 8.08668 10.7472 8.33335C10.5824 8.58003 10.3481 8.77229 10.074 8.88582C9.79994 8.99935 9.49834 9.02906 9.20736 8.97118C8.91639 8.9133 8.64912 8.77044 8.43934 8.56066C8.22956 8.35088 8.0867 8.08361 8.02882 7.79264C7.97094 7.50166 8.00065 7.20006 8.11418 6.92597C8.22771 6.65189 8.41997 6.41762 8.66665 6.2528C8.91332 6.08797 9.20333 6 9.5 6C9.89782 6 10.2794 6.15804 10.5607 6.43934C10.842 6.72064 11 7.10218 11 7.5Z" fill="black"/>
</svg>
