<svg width="24" height="24" viewBox="0 0 24 24" fill="none" xmlns="http://www.w3.org/2000/svg">
<path d="M18 8.00099H16.9995V5.99999C16.9995 4.67404 16.4728 3.4024 15.5352 2.46481C14.5976 1.52722 13.3259 1.00049 12 1.00049C10.674 1.00049 9.4024 1.52722 8.46481 2.46481C7.52722 3.4024 7.00049 4.67404 7.00049 5.99999V8.00099H5.99999C5.47018 8.00257 4.96251 8.21374 4.58788 8.58838C4.21324 8.96301 4.00207 9.47067 4.00049 10.0005V20.001C4.00207 20.5308 4.21324 21.0385 4.58788 21.4131C4.96251 21.7877 5.47018 21.9989 5.99999 22.0005H18C18.5298 21.9989 19.0375 21.7877 19.4121 21.4131C19.7867 21.0385 19.9979 20.5308 19.9995 20.001V10.0005C19.9979 9.47067 19.7867 8.96301 19.4121 8.58838C19.0375 8.21374 18.5298 8.00257 18 8.00099ZM12 17.001C11.6045 17.001 11.2179 16.8837 10.8891 16.664C10.5603 16.4443 10.304 16.132 10.1527 15.7667C10.0014 15.4013 9.96176 14.9993 10.0389 14.6114C10.1161 14.2235 10.3065 13.8673 10.5861 13.5876C10.8658 13.308 11.222 13.1176 11.6099 13.0404C11.9978 12.9633 12.3998 13.0029 12.7652 13.1542C13.1305 13.3055 13.4428 13.5618 13.6625 13.8906C13.8822 14.2194 13.9995 14.606 13.9995 15.0015C13.9979 15.5313 13.7867 16.039 13.4121 16.4136C13.0375 16.7882 12.5298 16.9994 12 17.001ZM15.1005 8.00099H8.90099V5.99999C8.91881 5.18969 9.25322 4.41859 9.8326 3.85182C10.412 3.28505 11.1902 2.96768 12.0007 2.96768C12.8112 2.96768 13.5895 3.28505 14.1689 3.85182C14.7483 4.41859 15.0827 5.18969 15.1005 5.99999V8.00099Z" fill="black"/>
</svg>
