<svg width="24" height="24" viewBox="0 0 24 24" fill="none" xmlns="http://www.w3.org/2000/svg">
<path d="M4.59961 19.8C4.17583 19.7982 3.77036 19.629 3.4707 19.3293C3.17104 19.0297 3.00184 18.6242 3 18.2004L3.00879 8.59984C3.00879 8.1767 3.17704 7.77079 3.47559 7.47093C3.77413 7.17107 4.17843 7.00208 4.60156 7.00023H17.4023C17.6125 7.00023 17.8205 7.04189 18.0146 7.1223C18.2088 7.20271 18.3846 7.32041 18.5332 7.46898C18.6818 7.61755 18.7995 7.79341 18.8799 7.98753C18.9603 8.18165 19.002 8.38972 19.002 8.59984V18.2004C19.002 18.4105 18.9603 18.6186 18.8799 18.8127C18.7995 19.0068 18.6818 19.1827 18.5332 19.3313C18.3846 19.4799 18.2088 19.5976 18.0146 19.678C17.8205 19.7584 17.6125 19.8 17.4023 19.8H4.59961ZM4.59961 10.2004L11 14.2004L17.4004 10.2004V8.59984L11 12.5998L4.59961 8.59984V10.2004ZM19 5.00023C19 4.60467 19.1172 4.2178 19.3369 3.8889C19.5567 3.56 19.8689 3.30395 20.2344 3.15257C20.5998 3.0012 21.0027 2.96114 21.3906 3.03832C21.7786 3.11549 22.1344 3.30646 22.4141 3.58617C22.6938 3.86587 22.8847 4.22164 22.9619 4.6096C23.0391 4.99757 22.999 5.4004 22.8477 5.76585C22.6963 6.13131 22.4402 6.44355 22.1113 6.66332C21.7824 6.88308 21.3956 7.00023 21 7.00023C20.4696 7.00023 19.961 6.78936 19.5859 6.41429C19.2109 6.03922 19 5.53066 19 5.00023Z" fill="black"/>
</svg>
