<svg width="24" height="24" viewBox="0 0 24 24" fill="none" xmlns="http://www.w3.org/2000/svg">
<path d="M19.0392 4.5492L17.6196 5.97C16.1347 4.78391 14.3127 4.09782 12.4143 4.00989C10.5158 3.92195 8.63821 4.43666 7.05 5.4804L8.5092 6.9396C9.84184 6.16831 11.3919 5.85869 12.9186 6.05886C14.4453 6.25902 15.8631 6.95776 16.9519 8.04652C18.0406 9.13529 18.7394 10.5531 18.9395 12.0798C19.1397 13.6065 18.8301 15.1566 18.0588 16.4892L19.5084 17.9388C20.5571 16.3564 21.0757 14.4817 20.9894 12.5853C20.9032 10.6889 20.2164 8.86904 19.0284 7.3884L20.448 5.9688L19.0392 4.5492ZM15 0.999603H9V3H15V0.999603ZM10.9992 9.4392L12.9996 11.4396V7.9992H10.9992V9.4392ZM3.0192 3.9996L1.7496 5.2692L4.5 8.0292C3.35229 9.76049 2.83877 11.8355 3.04653 13.9022C3.25429 15.969 4.17054 17.9002 5.63989 19.3684C7.10923 20.8367 9.04119 21.7514 11.1081 21.9576C13.175 22.1638 15.2496 21.6486 16.98 20.4996L19.4796 22.9992L20.7492 21.7296L13.0392 14.0196L3.0192 3.9996ZM11.9988 19.9992C10.7683 19.999 9.55954 19.6744 8.49446 19.0581C7.42937 18.4419 6.54556 17.5557 5.93213 16.489C5.31869 15.4223 4.99731 14.2127 5.00038 12.9822C5.00345 11.7516 5.33086 10.5437 5.9496 9.48L15.51 19.0404C14.4475 19.6698 13.2349 20.0011 12 19.9992H11.9988Z" fill="black"/>
</svg>
