<svg width="16" height="16" viewBox="0 0 16 16" fill="none" xmlns="http://www.w3.org/2000/svg">
<g id="ico_0058_link">
<path id="Vector" d="M2.33333 8C2.33386 7.42522 2.5622 6.87408 2.96832 6.46734C3.37444 6.06059 3.92522 5.83141 4.5 5.83H7.3V4.5H4.5C3.57174 4.5 2.6815 4.86875 2.02513 5.52513C1.36875 6.1815 1 7.07174 1 8C1 8.92826 1.36875 9.8185 2.02513 10.4749C2.6815 11.1313 3.57174 11.5 4.5 11.5H7.3V10.17H4.5C3.92522 10.1686 3.37444 9.93941 2.96832 9.53266C2.5622 9.12592 2.33386 8.57478 2.33333 8ZM5.2 8.7H10.8V7.3H5.2V8.7ZM11.5 4.5H8.7V5.83H11.5C12.0755 5.83 12.6275 6.05862 13.0344 6.46558C13.4414 6.87253 13.67 7.42448 13.67 8C13.67 8.57552 13.4414 9.12747 13.0344 9.53442C12.6275 9.94138 12.0755 10.17 11.5 10.17H8.7V11.5H11.5C12.4283 11.5 13.3185 11.1313 13.9749 10.4749C14.6313 9.8185 15 8.92826 15 8C15 7.07174 14.6313 6.1815 13.9749 5.52513C13.3185 4.86875 12.4283 4.5 11.5 4.5Z" fill="#808080"/>
</g>
</svg>
