<svg width="24" height="24" viewBox="0 0 24 24" fill="none" xmlns="http://www.w3.org/2000/svg">
<path d="M2.58601 20.49C2.50872 20.49 2.43218 20.4747 2.36082 20.445C2.28946 20.4153 2.22471 20.3718 2.17024 20.317C2.11577 20.2621 2.07268 20.197 2.04347 20.1255C2.01426 20.0539 1.99949 19.9773 2.00001 19.9V14.251C1.99922 13.8437 2.07888 13.4402 2.23439 13.0638C2.3899 12.6873 2.61821 12.3452 2.90623 12.0572C3.19425 11.7692 3.5363 11.5409 3.91276 11.3854C4.28923 11.2299 4.6927 11.1502 5.10002 11.151C4.44554 11.1505 3.818 10.8903 3.35512 10.4276C2.89223 9.96492 2.63182 9.33748 2.63103 8.683C2.63182 8.02842 2.8922 7.40089 3.35506 6.93803C3.81791 6.47518 4.44544 6.2148 5.10002 6.214C5.7546 6.2148 6.38213 6.47518 6.84498 6.93803C7.30784 7.40089 7.56822 8.02842 7.56901 8.683C7.56822 9.33748 7.30781 9.96492 6.84492 10.4276C6.38204 10.8903 5.7545 11.1505 5.10002 11.151H6.91402C7.22386 11.151 7.52353 11.0404 7.75902 10.839L10.293 8.668L10.31 8.65401C10.4108 8.57405 10.5322 8.52415 10.6601 8.51006C10.788 8.49596 10.9173 8.51823 11.0331 8.57431C11.1489 8.63039 11.2466 8.71802 11.3148 8.8271C11.3831 8.93619 11.4192 9.06231 11.419 9.19099V11.44C11.4191 11.5392 11.3976 11.6372 11.3562 11.7273C11.3148 11.8174 11.2543 11.8975 11.179 11.962L8.197 14.517V19.896C8.19714 19.973 8.18208 20.0493 8.15269 20.1206C8.1233 20.1918 8.08017 20.2565 8.02574 20.311C7.97131 20.3655 7.90666 20.4088 7.83549 20.4383C7.76433 20.4678 7.68805 20.483 7.61101 20.483L2.58601 20.49ZM16.394 20.49C16.317 20.4901 16.2407 20.4751 16.1694 20.4457C16.0982 20.4163 16.0335 20.3732 15.979 20.3187C15.9245 20.2643 15.8812 20.1996 15.8517 20.1285C15.8222 20.0573 15.807 19.981 15.807 19.904V14.525L12.826 11.97C12.7507 11.9055 12.6902 11.8254 12.6488 11.7353C12.6074 11.6452 12.586 11.5472 12.586 11.448V9.2C12.5858 9.07131 12.6219 8.94519 12.6902 8.83611C12.7584 8.72702 12.8561 8.6394 12.9719 8.58331C13.0877 8.52723 13.217 8.50496 13.3449 8.51906C13.4728 8.53315 13.5942 8.58304 13.695 8.66299L13.712 8.677L16.246 10.848C16.4811 11.0495 16.7804 11.1605 17.09 11.161H18.905C19.3123 11.1602 19.7158 11.2399 20.0923 11.3954C20.4687 11.5509 20.8108 11.7792 21.0988 12.0672C21.3868 12.3552 21.6151 12.6973 21.7706 13.0737C21.9262 13.4502 22.0058 13.8537 22.005 14.261V19.91C22.005 20.0654 21.9433 20.2145 21.8334 20.3244C21.7235 20.4343 21.5744 20.496 21.419 20.496L16.394 20.49ZM16.435 8.69C16.4358 8.03543 16.6962 7.40789 17.159 6.94504C17.6219 6.48218 18.2494 6.22179 18.904 6.22099C19.5585 6.22179 20.1859 6.48221 20.6486 6.9451C21.1113 7.40798 21.3715 8.03552 21.372 8.69C21.3712 9.34431 21.1109 9.9716 20.6483 10.4343C20.1856 10.8969 19.5583 11.1572 18.904 11.158C18.2495 11.1575 17.622 10.8973 17.1591 10.4346C16.6962 9.97192 16.4358 9.34449 16.435 8.69ZM9.07503 7.138L7.82002 5.882C7.76545 5.82765 7.72213 5.76306 7.69258 5.69193C7.66303 5.62079 7.64784 5.54452 7.64784 5.4675C7.64784 5.39047 7.66303 5.3142 7.69258 5.24307C7.72213 5.17194 7.76545 5.10735 7.82002 5.05299C7.87436 4.99857 7.93889 4.95539 8.00993 4.92593C8.08097 4.89647 8.15712 4.88132 8.23402 4.88132C8.31093 4.88132 8.38707 4.89647 8.45811 4.92593C8.52915 4.95539 8.59369 4.99857 8.64802 5.05299L9.90401 6.30901C9.95846 6.36343 10.0017 6.42804 10.0311 6.49916C10.0606 6.57028 10.0758 6.64651 10.0758 6.7235C10.0758 6.80048 10.0606 6.87672 10.0311 6.94785C10.0017 7.01897 9.95846 7.08358 9.90401 7.138C9.84973 7.19253 9.78523 7.23579 9.71419 7.2653C9.64314 7.29482 9.56694 7.31001 9.49 7.31C9.33448 7.31023 9.18524 7.24873 9.07503 7.13901V7.138ZM14.096 7.138C14.0416 7.08358 13.9984 7.01897 13.9689 6.94785C13.9394 6.87672 13.9242 6.80048 13.9242 6.7235C13.9242 6.64651 13.9394 6.57028 13.9689 6.49916C13.9984 6.42804 14.0416 6.36343 14.096 6.30901L15.351 5.05299C15.4054 4.99854 15.4701 4.95535 15.5412 4.92587C15.6123 4.8964 15.6885 4.88123 15.7655 4.88123C15.8425 4.88123 15.9187 4.8964 15.9899 4.92587C16.061 4.95535 16.1256 4.99854 16.18 5.05299C16.2345 5.10741 16.2777 5.17204 16.3071 5.24316C16.3366 5.31429 16.3518 5.39051 16.3518 5.4675C16.3518 5.54449 16.3366 5.62071 16.3071 5.69183C16.2777 5.76296 16.2345 5.82758 16.18 5.882L14.924 7.138C14.8697 7.19235 14.8051 7.23543 14.7341 7.26477C14.663 7.29411 14.5869 7.30915 14.51 7.30901C14.3563 7.30851 14.209 7.24742 14.1 7.13901L14.096 7.138ZM11.414 6.095V3.58501C11.4143 3.42976 11.4761 3.28096 11.586 3.17128C11.6959 3.0616 11.8448 3 12 3C12.077 3 12.1532 3.01515 12.2243 3.0446C12.2954 3.07405 12.36 3.11722 12.4144 3.17163C12.4688 3.22605 12.5119 3.29064 12.5414 3.36174C12.5708 3.43284 12.586 3.50904 12.586 3.586V6.09599C12.5861 6.17303 12.5711 6.24934 12.5417 6.32056C12.5123 6.39177 12.4691 6.4565 12.4147 6.51102C12.3603 6.56554 12.2957 6.60878 12.2245 6.63829C12.1533 6.6678 12.0771 6.683 12 6.683C11.8451 6.683 11.6965 6.62167 11.5867 6.51242C11.4769 6.40317 11.4148 6.2549 11.414 6.10001V6.095Z" fill="black"/>
</svg>
