<svg width="24" height="24" viewBox="0 0 24 24" fill="none" xmlns="http://www.w3.org/2000/svg">
<path d="M18 22V16.9882H15L19 12.9951L23 16.9882H20V22H18ZM1 9.99996C1 8.41737 1.4702 6.87041 2.34961 5.55464C3.22901 4.23888 4.47718 3.21362 5.93945 2.60836C7.40173 2.00309 9.01239 1.84492 10.5645 2.15425C12.1165 2.46358 13.5417 3.22604 14.6602 4.34566C15.7787 5.46528 16.5399 6.89192 16.8477 8.44429C17.1554 9.99667 16.9954 11.6057 16.3887 13.0673C15.7819 14.529 14.7561 15.7771 13.4395 16.6552C12.1228 17.5333 10.5748 18.0015 8.99219 18C6.87184 17.9978 4.83841 17.1543 3.33984 15.6543C1.84128 14.1542 0.999999 12.1203 1 9.99996ZM2.59961 9.99996C2.6006 11.2655 2.9778 12.5028 3.68164 13.5546C4.38548 14.6065 5.38515 15.4255 6.55469 15.9091C7.72422 16.3928 9.0108 16.519 10.252 16.2714C11.4931 16.0239 12.6328 15.4138 13.5273 14.5185C14.4219 13.6233 15.0308 12.4835 15.2773 11.2421C15.5239 10.0008 15.3967 8.71403 14.9121 7.54488C14.4276 6.37572 13.6071 5.37583 12.5547 4.67281C11.5023 3.96979 10.2656 3.59468 9 3.59468C8.15912 3.59468 7.32564 3.76102 6.54883 4.08296C5.77202 4.40491 5.06702 4.87681 4.47266 5.47164C3.8783 6.06646 3.40727 6.77172 3.08594 7.54878C2.7646 8.32585 2.59895 9.15908 2.59961 9.99996ZM8.19922 10.7929V5.99996H9.40039V10.1943L13 12.331L12.4004 13.3203L8.19922 10.7929Z" fill="black"/>
</svg>
