<svg width="24" height="24" viewBox="0 0 24 24" fill="none" xmlns="http://www.w3.org/2000/svg">
<path d="M3 3.99121C3 3.24021 3.65241 3.00098 4.19141 3.00098H7.6543C7.91605 3.00358 8.16646 3.10885 8.35156 3.29395C8.53666 3.47904 8.64193 3.72945 8.64453 3.99121C8.63918 5.18968 8.82755 6.38044 9.20312 7.51855C9.25778 7.69484 9.26485 7.88282 9.22266 8.0625C9.18046 8.24218 9.0903 8.40749 8.96289 8.54102L7.01172 10.1973C8.50126 13.1663 10.922 15.5647 13.9043 17.0273L15.4707 15.0566C15.6004 14.9259 15.7641 14.8354 15.9434 14.793C16.1226 14.7506 16.3098 14.7577 16.4844 14.8164C17.623 15.1888 18.8137 15.3796 20.0117 15.3809C20.2725 15.3834 20.5221 15.4881 20.707 15.6719C20.892 15.8557 20.9978 16.1045 21.002 16.3652V19.8184C21.0199 19.9617 21.0077 20.1075 20.9668 20.2461C20.9259 20.3846 20.8566 20.5125 20.7637 20.623C20.6707 20.7336 20.5572 20.8245 20.4277 20.8887C20.2983 20.9528 20.156 20.9891 20.0117 20.9961C15.5123 20.9598 11.2077 19.1576 8.02539 15.9766C4.84306 12.7955 3.03816 8.49062 3 3.99121ZM12.5 5.39062L13.918 3.97852L17.4453 7.50684L22.4707 2.00684L23.9473 3.35352L17.5059 10.4053L12.5 5.39062Z" fill="black"/>
</svg>
