<svg width="24" height="24" viewBox="0 0 24 24" fill="none" xmlns="http://www.w3.org/2000/svg">
<g clip-path="url(#clip0_122_710)">
<path d="M0 11.9991C0 9.62593 0.703811 7.30594 2.02225 5.33276C3.34069 3.35957 5.21495 1.82145 7.40744 0.913292C9.59992 0.0051343 12.0128 -0.232229 14.3403 0.230745C16.6678 0.69372 18.8052 1.83653 20.4832 3.51459C22.1613 5.19264 23.3041 7.33095 23.7671 9.65848C24.23 11.986 23.9927 14.3979 23.0845 16.5904C22.1764 18.7829 20.6382 20.6571 18.6651 21.9756C16.6919 23.294 14.3719 23.9978 11.9988 23.9978C8.81763 23.9941 5.76857 22.729 3.51917 20.4796C1.26977 18.2302 0.00370484 15.1802 0 11.9991ZM0.749922 11.9991C0.749527 14.2241 1.40942 16.3991 2.64523 18.2494C3.88105 20.0996 5.63805 21.5417 7.69354 22.3935C9.74903 23.2453 12.0105 23.4687 14.1929 23.035C16.3752 22.6013 18.3804 21.5303 19.954 19.9572C21.5276 18.3842 22.5993 16.3802 23.0337 14.198C23.4682 12.0159 23.2453 9.75354 22.3942 7.69775C21.5431 5.64196 20.1018 3.88494 18.252 2.64846C16.4022 1.41199 14.2277 0.751595 12.0027 0.751199C9.02 0.753845 6.1598 1.94002 4.05036 4.04871C1.94092 6.1574 0.753629 9.01639 0.749922 11.9991ZM5.81287 11.3107L7.40646 9.72097L11.3709 13.6913L17.0275 7.49855L18.6904 9.01792L11.4451 16.9487L5.81287 11.3107Z" fill="black"/>
</g>
<defs>
<clipPath id="clip0_122_710">
<rect width="24" height="23.9978" fill="white"/>
</clipPath>
</defs>
</svg>
