<svg width="24" height="24" viewBox="0 0 24 24" fill="none" xmlns="http://www.w3.org/2000/svg">
<path fill-rule="evenodd" clip-rule="evenodd" d="M4.00049 19.001H9.48535L9.48486 19C8.54004 17.2803 7.99805 14.7285 7.99805 12.001C7.99805 9.26953 8.54053 6.71875 9.48486 5H4.00049C3.44922 5 3.00098 5.44824 3.00098 6V18.002C3.00098 18.5527 3.44922 19.001 4.00049 19.001ZM6.49805 12.001C6.49805 13.9746 6.7666 15.8779 7.2583 17.501H4.50098V6.5H7.25781C6.7666 8.12305 6.49805 10.0273 6.49805 12.001Z" fill="black"/>
<path fill-rule="evenodd" clip-rule="evenodd" d="M14.5132 19.001H20C20.5513 19.001 20.9995 18.5527 20.9995 18.002V6C20.9995 5.44824 20.5513 5 20 5H14.5142C15.457 6.71875 15.998 9.26953 15.998 12.001C15.998 14.7334 15.4565 17.2842 14.5132 19.001ZM19.4995 6.5V17.501H16.7397C17.23 15.8789 17.498 13.9756 17.498 12.001C17.498 10.0264 17.23 8.12207 16.7397 6.5H19.4995Z" fill="black"/>
</svg>
