<svg width="24" height="24" viewBox="0 0 24 24" fill="none" xmlns="http://www.w3.org/2000/svg">
<path d="M6.9 16.8H8.1V15.9H6.9V16.8Z" fill="black"/>
<path fill-rule="evenodd" clip-rule="evenodd" d="M4.79758 21.6036H19.1976C19.4954 21.6042 19.7836 21.4956 20.0062 21.2978C20.2288 21.1 20.3701 20.8272 20.4046 20.5314C20.4034 20.5102 20.4034 20.4881 20.4046 20.4669C20.4058 20.4457 20.4058 20.4248 20.4046 20.4036V3.60365C20.4046 3.44545 20.374 3.28916 20.3132 3.1431C20.2525 2.99704 20.1629 2.86439 20.0507 2.75287C19.9385 2.64134 19.8057 2.55259 19.6593 2.49271C19.5129 2.43283 19.3558 2.4027 19.1976 2.40365H4.80461C4.48635 2.40365 4.18122 2.53017 3.95618 2.75521C3.73113 2.98025 3.60461 3.28539 3.60461 3.60365V20.4036C3.60461 20.7207 3.73034 21.0249 3.95383 21.2497C4.17732 21.4746 4.48057 21.6017 4.79758 21.6036ZM6.17336 4.97943C6.28589 4.86691 6.43845 4.80365 6.59758 4.80365H17.3976C17.5567 4.80365 17.7093 4.86691 17.8218 4.97943C17.9343 5.09195 17.9976 5.24452 17.9976 5.40365V11.4036C17.9976 11.5628 17.9343 11.7153 17.8218 11.8279C17.7093 11.9404 17.5567 12.0036 17.3976 12.0036H6.59758C6.43845 12.0036 6.28589 11.9404 6.17336 11.8279C6.06084 11.7153 5.99758 11.5628 5.99758 11.4036V5.40365C5.99758 5.24452 6.06084 5.09195 6.17336 4.97943ZM9.6 15.9V15H13.2V15.9H11.85V18.6H10.95V15.9H9.6ZM6.6 15H8.4C8.55913 15 8.71174 15.0632 8.82426 15.1758C8.93679 15.2883 9 15.4409 9 15.6V18.6H8.1V17.7H6.9V18.6H6V15.6C6 15.4409 6.06321 15.2883 6.17574 15.1758C6.28826 15.0632 6.44087 15 6.6 15ZM14.7 15H17.4C17.5591 15 17.7117 15.0632 17.8243 15.1758C17.9368 15.2883 18 15.4409 18 15.6V18.6H17.1V15.894H16.5V18H15.6V15.9H15V18.6H14.1V15.6C14.1 15.4409 14.1632 15.2883 14.2757 15.1758C14.3883 15.0632 14.5409 15 14.7 15Z" fill="black"/>
</svg>
