<svg width="24" height="24" viewBox="0 0 24 24" fill="none" xmlns="http://www.w3.org/2000/svg">
<path d="M13.5 16.999C13.3674 16.999 13.2403 16.9463 13.1465 16.8525C13.0527 16.7588 13 16.6316 13 16.499V7.49902C13 7.36642 13.0527 7.23928 13.1465 7.14551C13.2403 7.05174 13.3674 6.99902 13.5 6.99902H16.5C16.6326 6.99902 16.7597 7.05174 16.8535 7.14551C16.9473 7.23928 17 7.36642 17 7.49902V16.499C17 16.6316 16.9473 16.7588 16.8535 16.8525C16.7597 16.9463 16.6326 16.999 16.5 16.999H13.5ZM7.5 16.999C7.36739 16.999 7.24025 16.9463 7.14648 16.8525C7.05272 16.7588 7 16.6316 7 16.499V7.49902C7 7.36642 7.05272 7.23928 7.14648 7.14551C7.24025 7.05174 7.36739 6.99902 7.5 6.99902H10.5C10.6326 6.99902 10.7597 7.05174 10.8535 7.14551C10.9473 7.23928 11 7.36642 11 7.49902V16.499C11 16.6316 10.9473 16.7588 10.8535 16.8525C10.7597 16.9463 10.6326 16.999 10.5 16.999H7.5Z" fill="black"/>
</svg>
