<svg width="24" height="24" viewBox="0 0 24 24" fill="none" xmlns="http://www.w3.org/2000/svg">
<path d="M20.01 15.38C18.8113 15.3794 17.6201 15.1904 16.48 14.82C16.3061 14.7611 16.1191 14.7523 15.9405 14.7948C15.7618 14.8372 15.5988 14.9291 15.47 15.06L13.9 17.03C10.9182 15.5681 8.49792 13.1689 7.01 10.2L8.96 8.54C9.08843 8.40753 9.17857 8.24274 9.22083 8.06314C9.26309 7.88353 9.25589 7.69584 9.2 7.52C8.82478 6.38109 8.63569 5.18912 8.64 3.99C8.6374 3.72824 8.53226 3.47794 8.34716 3.29284C8.16206 3.10774 7.91176 3.0026 7.65 3H4.19C3.65 3 3 3.24 3 3.99C3.0371 8.48986 4.84114 12.7949 8.02312 15.9769C11.2051 19.1589 15.5101 20.9629 20.01 21C20.1545 20.993 20.296 20.9562 20.4255 20.8919C20.5551 20.8277 20.67 20.7373 20.763 20.6265C20.856 20.5156 20.925 20.3868 20.9658 20.248C21.0066 20.1092 21.0182 19.9635 21 19.82V16.37C20.9974 16.1082 20.8923 15.8579 20.7072 15.6728C20.5221 15.4877 20.2718 15.3826 20.01 15.38Z" fill="black"/>
</svg>
