<svg width="24" height="24" viewBox="0 0 24 24" fill="none" xmlns="http://www.w3.org/2000/svg">
<path d="M6.49946 19.0041C4.85632 19.0475 3.23892 19.4222 1.7436 20.1047C1.66396 20.121 1.58271 20.1288 1.50141 20.1291C1.38492 20.1364 1.2691 20.106 1.17134 20.0422C1.112 19.9965 1.065 19.9368 1.03462 19.8684C1.00423 19.7999 0.991601 19.7253 0.997509 19.6506V5.00414C2.74604 4.04499 4.70257 3.5299 6.69673 3.50414C8.58455 3.41081 10.4487 3.95769 11.9877 5.05492C13.5924 4.10018 15.4126 3.56618 17.2788 3.50414C19.2902 3.44621 21.278 3.96402 23.0053 4.99632H22.9956H23.0053V19.5969C22.9939 19.7301 22.9347 19.8547 22.8393 19.9485C22.7439 20.0422 22.6172 20.0986 22.4838 20.1077C22.4036 20.107 22.3262 20.0866 22.2553 20.0491C20.7806 19.3169 19.1493 18.9563 17.5034 18.9983C15.5767 19.0528 13.691 19.5671 12.0034 20.4983C10.3739 19.4292 8.44583 18.9059 6.49946 19.0041ZM17.2749 5.45921C15.4137 5.52118 13.5982 6.05257 11.9975 7.00414V18.5041C13.6851 17.5729 15.5708 17.0586 17.4975 17.0041C18.6829 16.991 19.8632 17.1596 20.9975 17.5041V6.00414C19.8679 5.65191 18.6924 5.46742 17.5092 5.45628C17.4312 5.45528 17.3538 5.45621 17.2768 5.45921H17.2749ZM8.1479 13.8459L8.82759 15.4934H10.6987L7.25727 7.7932H5.4936L2.06587 15.4934H3.89009L4.57173 13.8459H8.1479ZM15.8901 15.3127C15.4842 15.3248 15.079 15.2467 14.7065 15.0852C14.3966 14.9495 14.1324 14.7281 13.9448 14.4465C13.766 14.1736 13.6725 13.8538 13.6752 13.5276C13.6659 13.2762 13.7183 13.0266 13.8276 12.8C13.9369 12.5735 14.0996 12.3769 14.3022 12.2278C14.873 11.8672 15.5451 11.7003 16.2182 11.7532H17.5834C17.5937 11.5925 17.5687 11.432 17.5092 11.2825C17.4497 11.1329 17.3575 10.9986 17.2397 10.8889C16.9462 10.67 16.5835 10.5628 16.2182 10.5881C15.9018 10.5897 15.5879 10.6401 15.2866 10.7366C15.0081 10.8251 14.7462 10.9607 14.5131 11.1369L13.8979 9.93675C14.2523 9.69509 14.6453 9.51527 15.06 9.4055C15.5126 9.2818 15.9795 9.2197 16.4487 9.21996C17.2102 9.17097 17.9634 9.40344 18.5639 9.87425C18.822 10.1305 19.0228 10.4397 19.1499 10.7805C19.2769 11.1213 19.3276 11.4862 19.3002 11.8489V15.2239H17.6948V14.4895C17.5193 14.747 17.2845 14.9579 17.0092 15.1037C16.7339 15.2496 16.4263 15.3259 16.1147 15.3264C16.0401 15.3258 15.966 15.3211 15.892 15.3118L15.8901 15.3127ZM15.351 13.4465C15.3475 13.5484 15.3681 13.6492 15.4135 13.7405C15.4589 13.8318 15.5274 13.9112 15.6108 13.97C15.8216 14.1054 16.0695 14.171 16.3198 14.1584C16.5939 14.1621 16.8642 14.0929 17.103 13.9582C17.3287 13.8206 17.4997 13.6087 17.5854 13.3586V12.758H16.392C15.7 12.757 15.353 12.9895 15.353 13.4455L15.351 13.4465ZM5.14399 12.4944L6.36274 9.5432L7.58345 12.4944H5.14399Z" fill="black"/>
</svg>
