<svg width="24" height="24" viewBox="0 0 24 24" fill="none" xmlns="http://www.w3.org/2000/svg">
<path d="M19 3H5C4.47005 3.00158 3.96227 3.2128 3.58753 3.58753C3.2128 3.96227 3.00158 4.47005 3 5V19C3.00158 19.5299 3.2128 20.0377 3.58753 20.4125C3.96227 20.7872 4.47005 20.9984 5 21H19C19.5299 20.9984 20.0377 20.7872 20.4125 20.4125C20.7872 20.0377 20.9984 19.5299 21 19V5C20.9984 4.47005 20.7872 3.96227 20.4125 3.58753C20.0377 3.2128 19.5299 3.00158 19 3ZM13.03 7.06L14.09 6L15.5 7.41L16.91 6L17.97 7.06L16.56 8.47L17.97 9.88L16.91 10.94L15.5 9.54L14.09 10.95L13.03 9.89L14.44 8.48L13.03 7.06ZM6.25 7.72H11.25V9.22H6.25V7.72ZM11.5 16H9.5V18H8V16H6V14.5H8V12.5H9.5V14.5H11.5V16ZM18 17.25H13V15.75H18V17.25ZM18 14.75H13V13.25H18V14.75Z" fill="black"/>
</svg>
