<svg width="24" height="24" viewBox="0 0 24 24" fill="none" xmlns="http://www.w3.org/2000/svg">
<path d="M11.6871 22.5938L6.79546 14.4346C6.76339 14.3796 6.74681 14.3175 6.74664 14.2539C6.74646 14.1903 6.76271 14.1274 6.79449 14.0723C6.82626 14.0171 6.87216 13.9722 6.9273 13.9404C6.98244 13.9087 7.04532 13.8914 7.10894 13.8916H16.8892C16.953 13.8909 17.0165 13.9078 17.0718 13.9395C17.1272 13.9711 17.1729 14.017 17.2046 14.0723C17.2364 14.1276 17.253 14.1901 17.2525 14.2539C17.252 14.3177 17.2344 14.3798 17.2017 14.4346L12.3101 22.5938C12.2771 22.6467 12.2319 22.6904 12.1773 22.7207C12.1227 22.751 12.061 22.7667 11.9986 22.7666C11.9361 22.7672 11.8746 22.752 11.8199 22.7217C11.7652 22.6914 11.7197 22.6471 11.6871 22.5938ZM18.8326 13.8232C18.862 13.7711 18.9044 13.7274 18.9556 13.6963L22.5005 11.4961L14.5005 20.7227L18.8326 13.8232ZM1.50152 11.499L5.04253 13.6992C5.0947 13.7276 5.13773 13.7703 5.16656 13.8223L9.49761 20.7217L1.50152 11.499ZM6.71148 12.8135C6.65557 12.8134 6.60045 12.8002 6.55035 12.7754C6.50024 12.7506 6.45642 12.7143 6.42242 12.6699C6.38875 12.6239 6.36606 12.5708 6.35601 12.5146C6.34596 12.4585 6.34919 12.4006 6.3648 12.3457L7.60601 7.99902H16.396L17.6363 12.3457C17.6521 12.4005 17.6551 12.4585 17.6451 12.5146C17.635 12.5708 17.6125 12.624 17.5787 12.6699C17.5447 12.7143 17.5008 12.7506 17.4507 12.7754C17.4006 12.8002 17.3455 12.8134 17.2896 12.8135H6.71148ZM18.6822 12.0654L16.941 5.97168C16.9168 5.88576 16.9245 5.79416 16.9634 5.71387L18.2505 3.13965C18.2793 3.08174 18.3233 3.03328 18.3775 2.99805C18.4317 2.96281 18.4936 2.94221 18.5582 2.93945C18.6227 2.93669 18.6877 2.95194 18.7447 2.98242C18.8017 3.01291 18.8488 3.05804 18.8824 3.11328L22.9449 9.61328C22.9702 9.65383 22.9869 9.69891 22.9947 9.74609C23.0024 9.79328 23.0009 9.84118 22.9898 9.8877C22.9787 9.93421 22.9584 9.97796 22.9302 10.0166C22.9021 10.0552 22.8666 10.0885 22.8257 10.1133L19.2183 12.2754C19.1634 12.3114 19.0995 12.3302 19.0337 12.3301C18.9541 12.3307 18.8765 12.3049 18.813 12.2568C18.7496 12.2087 18.7031 12.1413 18.6822 12.0645V12.0654ZM4.78277 12.2773L1.17535 10.1152C1.13413 10.0908 1.09843 10.058 1.06988 10.0195C1.04132 9.98104 1.02078 9.93717 1.00933 9.89062C0.997881 9.84408 0.996034 9.79637 1.00347 9.74902C1.01091 9.70167 1.02713 9.65603 1.0523 9.61523L5.11773 3.11523C5.15141 3.06002 5.19934 3.01483 5.2564 2.98438C5.31346 2.95392 5.37733 2.93865 5.44195 2.94141C5.50657 2.94416 5.56933 2.9648 5.62359 3C5.67785 3.0352 5.72168 3.08372 5.75054 3.1416L7.03374 5.71582C7.05451 5.75516 7.06707 5.79845 7.07085 5.84277C7.07463 5.88709 7.06903 5.93135 7.05523 5.97363L5.31499 12.0674C5.2944 12.1438 5.24878 12.2106 5.18609 12.2588C5.1234 12.307 5.04644 12.3336 4.96734 12.334C4.90192 12.3333 4.83857 12.3135 4.78472 12.2764L4.78277 12.2773ZM7.38726 4L6.648 2.52344C6.62109 2.46784 6.60852 2.40543 6.61187 2.34375C6.61522 2.28207 6.63378 2.22228 6.66656 2.16992C6.69933 2.11756 6.74535 2.07489 6.79937 2.04492C6.85338 2.01496 6.91338 1.99912 6.97515 1.99902H17.023C17.0845 1.99912 17.1449 2.0152 17.1988 2.04492C17.2526 2.07464 17.2978 2.11695 17.3306 2.16895C17.3631 2.22163 17.3818 2.28193 17.3853 2.34375C17.3888 2.40557 17.3765 2.46743 17.3502 2.52344L16.6109 4H7.38726Z" fill="black"/>
</svg>
