<svg width="24" height="24" viewBox="0 0 24 24" fill="none" xmlns="http://www.w3.org/2000/svg">
<path d="M16.0312 18.9578C14.741 19.4286 13.3773 19.6674 12.0038 19.6629H11.9511C11.0536 19.6618 10.1592 19.5589 9.2851 19.3553L4.83002 21.2606C4.73026 21.3038 4.62233 21.3267 4.51361 21.327C4.30766 21.3259 4.10948 21.2503 3.95502 21.1141C3.83776 21.0108 3.7512 20.8762 3.70697 20.7264C3.66274 20.5765 3.66263 20.4178 3.70502 20.2674L4.64056 16.9666C3.82585 16.267 3.16976 15.4022 2.71478 14.4295C2.2598 13.4568 2.01666 12.3988 2.00189 11.325C2.02173 9.6142 2.6321 7.96305 3.73041 6.65118L1.41791 4.33575L3.18158 2.5672L20.8632 20.2479L19.0937 22.0135L16.0312 18.9578ZM19.9765 16.3494L7.51556 3.88849C8.93668 3.29377 10.4633 2.99077 12.0038 2.99884C17.5178 2.99884 22.0038 6.73387 22.0038 11.3309C21.9868 13.1983 21.2639 14.991 19.9824 16.3494H19.9765Z" fill="black"/>
</svg>
