<svg width="24" height="24" viewBox="0 0 24 24" fill="none" xmlns="http://www.w3.org/2000/svg">
<path d="M18.001 13C18.001 14.1867 17.6491 15.3467 16.9898 16.3334C16.3305 17.3201 15.3935 18.0892 14.2971 18.5433C13.2007 18.9974 11.9943 19.1162 10.8305 18.8847C9.66657 18.6532 8.59747 18.0818 7.75835 17.2426C6.91924 16.4035 6.34779 15.3344 6.11628 14.1705C5.88477 13.0067 6.00359 11.8003 6.45772 10.7039C6.91184 9.60754 7.68088 8.67047 8.66757 8.01118C9.65427 7.35189 10.8143 7 12.001 7V11L17.001 6L12.001 1V5C10.4187 5 8.87203 5.46919 7.55643 6.34824C6.24084 7.22729 5.21546 8.47672 4.60996 9.93853C4.00446 11.4003 3.84603 13.0089 4.15471 14.5607C4.46339 16.1126 5.22532 17.538 6.34414 18.6569C7.46296 19.7757 8.88842 20.5376 10.4403 20.8463C11.9921 21.155 13.6007 20.9965 15.0625 20.391C16.5243 19.7855 17.7737 18.7602 18.6528 17.4446C19.5318 16.129 20.001 14.5823 20.001 13H18.001Z" fill="black"/>
</svg>
