<svg width="24" height="24" viewBox="0 0 24 24" fill="none" xmlns="http://www.w3.org/2000/svg">
<path d="M15.025 9.925L18 5L17 2H7L6 5L8.975 9.925C9.14203 10.201 9.23982 10.5133 9.26001 10.8353C9.2802 11.1573 9.22219 11.4794 9.09095 11.7741C8.9597 12.0688 8.75911 12.3274 8.50628 12.5278C8.25345 12.7282 7.95589 12.8645 7.639 12.925L3.625 13.691C3.16814 13.7782 2.75597 14.0219 2.45938 14.3802C2.1628 14.7385 2.00036 15.1889 2 15.654V21C2 21.2652 2.10536 21.5196 2.29289 21.7071C2.48043 21.8946 2.73478 22 3 22H21C21.2652 22 21.5196 21.8946 21.7071 21.7071C21.8946 21.5196 22 21.2652 22 21V15.654C21.9999 15.1887 21.8375 14.738 21.5409 14.3796C21.2443 14.0211 20.832 13.7772 20.375 13.69L16.361 12.924C16.0443 12.8634 15.7469 12.7272 15.4941 12.5268C15.2414 12.3265 15.0409 12.068 14.9097 11.7734C14.7785 11.4789 14.7204 11.1569 14.7405 10.8351C14.7606 10.5132 14.8582 10.201 15.025 9.925ZM20 20H4V18H20V20Z" fill="black"/>
</svg>
